<svg xmlns="http://www.w3.org/2000/svg" xmlns:xlink="http://www.w3.org/1999/xlink" width="190" height="140" viewBox="0 0 190 140">
  <defs>
    <clipPath id="clip-path">
      <rect id="Rectángulo_420013" data-name="Rectángulo 420013" width="190" height="140" transform="translate(180 3313)" fill="#fff" stroke="#707070" stroke-width="1"/>
    </clipPath>
    <clipPath id="clip-path-2">
      <path id="Trazado_1083274" data-name="Trazado 1083274" d="M184.89,181.49h18.791v39.983H184.89Z" transform="translate(-184.89 -181.49)"/>
    </clipPath>
  </defs>
  <g id="Enmascarar_grupo_1153295" data-name="Enmascarar grupo 1153295" transform="translate(-180 -3313)" clip-path="url(#clip-path)">
    <g id="Creative_Idea" data-name="Creative Idea" transform="translate(155.954 3282.792)">
      <path id="Trazado_1083271" data-name="Trazado 1083271" d="M299.042,253.208l-26.806,30.907a202.721,202.721,0,0,1-20.45-21.041c-3.921-4.67-5.174-6.607-7.943-8.936-6.118-5.144-15.5-8.741-30.38-7.744a33.857,33.857,0,0,0,2.1,19.115,32.78,32.78,0,0,0,8.4,11.266c22.516,20.582,41.556,38,57.193,31.983,5.881-2.258,9.407-7.928,16.481-19.261A124.335,124.335,0,0,0,312,256.67Z" transform="translate(-110.381 -133.786)" fill="#86ebf9"/>
      <g id="Grupo_1214091" data-name="Grupo 1214091" transform="translate(92.004 88.082)" clip-path="url(#clip-path-2)">
        <path id="Trazado_1083272" data-name="Trazado 1083272" d="M184.89,181.49h18.791v39.983H184.89Z" transform="translate(-184.89 -181.49)" fill="#955d43"/>
        <path id="Trazado_1083273" data-name="Trazado 1083273" d="M186.81,201.48c3.274,9.38,11.86,15.179,21.47,15.706V205.754Z" transform="translate(-186.088 -193.958)" fill="#834a27"/>
      </g>
      <path id="Trazado_1083275" data-name="Trazado 1083275" d="M192.567,105.3c-1.076-3.97-2.389-6.291-3.01-8.9-1.505-6.449-1.505-11.54-6.8-15.333a22.915,22.915,0,0,0-5.543-3.6c-7.413-3.973-18.584-2.54-25.323,4.169-7.762,7.725-6.084,18.908-5.667,21.685,1.949,12.966,12.191,20.409,16.579,23.058a33.617,33.617,0,0,0,7.838,4.2c3.1,1.129,11.42,4.139,16.492-.23,1.324-1.129,3.01-3.763,4.579-9.625C193.764,113.167,193.651,109.273,192.567,105.3Z" transform="translate(-68.493 -27.151)" fill="#955d43"/>
      <g id="Grupo_1214092" data-name="Grupo 1214092" transform="translate(95.621 64.663)">
        <path id="Trazado_1083276" data-name="Trazado 1083276" d="M236.168,157.316a.188.188,0,0,1-.113-.339c1.245-.948,1.832-1.817,1.742-2.581-.211-1.757-3.68-1.622-5.644-7.5a.189.189,0,1,1,.357-.12c1.93,5.795,5.411,5.546,5.644,7.574.109.907-.527,1.881-1.881,2.924A.2.2,0,0,1,236.168,157.316Z" transform="translate(-217.98 -136.339)" fill="#2d1929"/>
        <path id="Trazado_1083277" data-name="Trazado 1083277" d="M248.618,143.493c-.937.214-1.968-.79-2.3-2.258s.166-2.8,1.1-3.01,1.972.794,2.3,2.258-.166,2.8-1.106,3.01Z" transform="translate(-226.761 -131.068)" fill="#2d1929"/>
        <path id="Trazado_1083278" data-name="Trazado 1083278" d="M209.729,152.313c-.941.214-1.968-.79-2.3-2.258s.166-2.8,1.106-3.01,1.968.794,2.3,2.258S210.67,152.1,209.729,152.313Z" transform="translate(-202.502 -136.569)" fill="#2d1929"/>
        <path id="Trazado_1083279" data-name="Trazado 1083279" d="M232.6,122.3a.376.376,0,0,1-.286-.625c.034-.038,3.386-3.763,8.022-1.911a.377.377,0,1,1-.278.7,6.568,6.568,0,0,0-7.176,1.708.376.376,0,0,1-.282.128Z" transform="translate(-218.029 -119.249)" fill="#2d1929"/>
        <path id="Trazado_1083280" data-name="Trazado 1083280" d="M194.878,130.209a.376.376,0,0,1-.331-.553c2.344-4.414,7.292-3.721,7.352-3.721a.376.376,0,1,1-.109.745,6.568,6.568,0,0,0-6.581,3.338.376.376,0,0,1-.331.192Z" transform="translate(-194.503 -123.394)" fill="#2d1929"/>
      </g>
      <path id="Trazado_1083281" data-name="Trazado 1083281" d="M149.116,334.582s-11-63.639-5.539-75.781c5.712-12.7,39.971-18.061,51.858-4.165,11.318,13.237,3.94,79.947,3.94,79.947Z" transform="translate(-66.168 -133.915)" fill="#efbd42"/>
      <path id="Trazado_1083282" data-name="Trazado 1083282" d="M93.175,202.207q-15.732,5.644-31.381,11.345,5.859-16.676,11.713-33.357L61.568,173.84c-2.4,3.443-5.644,8.361-9.132,14.494C41.012,208.48,31.861,224.618,37.874,233.8c5.268,8.06,19.694,6.874,33.225,5.764,8.579-.707,11.992-2.777,13.106-5.362a5.975,5.975,0,0,0,.4-2.98C84.283,227.4,85.77,219.55,93.175,202.207Z" transform="translate(0 -88.636)" fill="#86ebf9"/>
      <path id="Trazado_1083283" data-name="Trazado 1083283" d="M185,244.964c1.531,8.8,8.948,13.083,13.3,11.642,3.608-1.2,6.4-6.773,5.426-13.17A19.653,19.653,0,0,0,185,244.964Z" transform="translate(-92.954 -130.994)" fill="#955d43"/>
      <path id="Trazado_1083284" data-name="Trazado 1083284" d="M151,251a148.2,148.2,0,0,1,8.91,31.784s2.062,12.793,1.208,54.635H134.5s-.933-14.656-1.656-30.689c-.963-21.4-4.794-29.473-.376-38.948C136.447,259.252,144.115,254.146,151,251Z" transform="translate(-58.888 -136.763)" fill="#86ebf9"/>
      <path id="Trazado_1083285" data-name="Trazado 1083285" d="M234.82,246.2s11.759,50.044,8.372,88.225H261.3s3.5-59.308-.805-72.737c-4.538-14.121-17.963-15.687-25.677-15.487Z" transform="translate(-124.028 -133.762)" fill="#86ebf9"/>
      <path id="Trazado_1083286" data-name="Trazado 1083286" d="M126.986,314.686a47.234,47.234,0,0,1,3.3-20.176s-5.738,6.1-6.536,20.5Z" transform="translate(-54.751 -163.901)" fill="#40c2d6"/>
      <path id="Trazado_1083287" data-name="Trazado 1083287" d="M83.831,275.887A38.858,38.858,0,0,1,71.32,286.8,34.916,34.916,0,0,0,89.607,273.78Z" transform="translate(-22.049 -150.971)" fill="#40c2d6"/>
      <path id="Trazado_1083288" data-name="Trazado 1083288" d="M300.68,306s3.232,22.354,3.044,29.7l3.6,2.615A80.424,80.424,0,0,0,300.68,306Z" transform="translate(-165.107 -171.068)" fill="#40c2d6"/>
      <path id="Trazado_1083289" data-name="Trazado 1083289" d="M172.326,234.62a5.649,5.649,0,0,0-3.672,3.341,18.537,18.537,0,0,1-3.973,5.3s5.035,14.355,6.291,14.75,5.746-3.763,5.746-3.763S172.044,238.563,172.326,234.62Z" transform="translate(-80.28 -126.546)" fill="#86ebf9"/>
      <path id="Trazado_1083290" data-name="Trazado 1083290" d="M239.753,237.655s-2.258-2.179-3.635-3.868-1.821-1.637-1.821-1.637-1.93,8.492,3.763,24.349Z" transform="translate(-123.506 -125.005)" fill="#86ebf9"/>
      <path id="Trazado_1083291" data-name="Trazado 1083291" d="M165.982,257a32.19,32.19,0,0,0,3.274,15.852l3.857-7.729,4.391,4.244-4.391-6.826q-1.832,3.356-3.672,6.716A65.317,65.317,0,0,1,165.982,257Z" transform="translate(-81.067 -140.505)" fill="#40c2d6"/>
      <path id="Trazado_1083292" data-name="Trazado 1083292" d="M246.257,246.78a38.819,38.819,0,0,1,3.052,13.252l-4.835-3.42-.064,6.686,1.388-4.237,5.43,3.307A24.217,24.217,0,0,0,246.257,246.78Z" transform="translate(-130.01 -134.131)" fill="#40c2d6"/>
      <path id="Trazado_1083293" data-name="Trazado 1083293" d="M363.731,341.993s-3.386,9.783-.993,16.9c0,0-5.072-8.225-2.258-19.875Z" transform="translate(-201.875 -191.663)" fill="#40c2d6"/>
      <path id="Trazado_1083294" data-name="Trazado 1083294" d="M137.31,92.892l2.284-4.764c8.982-10.8,5.644-20.161,8.936-21.448,2.766-1.072,6.178,4.809,10.381,3.537a5.847,5.847,0,0,0,2.822-2.047s7.258-.967,10.679,4.978c0,0,4.809-12.361,1.1-18.712s-12.549.534-17.267-.79-11.243-.531-14.2,2.777-6.062,1.324-12.184,5.174-5.328,9.256-4.8,12.417-2.634,2.374-3.575,7.74,6.02,23.841,23.859,28.435Z" transform="translate(-53.29 -12.456)" fill="#2d1929"/>
      <path id="Trazado_1083295" data-name="Trazado 1083295" d="M153.48,160.218c-2.754,1.588-6.558.166-8.489-3.183s-1.264-7.352,1.505-8.944,6.555-.166,8.489,3.183S156.238,158.626,153.48,160.218Z" transform="translate(-67.312 -72.169)" fill="#955d43"/>
      <path id="Trazado_1083296" data-name="Trazado 1083296" d="M157.108,160.362a2.521,2.521,0,0,1-2.416-1.848c-.275-1.129,1.129-1.806,1.693-2.024-.489-.753-2.359-3.307-4.41-2.912-1.93.376-1.562,2.555-1.546,2.634a.187.187,0,1,1-.369.068c0-.026-.452-2.634,1.844-3.089,2.634-.5,4.839,3.134,4.929,3.289a.188.188,0,0,1-.105.278c-.019,0-1.923.595-1.671,1.652a2.116,2.116,0,0,0,2.047,1.562.2.2,0,1,1,0,.391Z" transform="translate(-71.139 -75.727)" fill="#2d1929"/>
      <path id="Trazado_1083297" data-name="Trazado 1083297" d="M96.76,141.4l5.388-8.6s3.044-10.062,6.02-12.906,11.781-6.156,12.974-4.892-6.653,6.084-6.653,6.084,3.7-.128,2.495,2.916c0,0,4-.557,2.092,3.063,0,0,1.881.09,1.505,2.483s-3.217,11.563-7.318,11.747l-3.428,6.521A22.757,22.757,0,0,1,96.76,141.4Z" transform="translate(-37.917 -51.764)" fill="#955d43"/>
      <path id="Trazado_1083298" data-name="Trazado 1083298" d="M223.83,185.177l10.028-.5a5.037,5.037,0,1,1-10.028.5Z" transform="translate(-117.174 -95.397)" fill="#efefef"/>
      <path id="Trazado_1083299" data-name="Trazado 1083299" d="M150.2,158.735a.188.188,0,0,1-.158-.29c.045-.072,4.617-7.206,3.477-10.046a1.686,1.686,0,0,0-1.253-1.031.193.193,0,1,1,.087-.376c3.951.933.2,8.278-1.979,11.664A.192.192,0,0,1,150.2,158.735Z" transform="translate(-71.131 -71.887)" fill="#2d1929"/>
      <circle id="Elipse_14320" data-name="Elipse 14320" cx="14.543" cy="14.543" r="14.543" transform="translate(141.439 39.247)" fill="#efbd42"/>
      <path id="Trazado_1083300" data-name="Trazado 1083300" d="M342.806,100.6,332.53,98.826l1.061-11.3L345.6,89.6Z" transform="translate(-184.865 -26.903)" fill="#efbd42"/>
      <path id="Trazado_1083301" data-name="Trazado 1083301" d="M339.879,117.032l-5.065-.877a3.075,3.075,0,0,1-2.329-3.405l.286-3.01,10.731,1.851-.884,3.481A2.52,2.52,0,0,1,339.879,117.032Z" transform="translate(-184.935 -40.756)" fill="#287eef"/>
      <ellipse id="Elipse_14321" data-name="Elipse 14321" cx="0.771" cy="5.437" rx="0.771" ry="5.437" transform="matrix(0.17, -0.985, 0.985, 0.17, 147.665, 69.775)" fill="#d7981a"/>
      <path id="Trazado_1083302" data-name="Trazado 1083302" d="M342.176,84.8a.188.188,0,0,1-.173-.252c.433-1.174,1.787-4.771,3.217-7.9a2.96,2.96,0,0,1-1.55-1.738,2.807,2.807,0,0,1-3.631.248c.158,2.863.147,6.686.049,9.079a.188.188,0,1,1-.376,0c.083-2.07.135-5.945-.068-9.32-2.28-1.633-4.2-5.606-1.983-6.6,1.84-.824,2.22,4.376,2.352,6.4a2.6,2.6,0,0,0,2.724.376,4.3,4.3,0,0,0,.783-.549,8.077,8.077,0,0,1-.463-4.353c.177-.636.5-.817.73-.854,1.656-.275,2.258,3.251.173,5.313.267.636.753,1.464,1.415,1.656,1.268-2.747,2.555-5.061,3.319-4.925,1.78.3.564,3.887-2.389,5.2a1.6,1.6,0,0,1-.7.143c-1.046,2.3-2.2,5.147-3.251,7.969A.181.181,0,0,1,342.176,84.8Zm3.6-8.477a1.329,1.329,0,0,0,.376-.105c2.615-1.159,3.736-4.263,2.476-4.481C347.936,71.626,346.074,75.693,345.78,76.325Zm-7.966-7.691a1.257,1.257,0,0,0-.753,1.129c-.105,1.358,1.069,3.424,2.547,4.613C339.512,72.969,339.128,68.044,337.815,68.634Zm6.02,1.065c-.753.124-.707,2.679-.041,4.557,1.784-1.889,1.178-4.749.056-4.557Z" transform="translate(-187.56 -14.863)" fill="#efefef"/>
      <path id="Trazado_1083303" data-name="Trazado 1083303" d="M399.86,281.135a55.438,55.438,0,0,1,16.932-6.114c2.3-.4,6.1-.862,8.933-3.819a11.819,11.819,0,0,0,2.784-5.031c-7.224-1.836-22.339-5.674-15.089-3.842a87.294,87.294,0,0,1-13.561,18.806Z" transform="translate(-226.968 -143.527)" fill="#40c2d6"/>
      <path id="Trazado_1083304" data-name="Trazado 1083304" d="M336.09,211.236H274.758a2.111,2.111,0,0,1-2.1-2.284l3.887-46.022a2.107,2.107,0,0,1,2.1-1.93h61.22a2.111,2.111,0,0,1,2.1,2.28L338.2,209.3A2.111,2.111,0,0,1,336.09,211.236Z" transform="translate(-147.625 -80.627)" fill="#917eec"/>
      <circle id="Elipse_14322" data-name="Elipse 14322" cx="5.877" cy="5.877" r="5.877" transform="translate(155.395 99.611)" fill="#efefef"/>
      <path id="Trazado_1083305" data-name="Trazado 1083305" d="M435.675,239.538c2.882.617,6.438-1.945,7.661-5.05.8-2.039.414-3.849-.3-7.01-.854-3.763-1.355-6.841-3.763-9.689-1.016-1.193-2.491-2.133-5.445-4.019-6.2-3.958-7.992-3.292-8.519-2.984a.59.59,0,0,0-.248.23c-.8,1.505,6.7,6.98,6.7,6.98s-6.6-3.864-7.714-2.679,5.279,5.558,5.279,5.558-4.391-2.577-5.422-2.062.685,2.916,4.767,6.664c-1.915-1.234-4.357-2.608-5.061-1.923-.278.271-.2.786-.105,1.2.753,3.168,3.789,4.139,6.272,7.661,2.069,2.942,2.389,5.388,5.11,6.833a2.8,2.8,0,0,0,.79.286Z" transform="translate(-241.66 -111.529)" fill="#955d43"/>
      <path id="Trazado_1083306" data-name="Trazado 1083306" d="M90.27,181.7l5.166-7.857,12.537,6.656-4.218,9.96Z" transform="translate(-33.869 -88.636)" fill="#86ebf9"/>
      <path id="Trazado_1083307" data-name="Trazado 1083307" d="M98.17,185.3A40.107,40.107,0,0,0,108,190.455l2.781-2.713q-.282,2.013-.561,4.037l.753.47-.316.753-1.238-.753.489-2.946-1.994,2.216A21.726,21.726,0,0,1,98.17,185.3Z" transform="translate(-38.796 -95.784)" fill="#40c2d6"/>
      <path id="Trazado_1083308" data-name="Trazado 1083308" d="M447.241,230.972a31.775,31.775,0,0,1-3.134-1.546.189.189,0,0,1,.169-.339l3.048,1.528a.188.188,0,0,1-.083.357Z" transform="translate(-254.501 -123.083)" fill="#2d1929"/>
      <path id="Trazado_1083309" data-name="Trazado 1083309" d="M441.155,239.08a40.675,40.675,0,0,1-3.631-2.013.192.192,0,0,1-.072-.256.188.188,0,0,1,.256-.071l3.541,1.987a.192.192,0,0,1-.094.354Z" transform="translate(-250.401 -127.854)" fill="#2d1929"/>
      <path id="Trazado_1083310" data-name="Trazado 1083310" d="M438.513,251.318c-.094,0,.124.147-3.01-2.258a.188.188,0,1,1,.23-.3l2.9,2.231a.188.188,0,0,1-.124.324Z" transform="translate(-249.148 -135.338)" fill="#2d1929"/>
    </g>
  </g>
</svg>
