<svg xmlns="http://www.w3.org/2000/svg" xmlns:xlink="http://www.w3.org/1999/xlink" width="103" height="103" viewBox="0 0 103 103">
  <defs>
    <filter id="Trazado_978624" x="0" y="0" width="103" height="103" filterUnits="userSpaceOnUse">
      <feOffset dy="3" input="SourceAlpha"/>
      <feGaussianBlur stdDeviation="3" result="blur"/>
      <feFlood flood-opacity="0.161"/>
      <feComposite operator="in" in2="blur"/>
      <feComposite in="SourceGraphic"/>
    </filter>
  </defs>
  <g id="Grupo_1213582" data-name="Grupo 1213582" transform="translate(-614.5 -480.604)">
    <g id="Grupo_1213565" data-name="Grupo 1213565" transform="translate(454.711 -10049.396)">
      <g id="Grupo_1210098" data-name="Grupo 1210098" transform="translate(-5.711 9472)">
        <g id="Grupo_1178144" data-name="Grupo 1178144" transform="translate(-19.5 -2004)">
          <g id="Grupo_1177896" data-name="Grupo 1177896" transform="translate(14 196)">
            <g id="Grupo_1176881" data-name="Grupo 1176881">
              <g id="Grupo_1175148" data-name="Grupo 1175148" transform="translate(0 1580)">
                <g id="Grupo_1173798" data-name="Grupo 1173798" transform="translate(-3 -3520)">
                  <g id="Grupo_1171925" data-name="Grupo 1171925" transform="translate(-22 -2246)">
                    <g id="Grupo_1164524" data-name="Grupo 1164524" transform="translate(205 7058)">
                      <g id="Grupo_1144123" data-name="Grupo 1144123">
                        <g transform="matrix(1, 0, 0, 1, -9, -6)" filter="url(#Trazado_978624)">
                          <g id="Trazado_978624-2" data-name="Trazado 978624" transform="translate(9 6)" fill="#fff9e9">
                            <path d="M 42.5 83.5 C 36.96437835693359 83.5 31.59512901306152 82.41617584228516 26.54141235351562 80.27863311767578 C 21.65934181213379 78.21369171142578 17.27447128295898 75.25723266601562 13.50862312316895 71.49137878417969 C 9.742764472961426 67.72553253173828 6.786305904388428 63.34066009521484 4.721364498138428 58.45858764648438 C 2.583823442459106 53.40486907958984 1.5 48.03562164306641 1.5 42.5 C 1.5 36.96437835693359 2.583823442459106 31.59512901306152 4.721364498138428 26.54141235351562 C 6.786305904388428 21.65934181213379 9.742764472961426 17.27447128295898 13.50862312316895 13.50862312316895 C 17.27447128295898 9.742764472961426 21.65934181213379 6.786305904388428 26.54141235351562 4.721364498138428 C 31.59512901306152 2.583823442459106 36.96437835693359 1.5 42.5 1.5 C 48.03562164306641 1.5 53.40486907958984 2.583823442459106 58.45858764648438 4.721364498138428 C 63.34066009521484 6.786305904388428 67.72553253173828 9.742764472961426 71.49137878417969 13.50862312316895 C 75.25723266601562 17.27447128295898 78.21369171142578 21.65934181213379 80.27863311767578 26.54141235351562 C 82.41617584228516 31.59512901306152 83.5 36.96437835693359 83.5 42.5 C 83.5 48.03562164306641 82.41617584228516 53.40486907958984 80.27863311767578 58.45858764648438 C 78.21369171142578 63.34066009521484 75.25723266601562 67.72553253173828 71.49137878417969 71.49137878417969 C 67.72553253173828 75.25723266601562 63.34066009521484 78.21369171142578 58.45858764648438 80.27863311767578 C 53.40486907958984 82.41617584228516 48.03562164306641 83.5 42.5 83.5 Z" stroke="none"/>
                            <path d="M 42.5 3 C 37.16621398925781 3 31.99356079101562 4.043960571289062 27.125732421875 6.102882385253906 C 22.42246627807617 8.092185974121094 18.19785308837891 10.94070434570312 14.56928253173828 14.56928253173828 C 10.94070434570312 18.19785308837891 8.092185974121094 22.42246627807617 6.102882385253906 27.125732421875 C 4.043960571289062 31.99356079101562 3 37.16621398925781 3 42.5 C 3 47.83378601074219 4.043960571289062 53.00643920898438 6.102882385253906 57.87425231933594 C 8.092185974121094 62.57753372192383 10.94070434570312 66.80213165283203 14.56928253173828 70.43071746826172 C 18.19786834716797 74.05929565429688 22.42246627807617 76.90781402587891 27.125732421875 78.89711761474609 C 31.99356079101562 80.95603942871094 37.16621398925781 82 42.5 82 C 47.83378601074219 82 53.00642395019531 80.95603942871094 57.87425231933594 78.89711761474609 C 62.57753372192383 76.90781402587891 66.80213165283203 74.05929565429688 70.43071746826172 70.43071746826172 C 74.05929565429688 66.80213165283203 76.90781402587891 62.57753372192383 78.89711761474609 57.87425231933594 C 80.95603942871094 53.00642395019531 82 47.83378601074219 82 42.5 C 82 37.16621398925781 80.95603942871094 31.99356079101562 78.89711761474609 27.125732421875 C 76.90781402587891 22.42246627807617 74.05929565429688 18.19786834716797 70.43071746826172 14.56928253173828 C 66.80213165283203 10.94070434570312 62.57753372192383 8.092185974121094 57.87425231933594 6.102882385253906 C 53.00643920898438 4.043960571289062 47.83378601074219 3 42.5 3 M 42.5 0 C 65.97209167480469 0 85 19.02789306640625 85 42.5 C 85 65.97209167480469 65.97209167480469 85 42.5 85 C 19.02789306640625 85 0 65.97209167480469 0 42.5 C 0 19.02789306640625 19.02789306640625 0 42.5 0 Z" stroke="none" fill="#fc3"/>
                          </g>
                        </g>
                      </g>
                    </g>
                  </g>
                </g>
              </g>
            </g>
          </g>
        </g>
      </g>
    </g>
    <g id="automatizacion" transform="translate(623.5 496.462)">
      <g id="Grupo_1213580" data-name="Grupo 1213580" transform="translate(1.245 3.254)">
        <g id="Grupo_1213577" data-name="Grupo 1213577" transform="translate(0 0)">
          <g id="Grupo_1213569" data-name="Grupo 1213569" transform="translate(12.602)">
            <g id="Grupo_1213566" data-name="Grupo 1213566" transform="translate(13.938 13.421)">
              <path id="Trazado_1082407" data-name="Trazado 1082407" d="M167.364,106.252v-2.369a1.368,1.368,0,0,1,.945-1.3l1.49-.484a1.375,1.375,0,0,0,.883-.862,11.936,11.936,0,0,1,.633-1.525A1.352,1.352,0,0,0,171.3,98.5l-.717-1.407a1.368,1.368,0,0,1,.252-1.589l1.675-1.675a1.368,1.368,0,0,1,1.589-.252l1.407.717a1.352,1.352,0,0,0,1.215.014,11.934,11.934,0,0,1,1.525-.633,1.375,1.375,0,0,0,.862-.883l.484-1.49a1.368,1.368,0,0,1,1.3-.945h2.369a1.368,1.368,0,0,1,1.3.945l.484,1.49a1.375,1.375,0,0,0,.862.883,11.935,11.935,0,0,1,1.525.633,1.352,1.352,0,0,0,1.215-.014l1.407-.717a1.368,1.368,0,0,1,1.589.252l1.675,1.675a1.368,1.368,0,0,1,.252,1.589l-.717,1.407a1.352,1.352,0,0,0-.014,1.215,11.934,11.934,0,0,1,.633,1.525,1.375,1.375,0,0,0,.883.862l1.49.484a1.368,1.368,0,0,1,.945,1.3v2.369a1.368,1.368,0,0,1-.945,1.3l-1.49.484a1.375,1.375,0,0,0-.883.862,11.932,11.932,0,0,1-.633,1.525,1.352,1.352,0,0,0,.014,1.215l.717,1.407a1.368,1.368,0,0,1-.252,1.589l-1.675,1.675a1.368,1.368,0,0,1-1.589.252l-1.407-.717a1.352,1.352,0,0,0-1.215-.014,11.937,11.937,0,0,1-1.525.633,1.375,1.375,0,0,0-.862.883l-.484,1.49a1.368,1.368,0,0,1-1.3.945h-2.369a1.368,1.368,0,0,1-1.3-.945l-.484-1.49a1.375,1.375,0,0,0-.862-.883,11.937,11.937,0,0,1-1.525-.633,1.352,1.352,0,0,0-1.215.014l-1.407.717a1.368,1.368,0,0,1-1.589-.252l-1.675-1.675a1.368,1.368,0,0,1-.252-1.589l.717-1.407a1.352,1.352,0,0,0,.014-1.215,11.938,11.938,0,0,1-.633-1.525,1.375,1.375,0,0,0-.883-.862l-1.49-.484A1.368,1.368,0,0,1,167.364,106.252Z" transform="translate(-167.364 -90.352)" fill="#c5d3dd"/>
            </g>
            <g id="Grupo_1213567" data-name="Grupo 1213567" transform="translate(22.212 21.659)">
              <circle id="Elipse_14266" data-name="Elipse 14266" cx="5.396" cy="5.396" r="5.396" transform="translate(0 10.532) rotate(-77.297)" fill="#9facba"/>
            </g>
            <path id="Trazado_1082408" data-name="Trazado 1082408" d="M236.89,146.7a5.392,5.392,0,0,1-4.528,9.062,5.395,5.395,0,1,0,4.528-9.062Z" transform="translate(-207.633 -123.922)" fill="#8d9ca8"/>
            <g id="Grupo_1213568" data-name="Grupo 1213568">
              <path id="Trazado_1082409" data-name="Trazado 1082409" d="M103.947,15.237a28.14,28.14,0,0,1,34.033,0,28.418,28.418,0,0,1,8.752,11.111.5.5,0,0,0,.645.264l1.554-.633a.5.5,0,0,1,.681.529l-1.195,8.67a.5.5,0,0,1-.8.325l-6.911-5.369a.5.5,0,0,1,.118-.855l1.27-.517a.5.5,0,0,0,.264-.67,23.676,23.676,0,0,0-7.228-9.11,23.434,23.434,0,0,0-28.336,0,23.628,23.628,0,0,0-8.177,11.6A.5.5,0,0,1,98,30.91l-3.56-1.043a.5.5,0,0,1-.337-.623,28.365,28.365,0,0,1,9.842-14.007Z" transform="translate(-92.31 -9.509)" fill="#5de1c4"/>
              <path id="Trazado_1082410" data-name="Trazado 1082410" d="M129.076,211.633a28.14,28.14,0,0,1-34.033,0,28.417,28.417,0,0,1-8.752-11.111.5.5,0,0,0-.645-.264l-1.554.633a.5.5,0,0,1-.681-.529l1.195-8.67a.5.5,0,0,1,.8-.325l6.911,5.369a.5.5,0,0,1-.118.855l-1.27.517a.5.5,0,0,0-.264.67,23.677,23.677,0,0,0,7.228,9.11,23.435,23.435,0,0,0,28.337,0,23.628,23.628,0,0,0,8.177-11.6.5.5,0,0,1,.616-.333l3.56,1.043a.5.5,0,0,1,.337.623,28.369,28.369,0,0,1-9.842,14.007Z" transform="translate(-83.406 -161.087)" fill="#fd8087"/>
            </g>
          </g>
          <g id="Grupo_1213576" data-name="Grupo 1213576" transform="translate(0 44.233)">
            <path id="Trazado_1082411" data-name="Trazado 1082411" d="M110.55,293.867V278.031a2.085,2.085,0,0,0-2.085-2.086H91.951a2.085,2.085,0,0,0-2.085,2.086v15.836Z" transform="translate(-76.192 -275.945)" fill="#ffe177"/>
            <path id="Trazado_1082412" data-name="Trazado 1082412" d="M108.465,275.945h-2.2v11.976a1.66,1.66,0,0,1-1.66,1.66H89.866v4.286H110.55V278.03A2.085,2.085,0,0,0,108.465,275.945Z" transform="translate(-76.192 -275.945)" fill="#ffd15b"/>
            <path id="Trazado_1082413" data-name="Trazado 1082413" d="M129.551,318.311v-3.337a.834.834,0,0,1,.834-.834h5.839a.834.834,0,0,1,.834.834v3.337a.834.834,0,0,1-.834.834h-5.839A.834.834,0,0,1,129.551,318.311Z" transform="translate(-109.289 -307.799)" fill="#fff"/>
            <path id="Trazado_1082414" data-name="Trazado 1082414" d="M318.226,293.867V278.031a2.085,2.085,0,0,0-2.086-2.086H299.628a2.085,2.085,0,0,0-2.086,2.086v15.836Z" transform="translate(-249.39 -275.945)" fill="#ffe177"/>
            <path id="Trazado_1082415" data-name="Trazado 1082415" d="M316.141,275.945h-2.2v11.976a1.66,1.66,0,0,1-1.66,1.66H297.542v4.286h20.684V278.03A2.085,2.085,0,0,0,316.141,275.945Z" transform="translate(-249.39 -275.945)" fill="#ffd15b"/>
            <path id="Trazado_1082416" data-name="Trazado 1082416" d="M337.227,318.31v-3.337a.834.834,0,0,1,.834-.834H343.9a.834.834,0,0,1,.834.834v3.337a.834.834,0,0,1-.834.834h-5.839A.834.834,0,0,1,337.227,318.31Z" transform="translate(-282.487 -307.798)" fill="#fff"/>
            <path id="Trazado_1082417" data-name="Trazado 1082417" d="M343.9,314.139h-1.509v1.828a.834.834,0,0,1-.834.834h-4.33v1.509a.834.834,0,0,0,.834.834H343.9a.834.834,0,0,0,.834-.834v-3.337A.834.834,0,0,0,343.9,314.139Z" transform="translate(-282.487 -307.798)" fill="#f5f8f9"/>
            <path id="Trazado_1082418" data-name="Trazado 1082418" d="M136.224,314.139h-1.509v1.828a.834.834,0,0,1-.834.834h-4.33v1.509a.834.834,0,0,0,.834.834h5.839a.834.834,0,0,0,.834-.834v-3.337A.834.834,0,0,0,136.224,314.139Z" transform="translate(-109.288 -307.798)" fill="#f5f8f9"/>
            <path id="Trazado_1082419" data-name="Trazado 1082419" d="M89.969,393.029A12.629,12.629,0,0,0,77.606,382.9H19.9A12.629,12.629,0,0,0,7.54,393.029,2.081,2.081,0,0,0,9.59,395.5h3.232a7.09,7.09,0,0,1,7.081-7.082h57.7a7.089,7.089,0,0,1,7.081,7.081H87.92A2.081,2.081,0,0,0,89.969,393.029Z" transform="translate(-7.5 -365.141)" fill="#c5d3dd"/>
            <path id="Trazado_1082420" data-name="Trazado 1082420" d="M453.512,394.052a12.643,12.643,0,0,0-10.1-9.928v5.694a7.092,7.092,0,0,1,4.82,6.709h3.233A2.081,2.081,0,0,0,453.512,394.052Z" transform="translate(-371.043 -366.165)" fill="#b6c4cf"/>
            <path id="Trazado_1082421" data-name="Trazado 1082421" d="M45.806,429.676a7.248,7.248,0,0,1,0-14.5h57.7a7.248,7.248,0,0,1,0,14.5Z" transform="translate(-33.403 -392.066)" fill="#ffe177"/>
            <path id="Trazado_1082422" data-name="Trazado 1082422" d="M105.907,417.369a7.255,7.255,0,0,1-7.242,7.491H38.723a7.256,7.256,0,0,0,7.22,6.641h57.7a7.247,7.247,0,0,0,2.262-14.132Z" transform="translate(-33.539 -393.89)" fill="#ffd15b"/>
            <g id="Grupo_1213575" data-name="Grupo 1213575" transform="translate(11.367 27.443)">
              <g id="Grupo_1213570" data-name="Grupo 1213570">
                <circle id="Elipse_14267" data-name="Elipse 14267" cx="2.92" cy="2.92" r="2.92" fill="#fff"/>
              </g>
              <g id="Grupo_1213571" data-name="Grupo 1213571" transform="translate(13.484)">
                <circle id="Elipse_14268" data-name="Elipse 14268" cx="2.92" cy="2.92" r="2.92" fill="#fff"/>
              </g>
              <g id="Grupo_1213572" data-name="Grupo 1213572" transform="translate(26.968)">
                <circle id="Elipse_14269" data-name="Elipse 14269" cx="2.92" cy="2.92" r="2.92" fill="#fff"/>
              </g>
              <g id="Grupo_1213573" data-name="Grupo 1213573" transform="translate(40.452)">
                <circle id="Elipse_14270" data-name="Elipse 14270" cx="2.92" cy="2.92" r="2.92" fill="#fff"/>
              </g>
              <g id="Grupo_1213574" data-name="Grupo 1213574" transform="translate(53.936)">
                <circle id="Elipse_14271" data-name="Elipse 14271" cx="2.92" cy="2.92" r="2.92" transform="translate(0)" fill="#fff"/>
              </g>
            </g>
          </g>
        </g>
        <g id="Grupo_1213578" data-name="Grupo 1213578" transform="translate(11.431 72.792)">
          <path id="Trazado_1082423" data-name="Trazado 1082423" d="M325.732,462.492h-5.711a2.919,2.919,0,0,0,5.711,0Z" transform="translate(-279.569 -460.081)" fill="#f5f8f9"/>
          <path id="Trazado_1082424" data-name="Trazado 1082424" d="M407.01,449.775a2.905,2.905,0,0,0-.627-1.8,7.228,7.228,0,0,1-5.15,2.4,2.92,2.92,0,0,0,5.777-.6Z" transform="translate(-347.298 -447.971)" fill="#f5f8f9"/>
          <path id="Trazado_1082425" data-name="Trazado 1082425" d="M244.511,462.492H238.8a2.919,2.919,0,0,0,5.711,0Z" transform="translate(-211.832 -460.081)" fill="#f5f8f9"/>
          <path id="Trazado_1082426" data-name="Trazado 1082426" d="M163.289,462.492h-5.711a2.919,2.919,0,0,0,5.711,0Z" transform="translate(-144.094 -460.081)" fill="#f5f8f9"/>
          <path id="Trazado_1082427" data-name="Trazado 1082427" d="M76.357,462.492a2.919,2.919,0,0,0,5.711,0Z" transform="translate(-76.357 -460.081)" fill="#f5f8f9"/>
        </g>
        <g id="Grupo_1213579" data-name="Grupo 1213579" transform="translate(36.838 16.493)">
          <path id="Trazado_1082428" data-name="Trazado 1082428" d="M247.582,118.011l-1.49-.484a1.375,1.375,0,0,1-.883-.862,11.933,11.933,0,0,0-.633-1.525,1.352,1.352,0,0,1,.014-1.215l.717-1.407a1.368,1.368,0,0,0-.252-1.589l-1.675-1.675a1.369,1.369,0,0,0-1.589-.252l-1.224.624A14.331,14.331,0,0,1,229.4,131.678c.193.076.387.149.584.215a1.375,1.375,0,0,1,.862.883l.484,1.49a1.368,1.368,0,0,0,1.3.945H235a1.368,1.368,0,0,0,1.3-.945l.484-1.49a1.375,1.375,0,0,1,.862-.883,11.939,11.939,0,0,0,1.525-.633,1.352,1.352,0,0,1,1.215.014l1.407.717a1.368,1.368,0,0,0,1.589-.252l1.675-1.675a1.368,1.368,0,0,0,.252-1.589l-.717-1.407a1.352,1.352,0,0,1-.014-1.215,11.929,11.929,0,0,0,.633-1.525,1.375,1.375,0,0,1,.883-.862l1.49-.484a1.368,1.368,0,0,0,.945-1.3v-2.369A1.368,1.368,0,0,0,247.582,118.011Z" transform="translate(-229.396 -108.853)" fill="#b6c4cf"/>
        </g>
      </g>
      <g id="Grupo_1213581" data-name="Grupo 1213581" transform="translate(0 2.009)">
        <path id="Trazado_1082429" data-name="Trazado 1082429" d="M222.641,138.99a6.641,6.641,0,1,0,6.641,6.641A6.648,6.648,0,0,0,222.641,138.99Zm0,10.791a4.15,4.15,0,1,1,4.15-4.15A4.155,4.155,0,0,1,222.641,149.781Z" transform="translate(-180.141 -116.249)"/>
        <path id="Trazado_1082430" data-name="Trazado 1082430" d="M188.4,103.043a.135.135,0,0,1,.088-.074l1.49-.484A2.607,2.607,0,0,0,191.781,100V97.63a2.607,2.607,0,0,0-1.806-2.485l-1.49-.484a.134.134,0,0,1-.088-.075,13.26,13.26,0,0,0-.7-1.684.113.113,0,0,1,.009-.094l.717-1.407a2.607,2.607,0,0,0-.481-3.034l-1.675-1.676a2.606,2.606,0,0,0-3.034-.48l-1.407.717a.112.112,0,0,1-.094.009,13.2,13.2,0,0,0-1.683-.7.134.134,0,0,1-.075-.088l-.484-1.49a2.607,2.607,0,0,0-2.486-1.806h-2.369a2.607,2.607,0,0,0-2.485,1.806l-.484,1.49a.134.134,0,0,1-.074.087,13.239,13.239,0,0,0-1.684.7.112.112,0,0,1-.094-.009l-1.407-.717a2.607,2.607,0,0,0-3.034.481L163.7,88.366a2.607,2.607,0,0,0-.481,3.034l.717,1.407a.111.111,0,0,1,.009.094,13.262,13.262,0,0,0-.7,1.684.135.135,0,0,1-.088.075l-1.49.484a2.607,2.607,0,0,0-1.806,2.485V100a2.607,2.607,0,0,0,1.806,2.486l1.49.484a.135.135,0,0,1,.088.075,13.252,13.252,0,0,0,.7,1.684.113.113,0,0,1-.009.094l-.717,1.407a2.607,2.607,0,0,0,.481,3.034l1.675,1.676a2.607,2.607,0,0,0,3.034.481l1.407-.717a.113.113,0,0,1,.094-.009,13.253,13.253,0,0,0,1.683.7.135.135,0,0,1,.075.088l.484,1.489a2.607,2.607,0,0,0,2.486,1.806H177a2.607,2.607,0,0,0,2.486-1.806l.484-1.49a.135.135,0,0,1,.075-.088,13.239,13.239,0,0,0,1.684-.7.114.114,0,0,1,.094.009l1.407.717a2.607,2.607,0,0,0,3.034-.481l1.675-1.675a2.607,2.607,0,0,0,.481-3.035l-.717-1.407a.113.113,0,0,1-.009-.094,13.163,13.163,0,0,0,.7-1.684Zm-2.361-.793a10.743,10.743,0,0,1-.567,1.366,2.606,2.606,0,0,0,.019,2.335l.717,1.407a.123.123,0,0,1-.023.143l-1.675,1.675a.124.124,0,0,1-.143.023l-1.406-.717a2.6,2.6,0,0,0-2.336-.019,10.751,10.751,0,0,1-1.366.567,2.629,2.629,0,0,0-1.65,1.679l-.484,1.49a.123.123,0,0,1-.117.085h-2.369a.123.123,0,0,1-.117-.085l-.484-1.49a2.629,2.629,0,0,0-1.65-1.679,10.755,10.755,0,0,1-1.366-.567,2.566,2.566,0,0,0-1.145-.267,2.623,2.623,0,0,0-1.191.286l-1.407.717a.123.123,0,0,1-.143-.023l-1.675-1.676a.123.123,0,0,1-.023-.143l.717-1.407a2.606,2.606,0,0,0,.019-2.336,10.724,10.724,0,0,1-.567-1.366,2.629,2.629,0,0,0-1.679-1.65l-1.49-.484a.123.123,0,0,1-.085-.117V97.63a.123.123,0,0,1,.085-.117l1.49-.484a2.629,2.629,0,0,0,1.679-1.65,10.758,10.758,0,0,1,.567-1.366,2.6,2.6,0,0,0-.018-2.336l-.717-1.407a.123.123,0,0,1,.023-.143l1.675-1.675a.123.123,0,0,1,.143-.023l1.407.717a2.6,2.6,0,0,0,2.335.019,10.7,10.7,0,0,1,1.366-.567,2.629,2.629,0,0,0,1.65-1.679l.484-1.49a.123.123,0,0,1,.117-.085H177a.123.123,0,0,1,.117.085l.484,1.49a2.629,2.629,0,0,0,1.65,1.679,10.693,10.693,0,0,1,1.365.566,2.605,2.605,0,0,0,2.336-.018l1.407-.717a.122.122,0,0,1,.143.023l1.675,1.676a.122.122,0,0,1,.023.143l-.716,1.407a2.606,2.606,0,0,0-.019,2.335,10.753,10.753,0,0,1,.567,1.366,2.628,2.628,0,0,0,1.679,1.65l1.49.484a.123.123,0,0,1,.085.117V100a.123.123,0,0,1-.085.117l-1.49.484a2.629,2.629,0,0,0-1.679,1.65Z" transform="translate(-133.321 -69.432)"/>
        <path id="Trazado_1082431" data-name="Trazado 1082431" d="M84.936,226.715a13.888,13.888,0,0,0-13.584-11.133h-.025V201.157A3.334,3.334,0,0,0,68,197.826h-.15a29.147,29.147,0,0,0,2.7-6.078,1.724,1.724,0,0,0-.127-1.338,1.756,1.756,0,0,0-1.049-.852l-3.56-1.042a1.734,1.734,0,0,0-2.153,1.152,22.377,22.377,0,0,1-4.689,8.158H51.482a3.334,3.334,0,0,0-3.331,3.331v3.282a22.444,22.444,0,0,1-11.3,0v-3.282a3.334,3.334,0,0,0-3.331-3.331H26.032a22.376,22.376,0,0,1-3.465-5.111l.541-.22a1.743,1.743,0,0,0,.412-2.991l-6.911-5.369a1.743,1.743,0,0,0-2.8,1.139l-1.194,8.67A1.743,1.743,0,0,0,15,195.8l.89-.362q.575,1.22,1.267,2.393H17a3.334,3.334,0,0,0-3.331,3.331v3.875a1.245,1.245,0,1,0,2.49,0v-3.875a.841.841,0,0,1,.84-.84H33.518a.841.841,0,0,1,.84.84v14.425H16.164v-4.74a1.245,1.245,0,0,0-2.49,0v4.74h-.025A13.888,13.888,0,0,0,.065,226.715a3.292,3.292,0,0,0,.687,2.742,3.328,3.328,0,0,0,2.583,1.223H5.248a8.5,8.5,0,0,0,8.4,7.247h57.7a8.505,8.505,0,0,0,8.4-7.247h1.913a3.329,3.329,0,0,0,2.583-1.223A3.292,3.292,0,0,0,84.936,226.715ZM20.094,197.826a27.1,27.1,0,0,1-2.223-4.055,1.736,1.736,0,0,0-2.254-.915l-.356.145.841-6.106,4.868,3.782-.071.029a1.745,1.745,0,0,0-.931,2.334,24.783,24.783,0,0,0,2.834,4.787ZM65.8,191.109l2.128.623a26.835,26.835,0,0,1-3.022,6.094H62.195A24.84,24.84,0,0,0,65.8,191.109ZM50.642,201.157a.841.841,0,0,1,.84-.84H68a.841.841,0,0,1,.84.84v14.425H50.642Zm-13.793,5.849a25.014,25.014,0,0,0,11.3,0v2.271a27.45,27.45,0,0,1-11.3,0Zm0,4.809a29.715,29.715,0,0,0,11.3,0v3.767h-11.3Zm45.474,16.063a.847.847,0,0,1-.657.311H79.752a8.505,8.505,0,0,0-8.4-7.248H65.387a1.245,1.245,0,0,0,0,2.49h5.964a6,6,0,1,1,0,12h-57.7a6,6,0,1,1,0-12H59.577a1.245,1.245,0,0,0,0-2.49H13.649a8.505,8.505,0,0,0-8.4,7.248H3.335a.847.847,0,0,1-.657-.311.8.8,0,0,1-.171-.675,11.391,11.391,0,0,1,11.142-9.131h57.7A11.391,11.391,0,0,1,82.494,227.2.8.8,0,0,1,82.322,227.878Z" transform="translate(0 -153.594)"/>
        <path id="Trazado_1082432" data-name="Trazado 1082432" d="M72.637,433.75a4.165,4.165,0,1,0,4.165,4.165A4.169,4.169,0,0,0,72.637,433.75Zm0,5.839a1.675,1.675,0,1,1,1.674-1.675A1.676,1.676,0,0,1,72.637,439.589Z" transform="translate(-57.105 -362.074)"/>
        <path id="Trazado_1082433" data-name="Trazado 1082433" d="M153.858,433.75a4.165,4.165,0,1,0,4.165,4.165A4.169,4.169,0,0,0,153.858,433.75Zm0,5.839a1.675,1.675,0,1,1,1.674-1.675A1.676,1.676,0,0,1,153.858,439.589Z" transform="translate(-124.842 -362.074)"/>
        <path id="Trazado_1082434" data-name="Trazado 1082434" d="M235.079,433.75a4.165,4.165,0,1,0,4.165,4.165A4.169,4.169,0,0,0,235.079,433.75Zm0,5.839a1.675,1.675,0,1,1,1.674-1.675A1.676,1.676,0,0,1,235.079,439.589Z" transform="translate(-192.579 -362.074)"/>
        <path id="Trazado_1082435" data-name="Trazado 1082435" d="M316.3,433.75a4.165,4.165,0,1,0,4.165,4.165A4.17,4.17,0,0,0,316.3,433.75Zm0,5.839a1.675,1.675,0,1,1,1.674-1.675A1.677,1.677,0,0,1,316.3,439.589Z" transform="translate(-260.316 -362.074)"/>
        <path id="Trazado_1082436" data-name="Trazado 1082436" d="M397.521,442.08a4.165,4.165,0,1,0-4.165-4.165A4.17,4.17,0,0,0,397.521,442.08Zm0-5.839a1.675,1.675,0,1,1-1.674,1.674A1.676,1.676,0,0,1,397.521,436.24Z" transform="translate(-328.053 -362.074)"/>
        <path id="Trazado_1082437" data-name="Trazado 1082437" d="M129.969,314.135a2.082,2.082,0,0,0,2.079-2.079v-3.337a2.082,2.082,0,0,0-2.079-2.079H124.13a2.082,2.082,0,0,0-2.079,2.079v3.337a2.082,2.082,0,0,0,2.079,2.079Zm-5.428-5h5.017v2.515h-5.017Z" transform="translate(-101.789 -256.066)"/>
        <path id="Trazado_1082438" data-name="Trazado 1082438" d="M337.646,306.64h-5.839a2.081,2.081,0,0,0-2.079,2.079v3.337a2.082,2.082,0,0,0,2.079,2.079h5.839a2.081,2.081,0,0,0,2.079-2.079v-3.337A2.081,2.081,0,0,0,337.646,306.64Zm-.411,5h-5.017V309.13h5.017Z" transform="translate(-274.988 -256.066)"/>
        <path id="Trazado_1082439" data-name="Trazado 1082439" d="M87.833,24.807l3.56,1.042A1.734,1.734,0,0,0,93.546,24.7a22.423,22.423,0,0,1,7.744-10.98,22.19,22.19,0,0,1,26.829,0,22.388,22.388,0,0,1,6.518,7.933l-.54.22a1.743,1.743,0,0,0-.412,2.991l6.911,5.369a1.743,1.743,0,0,0,2.8-1.139l1.194-8.67A1.743,1.743,0,0,0,142.2,18.57l-.89.363a29.8,29.8,0,0,0-7.528-9.881,1.245,1.245,0,1,0-1.62,1.891,27.279,27.279,0,0,1,7.169,9.652,1.737,1.737,0,0,0,2.254.915l.356-.145-.841,6.106-4.867-3.782.071-.029a1.745,1.745,0,0,0,.931-2.334,24.893,24.893,0,0,0-7.61-9.591,24.681,24.681,0,0,0-29.844,0A24.96,24.96,0,0,0,91.4,23.257l-2.128-.623A27.184,27.184,0,0,1,98.442,9.973,26.919,26.919,0,0,1,127.6,7.783,1.245,1.245,0,1,0,128.8,5.6,29.41,29.41,0,0,0,96.934,7.991,29.672,29.672,0,0,0,86.658,22.617a1.724,1.724,0,0,0,.127,1.338A1.758,1.758,0,0,0,87.833,24.807Z" transform="translate(-72.205 -2.009)"/>
      </g>
    </g>
  </g>
</svg>
