<svg xmlns="http://www.w3.org/2000/svg" xmlns:xlink="http://www.w3.org/1999/xlink" width="93.934" height="93.934" viewBox="0 0 93.934 93.934">
  <defs>
    <filter id="Trazado_978624" x="0" y="0" width="93.934" height="93.934" filterUnits="userSpaceOnUse">
      <feOffset dy="3" input="SourceAlpha"/>
      <feGaussianBlur stdDeviation="3" result="blur"/>
      <feFlood flood-opacity="0.161"/>
      <feComposite operator="in" in2="blur"/>
      <feComposite in="SourceGraphic"/>
    </filter>
  </defs>
  <g id="Grupo_1213605" data-name="Grupo 1213605" transform="translate(-188 -893.033)">
    <g id="Grupo_1181205" data-name="Grupo 1181205" transform="translate(-421 -630.5)">
      <g id="Grupo_1210963" data-name="Grupo 1210963" transform="translate(0 -377.186)">
        <g id="Grupo_1208068" data-name="Grupo 1208068" transform="translate(412 470.719)">
          <g id="Grupo_1144123" data-name="Grupo 1144123" transform="translate(206 1436)">
            <g transform="matrix(1, 0, 0, 1, -9, -6)" filter="url(#Trazado_978624)">
              <g id="Trazado_978624-2" data-name="Trazado 978624" transform="translate(9 6)" fill="#eaf5fb">
                <path d="M 37.966796875 74.43359375 C 33.04315185546875 74.43359375 28.26757431030273 73.46962738037109 23.77274131774902 71.56847381591797 C 19.43047523498535 69.73184967041016 15.53040790557861 67.10224914550781 12.18087482452393 63.75271987915039 C 8.831341743469238 60.4031867980957 6.201741218566895 56.50312042236328 4.365118980407715 52.16086196899414 C 2.463963508605957 47.66601943969727 1.499996900558472 42.89044189453125 1.499996900558472 37.966796875 C 1.499996900558472 33.04315185546875 2.463963508605957 28.26757431030273 4.365118980407715 23.77274131774902 C 6.201741218566895 19.43047523498535 8.831341743469238 15.53040790557861 12.18087482452393 12.18087482452393 C 15.53040790557861 8.831341743469238 19.43047523498535 6.201741218566895 23.77274131774902 4.365118980407715 C 28.26757431030273 2.463963508605957 33.04315185546875 1.499996900558472 37.966796875 1.499996900558472 C 42.89044189453125 1.499996900558472 47.66601943969727 2.463963508605957 52.16086196899414 4.365118980407715 C 56.50312042236328 6.201741218566895 60.4031867980957 8.831341743469238 63.75271987915039 12.18087482452393 C 67.10224914550781 15.53040790557861 69.73184967041016 19.43047523498535 71.56847381591797 23.77274131774902 C 73.46962738037109 28.26757431030273 74.43359375 33.04315185546875 74.43359375 37.966796875 C 74.43359375 42.89044189453125 73.46962738037109 47.66601943969727 71.56847381591797 52.16086196899414 C 69.73184967041016 56.50313186645508 67.10224914550781 60.4031867980957 63.75271987915039 63.75271987915039 C 60.4031867980957 67.10224914550781 56.50313186645508 69.73184967041016 52.16086196899414 71.56847381591797 C 47.66601943969727 73.46962738037109 42.89044189453125 74.43359375 37.966796875 74.43359375 Z" stroke="none"/>
                <path d="M 37.966796875 3 C 33.2449836730957 3 28.66600799560547 3.924095153808594 24.35705947875977 5.746635437011719 C 20.19359588623047 7.507621765136719 16.45379638671875 10.02927398681641 13.24153518676758 13.24153518676758 C 10.02927398681641 16.45379638671875 7.507621765136719 20.19359588623047 5.746635437011719 24.35705947875977 C 3.924095153808594 28.66600799560547 3 33.2449836730957 3 37.966796875 C 3 42.6886100769043 3.924095153808594 47.26758575439453 5.746635437011719 51.57653427124023 C 7.507621765136719 55.73999786376953 10.02927398681641 59.47979736328125 13.24153518676758 62.69205856323242 C 16.45379638671875 65.90431976318359 20.19359588623047 68.42597198486328 24.35705947875977 70.18695831298828 C 28.66600799560547 72.00949859619141 33.2449836730957 72.93359375 37.966796875 72.93359375 C 42.6886100769043 72.93359375 47.26758575439453 72.00949859619141 51.57653427124023 70.18695831298828 C 55.73999786376953 68.42597198486328 59.47979736328125 65.90431976318359 62.69205856323242 62.69205856323242 C 65.90431976318359 59.47979736328125 68.42597198486328 55.73999786376953 70.18695831298828 51.57653427124023 C 72.00949859619141 47.26758575439453 72.93359375 42.6886100769043 72.93359375 37.966796875 C 72.93359375 33.2449836730957 72.00949859619141 28.66600799560547 70.18695831298828 24.35705947875977 C 68.42597198486328 20.19359588623047 65.90431976318359 16.45379638671875 62.69205856323242 13.24153518676758 C 59.47979736328125 10.02927398681641 55.73999786376953 7.507621765136719 51.57653427124023 5.746635437011719 C 47.26758575439453 3.924095153808594 42.6886100769043 3 37.966796875 3 M 37.966796875 0 C 58.93528366088867 0 75.93359375 16.99831008911133 75.93359375 37.966796875 C 75.93359375 58.93528366088867 58.93528366088867 75.93359375 37.966796875 75.93359375 C 16.99831008911133 75.93359375 0 58.93528366088867 0 37.966796875 C 0 16.99831008911133 16.99831008911133 0 37.966796875 0 Z" stroke="none" fill="#3ea6db"/>
              </g>
            </g>
          </g>
        </g>
      </g>
    </g>
    <g id="fabricacion" transform="translate(195.081 902.407)">
      <g id="Grupo_1213604" data-name="Grupo 1213604" transform="translate(9.029 9.706)">
        <circle id="Elipse_14272" data-name="Elipse 14272" cx="1.373" cy="1.373" r="1.373" transform="translate(36.448 3.037)"/>
        <g id="Grupo_1213589" data-name="Grupo 1213589" transform="translate(31.179 38.305)">
          <g id="Grupo_1213585" data-name="Grupo 1213585">
            <g id="Grupo_1213583" data-name="Grupo 1213583">
              <path id="Trazado_1082440" data-name="Trazado 1082440" d="M259.869,322.879h7.946a1.385,1.385,0,0,0,1.371-1.394v-8.75a.72.72,0,0,0-.713-.725h-9.263a.72.72,0,0,0-.713.725v8.75a1.385,1.385,0,0,0,1.371,1.394Z" transform="translate(-258.498 -312.011)" fill="#e3a76f" fill-rule="evenodd"/>
              <path id="Trazado_1082441" data-name="Trazado 1082441" d="M320.3,322.88h1.371a1.385,1.385,0,0,0,1.371-1.394v-8.75a.72.72,0,0,0-.713-.725H320.96a.72.72,0,0,1,.713.725v8.75A1.385,1.385,0,0,1,320.3,322.88Z" transform="translate(-312.356 -312.012)" fill="#c48958" fill-rule="evenodd"/>
            </g>
            <g id="Grupo_1213584" data-name="Grupo 1213584" transform="translate(3.555)">
              <path id="Trazado_1082442" data-name="Trazado 1082442" d="M286.145,312.011h3.578v3.675a.687.687,0,0,1-.685.685H286.83a.687.687,0,0,1-.685-.685Z" transform="translate(-286.145 -312.011)" fill="#f2d1a5" fill-rule="evenodd"/>
              <path id="Trazado_1082443" data-name="Trazado 1082443" d="M303.044,312.011h.808v3.675a.687.687,0,0,1-.685.685h-.808a.687.687,0,0,0,.685-.685Z" transform="translate(-300.274 -312.011)" fill="#ecba78" fill-rule="evenodd"/>
            </g>
          </g>
          <g id="Grupo_1213588" data-name="Grupo 1213588" transform="translate(15.045)">
            <g id="Grupo_1213586" data-name="Grupo 1213586">
              <path id="Trazado_1082444" data-name="Trazado 1082444" d="M376.885,322.879h7.946a1.385,1.385,0,0,0,1.371-1.394v-8.75a.72.72,0,0,0-.713-.725h-9.263a.72.72,0,0,0-.712.725v8.75A1.385,1.385,0,0,0,376.885,322.879Z" transform="translate(-375.514 -312.011)" fill="#e3a76f" fill-rule="evenodd"/>
              <path id="Trazado_1082445" data-name="Trazado 1082445" d="M437.318,322.88h1.371a1.385,1.385,0,0,0,1.371-1.394v-8.75a.72.72,0,0,0-.713-.725h-1.371a.72.72,0,0,1,.713.725v8.75A1.385,1.385,0,0,1,437.318,322.88Z" transform="translate(-429.372 -312.012)" fill="#c48958" fill-rule="evenodd"/>
            </g>
            <g id="Grupo_1213587" data-name="Grupo 1213587" transform="translate(3.555)">
              <path id="Trazado_1082446" data-name="Trazado 1082446" d="M403.161,312.011h3.579v3.675a.687.687,0,0,1-.685.685h-2.208a.687.687,0,0,1-.685-.685v-3.675Z" transform="translate(-403.161 -312.011)" fill="#f2d1a5" fill-rule="evenodd"/>
              <path id="Trazado_1082447" data-name="Trazado 1082447" d="M420.06,312.011h.808v3.675a.687.687,0,0,1-.685.685h-.808a.687.687,0,0,0,.685-.685Z" transform="translate(-417.29 -312.011)" fill="#ecba78" fill-rule="evenodd"/>
            </g>
          </g>
        </g>
        <g id="Grupo_1213596" data-name="Grupo 1213596" transform="translate(4.586 0)">
          <path id="Trazado_1082448" data-name="Trazado 1082448" d="M113.084,34.016l-1.39-6.179L85.952,43.653,92.792,52Z" transform="translate(-81.544 -26.069)" fill="#d1d1d6" fill-rule="evenodd"/>
          <g id="Grupo_1213590" data-name="Grupo 1213590" transform="translate(37.87 19.956)">
            <path id="Trazado_1082449" data-name="Trazado 1082449" d="M360.311,176.346a7.05,7.05,0,0,1-3.667,6.187v-6.288l-3.457-2-3.457,2v6.207a7.052,7.052,0,1,1,10.582-6.106Z" transform="translate(-346.208 -169.294)" fill="#d1d1d6" fill-rule="evenodd"/>
            <path id="Trazado_1082450" data-name="Trazado 1082450" d="M378.81,176.346a7.05,7.05,0,0,1-3.667,6.187v-.049a7.052,7.052,0,0,0-7.3-12.007,7.052,7.052,0,0,1,10.962,5.869Zm-10.582-.1-.792.457v5.215a7.055,7.055,0,0,0,.792.534Z" transform="translate(-364.707 -169.294)" fill="#b1b1b5" fill-rule="evenodd"/>
          </g>
          <path id="Trazado_1082451" data-name="Trazado 1082451" d="M68.244,214.134l13.428-.18-5.507-20.84c-3.035-1.362-5.781-3.753-9.244-3.331Z" transform="translate(-64.96 -167.15)" fill="#d1d1d6" fill-rule="evenodd"/>
          <path id="Trazado_1082452" data-name="Trazado 1082452" d="M300.849,49.066l9.783,8.533c.99-.825,2.543-1.254,2.931-2.84l-8.548-9.736A50.448,50.448,0,0,0,300.849,49.066Z" transform="translate(-268.811 -41.046)" fill="#d1d1d6" fill-rule="evenodd"/>
          <g id="Grupo_1213591" data-name="Grupo 1213591" transform="translate(28.143)">
            <ellipse id="Elipse_14273" data-name="Elipse 14273" cx="3.761" cy="3.761" rx="3.761" ry="3.761" transform="translate(0 7.318) rotate(-76.7)" fill="#b1b1b5"/>
            <path id="Trazado_1082453" data-name="Trazado 1082453" d="M301.322,19.937a3.761,3.761,0,1,1-.643,7.467,3.761,3.761,0,0,0,0-7.412A3.782,3.782,0,0,1,301.322,19.937Z" transform="translate(-296.806 -19.185)" fill="#9c9c9e" fill-rule="evenodd"/>
          </g>
          <g id="Grupo_1213592" data-name="Grupo 1213592" transform="translate(41.264 13.186)">
            <circle id="Elipse_14274" data-name="Elipse 14274" cx="3.18" cy="3.18" r="3.18" transform="matrix(0.16, -0.987, 0.987, 0.16, 0, 6.277)" fill="#b1b1b5"/>
            <path id="Trazado_1082454" data-name="Trazado 1082454" d="M396.7,120.272a3.18,3.18,0,1,1-.643,6.295,3.181,3.181,0,0,0,0-6.23A3.189,3.189,0,0,1,396.7,120.272Z" transform="translate(-393.038 -119.806)" fill="#9c9c9e" fill-rule="evenodd"/>
          </g>
          <g id="Grupo_1213593" data-name="Grupo 1213593" transform="translate(1.87 15.371)">
            <circle id="Elipse_14275" data-name="Elipse 14275" cx="5.436" cy="5.436" r="5.436" transform="translate(0 10.405) rotate(-73.142)" fill="#b1b1b5"/>
            <path id="Trazado_1082455" data-name="Trazado 1082455" d="M114.571,144.028a5.436,5.436,0,1,1-.643,10.835,5.437,5.437,0,0,0,0-10.8A5.494,5.494,0,0,1,114.571,144.028Z" transform="translate(-107.793 -142.692)" fill="#9c9c9e" fill-rule="evenodd"/>
          </g>
          <g id="Grupo_1213594" data-name="Grupo 1213594" transform="translate(6.408 19.905)">
            <circle id="Elipse_14276" data-name="Elipse 14276" cx="1.948" cy="1.948" r="1.948" transform="matrix(0.16, -0.987, 0.987, 0.16, 0, 3.846)" fill="#9facba"/>
            <path id="Trazado_1082456" data-name="Trazado 1082456" d="M105.721,171.156a1.942,1.942,0,0,1,.643.109,1.949,1.949,0,0,0,0,3.68,1.949,1.949,0,1,1-.643-3.788Z" transform="translate(-103.482 -170.867)" fill="#8d9ca8" fill-rule="evenodd"/>
          </g>
          <g id="Grupo_1213595" data-name="Grupo 1213595" transform="translate(0 45.656)">
            <path id="Trazado_1082457" data-name="Trazado 1082457" d="M51.667,373.564H71.213v-2.878a1.625,1.625,0,0,0-1.718-1.5H53.385a1.625,1.625,0,0,0-1.718,1.5v2.878Z" transform="translate(-51.667 -369.186)" fill="#b1b1b5" fill-rule="evenodd"/>
            <path id="Trazado_1082458" data-name="Trazado 1082458" d="M70.289,373.565h1.128v-2.878a1.625,1.625,0,0,0-1.718-1.5H53.588a1.679,1.679,0,0,0-1.688,1.222,1.928,1.928,0,0,1,.56-.082H68.57a1.625,1.625,0,0,1,1.718,1.5Z" transform="translate(-51.87 -369.187)" fill="#9c9c9e" fill-rule="evenodd"/>
          </g>
        </g>
        <g id="Grupo_1213602" data-name="Grupo 1213602" transform="translate(0 49.174)">
          <g id="Grupo_1213597" data-name="Grupo 1213597" transform="translate(0 0)">
            <path id="Trazado_1082459" data-name="Trazado 1082459" d="M22.142,396.542H71.576a6.141,6.141,0,0,1,0,12.281H22.142a6.141,6.141,0,0,1,0-12.281Z" transform="translate(-16.001 -396.542)" fill="#9facba" fill-rule="evenodd"/>
            <path id="Trazado_1082460" data-name="Trazado 1082460" d="M438.239,396.542h1.286a6.141,6.141,0,0,1,0,12.281h-1.286a6.141,6.141,0,0,0,0-12.281Z" transform="translate(-383.95 -396.542)" fill="#8d9ca8" fill-rule="evenodd"/>
          </g>
          <g id="Grupo_1213598" data-name="Grupo 1213598" transform="translate(2.894 2.894)">
            <circle id="Elipse_14277" data-name="Elipse 14277" cx="3.246" cy="3.246" r="3.246" transform="translate(0 0)" fill="#8192a5"/>
            <path id="Trazado_1082461" data-name="Trazado 1082461" d="M59.4,419.054a3.246,3.246,0,1,1-.643,6.429,3.247,3.247,0,0,0,0-6.365,3.261,3.261,0,0,1,.643-.064Z" transform="translate(-56.158 -419.054)" fill="#65788e" fill-rule="evenodd"/>
          </g>
          <g id="Grupo_1213599" data-name="Grupo 1213599" transform="translate(18.886 2.409)">
            <circle id="Elipse_14278" data-name="Elipse 14278" cx="3.246" cy="3.246" r="3.246" transform="matrix(0.16, -0.987, 0.987, 0.16, 0, 6.408)" fill="#8192a5"/>
            <path id="Trazado_1082462" data-name="Trazado 1082462" d="M187.563,419.054a3.246,3.246,0,1,1-.643,6.429,3.247,3.247,0,0,0,0-6.365,3.261,3.261,0,0,1,.643-.064Z" transform="translate(-183.83 -418.569)" fill="#65788e" fill-rule="evenodd"/>
          </g>
          <g id="Grupo_1213600" data-name="Grupo 1213600" transform="translate(34.877 1.892)">
            <circle id="Elipse_14279" data-name="Elipse 14279" cx="3.246" cy="3.246" r="3.246" transform="translate(0 2.487) rotate(-22.514)" fill="#8192a5"/>
            <path id="Trazado_1082463" data-name="Trazado 1082463" d="M315.723,419.054a3.246,3.246,0,1,1-.643,6.429,3.247,3.247,0,0,0,0-6.365,3.261,3.261,0,0,1,.643-.064Z" transform="translate(-311.503 -418.051)" fill="#65788e" fill-rule="evenodd"/>
          </g>
          <g id="Grupo_1213601" data-name="Grupo 1213601" transform="translate(52.328 2.894)">
            <circle id="Elipse_14280" data-name="Elipse 14280" cx="3.246" cy="3.246" r="3.246" transform="translate(0 0)" fill="#8192a5"/>
            <path id="Trazado_1082464" data-name="Trazado 1082464" d="M443.883,419.054a3.246,3.246,0,1,1-.643,6.429,3.247,3.247,0,0,0,0-6.365,3.261,3.261,0,0,1,.643-.064Z" transform="translate(-440.637 -419.054)" fill="#65788e" fill-rule="evenodd"/>
          </g>
        </g>
        <g id="Grupo_1213603" data-name="Grupo 1213603" transform="translate(0.569 6.24)">
          <path id="Trazado_1082465" data-name="Trazado 1082465" d="M38.654,65.141a12.976,12.976,0,0,1,3.8,1.575l2.469-1.1,2.91,2.91L46.735,71a12.979,12.979,0,0,1,1.575,3.8l2.519.969v4.115l-2.519.97a12.979,12.979,0,0,1-1.575,3.8l1.1,2.469-2.91,2.91-2.468-1.1a12.978,12.978,0,0,1-3.8,1.575l-.969,2.519H33.569l-.97-2.519a12.979,12.979,0,0,1-3.8-1.575l-2.469,1.1-2.91-2.91,1.1-2.468a12.979,12.979,0,0,1-1.575-3.8l-2.519-.969V75.767l2.519-.97A12.973,12.973,0,0,1,24.518,71l-1.1-2.468,2.91-2.91,2.469,1.1a12.98,12.98,0,0,1,3.8-1.575l.97-2.519h4.115Z" transform="translate(-20.424 -62.622)" fill="#ffe177" fill-rule="evenodd"/>
          <path id="Trazado_1082466" data-name="Trazado 1082466" d="M81.635,65.988l.829-.368,2.91,2.91L84.278,71a12.976,12.976,0,0,1,1.575,3.8l2.519.969v4.115l-2.519.97a12.976,12.976,0,0,1-1.575,3.8l1.1,2.469-2.91,2.91-.829-.368,2.541-2.542-1.1-2.469a12.976,12.976,0,0,0,1.575-3.8l2.519-.97V75.767L84.656,74.8A12.979,12.979,0,0,0,83.081,71l1.1-2.468Zm-18.129,0,.368-.368,2.469,1.1q-.262.145-.517.3Zm12.69-.847A12.975,12.975,0,0,1,80,66.716l-.68.3A16.971,16.971,0,0,0,75,65.141l-.97-2.519h1.2ZM66.343,88.933l-2.469,1.1-.368-.368,2.32-1.03Q66.081,88.788,66.343,88.933Zm13.653,0a12.978,12.978,0,0,1-3.8,1.575l-.969,2.519h-1.2L75,90.508a16.974,16.974,0,0,0,4.317-1.877Z" transform="translate(-57.967 -62.622)" fill="#ffd064" fill-rule="evenodd"/>
          <circle id="Elipse_14281" data-name="Elipse 14281" cx="7.753" cy="7.753" r="7.753" transform="translate(4.235 15.202) rotate(-45)" fill="#eceff1"/>
          <path id="Trazado_1082467" data-name="Trazado 1082467" d="M86.114,120.559c.177,0,.352.006.525.018a7.753,7.753,0,0,0,0,15.47c-.174.012-.349.018-.525.018a7.753,7.753,0,1,1,0-15.507Z" transform="translate(-70.912 -113.11)" fill="#d1d1d6" fill-rule="evenodd"/>
        </g>
      </g>
      <path id="Trazado_1082468" data-name="Trazado 1082468" d="M24.8,25.372a6.147,6.147,0,1,1-6.147,6.147A6.155,6.155,0,0,1,24.8,25.372Zm0,14.352a8.2,8.2,0,1,0-8.2-8.205A8.215,8.215,0,0,0,24.8,39.724ZM44.871,13.857a1.414,1.414,0,1,1,1.414,1.414A1.414,1.414,0,0,1,44.871,13.857ZM64.6,67.609a2.218,2.218,0,1,1,2.218-2.218A2.221,2.221,0,0,1,64.6,67.609Zm0-6.493a4.275,4.275,0,1,0,4.275,4.275A4.281,4.281,0,0,0,64.6,61.115ZM48.126,67.609a2.218,2.218,0,1,1,2.218-2.218A2.221,2.221,0,0,1,48.126,67.609Zm0-6.493A4.275,4.275,0,1,0,52.4,65.39,4.281,4.281,0,0,0,48.126,61.115ZM31.648,67.609a2.218,2.218,0,1,1,2.218-2.218A2.221,2.221,0,0,1,31.648,67.609Zm0-6.493a4.275,4.275,0,1,0,4.274,4.275A4.281,4.281,0,0,0,31.648,61.115ZM15.169,67.609a2.218,2.218,0,1,1,2.218-2.218A2.221,2.221,0,0,1,15.169,67.609Zm0-6.493a4.275,4.275,0,1,0,4.275,4.275A4.28,4.28,0,0,0,15.169,61.115Zm11.69,7.522a1.028,1.028,0,0,1-1.028,1.029H20.986a1.029,1.029,0,1,1,0-2.057h4.845A1.028,1.028,0,0,1,26.859,68.637Zm16.479,0a1.028,1.028,0,0,1-1.029,1.029H37.464a1.029,1.029,0,0,1,0-2.057h4.845A1.029,1.029,0,0,1,43.338,68.637Zm16.478-6.493a1.029,1.029,0,0,1-1.029,1.029H53.942a1.029,1.029,0,1,1,0-2.057h4.844A1.029,1.029,0,0,1,59.815,62.144Zm-32.956,0a1.028,1.028,0,0,1-1.028,1.029H20.986a1.029,1.029,0,1,1,0-2.057h4.845A1.028,1.028,0,0,1,26.859,62.144Zm32.956,6.493a1.028,1.028,0,0,1-1.029,1.029H53.942a1.029,1.029,0,1,1,0-2.057h4.844A1.029,1.029,0,0,1,59.815,68.637ZM43.338,62.144a1.029,1.029,0,0,1-1.029,1.029H37.464a1.029,1.029,0,0,1,0-2.057h4.845A1.028,1.028,0,0,1,43.338,62.144ZM64.6,70.5a5.112,5.112,0,0,0,0-10.224H15.169a5.112,5.112,0,0,0,0,10.224Zm-49.96-13a.715.715,0,0,1,.713-.714H31.7a.715.715,0,0,1,.714.714v.715H15.169c-.177,0-.352.009-.526.022Zm2.526-13.4.738-.328A13.952,13.952,0,0,0,21,45.065l.781,2.025a1.026,1.026,0,0,0,.959.66h4.114A.938.938,0,0,0,27,47.739l1.852,7H17.8Zm-3.347-3.523,1.91,1.911,1.823-.81a1.032,1.032,0,0,1,.958.065,11.913,11.913,0,0,0,3.5,1.45,1.026,1.026,0,0,1,.721.631l.716,1.861h2.7l.716-1.86a1.031,1.031,0,0,1,.721-.631,11.922,11.922,0,0,0,3.5-1.45,1.027,1.027,0,0,1,.957-.064l1.822.81,1.911-1.911-.809-1.823a1.029,1.029,0,0,1,.064-.957,11.958,11.958,0,0,0,1.45-3.5,1.027,1.027,0,0,1,.63-.721l1.861-.716v-2.7l-1.859-.716a1.029,1.029,0,0,1-.631-.722,11.93,11.93,0,0,0-1.45-3.5,1.028,1.028,0,0,1-.064-.957l.809-1.823-1.911-1.911-1.823.81a1.027,1.027,0,0,1-.957-.064,11.931,11.931,0,0,0-3.5-1.45,1.029,1.029,0,0,1-.721-.631l-.716-1.86h-2.7l-.716,1.86a1.025,1.025,0,0,1-.721.631,11.951,11.951,0,0,0-3.5,1.45,1.027,1.027,0,0,1-.957.064l-1.823-.81-1.91,1.911.81,1.823a1.029,1.029,0,0,1-.064.957,11.927,11.927,0,0,0-1.45,3.5,1.031,1.031,0,0,1-.631.722l-1.861.716v2.7l1.861.715a1.03,1.03,0,0,1,.63.722,11.913,11.913,0,0,0,1.452,3.5,1.03,1.03,0,0,1,.064.957ZM46.286,11.117a2.739,2.739,0,1,0,2.74,2.739A2.742,2.742,0,0,0,46.286,11.117Zm8.621,12.944L48.252,18.23a4.829,4.829,0,0,0,2.258-2.1L56.448,22.5A4.246,4.246,0,0,0,54.906,24.061Zm3.664-.076a2.157,2.157,0,1,0,2.157,2.157A2.16,2.16,0,0,0,58.571,23.985Zm6.036,12.407A6.044,6.044,0,0,1,62.991,40.5V36.291a1.031,1.031,0,0,0-.514-.891l-3.464-2a1.032,1.032,0,0,0-1.029,0l-3.464,2a1.028,1.028,0,0,0-.514.891v4.047a6.035,6.035,0,1,1,10.6-3.946ZM37.731,21.5l-2.909-2.909a1.023,1.023,0,0,0-.413-.25L41.5,14.128A4.8,4.8,0,0,0,43.9,18.016l-6.218,5.211.26-.586a1.028,1.028,0,0,0-.213-1.145ZM41.019,49.41h1.557v3.406A1.028,1.028,0,0,0,43.6,53.844h3.639a1.028,1.028,0,0,0,1.029-1.028V49.41H49.83v8.811H41.019V49.41Zm3.614,0v2.377h1.581V49.41Zm11.684,0h1.558v3.406A1.028,1.028,0,0,0,58.9,53.844h3.64a1.029,1.029,0,0,0,1.029-1.028V49.41h1.557v8.833c-.174-.013-.349-.022-.526-.022H56.318Zm3.614,0v2.377h1.583V49.41Zm6.735,9.115h.519V48.382a1.028,1.028,0,0,0-1.028-1.029H55.289a1.028,1.028,0,0,0-1.029,1.029v9.839H51.887V48.382a1.028,1.028,0,0,0-1.029-1.029H39.991a1.028,1.028,0,0,0-1.029,1.029v9.839H34.47v-.715A2.775,2.775,0,0,0,31.7,54.736h-.717l-2.488-9.4.1-.268a13.964,13.964,0,0,0,3.1-1.283l1.985.882a1.029,1.029,0,0,0,1.144-.213l2.909-2.909a1.029,1.029,0,0,0,.214-1.145l-.882-1.985a13.942,13.942,0,0,0,1.283-3.1l2.026-.779a1.03,1.03,0,0,0,.658-.96V29.461a1.029,1.029,0,0,0-.658-.96l-2.025-.779A14.17,14.17,0,0,0,37.7,25.9l8.275-6.933,8.388,7.35a4.2,4.2,0,0,0,1.06,2.62,8.094,8.094,0,0,0-.9,14.461,1.029,1.029,0,0,0,1.544-.89V36.884L58.5,35.478l2.435,1.406V42.59a1.028,1.028,0,0,0,1.522.9,8.093,8.093,0,0,0-.734-14.555,4.212,4.212,0,0,0-3-7.007l-7.647-8.208A4.794,4.794,0,0,0,42.23,11.3L30.113,18.494a13.841,13.841,0,0,0-1.517-.522l-.779-2.025a1.029,1.029,0,0,0-.961-.66H22.742a1.025,1.025,0,0,0-.959.66L21,17.972a14.007,14.007,0,0,0-3.1,1.283l-1.985-.882a1.031,1.031,0,0,0-1.146.213L11.868,21.5a1.026,1.026,0,0,0-.212,1.145l.881,1.985a14.01,14.01,0,0,0-1.283,3.1l-2.025.78a1.029,1.029,0,0,0-.66.96v4.115a1.029,1.029,0,0,0,.66.96l2.025.779a13.972,13.972,0,0,0,1.283,3.1L11.655,40.4a1.026,1.026,0,0,0,.212,1.145l2.909,2.909a1.04,1.04,0,0,0,.367.234l.6,10.051h-.388a2.774,2.774,0,0,0-2.771,2.771v1.2A7.169,7.169,0,0,0,15.169,72.56H64.6a7.169,7.169,0,0,0,2.063-14.035Z" fill="#242222" fill-rule="evenodd"/>
    </g>
  </g>
</svg>
