<svg xmlns="http://www.w3.org/2000/svg" xmlns:xlink="http://www.w3.org/1999/xlink" width="190" height="172" viewBox="0 0 190 172">
  <defs>
    <clipPath id="clip-path">
      <rect id="Rect치ngulo_420024" data-name="Rect치ngulo 420024" width="190" height="172" transform="translate(180 8123)" fill="#fff" stroke="#707070" stroke-width="1" opacity="0.81"/>
    </clipPath>
  </defs>
  <g id="Enmascarar_grupo_1211456" data-name="Enmascarar grupo 1211456" transform="translate(-180 -8123)" clip-path="url(#clip-path)">
    <g id="Grupo_1214122" data-name="Grupo 1214122" transform="translate(-10.086)">
      <rect id="Rect치ngulo_420021" data-name="Rect치ngulo 420021" width="105" height="163" rx="17" transform="translate(221 8149)" fill="#fc3"/>
      <g id="Page-1" transform="translate(238.661 8163.028)">
        <g id="_004---CPU-Speed" data-name="004---CPU-Speed" transform="translate(0 -0.015)">
          <g id="Icons" transform="translate(2.008 2.011)">
            <path id="Shape" d="M78.289,56.94V83.265a6.024,6.024,0,0,1-6.024,6.024H12.024A6.024,6.024,0,0,1,6,83.265V23.024A6.024,6.024,0,0,1,12.024,17H38.349a37.854,37.854,0,0,0-.221,4.016A36.145,36.145,0,0,0,74.273,57.161,37.851,37.851,0,0,0,78.289,56.94Z" transform="translate(6.048 15.156)" fill="#60a917"/>
            <path id="Shape-2" data-name="Shape" d="M44.032,37.111c-.679,0-1.339-.064-2.008-.1V63.215A6.024,6.024,0,0,1,36,69.239h6.024a6.024,6.024,0,0,0,6.024-6.024V36.89A37.853,37.853,0,0,1,44.032,37.111Z" transform="translate(36.289 35.205)" fill="#549414"/>
            <path id="Shape-3" data-name="Shape" d="M66.225,52.908V77.225H10V21H34.317A36.163,36.163,0,0,0,66.225,52.908Z" transform="translate(10.08 19.188)" fill="#a4c400"/>
            <path id="Shape-4" data-name="Shape" d="M25.134,21H19.11A36.163,36.163,0,0,0,51.018,52.908V77.225h6.024V52.908A36.163,36.163,0,0,1,25.134,21Z" transform="translate(19.263 19.188)" fill="#90ac00"/>
            <g id="Grupo_1214116" data-name="Grupo 1214116" transform="translate(0 20.107)">
              <path id="Shape-5" data-name="Shape" d="M14.016,11a4.016,4.016,0,0,1,4.016,4.016v8.032H10V15.016A4.016,4.016,0,0,1,14.016,11Z" transform="translate(10.08 -11)" fill="#ffdf00"/>
              <path id="Shape-6" data-name="Shape" d="M22.016,11a4.016,4.016,0,0,1,4.016,4.016v8.032H18V15.016A4.016,4.016,0,0,1,22.016,11Z" transform="translate(18.145 -11)" fill="#ffdf00"/>
              <path id="Shape-7" data-name="Shape" d="M10,53h8.032v8.032a4.016,4.016,0,1,1-8.032,0Z" transform="translate(10.08 31.337)" fill="#ffdf00"/>
              <path id="Shape-8" data-name="Shape" d="M18,53h8.032v8.032a4.016,4.016,0,1,1-8.032,0Z" transform="translate(18.145 31.337)" fill="#ffdf00"/>
              <path id="Shape-9" data-name="Shape" d="M26,53h8.032v8.032a4.016,4.016,0,1,1-8.032,0Z" transform="translate(26.209 31.337)" fill="#ffdf00"/>
              <path id="Shape-10" data-name="Shape" d="M34,53h8.032v8.032a4.016,4.016,0,1,1-8.032,0Z" transform="translate(34.273 31.337)" fill="#ffdf00"/>
              <path id="Shape-11" data-name="Shape" d="M0,0H8.032V8.032A4.016,4.016,0,0,1,0,8.032Z" transform="translate(84.337 76.305) rotate(-90)" fill="#ffdf00"/>
              <path id="Shape-12" data-name="Shape" d="M0,0H8.032V8.032A4.016,4.016,0,0,1,0,8.032Z" transform="translate(84.337 60.241) rotate(-90)" fill="#ffdf00"/>
              <path id="Shape-13" data-name="Shape" d="M0,0H8.032V8.032A4.016,4.016,0,1,1,0,8.032Z" transform="translate(12.048 20.08) rotate(90)" fill="#ffdf00"/>
              <path id="Shape-14" data-name="Shape" d="M0,0H8.032V8.032A4.016,4.016,0,1,1,0,8.032Z" transform="translate(12.048 36.145) rotate(90)" fill="#ffdf00"/>
              <path id="Shape-15" data-name="Shape" d="M0,0H8.032V8.032A4.016,4.016,0,0,1,0,8.032Z" transform="translate(12.048 52.209) rotate(90)" fill="#ffdf00"/>
              <path id="Shape-16" data-name="Shape" d="M0,0H8.032V8.032A4.016,4.016,0,0,1,0,8.032Z" transform="translate(12.048 68.273) rotate(90)" fill="#ffdf00"/>
            </g>
            <path id="Shape-17" data-name="Shape" d="M94.289,37.158A36.165,36.165,0,0,1,62.161,73.082a36.621,36.621,0,0,1-8.032,0A36.163,36.163,0,0,1,22.221,41.174a36.621,36.621,0,0,1,0-8.032,36.145,36.145,0,0,1,72.068,4.016Z" transform="translate(22.177 -0.986)" fill="#02a9f4"/>
            <path id="Shape-18" data-name="Shape" d="M41.565,1c-1.052,0-2.088.058-3.118.147a36.131,36.131,0,0,1,1.11,71.922c-.333.036-.669.054-1,.082.994.082,1.99.139,3.012.139a37.85,37.85,0,0,0,4.016-.221A36.145,36.145,0,0,0,41.565,1Z" transform="translate(38.756 -0.973)" fill="#0377bc"/>
            <circle id="Oval" cx="6.024" cy="6.024" r="6.024" transform="translate(74.297 30.148)" fill="#f44335"/>
          </g>
          <g id="Icons_copy">
            <path id="Shape-19" data-name="Shape" d="M16.008,35.04A2.008,2.008,0,0,1,14,33.032V27.008A2.008,2.008,0,0,1,16.008,25h6.024a2.008,2.008,0,0,1,0,4.016H18.016v4.016A2.008,2.008,0,0,1,16.008,35.04Z" transform="translate(14.112 23.223)" fill="#f5f5f5"/>
            <g id="Grupo_1214117" data-name="Grupo 1214117">
              <path id="Shape-20" data-name="Shape" d="M6.024,89.368a6.024,6.024,0,1,0,0,12.048h6.024a8.032,8.032,0,0,0,8.032,8.032v6.024a6.024,6.024,0,0,0,12.048,0v-6.024h4.016v6.024a6.024,6.024,0,0,0,12.048,0v-6.024h4.016v6.024a6.024,6.024,0,0,0,12.048,0v-6.024h4.016v6.024a6.024,6.024,0,0,0,12.048,0v-6.024a8.032,8.032,0,0,0,8.032-8.032h6.024a6.024,6.024,0,1,0,0-12.048H88.353V85.352h6.024a6.006,6.006,0,0,0,3.078-11.175A38.153,38.153,0,1,0,47.319,24.041a6.006,6.006,0,0,0-11.175,3.078v6.024H32.129V27.119a6.024,6.024,0,0,0-12.048,0v6.024a8.032,8.032,0,0,0-8.032,8.032H6.024a6.024,6.024,0,1,0,0,12.048h6.024V57.24H6.024a6.024,6.024,0,0,0,0,12.048h6.024V73.3H6.024a6.024,6.024,0,0,0,0,12.048h6.024v4.016Zm0,8.032a2.008,2.008,0,0,1,0-4.016h6.024V97.4Zm22.088,18.072a2.008,2.008,0,0,1-4.016,0v-6.024h4.016Zm16.064,0a2.008,2.008,0,0,1-4.016,0v-6.024h4.016Zm16.064,0a2.008,2.008,0,0,1-4.016,0v-6.024h4.016Zm16.064,0a2.008,2.008,0,0,1-4.016,0v-6.024h4.016ZM94.378,93.384a2.008,2.008,0,1,1,0,4.016H88.353V93.384Zm0-12.048H88.353V77.32h6.024a2.008,2.008,0,1,1,0,4.016ZM82.329,5.031A34.137,34.137,0,1,1,48.193,39.168,34.137,34.137,0,0,1,82.329,5.031ZM76.305,76.8V97.4H24.1V45.192H44.7A38.177,38.177,0,0,0,76.305,76.8ZM40.161,27.119a2.008,2.008,0,1,1,4.016,0v6.024H40.161Zm-16.064,0a2.008,2.008,0,1,1,4.016,0v6.024H24.1ZM16.064,41.176A4.016,4.016,0,0,1,20.08,37.16h24.2c-.036.669-.1,1.329-.1,2.008s.066,1.339.1,2.008H22.088a2.008,2.008,0,0,0-2.008,2.008V99.409a2.008,2.008,0,0,0,2.008,2.008H78.313a2.008,2.008,0,0,0,2.008-2.008V77.218c.669.036,1.329.1,2.008.1s1.339-.066,2.008-.1v24.2a4.016,4.016,0,0,1-4.016,4.016H20.08a4.016,4.016,0,0,1-4.016-4.016ZM6.024,49.208a2.008,2.008,0,1,1,0-4.016h6.024v4.016Zm0,16.064a2.008,2.008,0,1,1,0-4.016h6.024v4.016Zm0,16.064a2.008,2.008,0,1,1,0-4.016h6.024v4.016Z" transform="translate(0 -0.985)"/>
              <path id="Shape-21" data-name="Shape" d="M34.82,56.416a2.007,2.007,0,0,0,2.841,0l4.259-4.259a2.008,2.008,0,1,0-2.839-2.839L36.3,52.1a25.934,25.934,0,0,1-6.191-14.976h3.928a2.008,2.008,0,0,0,0-4.016H30.12a25.954,25.954,0,0,1,6.2-14.954l2.765,2.763a2.008,2.008,0,1,0,2.839-2.839L39.16,15.318a25.954,25.954,0,0,1,14.954-6.2v3.914a2.008,2.008,0,1,0,4.016,0V9.119a25.954,25.954,0,0,1,14.954,6.2L70.32,18.083a2.008,2.008,0,1,0,2.839,2.839l2.765-2.763a25.954,25.954,0,0,1,6.2,14.954H78.21a2.008,2.008,0,1,0,0,4.016h3.928A25.934,25.934,0,0,1,75.945,52.1L73.16,49.32a2.008,2.008,0,1,0-2.839,2.839l4.261,4.261a2,2,0,0,0,2.839,0,30.121,30.121,0,1,0-42.6,0Z" transform="translate(26.208 3.062)"/>
              <path id="Shape-22" data-name="Shape" d="M54,10.2a2.008,2.008,0,0,0-2.671.944l-5.241,11a7.56,7.56,0,0,0-.984-.1,8.1,8.1,0,1,0,4.729,1.574l5.11-10.751A2.008,2.008,0,0,0,54,10.2Zm-8.9,23.9a4.016,4.016,0,1,1,4.016-4.016A4.016,4.016,0,0,1,45.1,34.093Z" transform="translate(37.225 8.105)"/>
            </g>
          </g>
        </g>
      </g>
    </g>
  </g>
</svg>
