<svg xmlns="http://www.w3.org/2000/svg" xmlns:xlink="http://www.w3.org/1999/xlink" width="190" height="156" viewBox="0 0 190 156">
  <defs>
    <clipPath id="clip-path">
      <rect id="Rectángulo_420025" data-name="Rectángulo 420025" width="190" height="156" transform="translate(180 3297)" fill="#fff" stroke="#707070" stroke-width="1"/>
    </clipPath>
    <clipPath id="clip-path-2">
      <path id="Trazado_1083389" data-name="Trazado 1083389" d="M184.89,181.49h20.14v42.852H184.89Z" transform="translate(-184.89 -181.49)"/>
    </clipPath>
  </defs>
  <g id="Enmascarar_grupo_1211457" data-name="Enmascarar grupo 1211457" transform="translate(-180 -3297)" clip-path="url(#clip-path)">
    <g id="Creative_Idea" data-name="Creative Idea" transform="translate(149.03 3272.168)">
      <path id="Trazado_1083386" data-name="Trazado 1083386" d="M305.221,253.709l-28.729,33.125a217.269,217.269,0,0,1-21.918-22.551c-4.2-5-5.545-7.081-8.513-9.578-6.557-5.513-16.615-9.368-32.56-8.3a36.286,36.286,0,0,0,2.254,20.486,35.133,35.133,0,0,0,9.005,12.074c24.132,22.059,44.538,40.731,61.3,34.278,6.3-2.42,10.082-8.5,17.663-20.644a133.258,133.258,0,0,0,15.393-35.182Z" transform="translate(-105.602 -128.534)" fill="#86ebf9"/>
      <g id="Grupo_1214123" data-name="Grupo 1214123" transform="translate(96.026 91.587)" clip-path="url(#clip-path-2)">
        <path id="Trazado_1083387" data-name="Trazado 1083387" d="M184.89,181.49h20.14v42.852H184.89Z" transform="translate(-184.89 -181.49)" fill="#955d43"/>
        <path id="Trazado_1083388" data-name="Trazado 1083388" d="M186.81,201.48c3.508,10.054,12.711,16.268,23.011,16.833V206.061Z" transform="translate(-186.036 -193.419)" fill="#834a27"/>
      </g>
      <path id="Trazado_1083390" data-name="Trazado 1083390" d="M195.925,107.455c-1.153-4.255-2.561-6.743-3.226-9.541-1.613-6.912-1.613-12.368-7.287-16.433a24.559,24.559,0,0,0-5.94-3.863c-7.945-4.259-19.918-2.722-27.14,4.468-8.32,8.279-6.521,20.265-6.073,23.241,2.089,13.9,13.066,21.874,17.768,24.713a36.03,36.03,0,0,0,8.4,4.5c3.327,1.21,12.239,4.436,17.676-.246,1.42-1.21,3.226-4.033,4.908-10.316C197.207,115.887,197.086,111.713,195.925,107.455Z" transform="translate(-65.528 -26.514)" fill="#955d43"/>
      <g id="Grupo_1214124" data-name="Grupo 1214124" transform="translate(99.902 66.487)">
        <path id="Trazado_1083391" data-name="Trazado 1083391" d="M236.457,158.082a.2.2,0,0,1-.121-.363c1.335-1.016,1.964-1.948,1.867-2.766-.226-1.883-3.944-1.738-6.049-8.037a.2.2,0,1,1,.383-.129c2.069,6.21,5.8,5.944,6.049,8.118.117.972-.565,2.016-2.016,3.133A.214.214,0,0,1,236.457,158.082Z" transform="translate(-216.964 -135.599)" fill="#2d1929"/>
        <path id="Trazado_1083392" data-name="Trazado 1083392" d="M248.789,143.873c-1,.23-2.109-.847-2.46-2.42s.177-3,1.182-3.226,2.113.851,2.464,2.42S249.8,143.647,248.789,143.873Z" transform="translate(-225.364 -130.557)" fill="#2d1929"/>
        <path id="Trazado_1083393" data-name="Trazado 1083393" d="M209.9,152.693c-1.008.23-2.109-.847-2.464-2.42s.177-3,1.186-3.226,2.109.851,2.464,2.42S210.909,152.467,209.9,152.693Z" transform="translate(-202.155 -135.82)" fill="#2d1929"/>
        <path id="Trazado_1083394" data-name="Trazado 1083394" d="M232.628,122.52a.4.4,0,0,1-.306-.669c.036-.04,3.629-4.033,8.6-2.049a.4.4,0,1,1-.3.75,7.04,7.04,0,0,0-7.69,1.831.4.4,0,0,1-.3.137Z" transform="translate(-217.01 -119.249)" fill="#2d1929"/>
        <path id="Trazado_1083395" data-name="Trazado 1083395" d="M194.9,130.519a.4.4,0,0,1-.355-.593c2.512-4.73,7.815-3.988,7.88-3.988a.4.4,0,1,1-.117.8,7.039,7.039,0,0,0-7.053,3.577.4.4,0,0,1-.355.206Z" transform="translate(-194.503 -123.215)" fill="#2d1929"/>
      </g>
      <path id="Trazado_1083396" data-name="Trazado 1083396" d="M149.623,340.908s-11.792-68.206-5.936-81.22c6.122-13.607,42.84-19.357,55.579-4.464,12.131,14.187,4.222,85.684,4.222,85.684Z" transform="translate(-63.304 -128.657)" fill="#efbd42"/>
      <path id="Trazado_1083397" data-name="Trazado 1083397" d="M97.28,204.243Q80.419,210.292,63.647,216.4q6.279-17.873,12.554-35.75L63.4,173.84c-2.573,3.69-6.049,8.961-9.787,15.534C41.374,210.966,31.566,228.262,38.01,238.1c5.646,8.638,21.107,7.368,35.609,6.178,9.195-.758,12.852-2.976,14.046-5.747a6.4,6.4,0,0,0,.423-3.194C87.75,231.246,89.343,222.83,97.28,204.243Z" transform="translate(0 -85.338)" fill="#86ebf9"/>
      <path id="Trazado_1083398" data-name="Trazado 1083398" d="M185,245.195c1.641,9.429,9.59,14.022,14.26,12.477,3.867-1.282,6.856-7.259,5.815-14.115A21.063,21.063,0,0,0,185,245.195Z" transform="translate(-88.93 -125.862)" fill="#955d43"/>
      <path id="Trazado_1083399" data-name="Trazado 1083399" d="M152.477,251a158.832,158.832,0,0,1,9.55,34.065s2.21,13.711,1.295,58.556H134.793s-1-15.708-1.774-32.891c-1.032-22.934-5.138-31.589-.4-41.743C136.882,259.844,145.1,254.371,152.477,251Z" transform="translate(-56.338 -131.381)" fill="#86ebf9"/>
      <path id="Trazado_1083400" data-name="Trazado 1083400" d="M234.82,246.206s12.6,53.636,8.973,94.556H263.2s3.755-63.564-.863-77.957c-4.863-15.135-19.252-16.813-27.519-16.6Z" transform="translate(-118.659 -128.511)" fill="#86ebf9"/>
      <path id="Trazado_1083401" data-name="Trazado 1083401" d="M127.218,316.134a50.623,50.623,0,0,1,3.537-21.624s-6.15,6.537-7,21.974Z" transform="translate(-52.381 -157.345)" fill="#40c2d6"/>
      <path id="Trazado_1083402" data-name="Trazado 1083402" d="M84.729,276.038a41.646,41.646,0,0,1-13.409,11.7,37.421,37.421,0,0,0,19.6-13.953Z" transform="translate(-21.094 -144.975)" fill="#40c2d6"/>
      <path id="Trazado_1083403" data-name="Trazado 1083403" d="M300.68,306s3.464,23.959,3.263,31.835l3.863,2.8A86.2,86.2,0,0,0,300.68,306Z" transform="translate(-157.959 -164.201)" fill="#40c2d6"/>
      <path id="Trazado_1083404" data-name="Trazado 1083404" d="M172.875,234.62a6.055,6.055,0,0,0-3.936,3.581,19.867,19.867,0,0,1-4.259,5.682s5.4,15.385,6.743,15.808,6.158-4.033,6.158-4.033S172.572,238.846,172.875,234.62Z" transform="translate(-76.805 -121.607)" fill="#86ebf9"/>
      <path id="Trazado_1083405" data-name="Trazado 1083405" d="M240.168,238.05s-2.42-2.335-3.9-4.146-1.952-1.754-1.952-1.754-2.069,9.1,4.033,26.1Z" transform="translate(-118.159 -120.133)" fill="#86ebf9"/>
      <path id="Trazado_1083406" data-name="Trazado 1083406" d="M165.985,257a34.5,34.5,0,0,0,3.508,16.99l4.134-8.283,4.706,4.549-4.706-7.315q-1.964,3.6-3.936,7.2A70,70,0,0,1,165.985,257Z" transform="translate(-77.557 -134.962)" fill="#40c2d6"/>
      <path id="Trazado_1083407" data-name="Trazado 1083407" d="M246.39,246.78a41.605,41.605,0,0,1,3.271,14.2l-5.182-3.666-.069,7.166,1.488-4.541,5.819,3.545A25.955,25.955,0,0,0,246.39,246.78Z" transform="translate(-124.381 -128.863)" fill="#40c2d6"/>
      <path id="Trazado_1083408" data-name="Trazado 1083408" d="M364.025,342.206s-3.629,10.485-1.065,18.115c0,0-5.436-8.816-2.42-21.3Z" transform="translate(-193.136 -183.905)" fill="#40c2d6"/>
      <path id="Trazado_1083409" data-name="Trazado 1083409" d="M138.451,95.848l2.448-5.105c9.626-11.578,6.049-21.607,9.578-22.987,2.964-1.149,6.622,5.154,11.126,3.791a6.267,6.267,0,0,0,3.025-2.194s7.779-1.036,11.445,5.335c0,0,5.154-13.248,1.182-20.055s-13.449.573-18.506-.847-12.05-.569-15.22,2.976-6.5,1.42-13.058,5.545-5.71,9.921-5.142,13.308-2.823,2.545-3.831,8.3,6.452,25.552,25.572,30.476Z" transform="translate(-50.983 -12.456)" fill="#2d1929"/>
      <path id="Trazado_1083410" data-name="Trazado 1083410" d="M154.169,161.135c-2.952,1.7-7.029.177-9.1-3.412s-1.355-7.88,1.613-9.586,7.025-.177,9.1,3.412S157.125,159.429,154.169,161.135Z" transform="translate(-64.398 -69.584)" fill="#955d43"/>
      <path id="Trazado_1083411" data-name="Trazado 1083411" d="M157.616,160.88a2.7,2.7,0,0,1-2.589-1.98c-.294-1.21,1.21-1.936,1.815-2.17-.524-.807-2.529-3.545-4.726-3.121-2.069.4-1.674,2.738-1.657,2.823a.2.2,0,1,1-.4.073c0-.028-.484-2.823,1.976-3.311,2.823-.54,5.186,3.359,5.283,3.525a.2.2,0,0,1-.113.3c-.02,0-2.061.637-1.791,1.77a2.268,2.268,0,0,0,2.194,1.674.21.21,0,0,1,0,.419Z" transform="translate(-68.059 -72.987)" fill="#2d1929"/>
      <path id="Trazado_1083412" data-name="Trazado 1083412" d="M96.76,143.31l5.775-9.215s3.263-10.784,6.452-13.832,12.627-6.6,13.9-5.243-7.13,6.521-7.13,6.521,3.96-.137,2.674,3.125c0,0,4.287-.6,2.242,3.283,0,0,2.016.1,1.613,2.662S118.843,143,114.448,143.2l-3.674,6.989a24.39,24.39,0,0,1-14.014-6.88Z" transform="translate(-36.275 -50.062)" fill="#955d43"/>
      <path id="Trazado_1083413" data-name="Trazado 1083413" d="M223.83,185.212l10.747-.532a5.4,5.4,0,1,1-10.747.532Z" transform="translate(-112.101 -91.807)" fill="#efefef"/>
      <path id="Trazado_1083414" data-name="Trazado 1083414" d="M150.212,159.578a.2.2,0,0,1-.169-.311c.048-.077,4.948-7.723,3.726-10.767a1.807,1.807,0,0,0-1.343-1.1.207.207,0,1,1,.093-.4c4.234,1,.218,8.872-2.121,12.5A.206.206,0,0,1,150.212,159.578Z" transform="translate(-68.051 -69.314)" fill="#2d1929"/>
      <circle id="Elipse_14324" data-name="Elipse 14324" cx="15.587" cy="15.587" r="15.587" transform="translate(149.008 39.247)" fill="#efbd42"/>
      <path id="Trazado_1083415" data-name="Trazado 1083415" d="M343.543,101.536l-11.013-1.9,1.137-12.106,12.868,2.222Z" transform="translate(-176.849 -25.369)" fill="#efbd42"/>
      <path id="Trazado_1083416" data-name="Trazado 1083416" d="M340.41,117.555l-5.428-.94a3.3,3.3,0,0,1-2.5-3.65l.306-3.226,11.5,1.984-.948,3.73A2.7,2.7,0,0,1,340.41,117.555Z" transform="translate(-176.929 -38.622)" fill="#287eef"/>
      <ellipse id="Elipse_14325" data-name="Elipse 14325" cx="0.827" cy="5.827" rx="0.827" ry="5.827" transform="matrix(0.17, -0.985, 0.985, 0.17, 155.681, 71.966)" fill="#d7981a"/>
      <path id="Trazado_1083417" data-name="Trazado 1083417" d="M342.57,85.992a.2.2,0,0,1-.186-.27c.464-1.258,1.916-5.114,3.448-8.469a3.173,3.173,0,0,1-1.662-1.863,3.009,3.009,0,0,1-3.892.266c.169,3.069.157,7.166.052,9.731a.2.2,0,1,1-.4,0c.089-2.218.145-6.372-.073-9.989-2.444-1.75-4.5-6.009-2.125-7.077,1.972-.883,2.379,4.69,2.52,6.856a2.784,2.784,0,0,0,2.92.4,4.6,4.6,0,0,0,.839-.589,8.656,8.656,0,0,1-.5-4.666c.19-.682.532-.875.782-.915,1.774-.294,2.42,3.484.186,5.694.286.682.807,1.569,1.516,1.774,1.359-2.944,2.738-5.424,3.557-5.279,1.907.327.6,4.166-2.561,5.569a1.714,1.714,0,0,1-.75.153c-1.121,2.468-2.363,5.517-3.484,8.541A.193.193,0,0,1,342.57,85.992Zm3.863-9.086a1.424,1.424,0,0,0,.4-.113c2.8-1.242,4-4.569,2.654-4.8C348.744,71.87,346.748,76.229,346.434,76.907ZM337.9,68.664a1.347,1.347,0,0,0-.807,1.21c-.113,1.456,1.145,3.67,2.73,4.944C339.715,73.309,339.3,68.03,337.9,68.664Zm6.452,1.141c-.807.133-.758,2.871-.044,4.884,1.911-2.024,1.262-5.089.06-4.884Z" transform="translate(-179.44 -13.85)" fill="#efefef"/>
      <path id="Trazado_1083418" data-name="Trazado 1083418" d="M399.86,282.519a59.417,59.417,0,0,1,18.147-6.553c2.468-.423,6.533-.924,9.574-4.093a12.667,12.667,0,0,0,2.984-5.392c-7.743-1.968-23.942-6.081-16.171-4.117a93.558,93.558,0,0,1-14.534,20.156Z" transform="translate(-217.142 -137.853)" fill="#40c2d6"/>
      <path id="Trazado_1083419" data-name="Trazado 1083419" d="M340.643,214.841H274.909a2.262,2.262,0,0,1-2.25-2.448l4.166-49.325a2.258,2.258,0,0,1,2.25-2.069h65.613a2.262,2.262,0,0,1,2.254,2.444l-4.033,49.325A2.262,2.262,0,0,1,340.643,214.841Z" transform="translate(-141.234 -77.676)" fill="#917eec"/>
      <circle id="Elipse_14326" data-name="Elipse 14326" cx="6.299" cy="6.299" r="6.299" transform="translate(163.965 103.943)" fill="#efefef"/>
      <path id="Trazado_1083420" data-name="Trazado 1083420" d="M436.555,241.619c3.089.661,6.9-2.085,8.211-5.412.859-2.186.444-4.126-.327-7.513-.915-4.033-1.452-7.332-4.033-10.384-1.089-1.278-2.67-2.287-5.835-4.307-6.642-4.242-8.566-3.529-9.13-3.2a.633.633,0,0,0-.266.246c-.859,1.613,7.182,7.481,7.182,7.481s-7.077-4.142-8.267-2.871,5.658,5.956,5.658,5.956-4.706-2.762-5.811-2.21.734,3.125,5.109,7.142c-2.053-1.323-4.67-2.795-5.424-2.061-.3.29-.218.843-.113,1.29.807,3.4,4.061,4.436,6.723,8.211,2.218,3.154,2.561,5.775,5.476,7.324a3.005,3.005,0,0,0,.847.306Z" transform="translate(-231.198 -107.24)" fill="#955d43"/>
      <path id="Trazado_1083421" data-name="Trazado 1083421" d="M90.27,182.26l5.537-8.42,13.437,7.134-4.521,10.675Z" transform="translate(-32.402 -85.338)" fill="#86ebf9"/>
      <path id="Trazado_1083422" data-name="Trazado 1083422" d="M98.17,185.3a42.985,42.985,0,0,0,10.534,5.525l2.98-2.908q-.3,2.158-.6,4.327l.807.5-.339.807-1.327-.807.524-3.158-2.137,2.375A23.285,23.285,0,0,1,98.17,185.3Z" transform="translate(-37.116 -92.177)" fill="#40c2d6"/>
      <path id="Trazado_1083423" data-name="Trazado 1083423" d="M447.473,231.109a34.077,34.077,0,0,1-3.359-1.657.2.2,0,1,1,.181-.363l3.267,1.637a.2.2,0,0,1-.089.383Z" transform="translate(-243.483 -118.293)" fill="#2d1929"/>
      <path id="Trazado_1083424" data-name="Trazado 1083424" d="M441.422,239.25a43.615,43.615,0,0,1-3.892-2.158.206.206,0,0,1-.077-.274.2.2,0,0,1,.274-.077l3.795,2.129a.206.206,0,0,1-.1.379Z" transform="translate(-239.561 -122.858)" fill="#2d1929"/>
      <path id="Trazado_1083425" data-name="Trazado 1083425" d="M438.735,251.5c-.1,0,.133.157-3.226-2.42a.2.2,0,1,1,.246-.319l3.113,2.391a.2.2,0,0,1-.133.347Z" transform="translate(-238.362 -130.019)" fill="#2d1929"/>
    </g>
  </g>
</svg>
