<svg xmlns="http://www.w3.org/2000/svg" xmlns:xlink="http://www.w3.org/1999/xlink" width="190" height="163" viewBox="0 0 190 163">
  <defs>
    <clipPath id="clip-path">
      <rect id="Rectángulo_420038" data-name="Rectángulo 420038" width="190" height="163" transform="translate(180 9362)" fill="#fff" stroke="#707070" stroke-width="1" opacity="0.84"/>
    </clipPath>
  </defs>
  <g id="Enmascarar_grupo_1211458" data-name="Enmascarar grupo 1211458" transform="translate(-180 -9362)" clip-path="url(#clip-path)">
    <g id="Grupo_1214133" data-name="Grupo 1214133" transform="translate(-2 -1)">
      <rect id="Rectángulo_420036" data-name="Rectángulo 420036" width="105" height="163" rx="17" transform="translate(206.807 9385)" fill="#fc3"/>
      <g id="fulfillment_12963968" transform="translate(219.761 9393.272)">
        <g id="Grupo_1214127" data-name="Grupo 1214127" transform="translate(9.144 7.5)">
          <path id="Trazado_1083426" data-name="Trazado 1083426" d="M126.1,467.511H15.287a6.143,6.143,0,0,1-6.143-6.143h0a6.143,6.143,0,0,1,6.143-6.143H126.1a6.143,6.143,0,0,1,6.143,6.143h0A6.143,6.143,0,0,1,126.1,467.511Z" transform="translate(-9.144 -343.597)" fill="#7ca1b1"/>
          <path id="Trazado_1083427" data-name="Trazado 1083427" d="M451.319,461.371a6.146,6.146,0,0,1-6.143,6.143H434.2a6.142,6.142,0,1,0,0-12.284h10.975A6.142,6.142,0,0,1,451.319,461.371Z" transform="translate(-328.223 -343.6)" fill="#678d98"/>
          <path id="Trazado_1083428" data-name="Trazado 1083428" d="M167.012,281.912H78.5v-53.3a4.267,4.267,0,0,1,4.267-4.267h79.974a4.267,4.267,0,0,1,4.267,4.267v53.3Z" transform="translate(-61.211 -170.283)" fill="#678d98"/>
          <path id="Trazado_1083429" data-name="Trazado 1083429" d="M387.6,228.616v53.3H376.628v-53.3a4.268,4.268,0,0,0-4.268-4.266h10.975A4.268,4.268,0,0,1,387.6,228.616Z" transform="translate(-281.801 -170.284)" fill="#537983"/>
          <g id="Grupo_1214125" data-name="Grupo 1214125" transform="translate(39.412 0)">
            <path id="Trazado_1083430" data-name="Trazado 1083430" d="M208.042,51.769H170.67a3.449,3.449,0,0,1-3.449-3.449V10.949A3.449,3.449,0,0,1,170.67,7.5h37.372a3.449,3.449,0,0,1,3.449,3.449V48.32A3.449,3.449,0,0,1,208.042,51.769Z" transform="translate(-167.221 -7.5)" fill="#e8ad8c"/>
            <path id="Trazado_1083431" data-name="Trazado 1083431" d="M308.988,10.948V48.319a3.45,3.45,0,0,1-3.448,3.451H297.1a3.451,3.451,0,0,0,3.448-3.451V10.948A3.449,3.449,0,0,0,297.1,7.5h8.44A3.448,3.448,0,0,1,308.988,10.948Z" transform="translate(-264.718 -7.5)" fill="#e19974"/>
            <rect id="Rectángulo_420026" data-name="Rectángulo 420026" width="9.513" height="13.377" transform="translate(17.378)" fill="#fee97d"/>
          </g>
          <rect id="Rectángulo_420027" data-name="Rectángulo 420027" width="44.123" height="75.068" transform="translate(99.081 60.786) rotate(90)" fill="#f2fbff"/>
          <rect id="Rectángulo_420028" data-name="Rectángulo 420028" width="4.253" height="44.123" transform="translate(94.827 60.785)" fill="#dff6fd"/>
          <g id="Grupo_1214126" data-name="Grupo 1214126" transform="translate(32.025 75.588)">
            <rect id="Rectángulo_420029" data-name="Rectángulo 420029" width="11.528" height="18.585" fill="#62dbfb"/>
            <rect id="Rectángulo_420030" data-name="Rectángulo 420030" width="11.528" height="18.585" transform="translate(23.759)" fill="#62dbfb"/>
            <rect id="Rectángulo_420031" data-name="Rectángulo 420031" width="11.528" height="9.293" transform="translate(47.518 9.293)" fill="#62dbfb"/>
          </g>
          <circle id="Elipse_14327" data-name="Elipse 14327" cx="21.092" cy="21.092" r="21.092" transform="translate(67.542 30.165)" fill="#80d261"/>
          <path id="Trazado_1083432" data-name="Trazado 1083432" d="M367.814,149.583A21.106,21.106,0,0,1,340.77,169.82a21.1,21.1,0,0,0,0-40.478,21.106,21.106,0,0,1,27.044,20.24Z" transform="translate(-258.088 -98.324)" fill="#68ca44"/>
        </g>
        <g id="Grupo_1214130" data-name="Grupo 1214130" transform="translate(9.144 7.5)">
          <path id="Trazado_1083433" data-name="Trazado 1083433" d="M100.863,467.511H15.287a6.143,6.143,0,0,1-6.143-6.143h0a6.143,6.143,0,0,1,6.143-6.143H126.1a6.143,6.143,0,0,1,6.143,6.143h0a6.143,6.143,0,0,1-6.143,6.143H109.633" transform="translate(-9.144 -343.597)" fill="none" stroke="#000" stroke-linecap="round" stroke-linejoin="round" stroke-miterlimit="10" stroke-width="2.5"/>
          <path id="Trazado_1083434" data-name="Trazado 1083434" d="M167.01,233.8v48.117H78.5v-53.3a4.268,4.268,0,0,1,4.268-4.266h46.17" transform="translate(-61.208 -170.284)" fill="none" stroke="#000" stroke-linecap="round" stroke-linejoin="round" stroke-miterlimit="10" stroke-width="2.5"/>
          <g id="Grupo_1214128" data-name="Grupo 1214128" transform="translate(39.412 0)">
            <path id="Trazado_1083435" data-name="Trazado 1083435" d="M188.32,51.769H170.668a3.45,3.45,0,0,1-3.448-3.451V10.948A3.448,3.448,0,0,1,170.668,7.5h37.374a3.448,3.448,0,0,1,3.448,3.448v27.3" transform="translate(-167.22 -7.5)" fill="none" stroke="#000" stroke-linecap="round" stroke-linejoin="round" stroke-miterlimit="10" stroke-width="2.5"/>
            <rect id="Rectángulo_420032" data-name="Rectángulo 420032" width="9.513" height="13.377" transform="translate(17.378)" fill="none" stroke="#000" stroke-linecap="round" stroke-linejoin="round" stroke-miterlimit="10" stroke-width="2.5"/>
          </g>
          <circle id="Elipse_14328" data-name="Elipse 14328" cx="21.092" cy="21.092" r="21.092" transform="translate(67.542 30.165)" fill="none" stroke="#000" stroke-linecap="round" stroke-linejoin="round" stroke-miterlimit="10" stroke-width="2.5"/>
          <path id="Trazado_1083436" data-name="Trazado 1083436" d="M321.665,191.58l7.778,7.778L343.1,185.705" transform="translate(-243.746 -141.274)" fill="none" stroke="#000" stroke-linecap="round" stroke-linejoin="round" stroke-miterlimit="10" stroke-width="2.5"/>
          <path id="Trazado_1083437" data-name="Trazado 1083437" d="M180.527,260.1v35.324H105.46V251.3h45.8" transform="translate(-81.446 -190.515)" fill="none" stroke="#000" stroke-linecap="round" stroke-linejoin="round" stroke-miterlimit="10" stroke-width="2.5"/>
          <g id="Grupo_1214129" data-name="Grupo 1214129" transform="translate(32.025 75.588)">
            <rect id="Rectángulo_420033" data-name="Rectángulo 420033" width="11.528" height="18.585" fill="none" stroke="#000" stroke-linecap="round" stroke-linejoin="round" stroke-miterlimit="10" stroke-width="2.5"/>
            <rect id="Rectángulo_420034" data-name="Rectángulo 420034" width="11.528" height="18.585" transform="translate(23.759)" fill="none" stroke="#000" stroke-linecap="round" stroke-linejoin="round" stroke-miterlimit="10" stroke-width="2.5"/>
            <rect id="Rectángulo_420035" data-name="Rectángulo 420035" width="11.528" height="9.293" transform="translate(47.518 9.293)" fill="none" stroke="#000" stroke-linecap="round" stroke-linejoin="round" stroke-miterlimit="10" stroke-width="2.5"/>
          </g>
          <line id="Línea_641" data-name="Línea 641" x2="12.232" transform="translate(43.552 84.88)" fill="none" stroke="#000" stroke-linecap="round" stroke-linejoin="round" stroke-miterlimit="10" stroke-width="2.5"/>
          <line id="Línea_642" data-name="Línea 642" x2="12.232" transform="translate(67.311 84.88)" fill="none" stroke="#000" stroke-linecap="round" stroke-linejoin="round" stroke-miterlimit="10" stroke-width="2.5"/>
        </g>
      </g>
    </g>
  </g>
</svg>
