<svg xmlns="http://www.w3.org/2000/svg" xmlns:xlink="http://www.w3.org/1999/xlink" width="93.934" height="93.934" viewBox="0 0 93.934 93.934">
  <defs>
    <filter id="Trazado_978624" x="0" y="0" width="93.934" height="93.934" filterUnits="userSpaceOnUse">
      <feOffset dy="3" input="SourceAlpha"/>
      <feGaussianBlur stdDeviation="3" result="blur"/>
      <feFlood flood-opacity="0.161"/>
      <feComposite operator="in" in2="blur"/>
      <feComposite in="SourceGraphic"/>
    </filter>
  </defs>
  <g id="Grupo_1214139" data-name="Grupo 1214139" transform="translate(-191 -725.033)">
    <g id="Grupo_1212847" data-name="Grupo 1212847" transform="translate(-418 -798.5)">
      <g id="Grupo_1210963" data-name="Grupo 1210963" transform="translate(0 -377.186)">
        <g id="Grupo_1208068" data-name="Grupo 1208068" transform="translate(412 470.719)">
          <g id="Grupo_1144123" data-name="Grupo 1144123" transform="translate(206 1436)">
            <g transform="matrix(1, 0, 0, 1, -9, -6)" filter="url(#Trazado_978624)">
              <g id="Trazado_978624-2" data-name="Trazado 978624" transform="translate(9 6)" fill="#eaf5fb">
                <path d="M 37.966796875 74.43359375 C 33.04315185546875 74.43359375 28.26757431030273 73.46962738037109 23.77274131774902 71.56847381591797 C 19.43047523498535 69.73184967041016 15.53040790557861 67.10224914550781 12.18087482452393 63.75271987915039 C 8.831341743469238 60.4031867980957 6.201741218566895 56.50312042236328 4.365118980407715 52.16086196899414 C 2.463963508605957 47.66601943969727 1.499996900558472 42.89044189453125 1.499996900558472 37.966796875 C 1.499996900558472 33.04315185546875 2.463963508605957 28.26757431030273 4.365118980407715 23.77274131774902 C 6.201741218566895 19.43047523498535 8.831341743469238 15.53040790557861 12.18087482452393 12.18087482452393 C 15.53040790557861 8.831341743469238 19.43047523498535 6.201741218566895 23.77274131774902 4.365118980407715 C 28.26757431030273 2.463963508605957 33.04315185546875 1.499996900558472 37.966796875 1.499996900558472 C 42.89044189453125 1.499996900558472 47.66601943969727 2.463963508605957 52.16086196899414 4.365118980407715 C 56.50312042236328 6.201741218566895 60.4031867980957 8.831341743469238 63.75271987915039 12.18087482452393 C 67.10224914550781 15.53040790557861 69.73184967041016 19.43047523498535 71.56847381591797 23.77274131774902 C 73.46962738037109 28.26757431030273 74.43359375 33.04315185546875 74.43359375 37.966796875 C 74.43359375 42.89044189453125 73.46962738037109 47.66601943969727 71.56847381591797 52.16086196899414 C 69.73184967041016 56.50313186645508 67.10224914550781 60.4031867980957 63.75271987915039 63.75271987915039 C 60.4031867980957 67.10224914550781 56.50313186645508 69.73184967041016 52.16086196899414 71.56847381591797 C 47.66601943969727 73.46962738037109 42.89044189453125 74.43359375 37.966796875 74.43359375 Z" stroke="none"/>
                <path d="M 37.966796875 3 C 33.2449836730957 3 28.66600799560547 3.924095153808594 24.35705947875977 5.746635437011719 C 20.19359588623047 7.507621765136719 16.45379638671875 10.02927398681641 13.24153518676758 13.24153518676758 C 10.02927398681641 16.45379638671875 7.507621765136719 20.19359588623047 5.746635437011719 24.35705947875977 C 3.924095153808594 28.66600799560547 3 33.2449836730957 3 37.966796875 C 3 42.6886100769043 3.924095153808594 47.26758575439453 5.746635437011719 51.57653427124023 C 7.507621765136719 55.73999786376953 10.02927398681641 59.47979736328125 13.24153518676758 62.69205856323242 C 16.45379638671875 65.90431976318359 20.19359588623047 68.42597198486328 24.35705947875977 70.18695831298828 C 28.66600799560547 72.00949859619141 33.2449836730957 72.93359375 37.966796875 72.93359375 C 42.6886100769043 72.93359375 47.26758575439453 72.00949859619141 51.57653427124023 70.18695831298828 C 55.73999786376953 68.42597198486328 59.47979736328125 65.90431976318359 62.69205856323242 62.69205856323242 C 65.90431976318359 59.47979736328125 68.42597198486328 55.73999786376953 70.18695831298828 51.57653427124023 C 72.00949859619141 47.26758575439453 72.93359375 42.6886100769043 72.93359375 37.966796875 C 72.93359375 33.2449836730957 72.00949859619141 28.66600799560547 70.18695831298828 24.35705947875977 C 68.42597198486328 20.19359588623047 65.90431976318359 16.45379638671875 62.69205856323242 13.24153518676758 C 59.47979736328125 10.02927398681641 55.73999786376953 7.507621765136719 51.57653427124023 5.746635437011719 C 47.26758575439453 3.924095153808594 42.6886100769043 3 37.966796875 3 M 37.966796875 0 C 58.93528366088867 0 75.93359375 16.99831008911133 75.93359375 37.966796875 C 75.93359375 58.93528366088867 58.93528366088867 75.93359375 37.966796875 75.93359375 C 16.99831008911133 75.93359375 0 58.93528366088867 0 37.966796875 C 0 16.99831008911133 16.99831008911133 0 37.966796875 0 Z" stroke="none" fill="#3ea6db"/>
              </g>
            </g>
          </g>
        </g>
      </g>
    </g>
    <g id="compra-en-linea" transform="translate(215.34 741.974)">
      <path id="Trazado_1083439" data-name="Trazado 1083439" d="M68.2,119.926H35.017A3.017,3.017,0,0,0,32,122.943V151.6H71.215V122.943A3.017,3.017,0,0,0,68.2,119.926Zm0,0" transform="translate(-28.984 -108.586)" fill="#4398d1"/>
      <path id="Trazado_1083440" data-name="Trazado 1083440" d="M95.674,151.926H64.754a.754.754,0,0,0-.754.754v26.395H97.182V153.434A1.508,1.508,0,0,0,95.674,151.926Zm0,0" transform="translate(-57.967 -137.569)" fill="#87ced9"/>
      <path id="Trazado_1083441" data-name="Trazado 1083441" d="M205.87,207.926,184,229.8h21.87Zm0,0" transform="translate(-166.655 -188.29)" fill="#71c4d1"/>
      <path id="Trazado_1083442" data-name="Trazado 1083442" d="M243.312,7.926l2.342,2.571,3.314-1.055.743,3.4,3.4.743L252.053,16.9l2.571,2.342-2.571,2.342,1.055,3.314-3.4.743-.743,3.4-3.314-1.055-2.342,2.571-2.342-2.571-3.314,1.055-.743-3.4-3.4-.743,1.055-3.314L232,19.238l2.571-2.342-1.055-3.314,3.4-.743.743-3.4L240.97,10.5Zm0,0" transform="translate(-210.131 -7.143)" fill="#fdb62f"/>
      <g id="Grupo_1214138" data-name="Grupo 1214138" transform="translate(27.148 7.57)">
        <path id="Trazado_1083443" data-name="Trazado 1083443" d="M306.344,89.811l7.541-7.541,1.067,1.066-7.541,7.541Zm0,0" transform="translate(-304.615 -82.049)" fill="#fd6d2f"/>
        <path id="Trazado_1083444" data-name="Trazado 1083444" d="M290.262,84.451a2.262,2.262,0,1,1,2.262-2.262A2.263,2.263,0,0,1,290.262,84.451Zm0-3.017a.754.754,0,1,0,.754.754A.754.754,0,0,0,290.262,81.434Zm0,0" transform="translate(-288 -79.926)" fill="#fd6d2f"/>
        <path id="Trazado_1083445" data-name="Trazado 1083445" d="M370.262,132.451a2.262,2.262,0,1,1,2.262-2.262A2.263,2.263,0,0,1,370.262,132.451Zm0-3.017a.754.754,0,1,0,.754.754A.754.754,0,0,0,370.262,129.434Zm0,0" transform="translate(-360.459 -123.401)" fill="#fd6d2f"/>
      </g>
      <path id="Trazado_1083446" data-name="Trazado 1083446" d="M122.573,342.316l-2.709,1.1,1.768,3.578H124.6Zm0,0" transform="translate(-108.565 -310.012)" fill="#e0e3e6"/>
      <path id="Trazado_1083447" data-name="Trazado 1083447" d="M138.516,233.356l-9.37-.152-2.025-4.008,7.425-7.348Zm0,0" transform="translate(-115.138 -200.9)" fill="#e0e3e6"/>
      <path id="Trazado_1083448" data-name="Trazado 1083448" d="M96.118,303.445a2.187,2.187,0,0,0,3.048,1.25l1.8-.89L98.939,299.8l-1.874,1.112a2.15,2.15,0,0,0-.948,2.536Zm0,0" transform="translate(-86.956 -271.501)" fill="#e3584b"/>
      <path id="Trazado_1083449" data-name="Trazado 1083449" d="M249.281,265.637l2.494-.867.495,1.424-2.494.867Zm0,0" transform="translate(-225.783 -239.775)" fill="#5eb3d1"/>
      <path id="Trazado_1083450" data-name="Trazado 1083450" d="M228.492,204.124l1.663-1.734,1.088,1.044-1.664,1.734Zm0,0" transform="translate(-206.953 -183.276)" fill="#5eb3d1"/>
      <path id="Trazado_1083451" data-name="Trazado 1083451" d="M272,327.926h2.262v1.508H272Zm0,0" transform="translate(-246.36 -296.978)" fill="#5eb3d1"/>
      <path id="Trazado_1083452" data-name="Trazado 1083452" d="M320,279.926h14.329v9.05H320Zm0,0" transform="translate(-289.835 -253.503)" fill="#e3584b"/>
      <path id="Trazado_1083453" data-name="Trazado 1083453" d="M344,303.926h3.017v1.508H344Zm0,0" transform="translate(-311.573 -275.241)" fill="#c9433c"/>
      <path id="Trazado_1083454" data-name="Trazado 1083454" d="M392,303.926h5.279v1.508H392Zm0,0" transform="translate(-355.048 -275.241)" fill="#c9433c"/>
      <path id="Trazado_1083455" data-name="Trazado 1083455" d="M344,335.926h9.8v1.508H344Zm0,0" transform="translate(-311.573 -304.224)" fill="#c9433c"/>
      <path id="Trazado_1083456" data-name="Trazado 1083456" d="M8,183.926H19.312v6.033H8Zm0,0" transform="translate(-7.246 -166.553)" fill="#fd6d2f"/>
      <path id="Trazado_1083457" data-name="Trazado 1083457" d="M32,207.926h1.508v1.508H32Zm0,0" transform="translate(-28.984 -188.29)" fill="#e3584b"/>
      <path id="Trazado_1083458" data-name="Trazado 1083458" d="M64,207.926h3.771v1.508H64Zm0,0" transform="translate(-57.967 -188.29)" fill="#e3584b"/>
      <path id="Trazado_1083459" data-name="Trazado 1083459" d="M49.477,428.451H10.262A2.263,2.263,0,0,1,8,426.188v-2.262H25.256a1.364,1.364,0,0,1,1.22.754,1.364,1.364,0,0,0,1.22.754h4.347a1.364,1.364,0,0,0,1.22-.754,1.364,1.364,0,0,1,1.22-.754H51.74v2.262a2.263,2.263,0,0,1-2.262,2.262Zm0,0" transform="translate(-7.246 -383.929)" fill="#d6d9db"/>
      <path id="Trazado_1083460" data-name="Trazado 1083460" d="M70.033,199.926v4.525H64v1.508h7.541v-6.033Zm0,0" transform="translate(-57.967 -181.044)" fill="#71c4d1"/>
      <path id="Trazado_1083461" data-name="Trazado 1083461" d="M32,247.926h3.017v1.508H32Zm0,0" transform="translate(-28.984 -224.52)" fill="#3e8cc7"/>
      <path id="Trazado_1083462" data-name="Trazado 1083462" d="M416,375.926h3.017v1.508H416Zm0,0" transform="translate(-376.786 -340.453)" fill="#3e8cc7"/>
      <path id="Trazado_1083463" data-name="Trazado 1083463" d="M44.493,285.5H42.985v-1.508H41.477V285.5H39.969v-1.508H38.46V285.5H27.237a2.107,2.107,0,0,0-1.9,1.171.6.6,0,0,1-.545.337H20.45a.6.6,0,0,1-.545-.337,2.107,2.107,0,0,0-1.9-1.171H6.787V271.926H5.278V285.5H3.77V271.926H2.262V285.5H.754a.754.754,0,0,0-.754.754v2.262a3.017,3.017,0,0,0,3.017,3.017H42.231a3.017,3.017,0,0,0,3.017-3.017v-2.262a.754.754,0,0,0-.754-.754Zm-.754,3.017a1.508,1.508,0,0,1-1.508,1.508H3.016a1.508,1.508,0,0,1-1.508-1.508v-1.508h16.5a.6.6,0,0,1,.545.337,2.107,2.107,0,0,0,1.9,1.171H24.8a2.106,2.106,0,0,0,1.9-1.171.6.6,0,0,1,.542-.337h16.5Zm0,0" transform="translate(0 -246.257)"/>
      <path id="Trazado_1083464" data-name="Trazado 1083464" d="M41.345,113.434v-1.508H27.771A3.775,3.775,0,0,0,24,115.7v.754h1.508V115.7a2.263,2.263,0,0,1,2.262-2.262Zm0,0" transform="translate(-21.738 -101.34)"/>
      <path id="Trazado_1083465" data-name="Trazado 1083465" d="M56,145.434H71.837v-1.508H57.508A1.508,1.508,0,0,0,56,145.434Zm0,0" transform="translate(-50.722 -130.323)"/>
      <path id="Trazado_1083466" data-name="Trazado 1083466" d="M245.661,9.521l.905-2.853a.754.754,0,0,0-.556-.966l-2.926-.64-.636-2.922a.754.754,0,0,0-.963-.56l-2.853.9-2.02-2.21a.777.777,0,0,0-1.114,0l-2.017,2.214-2.856-.909a.754.754,0,0,0-.966.557l-.64,2.925L226.1,5.7a.754.754,0,0,0-.557.966l.905,2.853-2.214,2.017a.753.753,0,0,0,0,1.114l2.214,2.017-.905,2.853a.754.754,0,0,0,.557.966l2.926.64.639,2.925a.754.754,0,0,0,.966.557l2.853-.909,2.017,2.214a.754.754,0,0,0,1.115,0l2.016-2.214,2.853.909a.754.754,0,0,0,.966-.557l.64-2.925,2.925-.64a.754.754,0,0,0,.557-.966l-.9-2.853,2.214-2.017a.754.754,0,0,0,0-1.114Zm-1.373,4.358a.754.754,0,0,0-.21.787l.8,2.525-2.589.566a.755.755,0,0,0-.575.575l-.563,2.586-2.525-.8a.758.758,0,0,0-.787.211l-1.784,1.962-1.784-1.961a.749.749,0,0,0-.783-.21l-2.529.8-.566-2.589a.755.755,0,0,0-.575-.575l-2.586-.563.8-2.525a.754.754,0,0,0-.211-.787l-1.962-1.784,1.961-1.784a.753.753,0,0,0,.21-.787L227.232,7l2.589-.566a.755.755,0,0,0,.575-.575l.563-2.586,2.525.8a.754.754,0,0,0,.787-.211L236.055,1.9l1.784,1.961a.753.753,0,0,0,.787.21l2.525-.8.566,2.589a.755.755,0,0,0,.575.575L244.882,7l-.8,2.526a.754.754,0,0,0,.21.787l1.959,1.781Zm0,0" transform="translate(-202.874)"/>
      <path id="Trazado_1083467" data-name="Trazado 1083467" d="M306.344,89.811l7.541-7.541,1.067,1.066-7.541,7.541Zm0,0" transform="translate(-277.467 -74.479)"/>
      <path id="Trazado_1083468" data-name="Trazado 1083468" d="M292.525,82.188a2.262,2.262,0,1,0-2.262,2.262A2.263,2.263,0,0,0,292.525,82.188Zm-3.017,0a.754.754,0,1,1,.754.754A.754.754,0,0,1,289.508,82.188Zm0,0" transform="translate(-260.852 -72.356)"/>
      <path id="Trazado_1083469" data-name="Trazado 1083469" d="M370.262,127.926a2.262,2.262,0,1,0,2.262,2.262A2.263,2.263,0,0,0,370.262,127.926Zm0,3.017a.754.754,0,1,1,.754-.754A.754.754,0,0,1,370.262,130.943Zm0,0" transform="translate(-333.31 -115.832)"/>
      <path id="Trazado_1083470" data-name="Trazado 1083470" d="M99.256,213.866a.748.748,0,0,0-.7.2l-7.361,7.284-1.79,1.065a2.9,2.9,0,0,0,1.091,5.375l1.571,3.179a.754.754,0,0,0,.679.42h2.967a.754.754,0,0,0,.692-1.056l-1.561-3.6,8.2.136h.013a.754.754,0,0,0,.713-1L99.8,214.353a.754.754,0,0,0-.542-.488Zm-9.7,11.488a1.39,1.39,0,0,1,.619-1.648l1.178-.7,1.319,2.609-1.117.553a1.444,1.444,0,0,1-1.2.039A1.4,1.4,0,0,1,89.555,225.353Zm3.659,4.525-1.14-2.3c.048-.021.1-.029.146-.053l1.088-.538,1.253,2.894Zm.941-4.669L92.584,222.1l6.184-6.119,3.227,9.357Zm0,0" transform="translate(-79.677 -193.651)"/>
      <path id="Trazado_1083471" data-name="Trazado 1083471" d="M249.281,265.637l2.494-.867.495,1.424-2.494.867Zm0,0" transform="translate(-225.783 -239.775)"/>
      <path id="Trazado_1083472" data-name="Trazado 1083472" d="M228.492,204.124l1.663-1.734,1.088,1.044-1.664,1.734Zm0,0" transform="translate(-206.953 -183.276)"/>
      <path id="Trazado_1083473" data-name="Trazado 1083473" d="M272,327.926h2.262v1.508H272Zm0,0" transform="translate(-246.36 -296.978)"/>
      <path id="Trazado_1083474" data-name="Trazado 1083474" d="M327.083,221.2h-1.508v-5.279h-1.508V221.2h-1.508V219.7H321.05V221.2h-8.3a.754.754,0,0,0-.754.754v9.05a.754.754,0,0,0,.754.754h14.329a.754.754,0,0,0,.754-.754v-9.05A.754.754,0,0,0,327.083,221.2Zm-.754,9.05h-12.82v-7.541h12.82Zm0,0" transform="translate(-282.589 -195.536)"/>
      <path id="Trazado_1083475" data-name="Trazado 1083475" d="M344,303.926h3.017v1.508H344Zm0,0" transform="translate(-311.573 -275.241)"/>
      <path id="Trazado_1083476" data-name="Trazado 1083476" d="M392,303.926h5.279v1.508H392Zm0,0" transform="translate(-355.048 -275.241)"/>
      <path id="Trazado_1083477" data-name="Trazado 1083477" d="M344,335.926h9.8v1.508H344Zm0,0" transform="translate(-311.573 -304.224)"/>
      <path id="Trazado_1083478" data-name="Trazado 1083478" d="M.754,183.467H12.066a.754.754,0,0,0,.754-.754V176.68a.754.754,0,0,0-.754-.754H.754A.754.754,0,0,0,0,176.68v6.033A.754.754,0,0,0,.754,183.467Zm.754-6.033h9.8v4.525h-9.8Zm0,0" transform="translate(-0.001 -159.307)"/>
      <path id="Trazado_1083479" data-name="Trazado 1083479" d="M32,207.926h1.508v1.508H32Zm0,0" transform="translate(-28.984 -188.29)"/>
      <path id="Trazado_1083480" data-name="Trazado 1083480" d="M64,207.926h3.771v1.508H64Zm0,0" transform="translate(-57.967 -188.29)"/>
    </g>
  </g>
</svg>
