<svg xmlns="http://www.w3.org/2000/svg" xmlns:xlink="http://www.w3.org/1999/xlink" width="93.934" height="93.934" viewBox="0 0 93.934 93.934">
  <defs>
    <filter id="Trazado_978624" x="0" y="0" width="93.934" height="93.934" filterUnits="userSpaceOnUse">
      <feOffset dy="3" input="SourceAlpha"/>
      <feGaussianBlur stdDeviation="3" result="blur"/>
      <feFlood flood-opacity="0.161"/>
      <feComposite operator="in" in2="blur"/>
      <feComposite in="SourceGraphic"/>
    </filter>
  </defs>
  <g id="Grupo_1214181" data-name="Grupo 1214181" transform="translate(-189 -2877.033)">
    <g id="Grupo_1212849" data-name="Grupo 1212849" transform="translate(-420 1353.5)">
      <g id="Grupo_1210963" data-name="Grupo 1210963" transform="translate(0 -377.186)">
        <g id="Grupo_1208068" data-name="Grupo 1208068" transform="translate(412 470.719)">
          <g id="Grupo_1144123" data-name="Grupo 1144123" transform="translate(206 1436)">
            <g transform="matrix(1, 0, 0, 1, -9, -6)" filter="url(#Trazado_978624)">
              <g id="Trazado_978624-2" data-name="Trazado 978624" transform="translate(9 6)" fill="#eaf5fb">
                <path d="M 37.966796875 74.43359375 C 33.04315185546875 74.43359375 28.26757431030273 73.46962738037109 23.77274131774902 71.56847381591797 C 19.43047523498535 69.73184967041016 15.53040790557861 67.10224914550781 12.18087482452393 63.75271987915039 C 8.831341743469238 60.4031867980957 6.201741218566895 56.50312042236328 4.365118980407715 52.16086196899414 C 2.463963508605957 47.66601943969727 1.499996900558472 42.89044189453125 1.499996900558472 37.966796875 C 1.499996900558472 33.04315185546875 2.463963508605957 28.26757431030273 4.365118980407715 23.77274131774902 C 6.201741218566895 19.43047523498535 8.831341743469238 15.53040790557861 12.18087482452393 12.18087482452393 C 15.53040790557861 8.831341743469238 19.43047523498535 6.201741218566895 23.77274131774902 4.365118980407715 C 28.26757431030273 2.463963508605957 33.04315185546875 1.499996900558472 37.966796875 1.499996900558472 C 42.89044189453125 1.499996900558472 47.66601943969727 2.463963508605957 52.16086196899414 4.365118980407715 C 56.50312042236328 6.201741218566895 60.4031867980957 8.831341743469238 63.75271987915039 12.18087482452393 C 67.10224914550781 15.53040790557861 69.73184967041016 19.43047523498535 71.56847381591797 23.77274131774902 C 73.46962738037109 28.26757431030273 74.43359375 33.04315185546875 74.43359375 37.966796875 C 74.43359375 42.89044189453125 73.46962738037109 47.66601943969727 71.56847381591797 52.16086196899414 C 69.73184967041016 56.50313186645508 67.10224914550781 60.4031867980957 63.75271987915039 63.75271987915039 C 60.4031867980957 67.10224914550781 56.50313186645508 69.73184967041016 52.16086196899414 71.56847381591797 C 47.66601943969727 73.46962738037109 42.89044189453125 74.43359375 37.966796875 74.43359375 Z" stroke="none"/>
                <path d="M 37.966796875 3 C 33.2449836730957 3 28.66600799560547 3.924095153808594 24.35705947875977 5.746635437011719 C 20.19359588623047 7.507621765136719 16.45379638671875 10.02927398681641 13.24153518676758 13.24153518676758 C 10.02927398681641 16.45379638671875 7.507621765136719 20.19359588623047 5.746635437011719 24.35705947875977 C 3.924095153808594 28.66600799560547 3 33.2449836730957 3 37.966796875 C 3 42.6886100769043 3.924095153808594 47.26758575439453 5.746635437011719 51.57653427124023 C 7.507621765136719 55.73999786376953 10.02927398681641 59.47979736328125 13.24153518676758 62.69205856323242 C 16.45379638671875 65.90431976318359 20.19359588623047 68.42597198486328 24.35705947875977 70.18695831298828 C 28.66600799560547 72.00949859619141 33.2449836730957 72.93359375 37.966796875 72.93359375 C 42.6886100769043 72.93359375 47.26758575439453 72.00949859619141 51.57653427124023 70.18695831298828 C 55.73999786376953 68.42597198486328 59.47979736328125 65.90431976318359 62.69205856323242 62.69205856323242 C 65.90431976318359 59.47979736328125 68.42597198486328 55.73999786376953 70.18695831298828 51.57653427124023 C 72.00949859619141 47.26758575439453 72.93359375 42.6886100769043 72.93359375 37.966796875 C 72.93359375 33.2449836730957 72.00949859619141 28.66600799560547 70.18695831298828 24.35705947875977 C 68.42597198486328 20.19359588623047 65.90431976318359 16.45379638671875 62.69205856323242 13.24153518676758 C 59.47979736328125 10.02927398681641 55.73999786376953 7.507621765136719 51.57653427124023 5.746635437011719 C 47.26758575439453 3.924095153808594 42.6886100769043 3 37.966796875 3 M 37.966796875 0 C 58.93528366088867 0 75.93359375 16.99831008911133 75.93359375 37.966796875 C 75.93359375 58.93528366088867 58.93528366088867 75.93359375 37.966796875 75.93359375 C 16.99831008911133 75.93359375 0 58.93528366088867 0 37.966796875 C 0 16.99831008911133 16.99831008911133 0 37.966796875 0 Z" stroke="none" fill="#3ea6db"/>
              </g>
            </g>
          </g>
        </g>
      </g>
    </g>
    <g id="corriendo" transform="translate(182 2867.033)">
      <path id="Trazado_1083507" data-name="Trazado 1083507" d="M79.287,81.539H76.234L65.041,56.1H59.255A8.141,8.141,0,0,1,53.5,53.716l-3.372-3.372a8.141,8.141,0,0,1-2.384-5.756V40.662a2.035,2.035,0,0,0-3.474-1.439L30.444,53.048l-1.34,1.34a8.141,8.141,0,0,0,0,11.512l9.929,9.928a2.035,2.035,0,0,0,1.439.6h3.2a2.035,2.035,0,0,1,2.035,2.035v3.254a2.035,2.035,0,0,0,.6,1.439l8.46,8.461a14.246,14.246,0,0,0,10.074,4.172H81.322a4.07,4.07,0,0,0,4.07-4.07v-4.07A6.105,6.105,0,0,0,79.287,81.539Z" transform="translate(-9.356 -19.749)" fill="#606669"/>
      <path id="Trazado_1083508" data-name="Trazado 1083508" d="M134.246,50.457,160.7,24H132.211L120,36.211Z" transform="translate(-90.772 -6.982)" fill="#f5cbaa"/>
      <path id="Trazado_1083509" data-name="Trazado 1083509" d="M279.123,136.141v-6.105A2.035,2.035,0,0,0,277.088,128h-3.053A2.035,2.035,0,0,0,272,130.035v6.105Z" transform="translate(-223.438 -97.754)" fill="#fde575"/>
      <path id="Trazado_1083510" data-name="Trazado 1083510" d="M72.7,39.224h0a2.035,2.035,0,0,0-2.878,0L56,53.048,89.056,86.1A12.211,12.211,0,0,0,97.69,89.68h13.258V87.645a6.105,6.105,0,0,0-6.105-6.105H101.79L90.6,56.1H84.811a8.141,8.141,0,0,1-5.756-2.384l-3.372-3.372A8.141,8.141,0,0,1,73.3,44.588V40.662a2.035,2.035,0,0,0-.6-1.439Z" transform="translate(-34.912 -19.749)" fill="#fde575"/>
      <path id="Trazado_1083511" data-name="Trazado 1083511" d="M64.141,112.5a8.115,8.115,0,0,1-2.384,5.757L56,112.5l5.757-5.757a8.115,8.115,0,0,1,2.384,5.757Z" transform="translate(-34.912 -79.198)" fill="#99a2a7"/>
      <path id="Trazado_1083512" data-name="Trazado 1083512" d="M170.09,62.206h-8.822a12.209,12.209,0,0,1-8.634-3.577l-5.057-5.057A12.208,12.208,0,0,1,144,44.938V41.854l2.632-2.632a2.035,2.035,0,0,1,3.474,1.44v3.925a8.141,8.141,0,0,0,2.385,5.757l3.371,3.371a8.141,8.141,0,0,0,5.757,2.385H167.4Z" transform="translate(-111.719 -19.749)" fill="#99a2a7"/>
      <path id="Trazado_1083513" data-name="Trazado 1083513" d="M304.281,201.439h-2.432a4.07,4.07,0,0,1-3.726-2.431L288,176h5.088Z" transform="translate(-237.403 -139.649)" fill="#ebd46c"/>
      <path id="Trazado_1083514" data-name="Trazado 1083514" d="M72.3,60.773H69.916l-2.239-5.088h.557a1.018,1.018,0,0,0,0-2.035H66.782l-.9-2.035H66.2a1.018,1.018,0,1,0,0-2.035H64.991l-.9-2.035h.069a1.018,1.018,0,1,0,0-2.035H63.2l-.9-2.05a1.018,1.018,0,0,0-.169-2.02h-.72l-2.333-5.3V32.281a3.055,3.055,0,0,0-.05-.546l14-14A1.018,1.018,0,0,0,72.3,16H43.813a1.018,1.018,0,0,0-.72.3l-2.339,2.339a3.054,3.054,0,0,0-4.187.117L22.742,32.579l-1.34,1.34a9.158,9.158,0,0,0,0,12.952L31.331,56.8a3.033,3.033,0,0,0,2.159.894h3.2a1.019,1.019,0,0,1,1.018,1.018v3.254a3.033,3.033,0,0,0,.894,2.159l8.46,8.46a15.164,15.164,0,0,0,10.793,4.471H74.34a5.094,5.094,0,0,0,5.088-5.088V67.9A7.131,7.131,0,0,0,72.3,60.773Zm0,2.035A5.094,5.094,0,0,1,77.392,67.9v1.018H65.152a11.12,11.12,0,0,1-7.915-3.278l-26.62-26.62a9.158,9.158,0,0,0,0-11.432l3.021-3.021v.627a13.142,13.142,0,0,0,3.874,9.353L42.57,39.6a13.142,13.142,0,0,0,9.353,3.874h3.071l.9,2.035H52.971a1.018,1.018,0,1,0,0,2.035h3.813l.9,2.035H55.006a1.018,1.018,0,0,0,0,2.035h3.569l.9,2.035H57.041a1.018,1.018,0,1,0,0,2.035h3.325l1.8,4.084a5.089,5.089,0,0,0,4.657,3.039Zm-4.612-2.035H66.82a3.054,3.054,0,0,1-2.794-1.823l-1.437-3.265h2.864ZM64.558,53.65H61.694l-.9-2.035h2.864Zm-1.791-4.07H59.9l-.9-2.035h2.864Zm-4.655-4.07-.9-2.035h2.864l.9,2.035Zm-1.791-4.07-1.791-4.07h2.864l1.791,4.07Zm.72-6.105H52.272c-.107,0-.213,0-.319-.008V32.281a1.019,1.019,0,0,1,1.018-1.018h3.053a1.019,1.019,0,0,1,1.018,1.018Zm-12.807-17.3H69.848L57.96,29.923a3.038,3.038,0,0,0-1.937-.695H52.971a3.056,3.056,0,0,0-3.053,3.053v2.655a7.094,7.094,0,0,1-2.682-1.688l-3.372-3.372a7.076,7.076,0,0,1-2.086-5.037V20.913a3.087,3.087,0,0,0-.026-.4Zm-6.229,2.159a1.018,1.018,0,0,1,1.737.72v3.926a9.1,9.1,0,0,0,2.682,6.476L45.8,34.686a9.1,9.1,0,0,0,6.476,2.683h.034l1.791,4.07H51.923a11.119,11.119,0,0,1-7.914-3.278L38.95,33.1a11.119,11.119,0,0,1-3.278-7.914V22.527Zm-8.838,8.838a7.13,7.13,0,0,1,0,8.533L24.9,33.3ZM74.34,75.019H71.287V74a1.018,1.018,0,1,0-2.035,0v1.018H63.146V74a1.018,1.018,0,1,0-2.035,0v1.018H57.854a13.128,13.128,0,0,1-8.5-3.088l2.3-2.3a1.018,1.018,0,0,0-1.44-1.44l-2.333,2.333-4.666-4.666,2.333-2.333a1.018,1.018,0,0,0-1.44-1.44l-2.333,2.333L40.04,62.685a1.011,1.011,0,0,1-.3-.72V58.711a3.056,3.056,0,0,0-3.053-3.053h-3.2a1.011,1.011,0,0,1-.72-.3L29,51.588,31.3,49.282a1.018,1.018,0,0,0-1.44-1.44l-2.306,2.306-4.666-4.666L25.2,43.177a1.018,1.018,0,0,0-1.44-1.44l-2.112,2.112a7.127,7.127,0,0,1,1.194-8.491l.62-.621L55.8,67.074a13.142,13.142,0,0,0,9.354,3.875H77.392v1.018A3.056,3.056,0,0,1,74.34,75.019Z" transform="translate(-2.373 0)"/>
      <path id="Trazado_1083515" data-name="Trazado 1083515" d="M17.018,338.035h9.158a1.018,1.018,0,0,0,0-2.035H17.018a1.018,1.018,0,0,0,0,2.035Z" transform="translate(0 -279.297)"/>
      <path id="Trazado_1083516" data-name="Trazado 1083516" d="M38.386,432H17.018a1.018,1.018,0,1,0,0,2.035H38.386a1.018,1.018,0,1,0,0-2.035Z" transform="translate(0 -363.087)"/>
      <path id="Trazado_1083517" data-name="Trazado 1083517" d="M17.018,386.035H32.281a1.018,1.018,0,0,0,0-2.035H17.018a1.018,1.018,0,0,0,0,2.035Z" transform="translate(0 -321.192)"/>
    </g>
  </g>
</svg>
