<svg xmlns="http://www.w3.org/2000/svg" xmlns:xlink="http://www.w3.org/1999/xlink" width="93.934" height="93.934" viewBox="0 0 93.934 93.934">
  <defs>
    <filter id="Trazado_978624" x="0" y="0" width="93.934" height="93.934" filterUnits="userSpaceOnUse">
      <feOffset dy="3" input="SourceAlpha"/>
      <feGaussianBlur stdDeviation="3" result="blur"/>
      <feFlood flood-opacity="0.161"/>
      <feComposite operator="in" in2="blur"/>
      <feComposite in="SourceGraphic"/>
    </filter>
  </defs>
  <g id="Grupo_1213621" data-name="Grupo 1213621" transform="translate(-188 -1226.533)">
    <g id="Grupo_1181207" data-name="Grupo 1181207" transform="translate(-421 -578)">
      <g id="Grupo_1211238" data-name="Grupo 1211238" transform="translate(0 -377.186)">
        <g id="Grupo_1208062" data-name="Grupo 1208062" transform="translate(412 751.719)">
          <g id="Grupo_1144123" data-name="Grupo 1144123" transform="translate(206 1436)">
            <g transform="matrix(1, 0, 0, 1, -9, -6)" filter="url(#Trazado_978624)">
              <g id="Trazado_978624-2" data-name="Trazado 978624" transform="translate(9 6)" fill="#eaf5fb">
                <path d="M 37.966796875 74.43359375 C 33.04315185546875 74.43359375 28.26757431030273 73.46962738037109 23.77274131774902 71.56847381591797 C 19.43047523498535 69.73184967041016 15.53040790557861 67.10224914550781 12.18087482452393 63.75271987915039 C 8.831341743469238 60.4031867980957 6.201741218566895 56.50312042236328 4.365118980407715 52.16086196899414 C 2.463963508605957 47.66601943969727 1.499996900558472 42.89044189453125 1.499996900558472 37.966796875 C 1.499996900558472 33.04315185546875 2.463963508605957 28.26757431030273 4.365118980407715 23.77274131774902 C 6.201741218566895 19.43047523498535 8.831341743469238 15.53040790557861 12.18087482452393 12.18087482452393 C 15.53040790557861 8.831341743469238 19.43047523498535 6.201741218566895 23.77274131774902 4.365118980407715 C 28.26757431030273 2.463963508605957 33.04315185546875 1.499996900558472 37.966796875 1.499996900558472 C 42.89044189453125 1.499996900558472 47.66601943969727 2.463963508605957 52.16086196899414 4.365118980407715 C 56.50312042236328 6.201741218566895 60.4031867980957 8.831341743469238 63.75271987915039 12.18087482452393 C 67.10224914550781 15.53040790557861 69.73184967041016 19.43047523498535 71.56847381591797 23.77274131774902 C 73.46962738037109 28.26757431030273 74.43359375 33.04315185546875 74.43359375 37.966796875 C 74.43359375 42.89044189453125 73.46962738037109 47.66601943969727 71.56847381591797 52.16086196899414 C 69.73184967041016 56.50313186645508 67.10224914550781 60.4031867980957 63.75271987915039 63.75271987915039 C 60.4031867980957 67.10224914550781 56.50313186645508 69.73184967041016 52.16086196899414 71.56847381591797 C 47.66601943969727 73.46962738037109 42.89044189453125 74.43359375 37.966796875 74.43359375 Z" stroke="none"/>
                <path d="M 37.966796875 3 C 33.2449836730957 3 28.66600799560547 3.924095153808594 24.35705947875977 5.746635437011719 C 20.19359588623047 7.507621765136719 16.45379638671875 10.02927398681641 13.24153518676758 13.24153518676758 C 10.02927398681641 16.45379638671875 7.507621765136719 20.19359588623047 5.746635437011719 24.35705947875977 C 3.924095153808594 28.66600799560547 3 33.2449836730957 3 37.966796875 C 3 42.6886100769043 3.924095153808594 47.26758575439453 5.746635437011719 51.57653427124023 C 7.507621765136719 55.73999786376953 10.02927398681641 59.47979736328125 13.24153518676758 62.69205856323242 C 16.45379638671875 65.90431976318359 20.19359588623047 68.42597198486328 24.35705947875977 70.18695831298828 C 28.66600799560547 72.00949859619141 33.2449836730957 72.93359375 37.966796875 72.93359375 C 42.6886100769043 72.93359375 47.26758575439453 72.00949859619141 51.57653427124023 70.18695831298828 C 55.73999786376953 68.42597198486328 59.47979736328125 65.90431976318359 62.69205856323242 62.69205856323242 C 65.90431976318359 59.47979736328125 68.42597198486328 55.73999786376953 70.18695831298828 51.57653427124023 C 72.00949859619141 47.26758575439453 72.93359375 42.6886100769043 72.93359375 37.966796875 C 72.93359375 33.2449836730957 72.00949859619141 28.66600799560547 70.18695831298828 24.35705947875977 C 68.42597198486328 20.19359588623047 65.90431976318359 16.45379638671875 62.69205856323242 13.24153518676758 C 59.47979736328125 10.02927398681641 55.73999786376953 7.507621765136719 51.57653427124023 5.746635437011719 C 47.26758575439453 3.924095153808594 42.6886100769043 3 37.966796875 3 M 37.966796875 0 C 58.93528366088867 0 75.93359375 16.99831008911133 75.93359375 37.966796875 C 75.93359375 58.93528366088867 58.93528366088867 75.93359375 37.966796875 75.93359375 C 16.99831008911133 75.93359375 0 58.93528366088867 0 37.966796875 C 0 16.99831008911133 16.99831008911133 0 37.966796875 0 Z" stroke="none" fill="#3ea6db"/>
              </g>
            </g>
          </g>
        </g>
      </g>
    </g>
    <g id="fabrica" transform="translate(198.743 1213.265)">
      <g id="Grupo_1213619" data-name="Grupo 1213619" transform="translate(8.123 32.798)">
        <path id="Trazado_1082487" data-name="Trazado 1082487" d="M94.893,40.139,93.7,80.423h9.385l-1.2-40.283a.917.917,0,0,0-.916-.889H95.809A.917.917,0,0,0,94.893,40.139Z" transform="translate(-88.561 -39.25)" fill="#7a8c98"/>
        <path id="Trazado_1082488" data-name="Trazado 1082488" d="M122.507,40.139a.917.917,0,0,0-.916-.889h-3.872a.917.917,0,0,1,.916.889l1.2,40.283H123.7Z" transform="translate(-109.185 -39.25)" fill="#596c76"/>
        <path id="Trazado_1082489" data-name="Trazado 1082489" d="M100.785,39.25a.917.917,0,0,0-.916.889L99.492,52.83h7.745l-.377-12.691a.917.917,0,0,0-.916-.889Z" transform="translate(-93.537 -39.25)" fill="#62dbfb"/>
        <path id="Trazado_1082490" data-name="Trazado 1082490" d="M122.794,52.83h4.1l-.377-12.691a.917.917,0,0,0-.916-.889H122.39Z" transform="translate(-113.195 -39.25)" fill="#01c0fa"/>
        <path id="Trazado_1082491" data-name="Trazado 1082491" d="M57.41,195.346v24.369a1.168,1.168,0,0,0,1.168,1.168h51.711a1.168,1.168,0,0,0,1.168-1.168V182.488a3.116,3.116,0,0,0-3.908-3.014l-47.522,12.48A3.508,3.508,0,0,0,57.41,195.346Z" transform="translate(-57.41 -159.543)" fill="#d5e3f4"/>
        <path id="Trazado_1082492" data-name="Trazado 1082492" d="M164.083,340.747h20.139a2.166,2.166,0,0,1,2.166,2.166v16.512H161.917V342.913A2.166,2.166,0,0,1,164.083,340.747Z" transform="translate(-147.129 -298.085)" fill="#7a8c98"/>
        <path id="Trazado_1082493" data-name="Trazado 1082493" d="M400.615,179.473l-1.835.482a3.1,3.1,0,0,1,1.3,2.532v37.227a1.168,1.168,0,0,1-1.168,1.168h4.441a1.168,1.168,0,0,0,1.168-1.168V182.487a3.116,3.116,0,0,0-3.908-3.014Z" transform="translate(-350.476 -159.542)" fill="#b3ceec"/>
        <g id="Grupo_1213617" data-name="Grupo 1213617" transform="translate(21.455 10.307)">
          <g id="Grupo_1213616" data-name="Grupo 1213616">
            <path id="Trazado_1082494" data-name="Trazado 1082494" d="M209.775,114.755a1.95,1.95,0,0,0-.727,1.434,12.069,12.069,0,0,0,19.615,9.948,1.95,1.95,0,0,0,.727-1.434,12.069,12.069,0,0,0-19.615-9.948Z" transform="translate(-209.035 -112.093)" fill="#97d729"/>
            <path id="Trazado_1082495" data-name="Trazado 1082495" d="M275.408,124.714a12.067,12.067,0,0,0-12.769-12.586c7.686,4.62,10.012,12.44,4.013,16.672a12.111,12.111,0,0,0,8.029-2.652A1.95,1.95,0,0,0,275.408,124.714Z" transform="translate(-255.054 -112.104)" fill="#8bc727"/>
          </g>
        </g>
        <g id="Grupo_1213618" data-name="Grupo 1213618" transform="translate(12.402 34.296)">
          <path id="Trazado_1082496" data-name="Trazado 1082496" d="M145.054,282.479v2.507a.852.852,0,0,0,.852.852h3.981a.852.852,0,0,0,.852-.852v-2.507a.852.852,0,0,0-.852-.852h-3.981A.852.852,0,0,0,145.054,282.479Z" transform="translate(-145.054 -281.627)" fill="#97d729"/>
          <path id="Trazado_1082497" data-name="Trazado 1082497" d="M228.3,282.479v2.507a.852.852,0,0,0,.852.852h3.981a.852.852,0,0,0,.852-.852v-2.507a.852.852,0,0,0-.852-.852h-3.981A.852.852,0,0,0,228.3,282.479Z" transform="translate(-216.522 -281.627)" fill="#97d729"/>
          <path id="Trazado_1082498" data-name="Trazado 1082498" d="M311.547,282.479v2.507a.852.852,0,0,0,.852.852h3.981a.852.852,0,0,0,.852-.852v-2.507a.852.852,0,0,0-.852-.852H312.4A.852.852,0,0,0,311.547,282.479Z" transform="translate(-287.988 -281.627)" fill="#97d729"/>
        </g>
      </g>
      <g id="Grupo_1213620" data-name="Grupo 1213620" transform="translate(0 31.735)">
        <path id="Trazado_1082499" data-name="Trazado 1082499" d="M72.444,80.213a12.4,12.4,0,0,0-1.965-6.283,1.054,1.054,0,0,0-.251-.291A33.332,33.332,0,0,0,66.8,69.061c-1.07-1.22-2.265-2.45-3.566-3.679V55.743A4.179,4.179,0,0,0,57.994,51.7L50.9,53.564a13.128,13.128,0,0,0-21.252-8.625,3.012,3.012,0,0,0-1.123,2.215A13.156,13.156,0,0,0,33.6,58.109l-10.284,2.7-.807-27.157a1.971,1.971,0,0,0-1.978-1.918H15.369a1.967,1.967,0,0,0-1.976,1.92l-.089,2.99a1.061,1.061,0,1,0,2.122.063l.085-2.851h4.877l.34,11.458H15.169l.113-3.815a1.061,1.061,0,0,0-2.122-.063l-.424,14.282H4.506A4.511,4.511,0,0,0,0,60.225V94.14a1.061,1.061,0,1,0,2.123,0V60.225a2.386,2.386,0,0,1,2.383-2.383h8.168L12.5,63.649l-2.033.534A4.572,4.572,0,0,0,7.06,68.6V92.973A2.231,2.231,0,0,0,9.289,95.2H36.312a1.061,1.061,0,1,0,0-2.123H23.972v-2.3h22.35v2.3H41.264a1.061,1.061,0,1,0,0,2.123H61a2.232,2.232,0,0,0,2.23-2.229v-6.72c2.974.029,6.455-.526,8.2-2.954a1.058,1.058,0,0,0,.283-.319,5.581,5.581,0,0,0,.724-2.635C72.44,80.336,72.443,80.248,72.444,80.213ZM58.533,53.754a2.056,2.056,0,0,1,2.578,1.989v7.718a90.367,90.367,0,0,0-10.128-7.55c.01-.108.011-.158.011-.176Zm-27.89-5.766c1.747.641,3.535,1.369,5.342,2.175l-3.951,2.928A11.012,11.012,0,0,1,30.643,47.988Zm5.978-3.743L37,48.29c-1.8-.809-3.593-1.542-5.343-2.191A11.015,11.015,0,0,1,36.62,44.246Zm6.39,6.988q-1.891-1-3.787-1.912l-.475-5.115a10.969,10.969,0,0,1,4.078,1.138Zm-4.828-.056q1.948.929,3.9,1.967l-5.488,4.376a10.97,10.97,0,0,1-3.356-2.68Zm5.922,3.07c1.284.719,2.575,1.473,4.038,2.38A11.04,11.04,0,0,1,38.9,58.4Zm4.761.332c-1.354-.831-2.522-1.51-3.7-2.168L45,46.784a11.043,11.043,0,0,1,3.871,7.794ZM14.828,56.792s0-.008,0-.012l.277-9.342h5.685L21.2,61.363l-6.563,1.724Zm9.143,24.437h22.35v2.651H23.971Zm22.35-2.123H23.971v-1.48a1.106,1.106,0,0,1,1.105-1.105h20.14a1.106,1.106,0,0,1,1.105,1.105Zm-22.35,9.548V86h22.35v2.651ZM61,93.079H48.444V77.627A3.231,3.231,0,0,0,45.216,74.4H25.076a3.231,3.231,0,0,0-3.228,3.228V93.079H9.289a.107.107,0,0,1-.106-.106V68.6a2.448,2.448,0,0,1,1.825-2.367l25.1-6.591A13.157,13.157,0,0,0,49.87,57.977c.059-.047.114-.1.169-.148a85,85,0,0,1,11.072,8.476V92.973a.107.107,0,0,1-.108.106Zm2.23-8.947V68.349c2.718,2.755,7.069,7.8,7.1,11.675C70.285,83.387,66.6,84.169,63.233,84.132Z" transform="translate(0 -31.735)"/>
        <path id="Trazado_1082500" data-name="Trazado 1082500" d="M143.439,274.128h-3.981a1.915,1.915,0,0,0-1.913,1.913v2.508a1.915,1.915,0,0,0,1.913,1.913h3.981a1.915,1.915,0,0,0,1.913-1.913v-2.508A1.915,1.915,0,0,0,143.439,274.128Zm-.21,4.211h-3.563v-2.089h3.563Z" transform="translate(-118.082 -239.83)"/>
        <path id="Trazado_1082501" data-name="Trazado 1082501" d="M226.691,274.128h-3.982a1.915,1.915,0,0,0-1.913,1.913v2.508a1.915,1.915,0,0,0,1.913,1.913h3.982a1.915,1.915,0,0,0,1.913-1.913v-2.508A1.915,1.915,0,0,0,226.691,274.128Zm-.21,4.211h-3.563v-2.089h3.563Z" transform="translate(-189.554 -239.83)"/>
        <path id="Trazado_1082502" data-name="Trazado 1082502" d="M309.943,274.128h-3.982a1.915,1.915,0,0,0-1.913,1.913v2.508a1.915,1.915,0,0,0,1.913,1.913h3.982a1.915,1.915,0,0,0,1.913-1.913v-2.508A1.915,1.915,0,0,0,309.943,274.128Zm-.209,4.211h-3.563v-2.089h3.563Z" transform="translate(-261.025 -239.83)"/>
      </g>
    </g>
  </g>
</svg>
