<svg xmlns="http://www.w3.org/2000/svg" xmlns:xlink="http://www.w3.org/1999/xlink" width="113" height="113" viewBox="0 0 113 113">
  <defs>
    <filter id="Trazado_982547" x="0" y="0" width="113" height="113" filterUnits="userSpaceOnUse">
      <feOffset dy="3" input="SourceAlpha"/>
      <feGaussianBlur stdDeviation="3" result="blur"/>
      <feFlood flood-opacity="0.161"/>
      <feComposite operator="in" in2="blur"/>
      <feComposite in="SourceGraphic"/>
    </filter>
  </defs>
  <g id="Grupo_1214401" data-name="Grupo 1214401" transform="translate(-1162.5 -3894.149)">
    <g id="Grupo_1210961" data-name="Grupo 1210961" transform="translate(0 -689.385)">
      <g id="Grupo_1209937" data-name="Grupo 1209937" transform="translate(0 -2945.274)">
        <g id="Grupo_1208707" data-name="Grupo 1208707" transform="translate(-1.454 3213.429)">
          <g id="Grupo_1148635" data-name="Grupo 1148635" transform="translate(908.908 600.047)">
            <g id="Grupo_1148525" data-name="Grupo 1148525" transform="translate(264.046 3721.333)">
              <g transform="matrix(1, 0, 0, 1, -9, -6)" filter="url(#Trazado_982547)">
                <g id="Trazado_982547-2" data-name="Trazado 982547" transform="translate(9 6)" fill="#ffefc0">
                  <path d="M 47.5 93.5 C 41.28937149047852 93.5 35.26533508300781 92.28397369384766 29.59518623352051 89.88570404052734 C 24.11771965026855 87.56893157958984 19.19813346862793 84.25196075439453 14.97309303283691 80.02691650390625 C 10.74804019927979 75.80186462402344 7.431066513061523 70.88229370117188 5.114293098449707 65.40481567382812 C 2.716026782989502 59.73468017578125 1.5 53.71062850952148 1.5 47.5 C 1.5 41.28937149047852 2.716026782989502 35.26533508300781 5.114293098449707 29.59518623352051 C 7.431066513061523 24.11771965026855 10.74804019927979 19.19813346862793 14.97309303283691 14.97309303283691 C 19.19813346862793 10.74804019927979 24.11771965026855 7.431066513061523 29.59518623352051 5.114293098449707 C 35.26533508300781 2.716026782989502 41.28937149047852 1.5 47.5 1.5 C 53.71062850952148 1.5 59.73468017578125 2.716026782989502 65.40481567382812 5.114293098449707 C 70.88229370117188 7.431066513061523 75.80186462402344 10.74804019927979 80.02691650390625 14.97309303283691 C 84.25196075439453 19.19813346862793 87.56893157958984 24.11771965026855 89.88570404052734 29.59518623352051 C 92.28397369384766 35.26533508300781 93.5 41.28937149047852 93.5 47.5 C 93.5 53.71062850952148 92.28397369384766 59.73468017578125 89.88570404052734 65.40481567382812 C 87.56893157958984 70.88229370117188 84.25196075439453 75.80186462402344 80.02691650390625 80.02691650390625 C 75.80186462402344 84.25196075439453 70.88229370117188 87.56893157958984 65.40481567382812 89.88570404052734 C 59.73468017578125 92.28397369384766 53.71062850952148 93.5 47.5 93.5 Z" stroke="none"/>
                  <path d="M 47.5 3 C 41.49121475219727 3 35.66376876831055 4.176155090332031 30.17950439453125 6.495796203613281 C 24.88084411621094 8.736953735351562 20.12152099609375 11.94598388671875 16.03375244140625 16.03375244140625 C 11.94598388671875 20.12152099609375 8.736953735351562 24.88084411621094 6.495796203613281 30.17950439453125 C 4.176155090332031 35.66376876831055 3 41.49121475219727 3 47.5 C 3 53.50878524780273 4.176155090332031 59.33623123168945 6.495796203613281 64.82049560546875 C 8.736953735351562 70.11915588378906 11.94598388671875 74.87847900390625 16.03375244140625 78.96624755859375 C 20.12152099609375 83.05401611328125 24.88084411621094 86.26304626464844 30.17950439453125 88.50419616699219 C 35.66376876831055 90.82384490966797 41.49121475219727 92 47.5 92 C 53.50878524780273 92 59.33623123168945 90.82384490966797 64.82049560546875 88.50419616699219 C 70.11915588378906 86.26304626464844 74.87847900390625 83.05401611328125 78.96624755859375 78.96624755859375 C 83.05401611328125 74.87847900390625 86.26304626464844 70.11915588378906 88.50419616699219 64.82049560546875 C 90.82384490966797 59.33623123168945 92 53.50878524780273 92 47.5 C 92 41.49121475219727 90.82384490966797 35.66376876831055 88.50419616699219 30.17950439453125 C 86.26304626464844 24.88084411621094 83.05401611328125 20.12152099609375 78.96624755859375 16.03375244140625 C 74.87847900390625 11.94598388671875 70.11915588378906 8.736953735351562 64.82049560546875 6.495796203613281 C 59.33623123168945 4.176155090332031 53.50878524780273 3 47.5 3 M 47.5 0 C 73.7335205078125 0 95 21.2664794921875 95 47.5 C 95 73.7335205078125 73.7335205078125 95 47.5 95 C 21.2664794921875 95 0 73.7335205078125 0 47.5 C 0 21.2664794921875 21.2664794921875 0 47.5 0 Z" stroke="none" fill="#fc3"/>
                </g>
              </g>
            </g>
          </g>
        </g>
      </g>
    </g>
    <g id="fabricacion-ajustada" transform="translate(1152.894 3855.918)">
      <path id="Trazado_1083956" data-name="Trazado 1083956" d="M75.287,73.776a26.473,26.473,0,0,1,8.449,3.5c.455-.229,2.754-1.4,3.258-1.66a1.891,1.891,0,0,1,2.225.352c4.86,5.323,5.967,3.566,2.737,9.529a26.473,26.473,0,0,1,3.5,8.449c.482.159,2.94.954,3.476,1.129a1.891,1.891,0,0,1,1.324,1.823c-.323,7.227,1.686,6.739-4.8,8.673a26.473,26.473,0,0,1-3.5,8.449c.236.457,1.4,2.752,1.66,3.258a1.948,1.948,0,0,1-.538,2.411H45.869a1.948,1.948,0,0,1-.538-2.411c.267-.518,1.417-2.785,1.66-3.258a26.474,26.474,0,0,1-3.5-8.449c-6.482-1.933-4.479-1.443-4.8-8.673a1.891,1.891,0,0,1,1.324-1.823c.555-.157,2.97-.982,3.476-1.129a26.473,26.473,0,0,1,3.5-8.449c-.229-.455-1.4-2.754-1.66-3.258a1.891,1.891,0,0,1,.352-2.225c5.323-4.86,3.566-5.967,9.529-2.737a26.474,26.474,0,0,1,8.449-3.5c.159-.482.954-2.94,1.129-3.476a1.891,1.891,0,0,1,1.823-1.324C73.84,69.3,73.352,67.29,75.287,73.776ZM69.474,80.14c-25.791.44-25.787,38.8,0,39.24C95.265,118.94,95.261,80.577,69.474,80.14Z" transform="translate(-5.293 -5.291)" fill="#ffbf31" fill-rule="evenodd"/>
      <path id="Trazado_1083957" data-name="Trazado 1083957" d="M162.8,286.871c-13.064.03-8.774-1.8-9.492,12.846h10.9v-11.44A1.409,1.409,0,0,0,162.8,286.871Z" transform="translate(-102.058 -189.368)" fill="#f0b16e" fill-rule="evenodd"/>
      <path id="Trazado_1083958" data-name="Trazado 1083958" d="M181.374,287.19h-3.4c.149.9-.564,3.664,1.011,3.633h1.377C181.935,290.86,181.226,288.079,181.374,287.19Z" transform="translate(-122.979 -189.687)" fill="#fa6e85" fill-rule="evenodd"/>
      <path id="Trazado_1083959" data-name="Trazado 1083959" d="M259.266,286.871c-13.064.03-8.774-1.8-9.492,12.846h10.9v-11.44A1.409,1.409,0,0,0,259.266,286.871Z" transform="translate(-183.557 -189.368)" fill="#f0b16e" fill-rule="evenodd"/>
      <path id="Trazado_1083960" data-name="Trazado 1083960" d="M277.843,287.19h-3.4c.149.9-.564,3.664,1.011,3.633h1.377C278.4,290.86,277.7,288.079,277.843,287.19Z" transform="translate(-204.477 -189.687)" fill="#fa6e85" fill-rule="evenodd"/>
      <path id="Trazado_1083961" data-name="Trazado 1083961" d="M49.041,357.414H97.877a5.688,5.688,0,1,1,0,11.377H49.041a5.688,5.688,0,0,1,0-11.377Z" transform="translate(-9.278 -249.013)" fill="#19cfba" fill-rule="evenodd"/>
      <path id="Trazado_1083962" data-name="Trazado 1083962" d="M107.479,379.249a2.3,2.3,0,0,1,0,4.6A2.3,2.3,0,0,1,107.479,379.249Zm36.5,0a2.3,2.3,0,0,1,0,4.6A2.3,2.3,0,0,1,143.977,379.249Zm-12.166,0a2.3,2.3,0,0,1,0,4.6A2.3,2.3,0,0,1,131.811,379.249Zm-12.166,0a2.3,2.3,0,0,1,0,4.6A2.3,2.3,0,0,1,119.645,379.249Z" transform="translate(-61.547 -267.459)" fill="#fa6e85" fill-rule="evenodd"/>
      <path id="Trazado_1083963" data-name="Trazado 1083963" d="M163.542,106.6l-23.718,17.46-7.418-4.328L117,129.454a.675.675,0,0,1-.858-.046.616.616,0,0,1-.043-.858l15.952-16.12,7.349,4.194,22.123-12.955-2.593-2.174,10.565-1.359-3.847,9.466Z" transform="translate(-70.608 -31.662)" fill="#19cfba" fill-rule="evenodd"/>
      <path id="Trazado_1083964" data-name="Trazado 1083964" d="M94.8,75.817c-.389-.409-1.033-1.872-1.7-1.893a1.025,1.025,0,0,0-.772.186L69.151,91.171l-6.838-3.989a1.025,1.025,0,0,0-1.062.019L48.643,95.164,61.622,82.048c.7.189,7.029,4.6,7.691,3.8L91.436,72.892c1.147-.808.135-1.783-.662-2.34l6.51-.837ZM89.166,88.88A25.345,25.345,0,0,0,86.1,81.237L82.086,84.19a20.739,20.739,0,0,1-1.8,23.188h6a25.411,25.411,0,0,0,2.875-7.318,1.026,1.026,0,0,1,.682-.751l3.477-1.129a.87.87,0,0,0,.616-.85v-5.72C93.98,90.041,89.4,90.347,89.166,88.88Zm4.1,25.21a4.67,4.67,0,0,1-4.665,4.665H39.763a4.665,4.665,0,1,1,0-9.33H88.6A4.671,4.671,0,0,1,93.264,114.09ZM45.6,95.325c.614-.091,15.605-17.038,16.35-15.444l6.835,3.9L75.6,79.793C63.708,69.985,44.441,79.886,45.6,95.325Zm10.4,6.835c3,.209,3.582-.782,3.411-3.632.344.092,1.731-.274,1.7.382v8.469H52.269V98.91c-.027-.651,1.365-.3,1.7-.383C53.882,100.133,53.917,102.08,56.008,102.16Zm.013-3.632v1.586h1.351V98.528Zm14.958,3.632c3,.209,3.582-.782,3.411-3.632.344.092,1.731-.274,1.7.382v8.469H67.24V98.91c-.031-.653,1.364-.3,1.7-.383C68.851,100.134,68.887,102.08,70.978,102.16Zm.011-3.632v1.586h1.353V98.528Zm9.435-13.115-10.6,7.806a1.022,1.022,0,0,1-1.121.06L61.82,89.264l-14.877,9.4a1.86,1.86,0,0,1-.82.285,18.437,18.437,0,0,0,4.1,7.816c-.05-12.094-1.26-10.169,10.516-10.279a2.432,2.432,0,0,1,2.429,2.429v8.469h2.027V98.91a2.433,2.433,0,0,1,2.431-2.43c11.794.1,10.559-1.791,10.514,10.278a18.709,18.709,0,0,0,2.287-21.345Zm-41.912,13.9a1.023,1.023,0,0,1,.682.751,25.4,25.4,0,0,0,2.876,7.318h6c-15.3-19.321,10.472-44.471,29.418-28.69l8.2-4.8L83.2,71.4a.868.868,0,0,0-1.037-.164c-.8.229-3.478,2.263-4.271,1.612a25.414,25.414,0,0,0-8.123-3.366,1.025,1.025,0,0,1-.752-.682c-1.829-5.755-.54-3.747-7.7-4.094a.867.867,0,0,0-.849.617L59.342,68.8a1.024,1.024,0,0,1-.75.682,25.417,25.417,0,0,0-8.123,3.366,1.023,1.023,0,0,1-1.014.048L46.2,71.238a.87.87,0,0,0-1.037.164c-4.8,5.291-5.335,2.969-2.549,8.341a1.023,1.023,0,0,1-.049,1.013A25.413,25.413,0,0,0,39.2,88.88c-.09,1.016-3.487,1.5-4.159,1.88a.868.868,0,0,0-.616.849v5.72a.87.87,0,0,0,.616.85ZM99.7,67.851c.133-1.046-11.068,1.112-11.506.968a1.03,1.03,0,0,0-.527,1.8l1.481,1.241-1.637.958c-3.845-3.79-3.813-5.031-9.02-2a27.4,27.4,0,0,0-7.7-3.192c-.667-1.9-1.074-5.069-3.747-4.959h-5.72a2.9,2.9,0,0,0-2.8,2.032l-.951,2.928a27.418,27.418,0,0,0-7.7,3.192c-1.788-.87-4.383-2.822-6.158-.858L39.667,74a2.9,2.9,0,0,0-.542,3.413l1.4,2.744a27.451,27.451,0,0,0-3.193,7.7c-1.9.668-5.068,1.075-4.958,3.747,0,0,0,5.72,0,5.72a2.9,2.9,0,0,0,2.032,2.8l2.926.951a27.486,27.486,0,0,0,2.4,6.3c-8.782.194-8.778,13.266.034,13.423H88.6a6.711,6.711,0,0,0,.033-13.423,27.454,27.454,0,0,0,2.4-6.3l2.928-.951a2.9,2.9,0,0,0,2.031-2.8V91.61c.114-2.667-3.064-3.085-4.959-3.747a27.375,27.375,0,0,0-3.279-7.843L92.7,76.379c.7.821,2.058,3.968,3.295,1.949C96,77.793,100.7,68.1,99.7,67.851ZM58.1,115.367a1.277,1.277,0,0,0,0-2.554A1.277,1.277,0,0,0,58.1,115.367Zm0-4.6c-4.369.078-4.368,6.569,0,6.647C62.466,117.335,62.465,110.844,58.1,110.767Zm-12.166,4.6a1.277,1.277,0,0,0,0-2.554A1.277,1.277,0,0,0,45.933,115.367Zm0-4.6c-4.368.078-4.367,6.57,0,6.647C50.3,117.336,50.3,110.844,45.933,110.767Zm36.5,4.6a1.277,1.277,0,0,0,0-2.554A1.277,1.277,0,0,0,82.43,115.367Zm0-4.6c-4.368.078-4.367,6.569,0,6.647C86.8,117.336,86.8,110.844,82.43,110.767Zm-12.166,4.6a1.277,1.277,0,0,0,0-2.554A1.277,1.277,0,0,0,70.264,115.367Zm0-4.6c-4.369.079-4.368,6.568,0,6.647C74.631,117.335,74.63,110.844,70.264,110.767Z" fill="#1e2f3f" fill-rule="evenodd"/>
    </g>
  </g>
</svg>
