<svg xmlns="http://www.w3.org/2000/svg" xmlns:xlink="http://www.w3.org/1999/xlink" width="103" height="103" viewBox="0 0 103 103">
  <defs>
    <filter id="Trazado_978624" x="0" y="0" width="103" height="103" filterUnits="userSpaceOnUse">
      <feOffset dy="3" input="SourceAlpha"/>
      <feGaussianBlur stdDeviation="3" result="blur"/>
      <feFlood flood-opacity="0.161"/>
      <feComposite operator="in" in2="blur"/>
      <feComposite in="SourceGraphic"/>
    </filter>
  </defs>
  <g id="Grupo_1214421" data-name="Grupo 1214421" transform="translate(-619 -5202)">
    <g id="Grupo_1213528" data-name="Grupo 1213528" transform="translate(459.211 -5328)">
      <g id="Grupo_1210098" data-name="Grupo 1210098" transform="translate(-5.711 9472)">
        <g id="Grupo_1178144" data-name="Grupo 1178144" transform="translate(-19.5 -2004)">
          <g id="Grupo_1177896" data-name="Grupo 1177896" transform="translate(14 196)">
            <g id="Grupo_1176881" data-name="Grupo 1176881">
              <g id="Grupo_1175148" data-name="Grupo 1175148" transform="translate(0 1580)">
                <g id="Grupo_1173798" data-name="Grupo 1173798" transform="translate(-3 -3520)">
                  <g id="Grupo_1171925" data-name="Grupo 1171925" transform="translate(-22 -2246)">
                    <g id="Grupo_1164524" data-name="Grupo 1164524" transform="translate(205 7058)">
                      <g id="Grupo_1144123" data-name="Grupo 1144123">
                        <g transform="matrix(1, 0, 0, 1, -9, -6)" filter="url(#Trazado_978624)">
                          <g id="Trazado_978624-2" data-name="Trazado 978624" transform="translate(9 6)" fill="#f6f6f6">
                            <path d="M 42.5 83.5 C 36.96437835693359 83.5 31.59512901306152 82.41617584228516 26.54141235351562 80.27863311767578 C 21.65934181213379 78.21369171142578 17.27447128295898 75.25723266601562 13.50862312316895 71.49137878417969 C 9.742764472961426 67.72553253173828 6.786305904388428 63.34066009521484 4.721364498138428 58.45858764648438 C 2.583823442459106 53.40486907958984 1.5 48.03562164306641 1.5 42.5 C 1.5 36.96437835693359 2.583823442459106 31.59512901306152 4.721364498138428 26.54141235351562 C 6.786305904388428 21.65934181213379 9.742764472961426 17.27447128295898 13.50862312316895 13.50862312316895 C 17.27447128295898 9.742764472961426 21.65934181213379 6.786305904388428 26.54141235351562 4.721364498138428 C 31.59512901306152 2.583823442459106 36.96437835693359 1.5 42.5 1.5 C 48.03562164306641 1.5 53.40486907958984 2.583823442459106 58.45858764648438 4.721364498138428 C 63.34066009521484 6.786305904388428 67.72553253173828 9.742764472961426 71.49137878417969 13.50862312316895 C 75.25723266601562 17.27447128295898 78.21369171142578 21.65934181213379 80.27863311767578 26.54141235351562 C 82.41617584228516 31.59512901306152 83.5 36.96437835693359 83.5 42.5 C 83.5 48.03562164306641 82.41617584228516 53.40486907958984 80.27863311767578 58.45858764648438 C 78.21369171142578 63.34066009521484 75.25723266601562 67.72553253173828 71.49137878417969 71.49137878417969 C 67.72553253173828 75.25723266601562 63.34066009521484 78.21369171142578 58.45858764648438 80.27863311767578 C 53.40486907958984 82.41617584228516 48.03562164306641 83.5 42.5 83.5 Z" stroke="none"/>
                            <path d="M 42.5 3 C 37.16621398925781 3 31.99356079101562 4.043960571289062 27.125732421875 6.102882385253906 C 22.42246627807617 8.092185974121094 18.19785308837891 10.94070434570312 14.56928253173828 14.56928253173828 C 10.94070434570312 18.19785308837891 8.092185974121094 22.42246627807617 6.102882385253906 27.125732421875 C 4.043960571289062 31.99356079101562 3 37.16621398925781 3 42.5 C 3 47.83378601074219 4.043960571289062 53.00643920898438 6.102882385253906 57.87425231933594 C 8.092185974121094 62.57753372192383 10.94070434570312 66.80213165283203 14.56928253173828 70.43071746826172 C 18.19786834716797 74.05929565429688 22.42246627807617 76.90781402587891 27.125732421875 78.89711761474609 C 31.99356079101562 80.95603942871094 37.16621398925781 82 42.5 82 C 47.83378601074219 82 53.00642395019531 80.95603942871094 57.87425231933594 78.89711761474609 C 62.57753372192383 76.90781402587891 66.80213165283203 74.05929565429688 70.43071746826172 70.43071746826172 C 74.05929565429688 66.80213165283203 76.90781402587891 62.57753372192383 78.89711761474609 57.87425231933594 C 80.95603942871094 53.00642395019531 82 47.83378601074219 82 42.5 C 82 37.16621398925781 80.95603942871094 31.99356079101562 78.89711761474609 27.125732421875 C 76.90781402587891 22.42246627807617 74.05929565429688 18.19786834716797 70.43071746826172 14.56928253173828 C 66.80213165283203 10.94070434570312 62.57753372192383 8.092185974121094 57.87425231933594 6.102882385253906 C 53.00643920898438 4.043960571289062 47.83378601074219 3 42.5 3 M 42.5 0 C 65.97209167480469 0 85 19.02789306640625 85 42.5 C 85 65.97209167480469 65.97209167480469 85 42.5 85 C 19.02789306640625 85 0 65.97209167480469 0 42.5 C 0 19.02789306640625 19.02789306640625 0 42.5 0 Z" stroke="none" fill="#b0aeae"/>
                          </g>
                        </g>
                      </g>
                    </g>
                  </g>
                </g>
              </g>
            </g>
          </g>
        </g>
      </g>
    </g>
    <g id="mecanismo" transform="translate(627.766 5220.055)">
      <g id="Grupo_1214420" data-name="Grupo 1214420" transform="translate(14.84 0.894)">
        <path id="Trazado_1083998" data-name="Trazado 1083998" d="M67.631,14.238l2.889,2.889a1.959,1.959,0,0,1,.017,2.748l-1.7,1.7a23.736,23.736,0,0,1,4.072,9.834h2.387a1.955,1.955,0,0,1,1.952,1.952v4.086A1.96,1.96,0,0,1,75.294,39.4H72.907a23.739,23.739,0,0,1-4.072,9.83l1.686,1.689a1.953,1.953,0,0,1,0,2.761l-2.889,2.889a1.955,1.955,0,0,1-2.747.013l-1.7-1.7a23.741,23.741,0,0,1-9.831,4.072v2.387A1.958,1.958,0,0,1,51.4,63.3H47.309a1.955,1.955,0,0,1-1.952-1.952V58.961a23.755,23.755,0,0,1-9.834-4.072l-1.689,1.686a1.953,1.953,0,0,1-2.761,0l-2.889-2.889a1.954,1.954,0,0,1,0-2.761l1.686-1.689A23.739,23.739,0,0,1,25.8,39.4H23.411a1.96,1.96,0,0,1-1.952-1.955V33.364a1.958,1.958,0,0,1,1.952-1.952H25.8a23.755,23.755,0,0,1,4.072-9.834l-1.686-1.689a1.953,1.953,0,0,1,0-2.761l2.889-2.889a1.953,1.953,0,0,1,2.761,0l1.689,1.686a23.736,23.736,0,0,1,9.834-4.072V9.465a1.955,1.955,0,0,1,1.952-1.952H51.4a1.958,1.958,0,0,1,1.955,1.952v2.387a23.742,23.742,0,0,1,9.831,4.072l1.689-1.686a1.956,1.956,0,0,1,2.761,0Z" transform="translate(-21.459 -7.513)" fill="#e0dbee" fill-rule="evenodd"/>
        <path id="Trazado_1083999" data-name="Trazado 1083999" d="M113.224,59.84l2.889,2.889a1.959,1.959,0,0,1,.017,2.748l-1.7,1.7a23.736,23.736,0,0,1,4.072,9.834h2.387a1.955,1.955,0,0,1,1.952,1.952v4.086a1.96,1.96,0,0,1-1.952,1.955H118.5a23.739,23.739,0,0,1-4.072,9.83l1.686,1.689a1.953,1.953,0,0,1,0,2.761l-2.889,2.889a1.955,1.955,0,0,1-2.747.013l-1.7-1.7a23.741,23.741,0,0,1-9.831,4.072v2.387a1.958,1.958,0,0,1-1.955,1.952H92.9a1.955,1.955,0,0,1-1.952-1.952v-2.387a23.755,23.755,0,0,1-9.834-4.072l-1.689,1.686a1.953,1.953,0,0,1-2.761,0l-2.889-2.889a1.954,1.954,0,0,1,0-2.761l1.362-1.365A24.012,24.012,0,0,0,109.1,61.2l1.365-1.362A1.956,1.956,0,0,1,113.224,59.84Z" transform="translate(-67.052 -53.115)" fill="#d3cee5" fill-rule="evenodd"/>
        <path id="Trazado_1084000" data-name="Trazado 1084000" d="M163.865,162.355a12.436,12.436,0,1,0-12.436-12.436,12.46,12.46,0,0,0,12.436,12.436Z" transform="translate(-135.972 -122.025)" fill="#faf8f9" fill-rule="evenodd"/>
        <path id="Trazado_1084001" data-name="Trazado 1084001" d="M188.279,156.985a12.436,12.436,0,1,1-17.348,17.348,12.435,12.435,0,0,0,17.348-17.348Z" transform="translate(-153.155 -139.209)" fill="#ede9fb" fill-rule="evenodd"/>
        <path id="Trazado_1084002" data-name="Trazado 1084002" d="M221.239,330.82v14.594a5.424,5.424,0,1,1-10.849,0V330.82l5.421-.721Z" transform="translate(-187.921 -291.735)" fill="#d57080" fill-rule="evenodd"/>
        <path id="Trazado_1084003" data-name="Trazado 1084003" d="M224.41,336.165v14.594a5.423,5.423,0,0,1-10.42,2.11,5.377,5.377,0,0,0,2.11.432,5.443,5.443,0,0,0,5.424-5.428V336.165Z" transform="translate(-191.093 -297.079)" fill="#cb5769" fill-rule="evenodd"/>
        <path id="Trazado_1084004" data-name="Trazado 1084004" d="M210.39,307.468h10.849l-1.433-3.037a1.332,1.332,0,0,0-1.318-.836h-5.347a1.332,1.332,0,0,0-1.318.836Z" transform="translate(-187.921 -268.383)" fill="#cb5769" fill-rule="evenodd"/>
        <path id="Trazado_1084005" data-name="Trazado 1084005" d="M256.966,307.468h2.886l-1.433-3.037a1.332,1.332,0,0,0-1.318-.836h-2.886a1.336,1.336,0,0,1,1.318.836Z" transform="translate(-226.534 -268.383)" fill="#c63d4f" fill-rule="evenodd"/>
        <g id="Grupo_1214419" data-name="Grupo 1214419" transform="translate(24.948 7.865)">
          <path id="Trazado_1084006" data-name="Trazado 1084006" d="M242.463,261.726a1.839,1.839,0,0,1,1.831,1.831v3.149h-3.658v-3.149A1.836,1.836,0,0,1,242.463,261.726Z" transform="translate(-239.518 -239.358)" fill="#0c5e7f" fill-rule="evenodd"/>
          <path id="Trazado_1084007" data-name="Trazado 1084007" d="M233.265,73.646h1.827a1.018,1.018,0,0,1,1.062.91l.927,5.768a3.145,3.145,0,0,1-.212,1.763l-.5,1.19a1.3,1.3,0,0,1-1.274.853h-1.827a1.3,1.3,0,0,1-1.274-.853l-.5-1.19a3.146,3.146,0,0,1-.212-1.763l.927-5.768A1.017,1.017,0,0,1,233.265,73.646Z" transform="translate(-231.233 -73.646)" fill="#0c5e7f" fill-rule="evenodd"/>
        </g>
      </g>
      <path id="Trazado_1084008" data-name="Trazado 1084008" d="M36.416,52.753a24.661,24.661,0,0,1-7.407-3.331l-1.163,1.163a2.844,2.844,0,0,1-4.022,0L20.936,47.7a2.822,2.822,0,0,1-.833-2.009,2.881,2.881,0,0,1,.836-2.019l1.16-1.16c-.179-.266-.354-.539-.519-.812-.307-.5-.59-1-.846-1.5a.891.891,0,0,1,1.581-.823c.253.489.512.954.782,1.392s.55.866.843,1.281a.891.891,0,0,1-.057,1.2L22.2,44.935a1.069,1.069,0,0,0,0,1.5l2.889,2.889a1.054,1.054,0,0,0,.748.31,1.072,1.072,0,0,0,.755-.307l1.675-1.675a.888.888,0,0,1,1.156-.108,22.937,22.937,0,0,0,3.87,2.218A22.135,22.135,0,0,0,36.416,50.9V40.522a13.326,13.326,0,0,1,2.417-24.478l1.183-7.356a.888.888,0,0,1,.89-.823h3.658a.892.892,0,0,1,.877.752l1.193,7.427a13.329,13.329,0,0,1,2.417,24.478V43.8a.892.892,0,1,1-1.783,0V40.872H38.2v13.7a4.534,4.534,0,0,0,9.069,0V47.841a.892.892,0,1,1,1.783,0V50.9a22.568,22.568,0,0,0,3.125-1.143,22.9,22.9,0,0,0,3.867-2.215.891.891,0,0,1,1.146.091l1.7,1.7a1.058,1.058,0,0,0,1.493-.01l2.889-2.889a1.031,1.031,0,0,0,.31-.742,1.083,1.083,0,0,0-.31-.759l-1.686-1.689a.889.889,0,0,1-.094-1.146,22.853,22.853,0,0,0,3.921-9.463.886.886,0,0,1,.877-.742h2.387a1.076,1.076,0,0,0,1.062-1.065V26.744a1.071,1.071,0,0,0-1.062-1.062H66.289a.889.889,0,0,1-.877-.745c-.091-.536-.2-1.045-.31-1.534s-.256-.988-.418-1.5a.89.89,0,1,1,1.7-.529c.162.509.31,1.052.445,1.622.074.307.142.607.2.907h1.645a2.855,2.855,0,0,1,2.845,2.845v4.086a2.849,2.849,0,0,1-2.845,2.842H67.031a24.59,24.59,0,0,1-3.661,8.836l1.163,1.166a2.883,2.883,0,0,1,.833,2.019,2.8,2.8,0,0,1-.833,2l-2.886,2.889a2.857,2.857,0,0,1-4,.02l-1.183-1.183a24.661,24.661,0,0,1-7.407,3.331v1.82a6.318,6.318,0,0,1-12.636,0v-1.82Zm2.9-35a11.551,11.551,0,0,0-2.41,21l1.4-2.973a.9.9,0,0,1,.833-.57h.876V32.957a2.732,2.732,0,0,1,1.827-2.569V20.133h-.934a.888.888,0,0,1-.819-.546Zm4.315,2.38V30.388a2.732,2.732,0,0,1,1.827,2.569v2.255h.876a.9.9,0,0,1,.806.513l1.429,3.031a11.557,11.557,0,0,0-2.41-21l-.742,1.76a.891.891,0,0,1-.85.62ZM41.493,18.35h2.481l.89-2.11L43.806,9.648H41.662L40.6,16.239Zm.3,16.863h1.874V32.957a.937.937,0,0,0-1.874,0v2.255Zm-3.085,3.877h8.044L45.768,37H39.7Zm-17.891-3.3a.889.889,0,1,1-1.7.536c-.179-.56-.334-1.123-.472-1.682-.078-.327-.152-.651-.216-.974H16.792a2.849,2.849,0,0,1-2.845-2.842V26.744A2.855,2.855,0,0,1,16.792,23.9h1.645A24.607,24.607,0,0,1,22.1,15.066L20.936,13.9a2.853,2.853,0,0,1,0-4.022l2.889-2.889a2.844,2.844,0,0,1,4.022,0l1.166,1.163a24.59,24.59,0,0,1,8.836-3.661V2.845A2.849,2.849,0,0,1,40.691,0h4.086a2.849,2.849,0,0,1,2.842,2.845V4.49a24.59,24.59,0,0,1,8.836,3.661l1.166-1.163a2.9,2.9,0,0,1,2.019-.833,2.8,2.8,0,0,1,2,.833l2.889,2.889a2.853,2.853,0,0,1,.024,4l-1.187,1.187c.185.283.371.573.553.873q.465.764.87,1.557a.888.888,0,0,1-1.581.809q-.379-.743-.809-1.446c-.276-.458-.58-.92-.907-1.379a.892.892,0,0,1,.091-1.146l1.7-1.7a1.083,1.083,0,0,0,.3-.755,1.068,1.068,0,0,0-.313-.742L60.382,8.249a1.03,1.03,0,0,0-.742-.31,1.083,1.083,0,0,0-.759.31L57.193,9.935a.889.889,0,0,1-1.146.094,22.852,22.852,0,0,0-9.463-3.921.886.886,0,0,1-.742-.876V2.845a1.076,1.076,0,0,0-1.065-1.062H40.691a1.076,1.076,0,0,0-1.065,1.062V5.178a.885.885,0,0,1-.742.93,22.872,22.872,0,0,0-9.413,3.884.887.887,0,0,1-1.2-.057L26.586,8.249a1.062,1.062,0,0,0-1.5,0L22.2,11.139a1.06,1.06,0,0,0,0,1.5l1.686,1.689a.889.889,0,0,1,.094,1.146,22.833,22.833,0,0,0-3.911,9.409.892.892,0,0,1-.887.8H16.792a1.071,1.071,0,0,0-1.062,1.062V30.83A1.076,1.076,0,0,0,16.792,31.9h2.333a.888.888,0,0,1,.93.742c.094.546.2,1.079.327,1.591.128.536.276,1.059.438,1.564Z" transform="translate(0 0)"/>
    </g>
  </g>
</svg>
