<svg xmlns="http://www.w3.org/2000/svg" width="125.399" height="62.699" viewBox="0 0 125.399 62.699">
  <path id="Trazado_1083240" data-name="Trazado 1083240" d="M157.565,284.194a13.883,13.883,0,0,0-9.812,23.689,4.119,4.119,0,0,1,0,5.825l-8.867,8.867a4.12,4.12,0,0,1-5.825,0,13.883,13.883,0,0,0-23.689,9.812,4.118,4.118,0,0,1-4.119,4.119H92.714a4.118,4.118,0,0,1-4.119-4.119,13.877,13.877,0,0,0-23.689-9.812,4.119,4.119,0,0,1-5.825,0l-8.867-8.867a4.119,4.119,0,0,1,0-5.825A13.883,13.883,0,0,0,40.4,284.194a4.118,4.118,0,0,1-4.119-4.119V275.3a1.429,1.429,0,0,1,1.423-1.426l29.239-.068a1.425,1.425,0,0,1,1.428,1.364,30.641,30.641,0,0,0,61.221,0,1.426,1.426,0,0,1,1.424-1.364h29.238a1.429,1.429,0,0,1,1.426,1.426v4.843a4.117,4.117,0,0,1-4.118,4.118ZM116.6,275.356a1.426,1.426,0,0,0-1.421-1.55h-32.4a1.426,1.426,0,0,0-1.421,1.55,17.687,17.687,0,0,0,35.239,0Z" transform="translate(161.683 336.505) rotate(180)" fill="#fdcd56" fill-rule="evenodd"/>
</svg>
