<svg xmlns="http://www.w3.org/2000/svg" width="33.958" height="33.965" viewBox="0 0 33.958 33.965">
  <g id="productividad_1_" data-name="productividad (1)" transform="translate(-2.254 -2.247)">
    <path id="Trazado_1083324" data-name="Trazado 1083324" d="M35.085,26.566a.4.4,0,0,0,.332-.4V22.887a.4.4,0,0,0-.331-.395l-1.849-.33a8.547,8.547,0,0,0-.892-2.135l1.079-1.543a.4.4,0,0,0-.045-.513l-2.3-2.3a.4.4,0,0,0-.513-.045L29.022,16.7a8.879,8.879,0,0,0-2.128-.881l-.334-1.856a.4.4,0,0,0-.395-.33h0l-3.284.005a.4.4,0,0,0-.394.33l-.334,1.846a9.052,9.052,0,0,0-2.11.892L18.485,15.61a.4.4,0,0,0-.513.044l-2.3,2.3a.4.4,0,0,0-.048.51l1.08,1.581a9.121,9.121,0,0,0-.885,2.1l-1.851.339a.4.4,0,0,0-.329.394l-.005,3.284a.4.4,0,0,0,.332.4l1.862.324a9.265,9.265,0,0,0,.882,2.127l-1.079,1.544a.4.4,0,0,0,.045.513l2.305,2.3a.4.4,0,0,0,.513.045l1.551-1.086a8.757,8.757,0,0,0,2.13.9l.319,1.856a.4.4,0,0,0,.4.333H26.17a.4.4,0,0,0,.395-.331l.33-1.866A9.164,9.164,0,0,0,29,32.347l1.564,1.07a.4.4,0,0,0,.51-.048l2.3-2.305a.4.4,0,0,0,.045-.513L32.343,29a9.006,9.006,0,0,0,.884-2.114Zm-2.571-.121a8.205,8.205,0,0,1-.99,2.366.4.4,0,0,0,.013.44l1.037,1.484-1.832,1.832-1.5-1.026a.4.4,0,0,0-.437-.01,8.376,8.376,0,0,1-2.358.979.4.4,0,0,0-.3.319l-.315,1.787h-2.61l-.306-1.779a.4.4,0,0,0-.3-.322,7.977,7.977,0,0,1-2.378-1,.4.4,0,0,0-.442.012l-1.49,1.042-1.83-1.829,1.033-1.479a.4.4,0,0,0,.015-.436,8.465,8.465,0,0,1-.986-2.384.4.4,0,0,0-.321-.3l-1.785-.311,0-2.612,1.773-.325a.4.4,0,0,0,.318-.3,8.308,8.308,0,0,1,.99-2.352.4.4,0,0,0-.011-.436l-1.037-1.517L18.3,16.461l1.495,1.048a.4.4,0,0,0,.442.012,8.242,8.242,0,0,1,2.361-1,.4.4,0,0,0,.3-.318l.32-1.767,2.613,0,.32,1.776a.4.4,0,0,0,.3.318,8.057,8.057,0,0,1,2.374.987.4.4,0,0,0,.446-.009l1.479-1.033,1.83,1.83-1.037,1.484a.4.4,0,0,0-.008.448,7.742,7.742,0,0,1,1,2.375.4.4,0,0,0,.319.3l1.772.315v2.611l-1.781.311a.4.4,0,0,0-.321.3Z" transform="translate(-5.291 -5.294)"/>
    <path id="Trazado_1083325" data-name="Trazado 1083325" d="M29.207,23.706H29.2a5.5,5.5,0,0,0,.018,11.009h0a5.5,5.5,0,0,0-.016-11.009Zm3.336,8.825h0a4.655,4.655,0,0,1-3.32,1.38h0a4.7,4.7,0,1,1-.018-9.4h0a4.7,4.7,0,0,1,3.337,8.023Z" transform="translate(-9.978 -9.982)"/>
    <path id="Trazado_1083326" data-name="Trazado 1083326" d="M5.767,36.212a16.845,16.845,0,0,0,1.458,1.665c.118.118.241.229.362.343a17.072,17.072,0,0,0,19.132,2.894c.1-.049.205-.093.306-.144.06-.031.118-.067.178-.1.277-.146.554-.3.825-.459l.034-.021.54.805.437.652a.394.394,0,0,0,.383.175.4.4,0,0,0,.328-.263l1.824-5.1a.4.4,0,0,0-.043-.357l0,0h0a.389.389,0,0,0-.06-.055.32.32,0,0,0-.253-.123l-2.991-.159-2.457-.133a.387.387,0,0,0-.37.2.4.4,0,0,0,.016.422l.547.813A13.327,13.327,0,0,1,9.883,35.213c-.032-.032-.059-.066-.091-.1A13.364,13.364,0,0,1,6.606,21.83c.018-.058.038-.115.057-.172q.135-.41.3-.812c.046-.113.095-.225.144-.337q.141-.323.3-.64c.072-.142.147-.282.224-.422.134-.243.269-.487.42-.723l.02-.033a.4.4,0,0,0-.121-.556L6.4,17.14l-.933-.6a.4.4,0,0,0-.3-.054.384.384,0,0,0-.039.017.393.393,0,0,0-.215.159A16.663,16.663,0,0,0,3.321,19.84c-.011.03-.024.06-.035.09-.021.058-.039.116-.06.174A17.187,17.187,0,0,0,5.767,36.212ZM5.372,17.436l.574.367,1.236.795-.005.01-.067.111c-.109.186-.2.377-.3.566-.071.135-.149.267-.215.4-.144.3-.272.6-.394.9-.019.048-.043.095-.061.143a14.06,14.06,0,0,0,3.03,14.887c.051.053.1.11.149.162a14.128,14.128,0,0,0,17.427,1.948.4.4,0,0,0,.118-.563l-.331-.491,2.384.127,1.72.093L29.262,40.74l-.379-.565-.37-.552,0,0h0c0-.006-.011-.009-.015-.015a.389.389,0,0,0-.534-.1c-.278.178-.564.334-.849.493-.176.1-.351.2-.53.289-.206.1-.417.2-.626.293s-.441.2-.665.291c-.153.061-.308.113-.461.169-.293.106-.586.211-.883.3-.071.021-.144.038-.215.059A16.444,16.444,0,0,1,8.437,37.9c-.217-.194-.438-.383-.646-.591a16.343,16.343,0,0,1-3.845-16.8,15.851,15.851,0,0,1,1.426-3.074Z" transform="translate(0 -6.619)"/>
    <path id="Trazado_1083327" data-name="Trazado 1083327" d="M34.437,26.682a.4.4,0,0,0,.175.252L37.1,28.525a.4.4,0,0,0,.554-.122A17.018,17.018,0,0,0,14.507,4.682l-.786-1.237a.4.4,0,0,0-.713.073L11.085,8.585a.4.4,0,0,0,.345.542l5.411.4a.4.4,0,0,0,.368-.616l-.68-1.064A13.263,13.263,0,0,1,34.49,26.38a.4.4,0,0,0-.054.3ZM33.261,9.313A14.147,14.147,0,0,0,15.756,7.384a.4.4,0,0,0-.122.554l.467.732-4.076-.3,1.447-3.816.57.9a.4.4,0,0,0,.252.177.408.408,0,0,0,.3-.054A16.215,16.215,0,0,1,37.192,27.63l-1.814-1.159A14.136,14.136,0,0,0,33.261,9.313Z" transform="translate(-4.096 0)"/>
  </g>
</svg>
