<svg xmlns="http://www.w3.org/2000/svg" xmlns:xlink="http://www.w3.org/1999/xlink" width="103" height="103" viewBox="0 0 103 103">
  <defs>
    <filter id="Trazado_978624" x="0" y="0" width="103" height="103" filterUnits="userSpaceOnUse">
      <feOffset dy="3" input="SourceAlpha"/>
      <feGaussianBlur stdDeviation="3" result="blur"/>
      <feFlood flood-opacity="0.161"/>
      <feComposite operator="in" in2="blur"/>
      <feComposite in="SourceGraphic"/>
    </filter>
  </defs>
  <g id="Grupo_1214088" data-name="Grupo 1214088" transform="translate(-157.789 -1906.5)">
    <g id="Grupo_1211239" data-name="Grupo 1211239" transform="translate(-2 -8623.5)">
      <g id="Grupo_1210098" data-name="Grupo 1210098" transform="translate(-5.711 9472)">
        <g id="Grupo_1178144" data-name="Grupo 1178144" transform="translate(-19.5 -2004)">
          <g id="Grupo_1177896" data-name="Grupo 1177896" transform="translate(14 196)">
            <g id="Grupo_1176881" data-name="Grupo 1176881">
              <g id="Grupo_1175148" data-name="Grupo 1175148" transform="translate(0 1580)">
                <g id="Grupo_1173798" data-name="Grupo 1173798" transform="translate(-3 -3520)">
                  <g id="Grupo_1171925" data-name="Grupo 1171925" transform="translate(-22 -2246)">
                    <g id="Grupo_1164524" data-name="Grupo 1164524" transform="translate(205 7058)">
                      <g id="Grupo_1144123" data-name="Grupo 1144123">
                        <g transform="matrix(1, 0, 0, 1, -9, -6)" filter="url(#Trazado_978624)">
                          <g id="Trazado_978624-2" data-name="Trazado 978624" transform="translate(9 6)" fill="#f6f6f6">
                            <path d="M 42.5 83.5 C 36.96437835693359 83.5 31.59512901306152 82.41617584228516 26.54141235351562 80.27863311767578 C 21.65934181213379 78.21369171142578 17.27447128295898 75.25723266601562 13.50862312316895 71.49137878417969 C 9.742764472961426 67.72553253173828 6.786305904388428 63.34066009521484 4.721364498138428 58.45858764648438 C 2.583823442459106 53.40486907958984 1.5 48.03562164306641 1.5 42.5 C 1.5 36.96437835693359 2.583823442459106 31.59512901306152 4.721364498138428 26.54141235351562 C 6.786305904388428 21.65934181213379 9.742764472961426 17.27447128295898 13.50862312316895 13.50862312316895 C 17.27447128295898 9.742764472961426 21.65934181213379 6.786305904388428 26.54141235351562 4.721364498138428 C 31.59512901306152 2.583823442459106 36.96437835693359 1.5 42.5 1.5 C 48.03562164306641 1.5 53.40486907958984 2.583823442459106 58.45858764648438 4.721364498138428 C 63.34066009521484 6.786305904388428 67.72553253173828 9.742764472961426 71.49137878417969 13.50862312316895 C 75.25723266601562 17.27447128295898 78.21369171142578 21.65934181213379 80.27863311767578 26.54141235351562 C 82.41617584228516 31.59512901306152 83.5 36.96437835693359 83.5 42.5 C 83.5 48.03562164306641 82.41617584228516 53.40486907958984 80.27863311767578 58.45858764648438 C 78.21369171142578 63.34066009521484 75.25723266601562 67.72553253173828 71.49137878417969 71.49137878417969 C 67.72553253173828 75.25723266601562 63.34066009521484 78.21369171142578 58.45858764648438 80.27863311767578 C 53.40486907958984 82.41617584228516 48.03562164306641 83.5 42.5 83.5 Z" stroke="none"/>
                            <path d="M 42.5 3 C 37.16621398925781 3 31.99356079101562 4.043960571289062 27.125732421875 6.102882385253906 C 22.42246627807617 8.092185974121094 18.19785308837891 10.94070434570312 14.56928253173828 14.56928253173828 C 10.94070434570312 18.19785308837891 8.092185974121094 22.42246627807617 6.102882385253906 27.125732421875 C 4.043960571289062 31.99356079101562 3 37.16621398925781 3 42.5 C 3 47.83378601074219 4.043960571289062 53.00643920898438 6.102882385253906 57.87425231933594 C 8.092185974121094 62.57753372192383 10.94070434570312 66.80213165283203 14.56928253173828 70.43071746826172 C 18.19786834716797 74.05929565429688 22.42246627807617 76.90781402587891 27.125732421875 78.89711761474609 C 31.99356079101562 80.95603942871094 37.16621398925781 82 42.5 82 C 47.83378601074219 82 53.00642395019531 80.95603942871094 57.87425231933594 78.89711761474609 C 62.57753372192383 76.90781402587891 66.80213165283203 74.05929565429688 70.43071746826172 70.43071746826172 C 74.05929565429688 66.80213165283203 76.90781402587891 62.57753372192383 78.89711761474609 57.87425231933594 C 80.95603942871094 53.00642395019531 82 47.83378601074219 82 42.5 C 82 37.16621398925781 80.95603942871094 31.99356079101562 78.89711761474609 27.125732421875 C 76.90781402587891 22.42246627807617 74.05929565429688 18.19786834716797 70.43071746826172 14.56928253173828 C 66.80213165283203 10.94070434570312 62.57753372192383 8.092185974121094 57.87425231933594 6.102882385253906 C 53.00643920898438 4.043960571289062 47.83378601074219 3 42.5 3 M 42.5 0 C 65.97209167480469 0 85 19.02789306640625 85 42.5 C 85 65.97209167480469 65.97209167480469 85 42.5 85 C 19.02789306640625 85 0 65.97209167480469 0 42.5 C 0 19.02789306640625 19.02789306640625 0 42.5 0 Z" stroke="none" fill="#b0aeae"/>
                          </g>
                        </g>
                      </g>
                    </g>
                  </g>
                </g>
              </g>
            </g>
          </g>
        </g>
      </g>
    </g>
    <g id="industrial" transform="translate(179.665 1925.376)">
      <path id="Trazado_1083241" data-name="Trazado 1083241" d="M106.377,300.092l-2.533,1.463a1.749,1.749,0,0,1-2.389-.64l-1.806-3.128a1.749,1.749,0,0,1,.64-2.389l2.533-1.462Z" transform="translate(-87.911 -259.922)" fill="#617881"/>
      <path id="Trazado_1083242" data-name="Trazado 1083242" d="M389.659,156.914l-2.753.587a5.222,5.222,0,0,0,1.829,3.168l1.885-2.091A1.01,1.01,0,0,0,389.659,156.914Z" transform="translate(-342.133 -138.734)" fill="#617881"/>
      <path id="Trazado_1083243" data-name="Trazado 1083243" d="M402.543,156.914l-1.067.228a23.059,23.059,0,0,1,.92,2.665l1.108-1.229A1.01,1.01,0,0,0,402.543,156.914Z" transform="translate(-355.017 -138.734)" fill="#475959"/>
      <path id="Trazado_1083244" data-name="Trazado 1083244" d="M342.667,165.34a5.223,5.223,0,0,1-1.829-3.168l-4.846,1.034a4.059,4.059,0,0,0-1.182.454l3.554,6.156a4.057,4.057,0,0,0,.985-.8Z" transform="translate(-296.066 -143.406)" fill="#fff9e2"/>
      <path id="Trazado_1083245" data-name="Trazado 1083245" d="M0,0H27.519V7.109H0Z" transform="matrix(0.866, -0.5, 0.5, 0.866, 14.911, 34.014)" fill="#df75a5"/>
      <path id="Trazado_1083246" data-name="Trazado 1083246" d="M64.852,33.773l-5.366-.942a.192.192,0,0,1-.157-.161,23.181,23.181,0,0,0-1.3-4.848.192.192,0,0,1,.056-.217l4.172-3.5a.194.194,0,0,0,.043-.245l-2.293-3.971a.194.194,0,0,0-.234-.085l-5.12,1.868a.192.192,0,0,1-.216-.06A23.492,23.492,0,0,0,50.9,18.069a.192.192,0,0,1-.06-.216l1.868-5.12a.194.194,0,0,0-.085-.234l-3.971-2.293a.194.194,0,0,0-.245.043l-3.5,4.172a.192.192,0,0,1-.217.056,23.185,23.185,0,0,0-4.848-1.3.192.192,0,0,1-.161-.157L38.74,7.66a.194.194,0,0,0-.191-.16H33.964a.194.194,0,0,0-.191.16l-.942,5.366a.192.192,0,0,1-.161.157,23.181,23.181,0,0,0-4.848,1.3.192.192,0,0,1-.217-.056l-3.5-4.172a.194.194,0,0,0-.245-.043L19.893,12.5a.194.194,0,0,0-.085.234l1.868,5.12a.192.192,0,0,1-.06.216,23.487,23.487,0,0,0-3.546,3.546.192.192,0,0,1-.216.06l-5.12-1.868a.194.194,0,0,0-.234.085l-2.293,3.971a.194.194,0,0,0,.043.245l4.172,3.5a.192.192,0,0,1,.056.217,23.185,23.185,0,0,0-1.3,4.848.192.192,0,0,1-.157.161l-5.365.942a.194.194,0,0,0-.16.191v4.585a.194.194,0,0,0,.16.191l5.366.942a.192.192,0,0,1,.157.161,23.183,23.183,0,0,0,1.3,4.848.192.192,0,0,1-.056.217L10.25,48.4a.194.194,0,0,0-.043.245L12.5,52.62a.194.194,0,0,0,.234.085l5.12-1.868a.192.192,0,0,1,.216.06,23.487,23.487,0,0,0,3.546,3.546.192.192,0,0,1,.06.216l-1.868,5.12a.194.194,0,0,0,.085.234l3.971,2.293a.194.194,0,0,0,.245-.043l3.5-4.172a.192.192,0,0,1,.217-.056,23.185,23.185,0,0,0,4.848,1.3.192.192,0,0,1,.161.157l.942,5.366a.194.194,0,0,0,.191.16h4.585a.194.194,0,0,0,.191-.16l.942-5.366a.192.192,0,0,1,.161-.157,23.182,23.182,0,0,0,4.848-1.3.192.192,0,0,1,.217.056l3.5,4.172a.194.194,0,0,0,.245.043l3.971-2.293a.194.194,0,0,0,.085-.234l-1.868-5.12a.192.192,0,0,1,.06-.216A23.491,23.491,0,0,0,54.444,50.9a.192.192,0,0,1,.216-.06l5.12,1.868a.194.194,0,0,0,.234-.085l2.293-3.971a.194.194,0,0,0-.043-.245l-4.172-3.5a.192.192,0,0,1-.056-.217,23.183,23.183,0,0,0,1.3-4.848.192.192,0,0,1,.157-.161l5.366-.942a.194.194,0,0,0,.16-.191V33.964a.194.194,0,0,0-.16-.191Zm-9.734-7.3-5.2,5.771a4.056,4.056,0,0,1-.985.8L45.542,35a9.377,9.377,0,0,1-9.286,10.627,9.329,9.329,0,0,1-5.731-1.957L25.1,46.8l-2.533,1.462a1.749,1.749,0,0,1-2.389-.64L18.371,44.5a1.749,1.749,0,0,1,.64-2.389l7.96-4.6a9.377,9.377,0,0,1,9.286-10.627,9.329,9.329,0,0,1,5.731,1.957l3.389-1.957a4.059,4.059,0,0,1,1.182-.454l7.6-1.621a1.01,1.01,0,0,1,.961,1.664Z" transform="translate(-6.632 -6.632)" fill="#b4d0d5"/>
      <path id="Trazado_1083247" data-name="Trazado 1083247" d="M158.812,54.255l-5.366-.942a.192.192,0,0,1-.157-.161,23.18,23.18,0,0,0-1.3-4.848.192.192,0,0,1,.056-.217l4.172-3.5a.194.194,0,0,0,.043-.245l-2.293-3.971a.194.194,0,0,0-.234-.085l-5.12,1.868a.192.192,0,0,1-.216-.06,23.492,23.492,0,0,0-3.546-3.546.192.192,0,0,1-.06-.216l1.868-5.12a.194.194,0,0,0-.085-.234l-3.971-2.293a.194.194,0,0,0-.245.043l-3.5,4.172a.192.192,0,0,1-.217.056q-.439-.17-.886-.323A23.318,23.318,0,0,1,147.05,45.52l1.067-.228a1.01,1.01,0,0,1,.961,1.664l-1.108,1.228a23.242,23.242,0,0,1-32.422,27.193l-1.781,4.882a.194.194,0,0,0,.085.234l3.971,2.293a.194.194,0,0,0,.245-.043l3.5-4.172a.192.192,0,0,1,.217-.056,23.185,23.185,0,0,0,4.848,1.3.192.192,0,0,1,.161.157l.942,5.366a.194.194,0,0,0,.191.16h4.585a.194.194,0,0,0,.191-.16l.942-5.366a.192.192,0,0,1,.161-.157,23.181,23.181,0,0,0,4.848-1.3.192.192,0,0,1,.217.056l3.5,4.172a.194.194,0,0,0,.245.043l3.971-2.293a.194.194,0,0,0,.085-.234L144.8,75.14a.192.192,0,0,1,.06-.216,23.492,23.492,0,0,0,3.546-3.546.192.192,0,0,1,.216-.06l5.12,1.868a.194.194,0,0,0,.234-.085l2.293-3.971a.194.194,0,0,0-.043-.245l-4.172-3.5a.192.192,0,0,1-.056-.217,23.183,23.183,0,0,0,1.3-4.848.192.192,0,0,1,.157-.161l5.366-.942a.194.194,0,0,0,.16-.191V54.445a.194.194,0,0,0-.16-.191Z" transform="translate(-100.592 -27.114)" fill="#9bb9c1"/>
      <path id="Trazado_1083248" data-name="Trazado 1083248" d="M102.3,120.291a1.736,1.736,0,0,1-1.736-1.736,18.007,18.007,0,0,1,17.986-17.986,1.736,1.736,0,1,1,0,3.472,14.531,14.531,0,0,0-14.515,14.515A1.736,1.736,0,0,1,102.3,120.291Z" transform="translate(-88.931 -88.931)" fill="#86a0af"/>
      <path id="Trazado_1083249" data-name="Trazado 1083249" d="M242.736,260.722a1.736,1.736,0,1,1,0-3.472,14.531,14.531,0,0,0,14.515-14.515,1.736,1.736,0,1,1,3.472,0A18.007,18.007,0,0,1,242.736,260.722Z" transform="translate(-213.112 -213.112)" fill="#86a0af"/>
      <path id="Trazado_1083250" data-name="Trazado 1083250" d="M94.067,173.516a2.615,2.615,0,0,0,3.574.958l7.471-4.313a10.131,10.131,0,0,0,5.786,1.791.868.868,0,0,0,0-1.736,8.422,8.422,0,0,1-4.08-1.04l12.579-7.263a8.542,8.542,0,0,1-4.9,7.5.868.868,0,1,0,.736,1.572,10.282,10.282,0,0,0,5.9-9.275c0-.262-.01-.525-.03-.787l2.9-1.675c.878-.507.635-.346,6.4-6.738a1.878,1.878,0,0,0-1.786-3.094c-8.143,1.737-8.136,1.654-9.034,2.173h0l-2.9,1.673a10.131,10.131,0,0,0-5.786-1.791,10.249,10.249,0,0,0-10.237,10.237c0,.262.01.525.03.787l-7.472,4.314a2.615,2.615,0,0,0-.958,3.574Zm34.914-22.4a.142.142,0,0,1,.135.234l-1.276,1.415a4.382,4.382,0,0,1-.723-1.252Zm-7.6,1.621,4.025-.859a6.106,6.106,0,0,0,1.262,2.186l-2.756,3.056q-.04.045-.083.088l-2.566-4.445Zm-10.483.473a8.42,8.42,0,0,1,4.08,1.04l-12.58,7.263A8.512,8.512,0,0,1,110.9,153.212Zm8.8.318.909,1.575-2.02,1.166a.868.868,0,1,0,.868,1.5l2.02-1.166.909,1.575-22.329,12.892-.909-1.575,16.654-9.615a.868.868,0,1,0-.868-1.5L98.28,168l-.909-1.575ZM94.087,168.317l1.781-1.029,2.686,4.653-1.781,1.029a.88.88,0,0,1-1.2-.322l-1.806-3.127A.882.882,0,0,1,94.087,168.317Z" transform="translate(-81.274 -132.089)"/>
      <path id="Trazado_1083251" data-name="Trazado 1083251" d="M.878,26.286A1.06,1.06,0,0,0,0,27.332v4.585a1.06,1.06,0,0,0,.878,1.046l4.893.859a24.113,24.113,0,0,0,1.094,4.1l-3.8,3.188a1.06,1.06,0,0,0-.238,1.345l2.292,3.97a1.06,1.06,0,0,0,1.283.467l4.671-1.7a24.418,24.418,0,0,0,2.995,2.995l-1.7,4.671a1.06,1.06,0,0,0,.467,1.283L16.8,56.426a1.06,1.06,0,0,0,1.345-.237l3.189-3.805a24.129,24.129,0,0,0,4.1,1.094l.859,4.893a1.06,1.06,0,0,0,1.046.878h4.585a1.06,1.06,0,0,0,1.046-.878l.859-4.893a24.116,24.116,0,0,0,4.1-1.094l3.189,3.806a1.06,1.06,0,0,0,1.344.237l3.971-2.292a1.06,1.06,0,0,0,.467-1.283l-1.7-4.671a24.418,24.418,0,0,0,2.995-2.995l4.671,1.7a1.06,1.06,0,0,0,1.283-.467l2.293-3.971a1.06,1.06,0,0,0-.238-1.344l-3.805-3.189a24.128,24.128,0,0,0,1.094-4.1l4.893-.859a1.06,1.06,0,0,0,.878-1.046V27.332a1.06,1.06,0,0,0-.878-1.046l-4.893-.859a24.112,24.112,0,0,0-1.094-4.1l3.8-3.188a1.06,1.06,0,0,0,.238-1.345l-2.292-3.971a1.06,1.06,0,0,0-1.283-.467l-4.671,1.7a24.4,24.4,0,0,0-2.995-2.995l1.7-4.671a1.06,1.06,0,0,0-.467-1.283L42.451,2.823a1.06,1.06,0,0,0-1.344.238L37.918,6.866a24.129,24.129,0,0,0-4.1-1.094L32.962.878A1.06,1.06,0,0,0,31.917,0H27.332a1.06,1.06,0,0,0-1.046.878l-.859,4.893a24.116,24.116,0,0,0-4.1,1.094L18.142,3.06A1.06,1.06,0,0,0,16.8,2.823L12.827,5.115A1.06,1.06,0,0,0,12.36,6.4l1.7,4.671a24.408,24.408,0,0,0-2.995,2.995L6.4,12.36a1.06,1.06,0,0,0-1.283.467L2.823,16.8a1.06,1.06,0,0,0,.237,1.345l3.805,3.189a24.129,24.129,0,0,0-1.094,4.1Zm6.53-.116A22.363,22.363,0,0,1,8.655,21.5a1.06,1.06,0,0,0-.307-1.2L4.609,17.175l1.726-2.99,4.588,1.674a1.06,1.06,0,0,0,1.189-.331,22.654,22.654,0,0,1,3.415-3.415,1.06,1.06,0,0,0,.331-1.189L14.185,6.335l2.99-1.726,3.133,3.739a1.06,1.06,0,0,0,1.2.307A22.357,22.357,0,0,1,26.17,7.408a1.06,1.06,0,0,0,.883-.864L27.9,1.736h3.453l.844,4.808a1.06,1.06,0,0,0,.883.864,22.363,22.363,0,0,1,4.667,1.247,1.06,1.06,0,0,0,1.2-.307l3.132-3.739,2.99,1.726L43.39,10.924a1.06,1.06,0,0,0,.331,1.189,22.649,22.649,0,0,1,3.415,3.415,1.06,1.06,0,0,0,1.189.331l4.589-1.674,1.726,2.99L50.9,20.307a1.06,1.06,0,0,0-.308,1.2A22.363,22.363,0,0,1,51.84,26.17a1.06,1.06,0,0,0,.864.884l4.808.844v3.453l-4.808.844a1.06,1.06,0,0,0-.864.883,22.365,22.365,0,0,1-1.247,4.667,1.06,1.06,0,0,0,.307,1.2l3.739,3.132-1.726,2.99L48.324,43.39a1.06,1.06,0,0,0-1.189.331,22.655,22.655,0,0,1-3.415,3.415,1.06,1.06,0,0,0-.331,1.189l1.674,4.589-2.99,1.726L38.941,50.9a1.06,1.06,0,0,0-1.2-.308,22.358,22.358,0,0,1-4.667,1.247,1.06,1.06,0,0,0-.883.864l-.844,4.808H27.9l-.844-4.807a1.06,1.06,0,0,0-.883-.865A22.363,22.363,0,0,1,21.5,50.593a1.06,1.06,0,0,0-1.2.307L17.175,54.64l-2.99-1.726,1.674-4.588a1.06,1.06,0,0,0-.331-1.189,22.657,22.657,0,0,1-3.415-3.415,1.06,1.06,0,0,0-1.189-.331L6.335,45.063l-1.726-2.99,3.739-3.133a1.06,1.06,0,0,0,.307-1.2,22.359,22.359,0,0,1-1.247-4.667,1.06,1.06,0,0,0-.864-.883l-4.808-.844V27.9l4.808-.844a1.06,1.06,0,0,0,.864-.883Z" transform="translate(0 0)"/>
      <path id="Trazado_1083252" data-name="Trazado 1083252" d="M95.673,114.527a2.607,2.607,0,0,0,2.6-2.6,13.838,13.838,0,0,1,.071-1.394.868.868,0,1,0-1.727-.176,15.555,15.555,0,0,0-.08,1.57.868.868,0,0,1-1.736,0A17.138,17.138,0,0,1,111.923,94.8a.868.868,0,0,1,0,1.736A15.4,15.4,0,0,0,97.684,106.1a.868.868,0,0,0,1.606.659,13.614,13.614,0,0,1,12.633-8.485,2.6,2.6,0,1,0,0-5.207,18.876,18.876,0,0,0-18.854,18.854A2.607,2.607,0,0,0,95.673,114.527Z" transform="translate(-82.299 -82.299)"/>
      <path id="Trazado_1083253" data-name="Trazado 1083253" d="M252.354,233.5a2.607,2.607,0,0,0-2.6,2.6A13.662,13.662,0,0,1,236.1,249.751a2.6,2.6,0,1,0,0,5.207A18.876,18.876,0,0,0,254.958,236.1,2.607,2.607,0,0,0,252.354,233.5ZM236.1,253.222a.868.868,0,1,1,0-1.736A15.4,15.4,0,0,0,251.486,236.1a.868.868,0,1,1,1.736,0A17.138,17.138,0,0,1,236.1,253.222Z" transform="translate(-206.479 -206.479)"/>
    </g>
  </g>
</svg>
