<svg xmlns="http://www.w3.org/2000/svg" xmlns:xlink="http://www.w3.org/1999/xlink" width="103" height="103" viewBox="0 0 103 103">
  <defs>
    <filter id="Trazado_978624" x="0" y="0" width="103" height="103" filterUnits="userSpaceOnUse">
      <feOffset dy="3" input="SourceAlpha"/>
      <feGaussianBlur stdDeviation="3" result="blur"/>
      <feFlood flood-opacity="0.161"/>
      <feComposite operator="in" in2="blur"/>
      <feComposite in="SourceGraphic"/>
    </filter>
  </defs>
  <g id="Grupo_1214093" data-name="Grupo 1214093" transform="translate(-195 -4769)">
    <g id="Grupo_1211033" data-name="Grupo 1211033" transform="translate(204 4775)">
      <g id="Grupo_1209924" data-name="Grupo 1209924">
        <g id="Grupo_1178144" data-name="Grupo 1178144">
          <g id="Grupo_1177896" data-name="Grupo 1177896">
            <g id="Grupo_1176881" data-name="Grupo 1176881">
              <g id="Grupo_1175148" data-name="Grupo 1175148">
                <g id="Grupo_1173798" data-name="Grupo 1173798">
                  <g id="Grupo_1171925" data-name="Grupo 1171925">
                    <g id="Grupo_1164524" data-name="Grupo 1164524">
                      <g id="Grupo_1144123" data-name="Grupo 1144123">
                        <g transform="matrix(1, 0, 0, 1, -9, -6)" filter="url(#Trazado_978624)">
                          <g id="Trazado_978624-2" data-name="Trazado 978624" transform="translate(9 6)" fill="#fff9e9">
                            <path d="M 42.5 83.5 C 36.96437835693359 83.5 31.59512901306152 82.41617584228516 26.54141235351562 80.27863311767578 C 21.65934181213379 78.21369171142578 17.27447128295898 75.25723266601562 13.50862312316895 71.49137878417969 C 9.742764472961426 67.72553253173828 6.786305904388428 63.34066009521484 4.721364498138428 58.45858764648438 C 2.583823442459106 53.40486907958984 1.5 48.03562164306641 1.5 42.5 C 1.5 36.96437835693359 2.583823442459106 31.59512901306152 4.721364498138428 26.54141235351562 C 6.786305904388428 21.65934181213379 9.742764472961426 17.27447128295898 13.50862312316895 13.50862312316895 C 17.27447128295898 9.742764472961426 21.65934181213379 6.786305904388428 26.54141235351562 4.721364498138428 C 31.59512901306152 2.583823442459106 36.96437835693359 1.5 42.5 1.5 C 48.03562164306641 1.5 53.40486907958984 2.583823442459106 58.45858764648438 4.721364498138428 C 63.34066009521484 6.786305904388428 67.72553253173828 9.742764472961426 71.49137878417969 13.50862312316895 C 75.25723266601562 17.27447128295898 78.21369171142578 21.65934181213379 80.27863311767578 26.54141235351562 C 82.41617584228516 31.59512901306152 83.5 36.96437835693359 83.5 42.5 C 83.5 48.03562164306641 82.41617584228516 53.40486907958984 80.27863311767578 58.45858764648438 C 78.21369171142578 63.34066009521484 75.25723266601562 67.72553253173828 71.49137878417969 71.49137878417969 C 67.72553253173828 75.25723266601562 63.34066009521484 78.21369171142578 58.45858764648438 80.27863311767578 C 53.40486907958984 82.41617584228516 48.03562164306641 83.5 42.5 83.5 Z" stroke="none"/>
                            <path d="M 42.5 3 C 37.16621398925781 3 31.99356079101562 4.043960571289062 27.125732421875 6.102882385253906 C 22.42246627807617 8.092185974121094 18.19785308837891 10.94070434570312 14.56928253173828 14.56928253173828 C 10.94070434570312 18.19785308837891 8.092185974121094 22.42246627807617 6.102882385253906 27.125732421875 C 4.043960571289062 31.99356079101562 3 37.16621398925781 3 42.5 C 3 47.83378601074219 4.043960571289062 53.00643920898438 6.102882385253906 57.87425231933594 C 8.092185974121094 62.57753372192383 10.94070434570312 66.80213165283203 14.56928253173828 70.43071746826172 C 18.19786834716797 74.05929565429688 22.42246627807617 76.90781402587891 27.125732421875 78.89711761474609 C 31.99356079101562 80.95603942871094 37.16621398925781 82 42.5 82 C 47.83378601074219 82 53.00642395019531 80.95603942871094 57.87425231933594 78.89711761474609 C 62.57753372192383 76.90781402587891 66.80213165283203 74.05929565429688 70.43071746826172 70.43071746826172 C 74.05929565429688 66.80213165283203 76.90781402587891 62.57753372192383 78.89711761474609 57.87425231933594 C 80.95603942871094 53.00642395019531 82 47.83378601074219 82 42.5 C 82 37.16621398925781 80.95603942871094 31.99356079101562 78.89711761474609 27.125732421875 C 76.90781402587891 22.42246627807617 74.05929565429688 18.19786834716797 70.43071746826172 14.56928253173828 C 66.80213165283203 10.94070434570312 62.57753372192383 8.092185974121094 57.87425231933594 6.102882385253906 C 53.00643920898438 4.043960571289062 47.83378601074219 3 42.5 3 M 42.5 0 C 65.97209167480469 0 85 19.02789306640625 85 42.5 C 85 65.97209167480469 65.97209167480469 85 42.5 85 C 19.02789306640625 85 0 65.97209167480469 0 42.5 C 0 19.02789306640625 19.02789306640625 0 42.5 0 Z" stroke="none" fill="#8b6f1b"/>
                          </g>
                        </g>
                      </g>
                    </g>
                  </g>
                </g>
              </g>
            </g>
          </g>
        </g>
      </g>
    </g>
    <g id="_9-productivity" data-name="9-productivity" transform="translate(206 4782.521)">
      <path id="Trazado_1083311" data-name="Trazado 1083311" d="M5,33H19.527V70.529H5Z" transform="translate(1.053 6.95)" fill="#6ee1ef"/>
      <path id="Trazado_1083312" data-name="Trazado 1083312" d="M26,21H40.527V73.056H26Z" transform="translate(5.476 4.423)" fill="#5fb1d7"/>
      <path id="Trazado_1083313" data-name="Trazado 1083313" d="M47,1H61.527V77.268H47Z" transform="translate(9.898 0.211)" fill="#2b7fc9"/>
      <path id="Trazado_1083314" data-name="Trazado 1083314" d="M8.474,72.845l19.37-23.21,11.1,11.1a4.844,4.844,0,0,0,6.849,0l22.1-22.1,4.088,4.088L76.268,22,56.956,27.7l4.088,4.088L42.371,50.467l-11.1-11.1a4.844,4.844,0,0,0-6.849,0L0,64.371v8.474Z" transform="translate(0 4.633)" fill="#ef4136"/>
      <path id="Trazado_1083315" data-name="Trazado 1083315" d="M77.088,21.32a1.207,1.207,0,0,0-1.163-.27l-19.312,5.7a1.21,1.21,0,0,0-.513,2.017L59.332,32,42.371,48.966,32.124,38.718a6.07,6.07,0,0,0-8.592.033L.323,63.758A1.211,1.211,0,1,0,2.1,65.405L25.276,40.431a3.637,3.637,0,0,1,5.137,0l11.1,11.1a1.246,1.246,0,0,0,1.712,0L61.9,32.86a1.21,1.21,0,0,0,0-1.712L59.252,28.5l15.421-4.556L71.25,40.5l-2.5-2.5a1.21,1.21,0,0,0-1.712,0l-22.1,22.1a3.637,3.637,0,0,1-5.137,0L28.7,48.99a1.21,1.21,0,0,0-1.764.056l-19.37,22a1.21,1.21,0,0,0,1.817,1.6L27.9,51.614,38.091,61.806a6.063,6.063,0,0,0,8.561,0L67.893,40.564,71.125,43.8a1.211,1.211,0,0,0,2.042-.611l4.287-20.73a1.213,1.213,0,0,0-.366-1.136Z" transform="translate(0 4.423)"/>
      <path id="Trazado_1083316" data-name="Trazado 1083316" d="M17.211,56A1.211,1.211,0,0,0,16,57.211v7.264a1.211,1.211,0,0,0,2.421,0V57.211A1.211,1.211,0,0,0,17.211,56Z" transform="translate(3.37 11.794)"/>
      <path id="Trazado_1083317" data-name="Trazado 1083317" d="M5.211,52.58A1.211,1.211,0,0,0,6.421,51.37V34.421H18.527v1.211a1.211,1.211,0,1,0,2.421,0V33.211A1.211,1.211,0,0,0,19.738,32H5.211A1.211,1.211,0,0,0,4,33.211V51.37A1.211,1.211,0,0,0,5.211,52.58Z" transform="translate(0.842 6.739)"/>
      <path id="Trazado_1083318" data-name="Trazado 1083318" d="M47.211,48A1.211,1.211,0,0,0,46,49.211V66.159a1.211,1.211,0,0,0,2.421,0V49.211A1.211,1.211,0,0,0,47.211,48Z" transform="translate(9.688 10.109)"/>
      <path id="Trazado_1083319" data-name="Trazado 1083319" d="M47.211,29.054a1.211,1.211,0,0,0,1.211-1.211V2.421H60.527V23a1.211,1.211,0,1,0,2.421,0V1.211A1.211,1.211,0,0,0,61.738,0H47.211A1.211,1.211,0,0,0,46,1.211V27.844A1.211,1.211,0,0,0,47.211,29.054Z" transform="translate(9.688)"/>
      <path id="Trazado_1083320" data-name="Trazado 1083320" d="M59.211,42A1.211,1.211,0,0,0,58,43.211V67.423a1.211,1.211,0,0,0,2.421,0V43.211A1.211,1.211,0,0,0,59.211,42Z" transform="translate(12.215 8.845)"/>
      <path id="Trazado_1083321" data-name="Trazado 1083321" d="M38.211,57A1.211,1.211,0,0,0,37,58.211v6.053a1.211,1.211,0,0,0,2.421,0V58.211A1.211,1.211,0,0,0,38.211,57Z" transform="translate(7.792 12.004)"/>
      <path id="Trazado_1083322" data-name="Trazado 1083322" d="M26.211,35.738a1.211,1.211,0,0,0,1.211-1.211V22.421H39.527v19.37a1.211,1.211,0,1,0,2.421,0V21.211A1.211,1.211,0,0,0,40.738,20H26.211A1.211,1.211,0,0,0,25,21.211V34.527A1.211,1.211,0,0,0,26.211,35.738Z" transform="translate(5.265 4.212)"/>
      <path id="Trazado_1083323" data-name="Trazado 1083323" d="M26.211,51A1.211,1.211,0,0,0,25,52.211V65.527a1.211,1.211,0,0,0,2.421,0V52.211A1.211,1.211,0,0,0,26.211,51Z" transform="translate(5.265 10.741)"/>
    </g>
  </g>
</svg>
