<svg xmlns="http://www.w3.org/2000/svg" xmlns:xlink="http://www.w3.org/1999/xlink" width="190" height="171" viewBox="0 0 190 171">
  <defs>
    <clipPath id="clip-path">
      <rect id="Rectángulo_420020" data-name="Rectángulo 420020" width="190" height="171" transform="translate(1230 6816)" fill="#fff" stroke="#707070" stroke-width="1" opacity="0.81"/>
    </clipPath>
  </defs>
  <g id="Enmascarar_grupo_1211455" data-name="Enmascarar grupo 1211455" transform="translate(-1230 -6816)" clip-path="url(#clip-path)">
    <g id="Grupo_1214109" data-name="Grupo 1214109" transform="translate(10 12)">
      <rect id="Rectángulo_420019" data-name="Rectángulo 420019" width="105" height="163" rx="17" transform="translate(1230 6829)" fill="#fc3"/>
      <g id="automation_7760662" transform="translate(1230 6842.013)">
        <g id="Grupo_1214105" data-name="Grupo 1214105">
          <rect id="Rectángulo_420017" data-name="Rectángulo 420017" width="24.84" height="17.886" transform="translate(6.478 102.832)" fill="#62dbfb"/>
          <rect id="Rectángulo_420018" data-name="Rectángulo 420018" width="25.598" height="9.018" transform="translate(82.979 107.823) rotate(-18.276)" fill="#62dbfb"/>
          <path id="Trazado_1083330" data-name="Trazado 1083330" d="M103.729,305.112l12.156,10.277,17.875-21.144A7.959,7.959,0,0,0,121.6,283.968Z" transform="translate(-76.608 -209.5)" fill="#62dbfb"/>
          <path id="Trazado_1083331" data-name="Trazado 1083331" d="M152.7,283.083a7.923,7.923,0,0,0-4.572-1.86,7.959,7.959,0,0,1,.211,10.514L131.41,311.762l4.355,3.681L153.639,294.3A7.959,7.959,0,0,0,152.7,283.083Z" transform="translate(-96.488 -209.554)" fill="#01c0fa"/>
          <path id="Trazado_1083332" data-name="Trazado 1083332" d="M380.126,347.722l12.126-15.393a7.21,7.21,0,0,0-11.327-8.923l-10.364,13.156a1.877,1.877,0,0,0-.058,2.246l6.247,8.828A2.108,2.108,0,0,0,380.126,347.722Z" transform="translate(-267.948 -237.874)" fill="#eaf6ff"/>
          <path id="Trazado_1083333" data-name="Trazado 1083333" d="M404.543,322.209a7.176,7.176,0,0,0-4.468-1.544,7.21,7.21,0,0,1,.9,9.874l-12.029,15.27,1.3,1.832a2.108,2.108,0,0,0,3.376.087l12.126-15.393A7.21,7.21,0,0,0,404.543,322.209Z" transform="translate(-281.441 -237.88)" fill="#d5e3f4"/>
          <path id="Trazado_1083334" data-name="Trazado 1083334" d="M251.656,388.458v17.55h18.539a2.036,2.036,0,0,0,2.036-2.036V390.495a2.036,2.036,0,0,0-2.036-2.036H251.656Z" transform="translate(-182.844 -286.566)" fill="#528fd8"/>
          <path id="Trazado_1083335" data-name="Trazado 1083335" d="M303.071,388.458h-5.637a2.036,2.036,0,0,1,2.037,2.036v13.477a2.037,2.037,0,0,1-2.037,2.037h5.637a2.036,2.036,0,0,0,2.036-2.036V390.495A2.036,2.036,0,0,0,303.071,388.458Z" transform="translate(-215.72 -286.566)" fill="#0473ce"/>
          <path id="Trazado_1083336" data-name="Trazado 1083336" d="M88.072,380.248l47.17-3.945a5.818,5.818,0,0,0,5.333-5.8V352.172a2.909,2.909,0,0,0-2.909-2.909H111.312a5.205,5.205,0,0,1-3.246-1.136l-8.875-7.081a8.789,8.789,0,0,0-14.271,6.87v29.435A2.909,2.909,0,0,0,88.072,380.248Z" transform="translate(-63.101 -251.138)" fill="#eaf6ff"/>
          <path id="Trazado_1083337" data-name="Trazado 1083337" d="M257.707,375.092H252.07A2.909,2.909,0,0,1,254.979,378v19.743a5.811,5.811,0,0,1-2.264,4.6l2.568-.215a5.818,5.818,0,0,0,5.333-5.8V378A2.909,2.909,0,0,0,257.707,375.092Z" transform="translate(-183.142 -276.967)" fill="#d5e3f4"/>
          <path id="Trazado_1083338" data-name="Trazado 1083338" d="M20.387,368.781v24.9a4.151,4.151,0,0,1-4.151,4.151H8.955A1.455,1.455,0,0,1,7.5,396.374V366.085a1.455,1.455,0,0,1,1.455-1.455h7.281A4.151,4.151,0,0,1,20.387,368.781Z" transform="translate(-7.5 -269.454)" fill="#eaf6ff"/>
          <path id="Trazado_1083339" data-name="Trazado 1083339" d="M24.132,364.63H18.495a4.151,4.151,0,0,1,4.151,4.151v24.9a4.151,4.151,0,0,1-4.151,4.151h5.637a4.151,4.151,0,0,0,4.151-4.151v-24.9A4.151,4.151,0,0,0,24.132,364.63Z" transform="translate(-15.396 -269.454)" fill="#d5e3f4"/>
          <path id="Trazado_1083340" data-name="Trazado 1083340" d="M263.9,180.212v24.8a.919.919,0,0,0,.919.919h24.8a.919.919,0,0,0,.919-.919v-24.8a.919.919,0,0,0-.919-.919h-24.8A.919.919,0,0,0,263.9,180.212Z" transform="translate(-191.636 -136.351)" fill="#62dbfb"/>
          <path id="Trazado_1083341" data-name="Trazado 1083341" d="M340.792,179.293h-5.637a.919.919,0,0,1,.919.919v24.8a.919.919,0,0,1-.919.919h5.637a.919.919,0,0,0,.919-.919v-24.8A.919.919,0,0,0,340.792,179.293Z" transform="translate(-242.81 -136.351)" fill="#01c0fa"/>
          <path id="Trazado_1083342" data-name="Trazado 1083342" d="M293.158,209.4v8.455a.845.845,0,0,0,.845.846h8.455a.845.845,0,0,0,.846-.846V209.4a.845.845,0,0,0-.846-.846H294A.845.845,0,0,0,293.158,209.4Z" transform="translate(-212.649 -157.364)" fill="#528fd8"/>
          <path id="Trazado_1083343" data-name="Trazado 1083343" d="M140.792,88.042a32.2,32.2,0,1,1,63.026.009,1.472,1.472,0,0,0,1.446,1.767h19.761a1.772,1.772,0,0,0,1.772-1.772V74.794a1.771,1.771,0,0,0-1.772-1.772H217.49a.887.887,0,0,1-.867-.714,44.98,44.98,0,0,0-6.54-15.781.887.887,0,0,1,.109-1.118l5.33-5.33a1.772,1.772,0,0,0,0-2.506l-9.37-9.37a1.772,1.772,0,0,0-2.506,0l-5.33,5.33a.887.887,0,0,1-1.118.109,44.98,44.98,0,0,0-15.781-6.54.887.887,0,0,1-.714-.867V28.7a1.771,1.771,0,0,0-1.772-1.772H165.68a1.772,1.772,0,0,0-1.772,1.772v7.535a.887.887,0,0,1-.714.867,44.98,44.98,0,0,0-15.781,6.54.887.887,0,0,1-1.118-.109l-5.33-5.33a1.772,1.772,0,0,0-2.506,0l-9.37,9.37a1.772,1.772,0,0,0,0,2.506l5.33,5.33a.887.887,0,0,1,.109,1.118,44.975,44.975,0,0,0-6.54,15.781.887.887,0,0,1-.867.714h-7.535a1.771,1.771,0,0,0-1.772,1.772V88.046a1.771,1.771,0,0,0,1.772,1.772h19.762A1.473,1.473,0,0,0,140.792,88.042Z" transform="translate(-86.724 -26.929)" fill="#7ca1b1"/>
          <path id="Trazado_1083344" data-name="Trazado 1083344" d="M366.4,73.022h-7.535a.887.887,0,0,1-.867-.714,44.977,44.977,0,0,0-6.54-15.781.887.887,0,0,1,.109-1.118l5.33-5.33a1.772,1.772,0,0,0,0-2.506l-9.37-9.37a1.772,1.772,0,0,0-2.506,0l-5.33,5.33a.887.887,0,0,1-1.118.109A44.974,44.974,0,0,0,322.79,37.1a.887.887,0,0,1-.714-.867V28.7a1.771,1.771,0,0,0-1.772-1.772h-5.636a1.772,1.772,0,0,1,1.771,1.772V39.156a2.967,2.967,0,0,0,2.554,2.951,39.7,39.7,0,0,1,33.46,47.711H366.4a1.771,1.771,0,0,0,1.772-1.772V74.794A1.771,1.771,0,0,0,366.4,73.022Z" transform="translate(-228.097 -26.929)" fill="#678d98"/>
        </g>
        <g id="Grupo_1214108" data-name="Grupo 1214108">
          <line id="Línea_625" data-name="Línea 625" x1="8.934" transform="translate(12.886 102.834)" fill="none" stroke="#000" stroke-linecap="round" stroke-linejoin="round" stroke-miterlimit="10" stroke-width="4"/>
          <line id="Línea_626" data-name="Línea 626" x1="8.934" transform="translate(12.886 120.719)" fill="none" stroke="#000" stroke-linecap="round" stroke-linejoin="round" stroke-miterlimit="10" stroke-width="4"/>
          <line id="Línea_627" data-name="Línea 627" x1="18.86" y2="6.229" transform="translate(89.387 108.975)" fill="none" stroke="#000" stroke-linecap="round" stroke-linejoin="round" stroke-miterlimit="10" stroke-width="4"/>
          <line id="Línea_628" data-name="Línea 628" x1="13.41" y2="4.428" transform="translate(89.387 101.275)" fill="none" stroke="#000" stroke-linecap="round" stroke-linejoin="round" stroke-miterlimit="10" stroke-width="4"/>
          <path id="Trazado_1083345" data-name="Trazado 1083345" d="M125.4,297.889l11.767-13.92a7.958,7.958,0,1,1,12.156,10.276l-10.963,12.967" transform="translate(-92.172 -209.5)" fill="none" stroke="#000" stroke-linecap="round" stroke-linejoin="round" stroke-miterlimit="10" stroke-width="4"/>
          <path id="Trazado_1083346" data-name="Trazado 1083346" d="M391.64,333.108l.613-.778a7.21,7.21,0,0,0-11.327-8.923l-10.364,13.156a1.877,1.877,0,0,0-.058,2.246l6.247,8.828a2.108,2.108,0,0,0,3.376.087l5.41-6.867" transform="translate(-267.949 -237.875)" fill="none" stroke="#000" stroke-linecap="round" stroke-linejoin="round" stroke-miterlimit="10" stroke-width="4"/>
          <path id="Trazado_1083347" data-name="Trazado 1083347" d="M282.383,388.46h9.875a2.036,2.036,0,0,1,2.038,2.035v13.477a2.039,2.039,0,0,1-2.038,2.038H282.38" transform="translate(-204.909 -286.568)" fill="none" stroke="#000" stroke-linecap="round" stroke-linejoin="round" stroke-miterlimit="10" stroke-width="4"/>
          <path id="Trazado_1083348" data-name="Trazado 1083348" d="M88.072,380.248l47.17-3.945a5.818,5.818,0,0,0,5.333-5.8V352.172a2.909,2.909,0,0,0-2.909-2.909H111.312a5.205,5.205,0,0,1-3.246-1.136l-8.875-7.081a8.789,8.789,0,0,0-14.271,6.87v29.435A2.909,2.909,0,0,0,88.072,380.248Z" transform="translate(-63.101 -251.138)" fill="none" stroke="#000" stroke-linecap="round" stroke-linejoin="round" stroke-miterlimit="10" stroke-width="4"/>
          <path id="Trazado_1083349" data-name="Trazado 1083349" d="M20.387,368.781v24.9a4.151,4.151,0,0,1-4.151,4.151H8.955A1.455,1.455,0,0,1,7.5,396.374V366.085a1.455,1.455,0,0,1,1.455-1.455h7.281A4.151,4.151,0,0,1,20.387,368.781Z" transform="translate(-7.5 -269.454)" fill="none" stroke="#000" stroke-linecap="round" stroke-linejoin="round" stroke-miterlimit="10" stroke-width="4"/>
          <g id="Grupo_1214106" data-name="Grupo 1214106" transform="translate(65.752 47.769)">
            <line id="Línea_629" data-name="Línea 629" x1="6.508" transform="translate(33.149)" fill="none" stroke="#000" stroke-linecap="round" stroke-linejoin="round" stroke-miterlimit="10" stroke-width="4"/>
            <line id="Línea_630" data-name="Línea 630" x1="6.51" fill="none" stroke="#000" stroke-linecap="round" stroke-linejoin="round" stroke-miterlimit="10" stroke-width="4"/>
            <line id="Línea_631" data-name="Línea 631" x1="6.508" transform="translate(33.149 8.492)" fill="none" stroke="#000" stroke-linecap="round" stroke-linejoin="round" stroke-miterlimit="10" stroke-width="4"/>
            <line id="Línea_632" data-name="Línea 632" x1="6.51" transform="translate(0 8.492)" fill="none" stroke="#000" stroke-linecap="round" stroke-linejoin="round" stroke-miterlimit="10" stroke-width="4"/>
            <line id="Línea_633" data-name="Línea 633" x1="6.508" transform="translate(33.149 16.986)" fill="none" stroke="#000" stroke-linecap="round" stroke-linejoin="round" stroke-miterlimit="10" stroke-width="4"/>
            <line id="Línea_634" data-name="Línea 634" x1="6.51" transform="translate(0 16.986)" fill="none" stroke="#000" stroke-linecap="round" stroke-linejoin="round" stroke-miterlimit="10" stroke-width="4"/>
          </g>
          <g id="Grupo_1214107" data-name="Grupo 1214107" transform="translate(77.088 36.433)">
            <line id="Línea_635" data-name="Línea 635" y1="6.51" transform="translate(16.986 33.147)" fill="none" stroke="#000" stroke-linecap="round" stroke-linejoin="round" stroke-miterlimit="10" stroke-width="4"/>
            <line id="Línea_636" data-name="Línea 636" y1="6.508" transform="translate(16.986)" fill="none" stroke="#000" stroke-linecap="round" stroke-linejoin="round" stroke-miterlimit="10" stroke-width="4"/>
            <line id="Línea_637" data-name="Línea 637" y1="6.51" transform="translate(8.495 33.147)" fill="none" stroke="#000" stroke-linecap="round" stroke-linejoin="round" stroke-miterlimit="10" stroke-width="4"/>
            <line id="Línea_638" data-name="Línea 638" y1="6.508" transform="translate(8.495)" fill="none" stroke="#000" stroke-linecap="round" stroke-linejoin="round" stroke-miterlimit="10" stroke-width="4"/>
            <line id="Línea_639" data-name="Línea 639" y1="6.51" transform="translate(0 33.147)" fill="none" stroke="#000" stroke-linecap="round" stroke-linejoin="round" stroke-miterlimit="10" stroke-width="4"/>
            <line id="Línea_640" data-name="Línea 640" y1="6.508" fill="none" stroke="#000" stroke-linecap="round" stroke-linejoin="round" stroke-miterlimit="10" stroke-width="4"/>
          </g>
          <path id="Trazado_1083350" data-name="Trazado 1083350" d="M263.9,180.212v24.8a.919.919,0,0,0,.919.919h24.8a.919.919,0,0,0,.919-.919v-24.8a.919.919,0,0,0-.919-.919h-24.8A.919.919,0,0,0,263.9,180.212Z" transform="translate(-191.636 -136.351)" fill="none" stroke="#000" stroke-linecap="round" stroke-linejoin="round" stroke-miterlimit="10" stroke-width="4"/>
          <path id="Trazado_1083351" data-name="Trazado 1083351" d="M293.158,209.4v8.455a.845.845,0,0,0,.845.846h8.455a.845.845,0,0,0,.846-.846V209.4a.845.845,0,0,0-.846-.846H294A.845.845,0,0,0,293.158,209.4Z" transform="translate(-212.649 -157.364)" fill="none" stroke="#000" stroke-linecap="round" stroke-linejoin="round" stroke-miterlimit="10" stroke-width="4"/>
          <path id="Trazado_1083352" data-name="Trazado 1083352" d="M154.828,54.4A32.168,32.168,0,0,1,204.5,81.42a32.286,32.286,0,0,1-.686,6.631,1.472,1.472,0,0,0,1.446,1.767h19.761a1.771,1.771,0,0,0,1.772-1.772V74.794a1.771,1.771,0,0,0-1.772-1.772h-7.535a.887.887,0,0,1-.867-.714,44.98,44.98,0,0,0-6.54-15.781.887.887,0,0,1,.109-1.118l5.33-5.33a1.772,1.772,0,0,0,0-2.506l-9.37-9.37a1.772,1.772,0,0,0-2.506,0l-5.33,5.33a.887.887,0,0,1-1.118.109,44.98,44.98,0,0,0-15.781-6.54.887.887,0,0,1-.714-.867V28.7a1.771,1.771,0,0,0-1.772-1.772H165.681a1.771,1.771,0,0,0-1.772,1.772v7.535a.887.887,0,0,1-.714.867,44.98,44.98,0,0,0-15.781,6.54.887.887,0,0,1-1.118-.109l-5.33-5.33a1.772,1.772,0,0,0-2.506,0l-9.37,9.37a1.772,1.772,0,0,0,0,2.506l5.33,5.33a.887.887,0,0,1,.109,1.118,44.976,44.976,0,0,0-6.54,15.781.887.887,0,0,1-.867.714h-7.535a1.771,1.771,0,0,0-1.772,1.772V88.046a1.771,1.771,0,0,0,1.772,1.772H139.35a1.474,1.474,0,0,0,1.444-1.776,32.376,32.376,0,0,1-.65-8.12,32,32,0,0,1,7.341-18.97" transform="translate(-86.725 -26.929)" fill="none" stroke="#000" stroke-linecap="round" stroke-linejoin="round" stroke-miterlimit="10" stroke-width="4"/>
        </g>
      </g>
    </g>
  </g>
</svg>
