<svg xmlns="http://www.w3.org/2000/svg" xmlns:xlink="http://www.w3.org/1999/xlink" width="103" height="103" viewBox="0 0 103 103">
  <defs>
    <filter id="Trazado_978624" x="0" y="0" width="103" height="103" filterUnits="userSpaceOnUse">
      <feOffset dy="3" input="SourceAlpha"/>
      <feGaussianBlur stdDeviation="3" result="blur"/>
      <feFlood flood-opacity="0.161"/>
      <feComposite operator="in" in2="blur"/>
      <feComposite in="SourceGraphic"/>
    </filter>
  </defs>
  <g id="Grupo_1214115" data-name="Grupo 1214115" transform="translate(-615 -7272.223)">
    <g id="Grupo_1210955" data-name="Grupo 1210955" transform="translate(621.066 7278.223)">
      <g id="Grupo_1209912" data-name="Grupo 1209912" transform="translate(2.934)">
        <g id="Grupo_1178144" data-name="Grupo 1178144">
          <g id="Grupo_1177896" data-name="Grupo 1177896">
            <g id="Grupo_1176881" data-name="Grupo 1176881">
              <g id="Grupo_1175148" data-name="Grupo 1175148">
                <g id="Grupo_1173798" data-name="Grupo 1173798">
                  <g id="Grupo_1171925" data-name="Grupo 1171925">
                    <g id="Grupo_1164524" data-name="Grupo 1164524">
                      <g id="Grupo_1144123" data-name="Grupo 1144123">
                        <g transform="matrix(1, 0, 0, 1, -9, -6)" filter="url(#Trazado_978624)">
                          <g id="Trazado_978624-2" data-name="Trazado 978624" transform="translate(9 6)" fill="#fef5ed">
                            <path d="M 42.5 83.5 C 36.96437835693359 83.5 31.59512901306152 82.41617584228516 26.54141235351562 80.27863311767578 C 21.65934181213379 78.21369171142578 17.27447128295898 75.25723266601562 13.50862312316895 71.49137878417969 C 9.742764472961426 67.72553253173828 6.786305904388428 63.34066009521484 4.721364498138428 58.45858764648438 C 2.583823442459106 53.40486907958984 1.5 48.03562164306641 1.5 42.5 C 1.5 36.96437835693359 2.583823442459106 31.59512901306152 4.721364498138428 26.54141235351562 C 6.786305904388428 21.65934181213379 9.742764472961426 17.27447128295898 13.50862312316895 13.50862312316895 C 17.27447128295898 9.742764472961426 21.65934181213379 6.786305904388428 26.54141235351562 4.721364498138428 C 31.59512901306152 2.583823442459106 36.96437835693359 1.5 42.5 1.5 C 48.03562164306641 1.5 53.40486907958984 2.583823442459106 58.45858764648438 4.721364498138428 C 63.34066009521484 6.786305904388428 67.72553253173828 9.742764472961426 71.49137878417969 13.50862312316895 C 75.25723266601562 17.27447128295898 78.21369171142578 21.65934181213379 80.27863311767578 26.54141235351562 C 82.41617584228516 31.59512901306152 83.5 36.96437835693359 83.5 42.5 C 83.5 48.03562164306641 82.41617584228516 53.40486907958984 80.27863311767578 58.45858764648438 C 78.21369171142578 63.34066009521484 75.25723266601562 67.72553253173828 71.49137878417969 71.49137878417969 C 67.72553253173828 75.25723266601562 63.34066009521484 78.21369171142578 58.45858764648438 80.27863311767578 C 53.40486907958984 82.41617584228516 48.03562164306641 83.5 42.5 83.5 Z" stroke="none"/>
                            <path d="M 42.5 3 C 37.16621398925781 3 31.99356079101562 4.043960571289062 27.125732421875 6.102882385253906 C 22.42246627807617 8.092185974121094 18.19785308837891 10.94070434570312 14.56928253173828 14.56928253173828 C 10.94070434570312 18.19785308837891 8.092185974121094 22.42246627807617 6.102882385253906 27.125732421875 C 4.043960571289062 31.99356079101562 3 37.16621398925781 3 42.5 C 3 47.83378601074219 4.043960571289062 53.00643920898438 6.102882385253906 57.87425231933594 C 8.092185974121094 62.57753372192383 10.94070434570312 66.80213165283203 14.56928253173828 70.43071746826172 C 18.19786834716797 74.05929565429688 22.42246627807617 76.90781402587891 27.125732421875 78.89711761474609 C 31.99356079101562 80.95603942871094 37.16621398925781 82 42.5 82 C 47.83378601074219 82 53.00642395019531 80.95603942871094 57.87425231933594 78.89711761474609 C 62.57753372192383 76.90781402587891 66.80213165283203 74.05929565429688 70.43071746826172 70.43071746826172 C 74.05929565429688 66.80213165283203 76.90781402587891 62.57753372192383 78.89711761474609 57.87425231933594 C 80.95603942871094 53.00642395019531 82 47.83378601074219 82 42.5 C 82 37.16621398925781 80.95603942871094 31.99356079101562 78.89711761474609 27.125732421875 C 76.90781402587891 22.42246627807617 74.05929565429688 18.19786834716797 70.43071746826172 14.56928253173828 C 66.80213165283203 10.94070434570312 62.57753372192383 8.092185974121094 57.87425231933594 6.102882385253906 C 53.00643920898438 4.043960571289062 47.83378601074219 3 42.5 3 M 42.5 0 C 65.97209167480469 0 85 19.02789306640625 85 42.5 C 85 65.97209167480469 65.97209167480469 85 42.5 85 C 19.02789306640625 85 0 65.97209167480469 0 42.5 C 0 19.02789306640625 19.02789306640625 0 42.5 0 Z" stroke="none" fill="#f9a858"/>
                          </g>
                        </g>
                      </g>
                    </g>
                  </g>
                </g>
              </g>
            </g>
          </g>
        </g>
      </g>
    </g>
    <g id="pensar-pregunta" transform="translate(627.974 7295.111)">
      <g id="Grupo_1214113" data-name="Grupo 1214113" transform="translate(1.042 1.099)">
        <path id="Trazado_1083353" data-name="Trazado 1083353" d="M65.35,402.573s-1.963,3.258-2.827,4.837l-13.7,5.258H19.283l-5.293-3.425v-6.915a60.518,60.518,0,0,1,8.319-2.619l3.557-.924,3.947-.928,17.428,1.713,3.524-1.536c1.186.308,4.631,1.146,5.816,1.455C59.561,400.263,62.786,400.778,65.35,402.573Z" transform="translate(-13.089 -343.698)" fill="#8ac9fe"/>
        <path id="Trazado_1083354" data-name="Trazado 1083354" d="M13.694,438.264v2.126H7.917a.416.416,0,0,1-.417-.417V430.9a.417.417,0,0,1,.163-.331c.1-.078.2-.153.278-.21.151-.108.306-.213.461-.311l.314.157A9.01,9.01,0,0,1,13.694,438.264Z" transform="translate(-7.5 -371.419)" fill="#60b7ff"/>
        <path id="Trazado_1083355" data-name="Trazado 1083355" d="M360.471,441.071v.418a.417.417,0,0,1-.417.417H350.51v-5.989a8.991,8.991,0,0,1,3.869-3.731l.751-.376.1.067.154.112A11.248,11.248,0,0,1,360.471,441.071Z" transform="translate(-302.87 -372.935)" fill="#60b7ff"/>
        <path id="Trazado_1083356" data-name="Trazado 1083356" d="M102.59,23.283C99.7,28.756,96.79,33.877,90.178,34.2l-20.438.06V23.67a13.309,13.309,0,0,1,2.068-7.151A18.842,18.842,0,0,1,78.451,10.2,17.7,17.7,0,0,1,87.13,7.91h.729a17.618,17.618,0,0,1,7.286,1.582C100.92,13.9,104.12,20.384,102.59,23.283Z" transform="translate(-61.096 -7.91)" fill="#73788c"/>
        <path id="Trazado_1083357" data-name="Trazado 1083357" d="M231.962,33.478V43.964l-15.072.043A18.923,18.923,0,0,0,221.858,19.3a18.7,18.7,0,0,1,8.036,7.026,13.1,13.1,0,0,1,1.54,3.413A13.458,13.458,0,0,1,231.962,33.478Z" transform="translate(-187.808 -17.718)" fill="#5e6577"/>
        <path id="Trazado_1083358" data-name="Trazado 1083358" d="M82.645,197.762a7.714,7.714,0,0,0,5.877-7.491,3.067,3.067,0,0,0-3.067-3.067H49.645a3.067,3.067,0,0,0-3.068,3.067,7.714,7.714,0,0,0,5.877,7.491Z" transform="translate(-41.15 -162.302)" fill="#ffb09e"/>
        <path id="Trazado_1083359" data-name="Trazado 1083359" d="M111.813,126.316a2.976,2.976,0,0,1,4.082,1.728l1.309,5.1a2.021,2.021,0,0,0,1.878,1.38v11.41a9.517,9.517,0,0,1-3.251,7.165l-5.912,5.173a6.346,6.346,0,0,1-4.178,1.569h-3.506a6.346,6.346,0,0,1-4.178-1.569L92.143,153.1a9.517,9.517,0,0,1-3.251-7.165v-11.41a2.021,2.021,0,0,0,1.878-1.38l1.3-5.079a2.976,2.976,0,0,1,4.1-1.72l.19.091,1.532.587a16.961,16.961,0,0,0,12.135,0l1.532-.587Z" transform="translate(-77.588 -109.626)" fill="#ffcebf"/>
        <g id="Grupo_1214110" data-name="Grupo 1214110" transform="translate(12.745 41.221)">
          <path id="Trazado_1083360" data-name="Trazado 1083360" d="M124.651,321.6l-.514.633-5.592,6.9-2-1.267a9.369,9.369,0,0,0-4.663-1.463,7.7,7.7,0,0,1-3.815-1.192l-4.949-3.143a1.749,1.749,0,0,1-.814-1.479c0-.019,0-.038,0-.058,0,0,.249-.506.374-.743a6.645,6.645,0,0,1,.88-.529c.248.134.917-.492,1.454-.15l-1.125-.714a1.81,1.81,0,0,1-.813-1.516c0-.018,0,.017,0,0,.054-.289.747-.4.871-.642.024-.047-.039-.062.207-.183,0,0,1.09-.958,1.628-.616l-.718-.457a1.75,1.75,0,0,1-.815-1.482c0-.02,0-.038,0-.058.009-.253.387-.406.509-.643a2.211,2.211,0,0,1,.589-.52s1.07-.6,1.609-.257l-6.878-4.368a1.748,1.748,0,0,1-.619-2.282c.692-.622,1.134-.778,1.425-.593l11.073,7.325c3.314,1.775,4.714.441,4.716.43.024-.114.4-.739.42-.848a2.089,2.089,0,0,0,.225-.587.218.218,0,0,0,.007-.032c.065-.313.133-.6.206-.868a8.793,8.793,0,0,1,1.515-3.119,3.866,3.866,0,0,1,.689-.761,2.627,2.627,0,0,1,.722-.4,5.243,5.243,0,0,1,1.606.109c.083.053-1.041,4.053-.98,4.723,0,0,.19,5.313.224,5.707a4.056,4.056,0,0,0,2.229,3.511Z" transform="translate(-99.265 -304.7)" fill="#ffb09e"/>
        </g>
        <path id="Trazado_1083361" data-name="Trazado 1083361" d="M255.268,432.244H236.6a.121.121,0,0,1-.069-.022L232.05,428.9a.115.115,0,0,1-.029-.154l5.147-8.156h1.888l16.051,10.565Z" transform="translate(-200.822 -363.273)" fill="#60b7ff"/>
        <path id="Trazado_1083362" data-name="Trazado 1083362" d="M290.051,423.563H287.29l-18.1-11.654.849-1.346a.117.117,0,0,1,.161-.036l19.915,12.824a.116.116,0,0,1-.064.212Z" transform="translate(-232.844 -354.592)" fill="#26a6fe"/>
        <path id="Trazado_1083363" data-name="Trazado 1083363" d="M224.9,406.293l-5.983,8.024a1.225,1.225,0,0,1-1.7.25l-2.075-1.538a1.213,1.213,0,0,1-.251-1.7l5.939-7.963c.774-.631,1.66-1.661,2.056-1.368l2.228,1.65C225.477,403.925,225.614,405.114,224.9,406.293Z" transform="translate(-185.877 -347.222)" fill="#eaf6ff"/>
        <path id="Trazado_1083364" data-name="Trazado 1083364" d="M264.346,400.666,263.2,402.2a1.33,1.33,0,0,0-.547-1.1l-2.228-1.65a1.326,1.326,0,0,0-1.3-.172l1.187-1.592a1.222,1.222,0,0,1,1.7-.25l2.076,1.536A1.215,1.215,0,0,1,264.346,400.666Z" transform="translate(-224.18 -343.127)" fill="#d8ecfe"/>
        <g id="Grupo_1214112" data-name="Grupo 1214112" transform="translate(37.342 0.221)">
          <g id="Grupo_1214111" data-name="Grupo 1214111">
            <path id="Trazado_1083365" data-name="Trazado 1083365" d="M301.741,12.724c-.125-.013-.252-.023-.38-.028a.43.43,0,0,1-.334-.181c-.124-.175-.256-.344-.4-.507a7.186,7.186,0,0,0-8.407-1.874.427.427,0,0,1-.38-.014,5.245,5.245,0,0,0-7.463,3.009.412.412,0,0,1-.391.288,6.406,6.406,0,0,0-5.712,9.339.421.421,0,0,1-.128.542,4.09,4.09,0,0,0-.42,6.433.418.418,0,0,1,.128.389,5.914,5.914,0,0,0,.117,2.622c2.773,3.6,8.347,4.527,11.5,4.527,9.029,0,14.732-4.666,14.732-13.695C304.21,21.41,304.21,15.581,301.741,12.724Z" transform="translate(-276.361 -9.5)" fill="#eaf6ff"/>
            <path id="Trazado_1083366" data-name="Trazado 1083366" d="M317.3,46.209a.408.408,0,0,0-.023.425,6.4,6.4,0,0,1-2.587,8.682c-.054.029-.148.076-.237.119a.41.41,0,0,0-.231.33,5.641,5.641,0,0,1-.2,1.068.005.005,0,0,0,0,0,5.614,5.614,0,0,1-7.867,3.446.411.411,0,0,0-.467.074A6.774,6.774,0,0,1,294.5,57.424a.412.412,0,0,0-.417-.295,6.011,6.011,0,0,1-6.1-4.4,16.353,16.353,0,0,0,23.767-20.018,5.766,5.766,0,0,1,4.883,7.542.41.41,0,0,0,.107.423,4.311,4.311,0,0,1,.563,5.533Z" transform="translate(-286.367 -29.487)" fill="#d8ecfe"/>
            <path id="Trazado_1083367" data-name="Trazado 1083367" d="M342.924,63.874c-1.442,11.515-7.478,11.357-12.751,11.357a9.745,9.745,0,1,1,12.751-11.357Z" transform="translate(-317.056 -49.8)" fill="#73788c"/>
            <path id="Trazado_1083368" data-name="Trazado 1083368" d="M383.793,112.993a9.783,9.783,0,0,1-12.993,9.194,16.366,16.366,0,0,0,12.751-11.357,9.737,9.737,0,0,1,.242,2.163Z" transform="translate(-357.683 -96.756)" fill="#5e6577"/>
          </g>
          <path id="Trazado_1083369" data-name="Trazado 1083369" d="M428.012,273.13c0,1.547-1.856,2.229-3.408,2.229-.733,0-1.306-.733-1.818-1.476a2.9,2.9,0,0,1-.067-.625,3,3,0,0,1,4.538-2.569A3.806,3.806,0,0,1,428.012,273.13Z" transform="translate(-402.392 -234.05)" fill="#eaf6ff"/>
          <path id="Trazado_1083370" data-name="Trazado 1083370" d="M429.139,275.868a3,3,0,0,1-5.939.625,2.813,2.813,0,0,0,4.711-2.062,2.774,2.774,0,0,0-.24-1.132A2.983,2.983,0,0,1,429.139,275.868Z" transform="translate(-402.806 -236.66)" fill="#d8ecfe"/>
          <path id="Trazado_1083371" data-name="Trazado 1083371" d="M401.935,335.731a1.992,1.992,0,0,1-2.134,1.779c-.565,0-1.019-.287-1.612-1.257a2.183,2.183,0,0,1,3.119-2.244A2.414,2.414,0,0,1,401.935,335.731Z" transform="translate(-381.252 -288.749)" fill="#eaf6ff"/>
          <path id="Trazado_1083372" data-name="Trazado 1083372" d="M402.654,337.325a2.182,2.182,0,0,1-4.344.289,1.938,1.938,0,0,0,3.365-1.3,1.91,1.91,0,0,0-.246-.942A2.173,2.173,0,0,1,402.654,337.325Z" transform="translate(-381.373 -290.109)" fill="#d8ecfe"/>
        </g>
      </g>
      <g id="Grupo_1214114" data-name="Grupo 1214114" transform="translate(0.001 0)">
        <path id="Trazado_1083373" data-name="Trazado 1083373" d="M63.283,19.65a1.042,1.042,0,0,0,1.042-1.042V18a12.231,12.231,0,0,1,1.9-6.591A17.287,17.287,0,0,1,78.678,3.407a1.042,1.042,0,0,0-.252-2.068,19.362,19.362,0,0,0-13.954,8.954A14.311,14.311,0,0,0,62.241,18v.6A1.042,1.042,0,0,0,63.283,19.65Z" transform="translate(-53.596 -1.146)"/>
        <path id="Trazado_1083374" data-name="Trazado 1083374" d="M8.055,405.756c-2.9.7-5.435,1.4-7.656,3.178a1.04,1.04,0,0,0,1.192,1.7l.447.223a6.772,6.772,0,0,1,3.763,6.09v2.5a1.042,1.042,0,1,0,2.083,0v-2.5a8.836,8.836,0,0,0-4.257-7.587,24.643,24.643,0,0,1,4.917-1.579,1.042,1.042,0,1,0-.489-2.025Z" transform="translate(-0.001 -349.375)"/>
        <path id="Trazado_1083375" data-name="Trazado 1083375" d="M419.26,262.251A4.048,4.048,0,1,0,423.3,266.3,4.051,4.051,0,0,0,419.26,262.251Zm0,6.013a1.965,1.965,0,1,1,1.961-1.965A1.965,1.965,0,0,1,419.26,268.264Z" transform="translate(-357.547 -225.827)"/>
        <path id="Trazado_1083376" data-name="Trazado 1083376" d="M393.9,326.095a3.226,3.226,0,1,0,3.224,3.226A3.229,3.229,0,0,0,393.9,326.095Zm0,4.369a1.143,1.143,0,1,1,1.14-1.143A1.143,1.143,0,0,1,393.9,330.464Z" transform="translate(-336.413 -280.804)"/>
        <path id="Trazado_1083377" data-name="Trazado 1083377" d="M104.761,15.4a5.382,5.382,0,0,0-1.364-3.584,6.829,6.829,0,0,0-6.022-8.585q-.135-.176-.278-.344A8.205,8.205,0,0,0,87.741.611a6.276,6.276,0,0,0-8.528,3.337,7.43,7.43,0,0,0-4.346,1.728,19.138,19.138,0,0,0-11.28-5.5,1.042,1.042,0,0,0-.239,2.069A17.061,17.061,0,0,1,73.472,7.228a7.513,7.513,0,0,0-.666,7.148,5.161,5.161,0,0,0-1.53,2.242,4.031,4.031,0,0,0-2.8.229c-.08.061-1.576.62-1.715.676a15.894,15.894,0,0,1-11.389,0c-.073-.03-1.637-.618-1.645-.645a4.014,4.014,0,0,0-5.558,2.4l-1.29,5.032a.989.989,0,0,1-.966.649H44.378V22.323a1.042,1.042,0,0,0-2.083,0v2.735a4.116,4.116,0,0,0-3.217,4.01,8.726,8.726,0,0,0,5.877,8.268A10.506,10.506,0,0,0,46.6,43.059a2.809,2.809,0,0,0,1.181,3.152l4.595,2.932a2.812,2.812,0,0,0-.712,3.088,2.812,2.812,0,0,0-1.305,1.824c-.643.188-3.354,1-3.951,1.132a1.042,1.042,0,0,0,.524,2.016c.62-.14,2.962-.841,3.614-1.032a2.8,2.8,0,0,0,.275,4.527l4.948,3.158a8.717,8.717,0,0,0,4.333,1.36,8.241,8.241,0,0,1,2.23.4,2.26,2.26,0,0,0,.809,2.468l2.082,1.549a2.232,2.232,0,0,0,1.338.445,2.291,2.291,0,0,0,.335-.025,2.241,2.241,0,0,0,1.118-.5l1.845,1.355a1.042,1.042,0,1,0,1.233-1.679L69.3,67.919l5.73-7.722L91.729,70.946a1.042,1.042,0,0,0,1.606-.876v-.835c0-.017,0-.033,0-.05-.2-4.183-2-7.357-5.677-9.99-2.283-1.637-4.98-2.285-7.588-2.913-.536-.129-1.09-.262-1.622-.4-.586-.152-1.682-.452-2.742-.742l-1.557-.425-.7-.52a2.238,2.238,0,0,0-1.673-.42,2.269,2.269,0,0,0-.637.192,4.607,4.607,0,0,1,.011-1.058,11.691,11.691,0,0,0-.006-2.737l-.205-2.3c0-.056-.008-.111-.009-.166l2.691-2.355a10.558,10.558,0,0,0,3.607-7.949v-.074a8.745,8.745,0,0,0,4.707-3.9,7.813,7.813,0,0,0,9.825-.33,6.645,6.645,0,0,0,9.128-5.209,7.489,7.489,0,0,0,3.144-9.784,5.334,5.334,0,0,0,.73-2.712ZM44.954,35.089a6.65,6.65,0,0,1-3.794-6.021,2.028,2.028,0,0,1,2.026-2.026h1.768Zm41.987,26.17a10.086,10.086,0,0,1,4.2,6.829l-7.078-4.557A6.775,6.775,0,0,1,86.5,61.482Zm-10.5-3.76c.6.163,1.13.306,1.485.4.55.143,1.113.278,1.659.41A26.639,26.639,0,0,1,84.9,59.985a8.826,8.826,0,0,0-2.6,2.416l-6.071-3.909A2.247,2.247,0,0,0,76.437,57.5ZM60.182,63.136a6.633,6.633,0,0,1-3.3-1.035l-4.948-3.157a.724.724,0,0,1-.219-1,.719.719,0,0,1,.993-.221l1.508.963a1.042,1.042,0,1,0,1.121-1.756l-2.633-1.68a.723.723,0,0,1-.22-1,.718.718,0,0,1,.992-.221l2.228,1.422A1.042,1.042,0,1,0,56.829,53.7l-2.947-1.881a.723.723,0,0,1-.22-1,.718.718,0,0,1,.988-.224L57.6,52.481a1.042,1.042,0,1,0,1.121-1.756L48.9,44.455a.723.723,0,0,1-.22-1,.718.718,0,0,1,.992-.221l12.15,7.753A3.151,3.151,0,0,0,66.6,48.972a8.184,8.184,0,0,1,1.548-3.612,2.673,2.673,0,0,1,.483-.551,1.367,1.367,0,0,1,1.256-.257l-.523.99a4.516,4.516,0,0,0-.505,2.52l.206,2.3,0,.018a9.675,9.675,0,0,1,.012,2.259,6.67,6.67,0,0,0,.359,3.165l-5.949,8.016a10.321,10.321,0,0,0-3.311-.688ZM71.967,55.9a.168.168,0,0,1,.113-.066.164.164,0,0,1,.126.03l2.082,1.549a.179.179,0,0,1,.036.244L66.7,67.93a.174.174,0,0,1-.238.036l-2.082-1.549a.179.179,0,0,1-.036-.244Zm3.177-18.5a8.475,8.475,0,0,1-2.9,6.381l-.209.183a1.735,1.735,0,0,0-.3-.624,1.83,1.83,0,0,0-.482-.431,3.35,3.35,0,0,0-3.9.254,4.74,4.74,0,0,0-.9.981,10.255,10.255,0,0,0-1.892,4.4,1.041,1.041,0,0,1-.631.768,1.063,1.063,0,0,1-.992-.086L50.79,41.481a2.782,2.782,0,0,0-2.112-.373,2.812,2.812,0,0,0-.668.242,8.429,8.429,0,0,1-.973-3.943V26.848a3.078,3.078,0,0,0,1.845-1.973l1.291-5.035a1.934,1.934,0,0,1,2.652-1.083c.135.089,1.612.635,1.8.711a17.974,17.974,0,0,0,12.88,0c.247-.1,1.658-.619,1.857-.736a1.913,1.913,0,0,1,1.647,0,5.107,5.107,0,0,0,1.447,3.176,7.067,7.067,0,0,0,2.689,6.5v9Zm2.083-2.322V29.513q.328.108.673.186a7.047,7.047,0,0,0,1.412.169A7.784,7.784,0,0,0,80.4,31.886,6.668,6.668,0,0,1,77.227,35.085Zm24.7-16.5a5.4,5.4,0,0,1-2.374,7.656,1.053,1.053,0,0,0-.684.933,4.561,4.561,0,0,1-6.791,3.773,1.041,1.041,0,0,0-1.269.192,5.717,5.717,0,0,1-9.716-2.588,1.043,1.043,0,0,0-1.124-.792,4.96,4.96,0,0,1-5.368-6.01,1.042,1.042,0,0,0-.366-1.038,3.081,3.081,0,0,1,.422-5.092,1.041,1.041,0,0,0,.387-1.441,5.4,5.4,0,0,1,4.88-8.152,1.042,1.042,0,0,0,1.06-.783,4.192,4.192,0,0,1,6.194-2.576,1.042,1.042,0,0,0,.99.039,6.05,6.05,0,0,1,2.689-.622,6.113,6.113,0,0,1,4.662,2.158,5.751,5.751,0,0,1,.438.581,1.042,1.042,0,0,0,.867.469,4.758,4.758,0,0,1,4.418,6.445,1.042,1.042,0,0,0,.294,1.16,3.3,3.3,0,0,1,1.148,2.5,3.266,3.266,0,0,1-.684,2.014,1.042,1.042,0,0,0-.07,1.17Z" transform="translate(-33.65 0)"/>
        <path id="Trazado_1083378" data-name="Trazado 1083378" d="M335.483,53.3a1.042,1.042,0,0,0-.587,1.351,8.75,8.75,0,1,1-2.576-3.541,1.042,1.042,0,0,0,1.326-1.607,10.8,10.8,0,1,0,3.188,4.384A1.042,1.042,0,0,0,335.483,53.3Z" transform="translate(-272.056 -40.499)"/>
        <path id="Trazado_1083379" data-name="Trazado 1083379" d="M372.359,88.087a3.652,3.652,0,0,0,1.6-.98,3.61,3.61,0,0,0,1-2.7,3.649,3.649,0,0,0-3.559-3.446h-.074a3.637,3.637,0,0,0-3.638,3.639,1.042,1.042,0,1,0,2.083,0,1.587,1.587,0,0,1,.015-.218,1.555,1.555,0,1,1,2.667,1.289,1.541,1.541,0,0,1-1.127.485,1.042,1.042,0,0,0-1.042,1.042v2.161a1.042,1.042,0,1,0,2.083,0Z" transform="translate(-316.613 -69.718)"/>
        <path id="Trazado_1083380" data-name="Trazado 1083380" d="M181.723,264.22a4.326,4.326,0,0,0,3.917,0,1.042,1.042,0,0,0-.946-1.856,2.238,2.238,0,0,1-2.025,0,1.042,1.042,0,0,0-.946,1.856Z" transform="translate(-155.994 -225.826)"/>
        <path id="Trazado_1083381" data-name="Trazado 1083381" d="M178.149,302.919h-5.671a1.042,1.042,0,1,0,0,2.083h5.671a1.042,1.042,0,1,0,0-2.083Z" transform="translate(-147.626 -260.847)"/>
        <path id="Trazado_1083382" data-name="Trazado 1083382" d="M134.765,167.92a1.042,1.042,0,0,0-.337-1.434,6.7,6.7,0,0,0-6.531,0,1.042,1.042,0,0,0,1.1,1.771,4.651,4.651,0,0,1,4.337,0,1.041,1.041,0,0,0,1.434-.337Z" transform="translate(-109.708 -142.631)"/>
        <path id="Trazado_1083383" data-name="Trazado 1083383" d="M223.1,179.378a4.652,4.652,0,0,1-4.337,0,1.042,1.042,0,0,0-1.1,1.771,6.694,6.694,0,0,0,6.531,0,1.042,1.042,0,0,0-1.1-1.771Z" transform="translate(-187.009 -154.33)"/>
        <path id="Trazado_1083384" data-name="Trazado 1083384" d="M237.778,211.157a1.042,1.042,0,0,0-1.042,1.042v2.411a1.042,1.042,0,0,0,2.083,0V212.2A1.042,1.042,0,0,0,237.778,211.157Z" transform="translate(-203.856 -181.83)"/>
        <path id="Trazado_1083385" data-name="Trazado 1083385" d="M148.008,211.157a1.042,1.042,0,0,0-1.042,1.042v2.411a1.042,1.042,0,0,0,2.083,0V212.2A1.042,1.042,0,0,0,148.008,211.157Z" transform="translate(-126.554 -181.83)"/>
        <circle id="Elipse_14323" data-name="Elipse 14323" cx="1.042" cy="1.042" r="1.042" transform="translate(53.663 21.671)"/>
      </g>
    </g>
  </g>
</svg>
