<svg xmlns="http://www.w3.org/2000/svg" xmlns:xlink="http://www.w3.org/1999/xlink" width="93.934" height="93.934" viewBox="0 0 93.934 93.934">
  <defs>
    <filter id="Trazado_978624" x="0" y="0" width="93.934" height="93.934" filterUnits="userSpaceOnUse">
      <feOffset dy="3" input="SourceAlpha"/>
      <feGaussianBlur stdDeviation="3" result="blur"/>
      <feFlood flood-opacity="0.161"/>
      <feComposite operator="in" in2="blur"/>
      <feComposite in="SourceGraphic"/>
    </filter>
  </defs>
  <g id="Grupo_1213615" data-name="Grupo 1213615" transform="translate(-188 -1051.533)">
    <g id="Grupo_1181206" data-name="Grupo 1181206" transform="translate(-421 -614)">
      <g id="Grupo_1211237" data-name="Grupo 1211237" transform="translate(0 -377.186)">
        <g id="Grupo_1208063" data-name="Grupo 1208063" transform="translate(412 612.719)">
          <g id="Grupo_1144123" data-name="Grupo 1144123" transform="translate(206 1436)">
            <g transform="matrix(1, 0, 0, 1, -9, -6)" filter="url(#Trazado_978624)">
              <g id="Trazado_978624-2" data-name="Trazado 978624" transform="translate(9 6)" fill="#eaf5fb">
                <path d="M 37.966796875 74.43359375 C 33.04315185546875 74.43359375 28.26757431030273 73.46962738037109 23.77274131774902 71.56847381591797 C 19.43047523498535 69.73184967041016 15.53040790557861 67.10224914550781 12.18087482452393 63.75271987915039 C 8.831341743469238 60.4031867980957 6.201741218566895 56.50312042236328 4.365118980407715 52.16086196899414 C 2.463963508605957 47.66601943969727 1.499996900558472 42.89044189453125 1.499996900558472 37.966796875 C 1.499996900558472 33.04315185546875 2.463963508605957 28.26757431030273 4.365118980407715 23.77274131774902 C 6.201741218566895 19.43047523498535 8.831341743469238 15.53040790557861 12.18087482452393 12.18087482452393 C 15.53040790557861 8.831341743469238 19.43047523498535 6.201741218566895 23.77274131774902 4.365118980407715 C 28.26757431030273 2.463963508605957 33.04315185546875 1.499996900558472 37.966796875 1.499996900558472 C 42.89044189453125 1.499996900558472 47.66601943969727 2.463963508605957 52.16086196899414 4.365118980407715 C 56.50312042236328 6.201741218566895 60.4031867980957 8.831341743469238 63.75271987915039 12.18087482452393 C 67.10224914550781 15.53040790557861 69.73184967041016 19.43047523498535 71.56847381591797 23.77274131774902 C 73.46962738037109 28.26757431030273 74.43359375 33.04315185546875 74.43359375 37.966796875 C 74.43359375 42.89044189453125 73.46962738037109 47.66601943969727 71.56847381591797 52.16086196899414 C 69.73184967041016 56.50313186645508 67.10224914550781 60.4031867980957 63.75271987915039 63.75271987915039 C 60.4031867980957 67.10224914550781 56.50313186645508 69.73184967041016 52.16086196899414 71.56847381591797 C 47.66601943969727 73.46962738037109 42.89044189453125 74.43359375 37.966796875 74.43359375 Z" stroke="none"/>
                <path d="M 37.966796875 3 C 33.2449836730957 3 28.66600799560547 3.924095153808594 24.35705947875977 5.746635437011719 C 20.19359588623047 7.507621765136719 16.45379638671875 10.02927398681641 13.24153518676758 13.24153518676758 C 10.02927398681641 16.45379638671875 7.507621765136719 20.19359588623047 5.746635437011719 24.35705947875977 C 3.924095153808594 28.66600799560547 3 33.2449836730957 3 37.966796875 C 3 42.6886100769043 3.924095153808594 47.26758575439453 5.746635437011719 51.57653427124023 C 7.507621765136719 55.73999786376953 10.02927398681641 59.47979736328125 13.24153518676758 62.69205856323242 C 16.45379638671875 65.90431976318359 20.19359588623047 68.42597198486328 24.35705947875977 70.18695831298828 C 28.66600799560547 72.00949859619141 33.2449836730957 72.93359375 37.966796875 72.93359375 C 42.6886100769043 72.93359375 47.26758575439453 72.00949859619141 51.57653427124023 70.18695831298828 C 55.73999786376953 68.42597198486328 59.47979736328125 65.90431976318359 62.69205856323242 62.69205856323242 C 65.90431976318359 59.47979736328125 68.42597198486328 55.73999786376953 70.18695831298828 51.57653427124023 C 72.00949859619141 47.26758575439453 72.93359375 42.6886100769043 72.93359375 37.966796875 C 72.93359375 33.2449836730957 72.00949859619141 28.66600799560547 70.18695831298828 24.35705947875977 C 68.42597198486328 20.19359588623047 65.90431976318359 16.45379638671875 62.69205856323242 13.24153518676758 C 59.47979736328125 10.02927398681641 55.73999786376953 7.507621765136719 51.57653427124023 5.746635437011719 C 47.26758575439453 3.924095153808594 42.6886100769043 3 37.966796875 3 M 37.966796875 0 C 58.93528366088867 0 75.93359375 16.99831008911133 75.93359375 37.966796875 C 75.93359375 58.93528366088867 58.93528366088867 75.93359375 37.966796875 75.93359375 C 16.99831008911133 75.93359375 0 58.93528366088867 0 37.966796875 C 0 16.99831008911133 16.99831008911133 0 37.966796875 0 Z" stroke="none" fill="#3ea6db"/>
              </g>
            </g>
          </g>
        </g>
      </g>
    </g>
    <g id="proceso-de-fabricacion" transform="translate(190 1060.751)">
      <g id="Grupo_1213614" data-name="Grupo 1213614" transform="translate(8.225 14.11)">
        <g id="Grupo_1213606" data-name="Grupo 1213606" transform="translate(0 52.499)">
          <path id="Trazado_1082469" data-name="Trazado 1082469" d="M22.55,396.371a7.55,7.55,0,0,0,0,15.1H80.935a7.55,7.55,0,0,0,0-15.1Z" transform="translate(-15 -396.371)" fill="#685e68" fill-rule="evenodd"/>
          <path id="Trazado_1082470" data-name="Trazado 1082470" d="M24.8,416.742a7.549,7.549,0,0,0,4.518,1.5H87.707a7.55,7.55,0,0,0,6.049-12.067,7.55,7.55,0,0,1-4.518,13.6H30.853a7.551,7.551,0,0,1-6.049-3.032Z" transform="translate(-23.303 -404.674)" fill="#544854" fill-rule="evenodd"/>
          <path id="Trazado_1082471" data-name="Trazado 1082471" d="M132.757,421.1a3.764,3.764,0,1,1-3.764,3.764A3.766,3.766,0,0,1,132.757,421.1Zm-14.919,0a3.764,3.764,0,1,1-3.764,3.764A3.766,3.766,0,0,1,117.838,421.1Zm-14.919,0a3.764,3.764,0,1,1-3.764,3.764A3.765,3.765,0,0,1,102.919,421.1ZM88,421.1a3.764,3.764,0,1,1-3.764,3.764A3.766,3.766,0,0,1,88,421.1Z" transform="translate(-73.637 -417.315)" fill="#eceff1" fill-rule="evenodd"/>
          <path id="Trazado_1082472" data-name="Trazado 1082472" d="M133.523,428.55a3.764,3.764,0,1,1,0-7.371,3.764,3.764,0,0,0,0,7.371Zm-14.919,0a3.764,3.764,0,1,1,0-7.371,3.764,3.764,0,0,0,0,7.371Zm-14.919,0a3.764,3.764,0,1,1,0-7.371,3.764,3.764,0,0,0,0,7.371Zm-14.919,0a3.764,3.764,0,1,1,0-7.371,3.764,3.764,0,0,0,0,7.371Z" transform="translate(-73.637 -417.315)" fill="#d1d1d6" fill-rule="evenodd"/>
        </g>
        <g id="Grupo_1213608" data-name="Grupo 1213608" transform="translate(9.476 32.875)">
          <path id="Trazado_1082473" data-name="Trazado 1082473" d="M76.9,269.474a1.291,1.291,0,0,1,1.291-1.291H91.268a1.291,1.291,0,0,1,1.291,1.291v13.258a1.044,1.044,0,0,1-1.044,1.039H77.942a1.043,1.043,0,0,1-1.044-1.039Z" transform="translate(-76.898 -268.183)" fill="#ecba78" fill-rule="evenodd"/>
          <g id="Grupo_1213607" data-name="Grupo 1213607" transform="translate(4.58 0)">
            <path id="Trazado_1082474" data-name="Trazado 1082474" d="M163.753,268.183h1.073a1.291,1.291,0,0,1,1.291,1.291v13.258a1.044,1.044,0,0,1-1.044,1.039H164a1.044,1.044,0,0,0,1.044-1.039V269.474A1.291,1.291,0,0,0,163.753,268.183Z" transform="translate(-155.036 -268.183)" fill="#e3a76f" fill-rule="evenodd"/>
            <path id="Trazado_1082475" data-name="Trazado 1082475" d="M106.816,268.183h6.5v5.385a.537.537,0,0,1-.824.454l-2.427-1.534-2.427,1.534a.537.537,0,0,1-.824-.454v-5.385Z" transform="translate(-106.816 -268.183)" fill="#e3a76f" fill-rule="evenodd"/>
          </g>
        </g>
        <g id="Grupo_1213610" data-name="Grupo 1213610" transform="translate(48.347 32.875)">
          <path id="Trazado_1082476" data-name="Trazado 1082476" d="M330.8,269.474a1.291,1.291,0,0,1,1.291-1.291h13.079a1.291,1.291,0,0,1,1.291,1.291v13.258a1.044,1.044,0,0,1-1.044,1.039H331.846a1.044,1.044,0,0,1-1.044-1.039Z" transform="translate(-330.802 -268.183)" fill="#ecba78" fill-rule="evenodd"/>
          <g id="Grupo_1213609" data-name="Grupo 1213609" transform="translate(4.58 0)">
            <path id="Trazado_1082477" data-name="Trazado 1082477" d="M417.657,268.183h1.074a1.291,1.291,0,0,1,1.291,1.291v13.258a1.044,1.044,0,0,1-1.044,1.039H417.9a1.044,1.044,0,0,0,1.044-1.039V269.474A1.291,1.291,0,0,0,417.657,268.183Z" transform="translate(-408.941 -268.183)" fill="#e3a76f" fill-rule="evenodd"/>
            <path id="Trazado_1082478" data-name="Trazado 1082478" d="M360.721,268.183h6.5v5.385a.537.537,0,0,1-.824.454l-2.427-1.534-2.427,1.534a.537.537,0,0,1-.824-.454v-5.385Z" transform="translate(-360.721 -268.183)" fill="#e3a76f" fill-rule="evenodd"/>
          </g>
        </g>
        <g id="Grupo_1213612" data-name="Grupo 1213612" transform="translate(28.911 32.875)">
          <path id="Trazado_1082479" data-name="Trazado 1082479" d="M203.85,269.474a1.291,1.291,0,0,1,1.291-1.291h13.08a1.291,1.291,0,0,1,1.291,1.291v13.258a1.044,1.044,0,0,1-1.044,1.039H204.894a1.043,1.043,0,0,1-1.044-1.039Z" transform="translate(-203.85 -268.183)" fill="#ecba78" fill-rule="evenodd"/>
          <g id="Grupo_1213611" data-name="Grupo 1213611" transform="translate(4.58 0)">
            <path id="Trazado_1082480" data-name="Trazado 1082480" d="M290.705,268.183h1.074a1.291,1.291,0,0,1,1.291,1.291v13.258a1.044,1.044,0,0,1-1.044,1.039h-1.074A1.044,1.044,0,0,0,292,282.732V269.474A1.291,1.291,0,0,0,290.705,268.183Z" transform="translate(-281.988 -268.183)" fill="#e3a76f" fill-rule="evenodd"/>
            <path id="Trazado_1082481" data-name="Trazado 1082481" d="M233.768,268.183h6.5v5.385a.537.537,0,0,1-.824.454l-2.427-1.534-2.427,1.534a.537.537,0,0,1-.824-.454Z" transform="translate(-233.768 -268.183)" fill="#e3a76f" fill-rule="evenodd"/>
          </g>
        </g>
        <g id="Grupo_1213613" data-name="Grupo 1213613" transform="translate(23.904)">
          <path id="Trazado_1082482" data-name="Trazado 1082482" d="M185.09,55.374A9.918,9.918,0,0,1,188,56.579l1.889-.838,2.226,2.226-.838,1.89a9.921,9.921,0,0,1,1.205,2.908l1.928.742v3.15l-1.928.742a9.929,9.929,0,0,1-1.205,2.907l.838,1.889-2.226,2.228L188,73.583a9.925,9.925,0,0,1-2.908,1.207l-.742,1.927H181.2l-.742-1.928a9.93,9.93,0,0,1-2.906-1.205l-1.89.84-2.228-2.228.84-1.888a9.952,9.952,0,0,1-1.207-2.908l-1.927-.742v-3.15l1.927-.742a9.92,9.92,0,0,1,1.207-2.908l-.84-1.89,2.228-2.226,1.888.838a9.95,9.95,0,0,1,2.908-1.205l.742-1.928h3.15Z" transform="translate(-171.139 -53.446)" fill="#ffe177" fill-rule="evenodd"/>
          <path id="Trazado_1082483" data-name="Trazado 1082483" d="M212.706,56.023l.635-.282,2.226,2.226-.838,1.89a9.922,9.922,0,0,1,1.205,2.908l1.928.742v3.15l-1.928.742a9.93,9.93,0,0,1-1.205,2.907l.838,1.889-2.226,2.228-.635-.282,1.946-1.946-.84-1.889a9.925,9.925,0,0,0,1.205-2.907l1.928-.742v-3.15l-1.928-.742a9.918,9.918,0,0,0-1.205-2.908l.84-1.89Zm-13.874,0,.282-.282,1.888.838c-.133.074-.265.151-.394.232Zm9.712-.649a9.918,9.918,0,0,1,2.908,1.205l-.521.232a12.977,12.977,0,0,0-3.3-1.438l-.742-1.928h.917ZM201,73.583l-1.89.84-.282-.282,1.776-.789Q200.8,73.471,201,73.583Zm10.448,0a9.925,9.925,0,0,1-2.908,1.207l-.742,1.927h-.917l.742-1.927a13.012,13.012,0,0,0,3.305-1.437Z" transform="translate(-194.592 -53.446)" fill="#ffd064" fill-rule="evenodd"/>
          <path id="Trazado_1082484" data-name="Trazado 1082484" d="M216.764,93.581a5.491,5.491,0,1,1-5.49,5.491A5.491,5.491,0,0,1,216.764,93.581Z" transform="translate(-205.13 -87.437)" fill="#eceff1" fill-rule="evenodd"/>
          <path id="Trazado_1082485" data-name="Trazado 1082485" d="M216.764,93.581c.125,0,.249,0,.372.013a5.49,5.49,0,0,0,0,10.956c-.124.008-.248.012-.372.012a5.491,5.491,0,0,1,0-10.981Z" transform="translate(-205.13 -87.437)" fill="#d1d1d6" fill-rule="evenodd"/>
        </g>
      </g>
      <path id="Trazado_1082486" data-name="Trazado 1082486" d="M18.991,45.759h13.08a2.516,2.516,0,0,1,2.516,2.516V61.533A2.271,2.271,0,0,1,32.318,63.8H18.744a2.27,2.27,0,0,1-2.269-2.264V48.275A2.516,2.516,0,0,1,18.991,45.759Zm2.065,2.449H18.991a.066.066,0,0,0-.066.066V61.348H32.138V48.275a.066.066,0,0,0-.066-.066H30.007v5.135a1.225,1.225,0,0,1-1.879,1.035l-2.6-1.641-2.6,1.641a1.225,1.225,0,0,1-1.879-1.035Zm6.5,0H23.506v2.912l1.371-.867a1.224,1.224,0,0,1,1.309,0l1.372.867Zm10.869-2.449h13.08a2.516,2.516,0,0,1,2.516,2.516V61.533A2.271,2.271,0,0,1,51.754,63.8H38.18a2.27,2.27,0,0,1-2.269-2.264V48.275A2.516,2.516,0,0,1,38.427,45.759Zm2.065,2.449H38.427a.066.066,0,0,0-.066.066V61.348H51.573V48.275a.066.066,0,0,0-.066-.066H49.442v5.135a1.225,1.225,0,0,1-1.879,1.035l-2.6-1.641-2.6,1.641a1.225,1.225,0,0,1-1.879-1.035Zm6.5,0H42.941v2.912l1.371-.867a1.225,1.225,0,0,1,1.309,0l1.371.867Zm10.87-2.449h13.08a2.516,2.516,0,0,1,2.516,2.516V61.533A2.271,2.271,0,0,1,71.189,63.8H57.615a2.27,2.27,0,0,1-2.269-2.264V48.275a2.516,2.516,0,0,1,2.516-2.516Zm2.065,2.449H57.862a.066.066,0,0,0-.066.066V61.348H71.008V48.275a.066.066,0,0,0-.066-.066H68.878v5.135A1.225,1.225,0,0,1,67,54.379l-2.6-1.641-2.6,1.641a1.225,1.225,0,0,1-1.879-1.035Zm6.5,0H62.376v2.912l1.371-.867a1.225,1.225,0,0,1,1.309,0l1.372.867Zm7.731,17.175a8.774,8.774,0,0,1,0,17.549H15.774a8.774,8.774,0,0,1,0-17.549Zm0,2.449H15.774a6.325,6.325,0,0,0,0,12.65H74.159a6.325,6.325,0,0,0,0-12.65ZM22.588,79.147a4.989,4.989,0,0,1,0-9.977H67.346a4.989,4.989,0,0,1,0,9.977Zm0-7.528a2.539,2.539,0,1,0,2.539,2.539A2.54,2.54,0,0,0,22.588,71.62Zm10.625,0H26.882a4.988,4.988,0,0,1,0,5.078h6.331a4.989,4.989,0,0,1,0-5.078Zm14.919,0H41.8a4.989,4.989,0,0,1,0,5.078h6.331a4.989,4.989,0,0,1,0-5.078Zm14.919,0H56.72a4.989,4.989,0,0,1,0,5.078h6.331a4.988,4.988,0,0,1,0-5.078ZM67.346,76.7a2.539,2.539,0,1,0-2.539-2.539A2.54,2.54,0,0,0,67.346,76.7Zm-29.838,0a2.539,2.539,0,1,0-2.539-2.539A2.54,2.54,0,0,0,37.507,76.7Zm14.919,0a2.539,2.539,0,1,0-2.539-2.539A2.54,2.54,0,0,0,52.426,76.7ZM36.639,8.973a1.225,1.225,0,0,1,1.378-1.9l2.806,1A1.225,1.225,0,0,1,41.4,9.952l-1.811,2.425a1.225,1.225,0,0,1-2.155-1.084A15.931,15.931,0,0,0,28.3,31.757a1.225,1.225,0,1,1-2.291.866A18.381,18.381,0,0,1,36.639,8.973ZM33.351,38.642A15.93,15.93,0,0,0,55.5,36.209a1.225,1.225,0,1,1,1.894,1.553,18.379,18.379,0,0,1-25.92,2.511,1.225,1.225,0,0,1-2.408-.14l-.355-3.005a1.225,1.225,0,0,1,1.439-1.348l2.928.541a1.225,1.225,0,0,1,.276,2.323Zm27.958-9.6a1.225,1.225,0,0,1,.964,2.145L60.007,33.12a1.225,1.225,0,0,1-1.92-.448l-1.2-2.781A1.225,1.225,0,0,1,58.9,28.563a15.906,15.906,0,0,0-13.15-18.131,1.225,1.225,0,0,1,.395-2.417A18.356,18.356,0,0,1,61.309,29.044ZM47,15.022a11.111,11.111,0,0,1,2.058.853l1.32-.587a1.225,1.225,0,0,1,1.364.253l2.225,2.225a1.224,1.224,0,0,1,.254,1.362l-.585,1.321a11.1,11.1,0,0,1,.854,2.062l1.346.518a1.225,1.225,0,0,1,.785,1.143V27.32a1.225,1.225,0,0,1-.785,1.143l-1.347.518a11.211,11.211,0,0,1-.853,2.058l.586,1.322a1.225,1.225,0,0,1-.254,1.362l-2.225,2.225a1.225,1.225,0,0,1-1.362.254l-1.32-.585a11.087,11.087,0,0,1-2.06.853l-.518,1.347a1.225,1.225,0,0,1-1.143.785H42.191a1.225,1.225,0,0,1-1.143-.785l-.518-1.347a11.19,11.19,0,0,1-2.061-.854l-1.322.586a1.225,1.225,0,0,1-1.362-.254L33.56,33.724a1.225,1.225,0,0,1-.253-1.364l.587-1.32a11.185,11.185,0,0,1-.854-2.058l-1.348-.519a1.225,1.225,0,0,1-.785-1.143V24.173a1.225,1.225,0,0,1,.785-1.143l1.348-.519a11.183,11.183,0,0,1,.855-2.061l-.587-1.32a1.225,1.225,0,0,1,.253-1.364l2.225-2.225a1.225,1.225,0,0,1,1.364-.253l1.32.587a11.107,11.107,0,0,1,2.059-.853l.521-1.351a1.225,1.225,0,0,1,1.143-.784h3.147a1.225,1.225,0,0,1,1.143.786Zm-2.063,1.459-.44-1.145H43.031l-.442,1.147a1.224,1.224,0,0,1-.859.751,8.674,8.674,0,0,0-2.547,1.056,1.225,1.225,0,0,1-1.14.076l-1.12-.5L35.886,18.9l.5,1.12a1.225,1.225,0,0,1-.076,1.14,8.751,8.751,0,0,0-1.059,2.553,1.225,1.225,0,0,1-.751.857l-1.142.44v1.466l1.142.44a1.225,1.225,0,0,1,.751.856,8.732,8.732,0,0,0,1.058,2.549,1.225,1.225,0,0,1,.077,1.142l-.5,1.12,1.036,1.036,1.121-.5a1.224,1.224,0,0,1,1.136.075,8.746,8.746,0,0,0,2.552,1.057,1.224,1.224,0,0,1,.861.752l.44,1.142H44.5l.44-1.142a1.225,1.225,0,0,1,.86-.752A8.637,8.637,0,0,0,48.343,33.2a1.225,1.225,0,0,1,1.14-.078l1.121.5,1.037-1.037-.5-1.121a1.225,1.225,0,0,1,.075-1.136,8.756,8.756,0,0,0,1.057-2.55,1.225,1.225,0,0,1,.752-.86l1.142-.44V25.014l-1.142-.44a1.225,1.225,0,0,1-.752-.861,8.657,8.657,0,0,0-1.055-2.55,1.225,1.225,0,0,1-.077-1.139l.5-1.121L50.6,17.868l-1.12.5a1.225,1.225,0,0,1-1.14-.076A8.675,8.675,0,0,0,45.8,17.234a1.225,1.225,0,0,1-.86-.752ZM43.763,19.03a6.716,6.716,0,1,1-6.714,6.715,6.715,6.715,0,0,1,6.714-6.715Zm0,2.449a4.267,4.267,0,1,0,4.268,4.265,4.264,4.264,0,0,0-4.268-4.265Z" transform="translate(0 0)" fill-rule="evenodd"/>
    </g>
  </g>
</svg>
