<svg xmlns="http://www.w3.org/2000/svg" xmlns:xlink="http://www.w3.org/1999/xlink" width="93.934" height="93.934" viewBox="0 0 93.934 93.934">
  <defs>
    <filter id="Trazado_978624" x="0" y="0" width="93.934" height="93.934" filterUnits="userSpaceOnUse">
      <feOffset dy="3" input="SourceAlpha"/>
      <feGaussianBlur stdDeviation="3" result="blur"/>
      <feFlood flood-opacity="0.161"/>
      <feComposite operator="in" in2="blur"/>
      <feComposite in="SourceGraphic"/>
    </filter>
  </defs>
  <g id="Grupo_1214180" data-name="Grupo 1214180" transform="translate(-821 -725.033)">
    <g id="Grupo_1212848" data-name="Grupo 1212848" transform="translate(212 -798.5)">
      <g id="Grupo_1210963" data-name="Grupo 1210963" transform="translate(0 -377.186)">
        <g id="Grupo_1208068" data-name="Grupo 1208068" transform="translate(412 470.719)">
          <g id="Grupo_1144123" data-name="Grupo 1144123" transform="translate(206 1436)">
            <g transform="matrix(1, 0, 0, 1, -9, -6)" filter="url(#Trazado_978624)">
              <g id="Trazado_978624-2" data-name="Trazado 978624" transform="translate(9 6)" fill="#eaf5fb">
                <path d="M 37.966796875 74.43359375 C 33.04315185546875 74.43359375 28.26757431030273 73.46962738037109 23.77274131774902 71.56847381591797 C 19.43047523498535 69.73184967041016 15.53040790557861 67.10224914550781 12.18087482452393 63.75271987915039 C 8.831341743469238 60.4031867980957 6.201741218566895 56.50312042236328 4.365118980407715 52.16086196899414 C 2.463963508605957 47.66601943969727 1.499996900558472 42.89044189453125 1.499996900558472 37.966796875 C 1.499996900558472 33.04315185546875 2.463963508605957 28.26757431030273 4.365118980407715 23.77274131774902 C 6.201741218566895 19.43047523498535 8.831341743469238 15.53040790557861 12.18087482452393 12.18087482452393 C 15.53040790557861 8.831341743469238 19.43047523498535 6.201741218566895 23.77274131774902 4.365118980407715 C 28.26757431030273 2.463963508605957 33.04315185546875 1.499996900558472 37.966796875 1.499996900558472 C 42.89044189453125 1.499996900558472 47.66601943969727 2.463963508605957 52.16086196899414 4.365118980407715 C 56.50312042236328 6.201741218566895 60.4031867980957 8.831341743469238 63.75271987915039 12.18087482452393 C 67.10224914550781 15.53040790557861 69.73184967041016 19.43047523498535 71.56847381591797 23.77274131774902 C 73.46962738037109 28.26757431030273 74.43359375 33.04315185546875 74.43359375 37.966796875 C 74.43359375 42.89044189453125 73.46962738037109 47.66601943969727 71.56847381591797 52.16086196899414 C 69.73184967041016 56.50313186645508 67.10224914550781 60.4031867980957 63.75271987915039 63.75271987915039 C 60.4031867980957 67.10224914550781 56.50313186645508 69.73184967041016 52.16086196899414 71.56847381591797 C 47.66601943969727 73.46962738037109 42.89044189453125 74.43359375 37.966796875 74.43359375 Z" stroke="none"/>
                <path d="M 37.966796875 3 C 33.2449836730957 3 28.66600799560547 3.924095153808594 24.35705947875977 5.746635437011719 C 20.19359588623047 7.507621765136719 16.45379638671875 10.02927398681641 13.24153518676758 13.24153518676758 C 10.02927398681641 16.45379638671875 7.507621765136719 20.19359588623047 5.746635437011719 24.35705947875977 C 3.924095153808594 28.66600799560547 3 33.2449836730957 3 37.966796875 C 3 42.6886100769043 3.924095153808594 47.26758575439453 5.746635437011719 51.57653427124023 C 7.507621765136719 55.73999786376953 10.02927398681641 59.47979736328125 13.24153518676758 62.69205856323242 C 16.45379638671875 65.90431976318359 20.19359588623047 68.42597198486328 24.35705947875977 70.18695831298828 C 28.66600799560547 72.00949859619141 33.2449836730957 72.93359375 37.966796875 72.93359375 C 42.6886100769043 72.93359375 47.26758575439453 72.00949859619141 51.57653427124023 70.18695831298828 C 55.73999786376953 68.42597198486328 59.47979736328125 65.90431976318359 62.69205856323242 62.69205856323242 C 65.90431976318359 59.47979736328125 68.42597198486328 55.73999786376953 70.18695831298828 51.57653427124023 C 72.00949859619141 47.26758575439453 72.93359375 42.6886100769043 72.93359375 37.966796875 C 72.93359375 33.2449836730957 72.00949859619141 28.66600799560547 70.18695831298828 24.35705947875977 C 68.42597198486328 20.19359588623047 65.90431976318359 16.45379638671875 62.69205856323242 13.24153518676758 C 59.47979736328125 10.02927398681641 55.73999786376953 7.507621765136719 51.57653427124023 5.746635437011719 C 47.26758575439453 3.924095153808594 42.6886100769043 3 37.966796875 3 M 37.966796875 0 C 58.93528366088867 0 75.93359375 16.99831008911133 75.93359375 37.966796875 C 75.93359375 58.93528366088867 58.93528366088867 75.93359375 37.966796875 75.93359375 C 16.99831008911133 75.93359375 0 58.93528366088867 0 37.966796875 C 0 16.99831008911133 16.99831008911133 0 37.966796875 0 Z" stroke="none" fill="#3ea6db"/>
              </g>
            </g>
          </g>
        </g>
      </g>
    </g>
    <g id="infraestructura" transform="translate(835.557 735.674)">
      <g id="Grupo_1214178" data-name="Grupo 1214178" transform="translate(8.781 13.859)">
        <g id="Grupo_1214165" data-name="Grupo 1214165" transform="translate(4.412 3.564)">
          <g id="Grupo_1214142" data-name="Grupo 1214142" transform="translate(14.836)">
            <g id="Grupo_1214140" data-name="Grupo 1214140">
              <path id="Trazado_1083481" data-name="Trazado 1083481" d="M211.512,62.108h7.709V57.767a.493.493,0,0,0-.492-.492H212a.493.493,0,0,0-.492.492Z" transform="translate(-211.512 -57.275)" fill="#9facba" fill-rule="evenodd"/>
            </g>
            <g id="Grupo_1214141" data-name="Grupo 1214141" transform="translate(6.233)">
              <path id="Trazado_1083482" data-name="Trazado 1083482" d="M275.312,62.108h.985V57.767a.493.493,0,0,0-.492-.492h-.985a.493.493,0,0,1,.492.492Z" transform="translate(-274.82 -57.275)" fill="#8d9ca8" fill-rule="evenodd"/>
            </g>
          </g>
          <g id="Grupo_1214143" data-name="Grupo 1214143" transform="translate(12.135 2.947)">
            <path id="Trazado_1083483" data-name="Trazado 1083483" d="M184.767,87.214H196.5a.691.691,0,0,1,.689.689V107.43H184.078V87.9a.69.69,0,0,1,.689-.689Z" transform="translate(-184.078 -87.214)" fill="#8192a5" fill-rule="evenodd"/>
          </g>
          <g id="Grupo_1214146" data-name="Grupo 1214146" transform="translate(5.117 6.687)">
            <g id="Grupo_1214144" data-name="Grupo 1214144" transform="translate(0 0)">
              <path id="Trazado_1083484" data-name="Trazado 1083484" d="M113.486,125.239,119.815,128v13.672h1.78v5.838h-8.8V125.69a.492.492,0,0,1,.689-.451Z" transform="translate(-112.797 -125.196)" fill="#8192a5" fill-rule="evenodd"/>
            </g>
            <g id="Grupo_1214145" data-name="Grupo 1214145" transform="translate(0.088)">
              <path id="Trazado_1083485" data-name="Trazado 1083485" d="M114.294,125.239,120.622,128v13.672h-.984V128l-5.945-2.594a.5.5,0,0,1,.134-.128A.479.479,0,0,1,114.294,125.239Z" transform="translate(-113.693 -125.196)" fill="#65788e" fill-rule="evenodd"/>
            </g>
          </g>
          <g id="Grupo_1214149" data-name="Grupo 1214149" transform="translate(15.241 6.053)">
            <g id="Grupo_1214147" data-name="Grupo 1214147" transform="translate(0 0)">
              <path id="Trazado_1083486" data-name="Trazado 1083486" d="M216.115,118.758h5.916a.493.493,0,0,1,.492.492v5.916a.493.493,0,0,1-.492.492h-5.916a.493.493,0,0,1-.492-.492V119.25A.493.493,0,0,1,216.115,118.758Z" transform="translate(-215.623 -118.758)" fill="#d8ecfe" fill-rule="evenodd"/>
            </g>
            <g id="Grupo_1214148" data-name="Grupo 1214148" transform="translate(5.423 0)">
              <path id="Trazado_1083487" data-name="Trazado 1083487" d="M270.709,118.758h.984a.493.493,0,0,1,.492.492v5.916a.493.493,0,0,1-.492.492h-.984a.493.493,0,0,0,.492-.492V119.25A.493.493,0,0,0,270.709,118.758Z" transform="translate(-270.709 -118.758)" fill="#c4e2ff" fill-rule="evenodd"/>
            </g>
          </g>
          <g id="Grupo_1214152" data-name="Grupo 1214152" transform="translate(29.524 0)">
            <g id="Grupo_1214150" data-name="Grupo 1214150" transform="translate(0)">
              <path id="Trazado_1083488" data-name="Trazado 1083488" d="M360.7,57.276h3.58V70.505H360.7Z" transform="translate(-360.704 -57.276)" fill="#9facba" fill-rule="evenodd"/>
            </g>
            <g id="Grupo_1214151" data-name="Grupo 1214151" transform="translate(2.595)">
              <path id="Trazado_1083489" data-name="Trazado 1083489" d="M387.063,57.276h.984V70.505h-.984Z" transform="translate(-387.063 -57.276)" fill="#8d9ca8" fill-rule="evenodd"/>
            </g>
          </g>
          <g id="Grupo_1214155" data-name="Grupo 1214155" transform="translate(29.524 4.129)">
            <g id="Grupo_1214153" data-name="Grupo 1214153" transform="translate(0)">
              <path id="Trazado_1083490" data-name="Trazado 1083490" d="M360.7,99.219h3.58V101.7H360.7Z" transform="translate(-360.704 -99.219)" fill="#eceff1" fill-rule="evenodd"/>
            </g>
            <g id="Grupo_1214154" data-name="Grupo 1214154" transform="translate(2.595)">
              <path id="Trazado_1083491" data-name="Trazado 1083491" d="M387.063,99.219h.984V101.7h-.984Z" transform="translate(-387.063 -99.219)" fill="#d1d1d6" fill-rule="evenodd"/>
            </g>
          </g>
          <g id="Grupo_1214158" data-name="Grupo 1214158" transform="translate(25.246 10.741)">
            <g id="Grupo_1214156" data-name="Grupo 1214156">
              <path id="Trazado_1083492" data-name="Trazado 1083492" d="M328.7,166.376H317.254V178.8h12.135V167.065A.69.69,0,0,0,328.7,166.376Z" transform="translate(-317.254 -166.376)" fill="#8192a5" fill-rule="evenodd"/>
            </g>
            <g id="Grupo_1214157" data-name="Grupo 1214157">
              <path id="Trazado_1083493" data-name="Trazado 1083493" d="M317.254,166.376h.985V178.8h-.985Z" transform="translate(-317.254 -166.376)" fill="#65788e" fill-rule="evenodd"/>
            </g>
          </g>
          <g id="Grupo_1214161" data-name="Grupo 1214161" transform="translate(0 10.741)">
            <g id="Grupo_1214159" data-name="Grupo 1214159">
              <path id="Trazado_1083494" data-name="Trazado 1083494" d="M61.506,166.376h4.428V178.8H60.817V167.065A.69.69,0,0,1,61.506,166.376Z" transform="translate(-60.817 -166.376)" fill="#8192a5" fill-rule="evenodd"/>
            </g>
            <g id="Grupo_1214160" data-name="Grupo 1214160" transform="translate(4.133)">
              <path id="Trazado_1083495" data-name="Trazado 1083495" d="M102.8,166.376h.984V178.8H102.8Z" transform="translate(-102.797 -166.376)" fill="#65788e" fill-rule="evenodd"/>
            </g>
          </g>
          <g id="Grupo_1214164" data-name="Grupo 1214164" transform="translate(27.659 15.09)">
            <g id="Grupo_1214162" data-name="Grupo 1214162" transform="translate(0)">
              <path id="Trazado_1083496" data-name="Trazado 1083496" d="M348.583,210.552h-6.324a.493.493,0,0,0-.492.492v2.74a.493.493,0,0,0,.492.492h6.324a.493.493,0,0,0,.492-.492v-2.74A.493.493,0,0,0,348.583,210.552Z" transform="translate(-341.767 -210.552)" fill="#d8ecfe" fill-rule="evenodd"/>
            </g>
            <g id="Grupo_1214163" data-name="Grupo 1214163" transform="translate(5.832)">
              <path id="Trazado_1083497" data-name="Trazado 1083497" d="M401.986,210.552H401a.493.493,0,0,1,.492.492v2.74a.493.493,0,0,1-.492.492h.984a.493.493,0,0,0,.492-.492v-2.74A.493.493,0,0,0,401.986,210.552Z" transform="translate(-401.002 -210.552)" fill="#c4e2ff" fill-rule="evenodd"/>
            </g>
          </g>
        </g>
        <g id="Grupo_1214171" data-name="Grupo 1214171" transform="translate(1.96 25.115)">
          <g id="Grupo_1214166" data-name="Grupo 1214166" transform="translate(0 0)">
            <path id="Trazado_1083498" data-name="Trazado 1083498" d="M78.192,276.171v2.861l-3.5,1.349a18.049,18.049,0,0,1-2.19,5.284l1.525,3.433-4.047,4.047-3.432-1.524a18.039,18.039,0,0,1-5.285,2.191l-1.348,3.5H54.188l-1.349-3.5a18.045,18.045,0,0,1-5.284-2.19l-3.434,1.525L40.075,289.1l1.524-3.432a18.047,18.047,0,0,1-2.191-5.285l-3.5-1.348v-2.861Z" transform="translate(-35.906 -276.171)" fill="#ffe177" fill-rule="evenodd"/>
          </g>
          <g id="Grupo_1214167" data-name="Grupo 1214167" transform="translate(7.61 0)">
            <path id="Trazado_1083499" data-name="Trazado 1083499" d="M147.883,276.171v2.861l-3.5,1.349a18.049,18.049,0,0,1-2.19,5.284l1.525,3.433-4.047,4.047-1.364-.606,3.441-3.441-1.525-3.433a18.044,18.044,0,0,0,2.19-5.284l3.5-1.349v-2.861ZM136.235,291.62a18.938,18.938,0,0,1-5.285,2.191l-1.348,3.5h-1.969l1.348-3.5a24.713,24.713,0,0,0,6.14-2.686Zm-18.989,0-3.434,1.525-.606-.606,3.184-1.414Q116.812,291.384,117.246,291.62Z" transform="translate(-113.207 -276.171)" fill="#ffd064" fill-rule="evenodd"/>
          </g>
          <g id="Grupo_1214170" data-name="Grupo 1214170" transform="translate(12.498)">
            <g id="Grupo_1214168" data-name="Grupo 1214168" transform="translate(0 0)">
              <path id="Trazado_1083500" data-name="Trazado 1083500" d="M162.851,276.171h17.291a8.645,8.645,0,0,1-17.291,0Z" transform="translate(-162.851 -276.171)" fill="#eceff1" fill-rule="evenodd"/>
            </g>
            <g id="Grupo_1214169" data-name="Grupo 1214169" transform="translate(0)">
              <path id="Trazado_1083501" data-name="Trazado 1083501" d="M162.851,276.171h.984a8.646,8.646,0,0,0,8.153,8.631c-.163.009-.327.014-.492.014A8.646,8.646,0,0,1,162.851,276.171Z" transform="translate(-162.851 -276.171)" fill="#d1d1d6" fill-rule="evenodd"/>
            </g>
          </g>
        </g>
        <g id="Grupo_1214174" data-name="Grupo 1214174" transform="translate(41.669 0)">
          <g id="Grupo_1214172" data-name="Grupo 1214172">
            <path id="Trazado_1083502" data-name="Trazado 1083502" d="M444.522,24.85a.32.32,0,0,0,.252-.518l-2.472-3.14a.32.32,0,0,0-.5,0l-2.472,3.14a.32.32,0,0,0,.252.518H440.6v5.472a.493.493,0,0,0,.492.492H443a.493.493,0,0,0,.492-.492V24.85Z" transform="translate(-439.257 -21.07)" fill="#6cf5c2" fill-rule="evenodd"/>
          </g>
          <g id="Grupo_1214173" data-name="Grupo 1214173" transform="translate(0.321)">
            <path id="Trazado_1083503" data-name="Trazado 1083503" d="M447.46,24.85a.32.32,0,0,0,.252-.518l-2.472-3.14a.32.32,0,0,0-.5,0l-.241.306,2.231,2.834a.32.32,0,0,1-.252.518h.985Zm-4.944,0h0Zm2.441,5.964a.493.493,0,0,0,.492-.492V24.85h.984v5.472a.493.493,0,0,1-.492.492h-.984Z" transform="translate(-442.516 -21.07)" fill="#00e499" fill-rule="evenodd"/>
          </g>
        </g>
        <g id="Grupo_1214177" data-name="Grupo 1214177" transform="translate(0 0)">
          <g id="Grupo_1214175" data-name="Grupo 1214175">
            <path id="Trazado_1083504" data-name="Trazado 1083504" d="M21.265,24.85a.32.32,0,0,0,.252-.518l-2.472-3.14a.32.32,0,0,0-.5,0l-2.472,3.14a.32.32,0,0,0,.252.518h1.027v5.472a.493.493,0,0,0,.492.492h1.907a.493.493,0,0,0,.492-.492V24.85Z" transform="translate(-15.999 -21.07)" fill="#6cf5c2" fill-rule="evenodd"/>
          </g>
          <g id="Grupo_1214176" data-name="Grupo 1214176" transform="translate(0.321)">
            <path id="Trazado_1083505" data-name="Trazado 1083505" d="M24.2,24.85a.32.32,0,0,0,.252-.518l-2.472-3.14a.32.32,0,0,0-.5,0l-.241.306,2.231,2.834a.32.32,0,0,1-.252.518H24.2Zm-4.944,0h0ZM21.7,30.815a.493.493,0,0,0,.492-.492V24.85h.984v5.472a.493.493,0,0,1-.492.492H21.7Z" transform="translate(-19.26 -21.07)" fill="#00e499" fill-rule="evenodd"/>
          </g>
        </g>
      </g>
      <g id="Grupo_1214179" data-name="Grupo 1214179" transform="translate(7.993 13.072)">
        <path id="Trazado_1083506" data-name="Trazado 1083506" d="M10.065,16.852l1.511-1.917,1.506,1.917h-.06a.787.787,0,0,0-.788.788v5.177H10.918V17.64a.789.789,0,0,0-.788-.788h-.065Zm2.956,7.539a.79.79,0,0,0,.788-.788V18.427h.236a1.108,1.108,0,0,0,.871-1.793l-2.47-3.141a1.11,1.11,0,0,0-1.742,0L8.23,16.635A1.108,1.108,0,0,0,9.1,18.427h.241V23.6a.787.787,0,0,0,.788.788ZM54.69,16.852a.787.787,0,0,0-.788.788v5.177H52.586V17.64a.789.789,0,0,0-.788-.788h-.065l1.511-1.917,1.511,1.917H54.69Zm1.9-.218-2.47-3.141a1.11,1.11,0,0,0-1.742,0L49.9,16.635a1.1,1.1,0,0,0,.871,1.793h.236V23.6a.787.787,0,0,0,.788.788H54.69a.787.787,0,0,0,.788-.788V18.427h.241a1.1,1.1,0,0,0,.867-1.793Zm-4.347,24.66-3,1.155a.79.79,0,0,0-.482.552,17.3,17.3,0,0,1-2.095,5.054.776.776,0,0,0-.051.732l1.307,2.94-3.281,3.281L41.7,53.7a.786.786,0,0,0-.732.049,17.321,17.321,0,0,1-5.056,2.095.8.8,0,0,0-.556.483l-1.154,3H29.565l-1.154-3a.8.8,0,0,0-.551-.483,17.16,17.16,0,0,1-5.056-2.1.789.789,0,0,0-.732-.049l-2.943,1.305-3.281-3.281,1.307-2.939a.776.776,0,0,0-.051-.733A17.281,17.281,0,0,1,15.01,43a.79.79,0,0,0-.482-.552l-3-1.154V39.761H22.484a9.433,9.433,0,0,0,18.8,0H52.239v1.533ZM13.981,28.953h3.545v9.234H13.981Zm10.561-1.522V38.186H19.1V25.056Zm13.109-6.271V38.186H26.117V21.159Zm-8.832-2.948h6.131v1.372H28.819ZM39.7,39.761H24.064a7.859,7.859,0,0,0,15.639,0ZM49.787,28.953v9.234H39.226V28.953ZM43.5,24.824H45.51v2.554H43.5Zm2.006-6.612v2.554H43.5V18.212ZM43.5,22.341H45.51v.908H43.5Zm9.523,15.845H51.363V28.165a.787.787,0,0,0-.788-.788H47.086V18.212H47.3a.788.788,0,1,0,0-1.575H41.715a.788.788,0,1,0,0,1.575h.218v9.166H39.226V20.372a.787.787,0,0,0-.788-.788H36.525v-2.16a.787.787,0,0,0-.788-.788H28.031a.787.787,0,0,0-.788.788v2.16H25.329a.787.787,0,0,0-.788.788v5.341l-5.913-2.581a.8.8,0,0,0-.751.063.782.782,0,0,0-.352.659v3.524H13.193a.787.787,0,0,0-.788.788V38.186H10.742a.788.788,0,0,0-.788.788v2.862a.784.784,0,0,0,.505.734l3.119,1.2a18.831,18.831,0,0,0,1.969,4.751L14.19,51.581a.8.8,0,0,0,.162.877L18.4,56.5a.786.786,0,0,0,.876.163l3.058-1.359a18.9,18.9,0,0,0,4.75,1.969l1.2,3.122a.783.783,0,0,0,.732.5h5.723a.794.794,0,0,0,.737-.5l1.2-3.121a18.762,18.762,0,0,0,4.75-1.97l3.058,1.359a.786.786,0,0,0,.876-.163l4.05-4.046a.8.8,0,0,0,.162-.877l-1.358-3.059a18.846,18.846,0,0,0,1.969-4.75l3.119-1.2a.784.784,0,0,0,.505-.734V38.974a.788.788,0,0,0-.788-.788Zm-16.9-4.763a.788.788,0,0,0-.788-.788h-6.9a.788.788,0,1,0,0,1.575h6.9A.787.787,0,0,0,36.122,33.423Zm-6.9-9.159V29.59h5.324V24.264Zm-.788,6.9h6.9a.787.787,0,0,0,.788-.788v-6.9a.787.787,0,0,0-.788-.788h-6.9a.787.787,0,0,0-.788.788v6.9a.787.787,0,0,0,.788.788ZM41.641,33.3v2.149h5.732V33.3Zm-.788,3.724h7.308a.787.787,0,0,0,.788-.788V32.515a.787.787,0,0,0-.788-.788H40.853a.787.787,0,0,0-.788.788v3.724A.787.787,0,0,0,40.853,37.027Z" transform="translate(-7.993 -13.072)" fill="#242222" fill-rule="evenodd"/>
      </g>
    </g>
  </g>
</svg>
