<svg xmlns="http://www.w3.org/2000/svg" xmlns:xlink="http://www.w3.org/1999/xlink" width="93.934" height="93.934" viewBox="0 0 93.934 93.934">
  <defs>
    <filter id="Trazado_978624" x="0" y="0" width="93.934" height="93.934" filterUnits="userSpaceOnUse">
      <feOffset dy="3" input="SourceAlpha"/>
      <feGaussianBlur stdDeviation="3" result="blur"/>
      <feFlood flood-opacity="0.161"/>
      <feComposite operator="in" in2="blur"/>
      <feComposite in="SourceGraphic"/>
    </filter>
  </defs>
  <g id="Grupo_1214183" data-name="Grupo 1214183" transform="translate(-189 -3076.033)">
    <g id="Grupo_1212850" data-name="Grupo 1212850" transform="translate(-420 1552.5)">
      <g id="Grupo_1210963" data-name="Grupo 1210963" transform="translate(0 -377.186)">
        <g id="Grupo_1208068" data-name="Grupo 1208068" transform="translate(412 470.719)">
          <g id="Grupo_1144123" data-name="Grupo 1144123" transform="translate(206 1436)">
            <g transform="matrix(1, 0, 0, 1, -9, -6)" filter="url(#Trazado_978624)">
              <g id="Trazado_978624-2" data-name="Trazado 978624" transform="translate(9 6)" fill="#eaf5fb">
                <path d="M 37.966796875 74.43359375 C 33.04315185546875 74.43359375 28.26757431030273 73.46962738037109 23.77274131774902 71.56847381591797 C 19.43047523498535 69.73184967041016 15.53040790557861 67.10224914550781 12.18087482452393 63.75271987915039 C 8.831341743469238 60.4031867980957 6.201741218566895 56.50312042236328 4.365118980407715 52.16086196899414 C 2.463963508605957 47.66601943969727 1.499996900558472 42.89044189453125 1.499996900558472 37.966796875 C 1.499996900558472 33.04315185546875 2.463963508605957 28.26757431030273 4.365118980407715 23.77274131774902 C 6.201741218566895 19.43047523498535 8.831341743469238 15.53040790557861 12.18087482452393 12.18087482452393 C 15.53040790557861 8.831341743469238 19.43047523498535 6.201741218566895 23.77274131774902 4.365118980407715 C 28.26757431030273 2.463963508605957 33.04315185546875 1.499996900558472 37.966796875 1.499996900558472 C 42.89044189453125 1.499996900558472 47.66601943969727 2.463963508605957 52.16086196899414 4.365118980407715 C 56.50312042236328 6.201741218566895 60.4031867980957 8.831341743469238 63.75271987915039 12.18087482452393 C 67.10224914550781 15.53040790557861 69.73184967041016 19.43047523498535 71.56847381591797 23.77274131774902 C 73.46962738037109 28.26757431030273 74.43359375 33.04315185546875 74.43359375 37.966796875 C 74.43359375 42.89044189453125 73.46962738037109 47.66601943969727 71.56847381591797 52.16086196899414 C 69.73184967041016 56.50313186645508 67.10224914550781 60.4031867980957 63.75271987915039 63.75271987915039 C 60.4031867980957 67.10224914550781 56.50313186645508 69.73184967041016 52.16086196899414 71.56847381591797 C 47.66601943969727 73.46962738037109 42.89044189453125 74.43359375 37.966796875 74.43359375 Z" stroke="none"/>
                <path d="M 37.966796875 3 C 33.2449836730957 3 28.66600799560547 3.924095153808594 24.35705947875977 5.746635437011719 C 20.19359588623047 7.507621765136719 16.45379638671875 10.02927398681641 13.24153518676758 13.24153518676758 C 10.02927398681641 16.45379638671875 7.507621765136719 20.19359588623047 5.746635437011719 24.35705947875977 C 3.924095153808594 28.66600799560547 3 33.2449836730957 3 37.966796875 C 3 42.6886100769043 3.924095153808594 47.26758575439453 5.746635437011719 51.57653427124023 C 7.507621765136719 55.73999786376953 10.02927398681641 59.47979736328125 13.24153518676758 62.69205856323242 C 16.45379638671875 65.90431976318359 20.19359588623047 68.42597198486328 24.35705947875977 70.18695831298828 C 28.66600799560547 72.00949859619141 33.2449836730957 72.93359375 37.966796875 72.93359375 C 42.6886100769043 72.93359375 47.26758575439453 72.00949859619141 51.57653427124023 70.18695831298828 C 55.73999786376953 68.42597198486328 59.47979736328125 65.90431976318359 62.69205856323242 62.69205856323242 C 65.90431976318359 59.47979736328125 68.42597198486328 55.73999786376953 70.18695831298828 51.57653427124023 C 72.00949859619141 47.26758575439453 72.93359375 42.6886100769043 72.93359375 37.966796875 C 72.93359375 33.2449836730957 72.00949859619141 28.66600799560547 70.18695831298828 24.35705947875977 C 68.42597198486328 20.19359588623047 65.90431976318359 16.45379638671875 62.69205856323242 13.24153518676758 C 59.47979736328125 10.02927398681641 55.73999786376953 7.507621765136719 51.57653427124023 5.746635437011719 C 47.26758575439453 3.924095153808594 42.6886100769043 3 37.966796875 3 M 37.966796875 0 C 58.93528366088867 0 75.93359375 16.99831008911133 75.93359375 37.966796875 C 75.93359375 58.93528366088867 58.93528366088867 75.93359375 37.966796875 75.93359375 C 16.99831008911133 75.93359375 0 58.93528366088867 0 37.966796875 C 0 16.99831008911133 16.99831008911133 0 37.966796875 0 Z" stroke="none" fill="#3ea6db"/>
              </g>
            </g>
          </g>
        </g>
      </g>
    </g>
    <g id="algoritmo" transform="translate(207.884 3091.917)">
      <path id="Trazado_1083518" data-name="Trazado 1083518" d="M53.427,16.739V41.083H3V16.739A1.715,1.715,0,0,1,4.678,15h13.1c-.078.191-.156.383-.226.583a.863.863,0,0,1-.669.583l-2.721.452a.869.869,0,0,0-.73.861v3.739a.869.869,0,0,0,.73.861l2.721.452a.863.863,0,0,1,.669.583c.139.383.287.748.461,1.113a.858.858,0,0,1-.07.887l-1.6,2.243a.869.869,0,0,0,.1,1.122l2.643,2.643a.869.869,0,0,0,1.122.1l2.243-1.6a.858.858,0,0,1,.887-.07c.365.174.73.322,1.113.461a.863.863,0,0,1,.583.669l.452,2.721a.869.869,0,0,0,.861.73h3.739a.869.869,0,0,0,.861-.73l.452-2.721a.863.863,0,0,1,.583-.669c.383-.139.748-.287,1.113-.461a.858.858,0,0,1,.887.07l2.243,1.6a.869.869,0,0,0,1.122-.1l2.643-2.643a.869.869,0,0,0,.1-1.122l-1.6-2.243a.858.858,0,0,1-.07-.887c.174-.365.322-.73.461-1.113a.863.863,0,0,1,.669-.583l2.721-.452a.869.869,0,0,0,.73-.861V17.478a.869.869,0,0,0-.73-.861l-2.721-.452a.863.863,0,0,1-.669-.583c-.07-.2-.148-.391-.226-.583h13.1a1.715,1.715,0,0,1,1.678,1.739Z" transform="translate(-0.131 -1.697)" fill="#57a4ff"/>
      <ellipse id="Elipse_14329" data-name="Elipse 14329" cx="1.44" cy="1.8" rx="1.44" ry="1.8" transform="translate(46.646 27.204)" fill="#ffeb99"/>
      <path id="Trazado_1083519" data-name="Trazado 1083519" d="M44.561,15.911V19.65a.869.869,0,0,1-.73.861l-2.721.452a.863.863,0,0,0-.669.583c-.139.383-.287.748-.461,1.113a.858.858,0,0,0,.07.887l1.6,2.243a.869.869,0,0,1-.1,1.122l-2.643,2.643a.869.869,0,0,1-1.122.1l-2.243-1.6a.858.858,0,0,0-.887-.07c-.365.174-.73.322-1.113.461a.863.863,0,0,0-.583.669L32.51,31.83a.869.869,0,0,1-.861.73H27.911a.869.869,0,0,1-.861-.73L26.6,29.109a.863.863,0,0,0-.583-.669c-.383-.139-.748-.287-1.113-.461a.858.858,0,0,0-.887.07l-2.243,1.6a.869.869,0,0,1-1.122-.1l-2.643-2.643a.869.869,0,0,1-.1-1.122l1.6-2.243a.858.858,0,0,0,.07-.887c-.174-.365-.322-.73-.461-1.113a.863.863,0,0,0-.669-.583L15.73,20.51A.869.869,0,0,1,15,19.65V15.911a.869.869,0,0,1,.73-.861l2.721-.452a.863.863,0,0,0,.669-.583c.07-.2.148-.391.226-.583.07-.174.148-.356.235-.53a.858.858,0,0,0-.07-.887l-1.6-2.243a.869.869,0,0,1,.1-1.122l2.643-2.643a.869.869,0,0,1,1.122-.1l2.243,1.6a.858.858,0,0,0,.887.07c.365-.174.73-.322,1.113-.461a.863.863,0,0,0,.583-.669L27.05,3.73A.869.869,0,0,1,27.911,3H31.65a.869.869,0,0,1,.861.73l.452,2.721a.863.863,0,0,0,.583.669c.383.139.748.287,1.113.461a.858.858,0,0,0,.887-.07l2.243-1.6a.869.869,0,0,1,1.122.1l2.643,2.643a.869.869,0,0,1,.1,1.122l-1.6,2.243a.858.858,0,0,0-.07.887c.087.174.165.356.235.53.078.191.157.383.226.583a.863.863,0,0,0,.669.583l2.721.452A.869.869,0,0,1,44.561,15.911Z" transform="translate(-1.697 -0.131)" fill="#ff7956"/>
      <circle id="Elipse_14330" data-name="Elipse 14330" cx="1.8" cy="1.8" r="1.8" transform="translate(39.445 32.245)" fill="#ffeb99"/>
      <path id="Trazado_1083520" data-name="Trazado 1083520" d="M38.258,57l2.608,3.478H20L22.608,57h15.65Z" transform="translate(-2.35 -7.181)" fill="#e0e0e2"/>
      <g id="Grupo_1214182" data-name="Grupo 1214182" transform="translate(2.869 10.641)">
        <path id="Trazado_1083521" data-name="Trazado 1083521" d="M36.3,51l.869,5.217H25L25.869,51H36.3Z" transform="translate(-5.872 -17.039)" fill="#ffeb99"/>
        <circle id="Elipse_14331" data-name="Elipse 14331" cx="6.841" cy="6.841" r="6.841" transform="translate(18.574 0)" fill="#ffeb99"/>
        <path id="Trazado_1083522" data-name="Trazado 1083522" d="M27.344,45H3v3.478a1.715,1.715,0,0,0,1.678,1.739H51.749a1.715,1.715,0,0,0,1.678-1.739V45Z" transform="translate(-3 -16.256)" fill="#ffeb99"/>
        <circle id="Elipse_14332" data-name="Elipse 14332" cx="1.8" cy="1.8" r="1.8" transform="translate(10.652 21.603)" fill="#ffeb99"/>
        <circle id="Elipse_14333" data-name="Elipse 14333" cx="1.8" cy="1.8" r="1.8" transform="translate(3.451 16.562)" fill="#ffeb99"/>
      </g>
      <path id="Trazado_1083523" data-name="Trazado 1083523" d="M51.618,12.433H39.071c-.006-.014-.01-.028-.017-.042l1.6-2.244a1.734,1.734,0,0,0-.185-2.241L37.825,5.26a1.734,1.734,0,0,0-2.24-.185L33.332,6.668a10.852,10.852,0,0,0-1.209-.495L31.67,3.449A1.739,1.739,0,0,0,29.955,2H26.211A1.739,1.739,0,0,0,24.5,3.453l-.466,2.72a10.908,10.908,0,0,0-1.205.505l-2.244-1.6a1.733,1.733,0,0,0-2.235.186L15.693,7.907a1.734,1.734,0,0,0-.185,2.241L17.1,12.4c-.005.01-.009.023-.014.034H4.547A2.581,2.581,0,0,0,2,15.041V42.863a2.581,2.581,0,0,0,2.547,2.608H21.84l-.58,3.478h-1a.869.869,0,0,0-.7.348l-2.608,3.478a.869.869,0,0,0,.7,1.391H38.516a.869.869,0,0,0,.7-1.391L36.6,49.3a.869.869,0,0,0-.7-.348h-1l-.58-3.478H51.618a2.581,2.581,0,0,0,2.547-2.608V15.041a2.581,2.581,0,0,0-2.547-2.608Zm-34.7-3.3L19.57,6.49l2.245,1.6a1.747,1.747,0,0,0,1.767.143,10.4,10.4,0,0,1,1.023-.423A1.746,1.746,0,0,0,25.757,6.46l.454-2.721h3.744l.454,2.721a1.746,1.746,0,0,0,1.152,1.354,10.3,10.3,0,0,1,1.024.423,1.748,1.748,0,0,0,1.768-.144L36.6,6.49l2.647,2.647-1.6,2.245A1.747,1.747,0,0,0,37.5,13.15a10.234,10.234,0,0,1,.422,1.022,1.745,1.745,0,0,0,1.354,1.151l2.721.454v3.744l-2.721.454a1.746,1.746,0,0,0-1.354,1.153,10.1,10.1,0,0,1-.423,1.025,1.744,1.744,0,0,0,.144,1.768l1.6,2.246L36.6,28.812l-2.245-1.6a1.748,1.748,0,0,0-1.767-.143,10.4,10.4,0,0,1-1.023.421,1.746,1.746,0,0,0-1.15,1.354l-.456,2.721H26.211l-.454-2.721a1.746,1.746,0,0,0-1.152-1.354,10.3,10.3,0,0,1-1.024-.423,1.783,1.783,0,0,0-.767-.174,1.728,1.728,0,0,0-1,.319l-2.244,1.6-2.647-2.647,1.6-2.245a1.747,1.747,0,0,0,.143-1.768,10.233,10.233,0,0,1-.422-1.023,1.745,1.745,0,0,0-1.354-1.151l-2.721-.455V15.778l2.721-.454a1.746,1.746,0,0,0,1.354-1.152,10.1,10.1,0,0,1,.423-1.025,1.747,1.747,0,0,0-.144-1.768ZM4.547,14.172h8.969a1.728,1.728,0,0,0-1.083,1.606v.133H8.086a.869.869,0,0,0-.869.869V26.5a2.608,2.608,0,1,0,1.739,0V17.65h3.478v1.872a1.732,1.732,0,0,0,1.454,1.715l2.72.468a10.8,10.8,0,0,0,.505,1.2l-1.6,2.245a1.734,1.734,0,0,0,.185,2.241l.709.709-1.975,1.975a.869.869,0,0,0-.255.615V31.72a2.608,2.608,0,1,0,1.739,0v-.669l1.721-1.721.709.709a1.732,1.732,0,0,0,2.24.185l2.253-1.593a10.852,10.852,0,0,0,1.209.493l.453,2.724A1.739,1.739,0,0,0,26.211,33.3h3.744a1.739,1.739,0,0,0,1.715-1.453l.466-2.72a10.908,10.908,0,0,0,1.205-.505l2.244,1.6a1.734,1.734,0,0,0,2.24-.186l.709-.709,1.721,1.721v.669a2.608,2.608,0,1,0,1.739,0V30.691a.869.869,0,0,0-.255-.615L39.764,28.1l.709-.709a1.734,1.734,0,0,0,.185-2.241L39.065,22.9a10.859,10.859,0,0,0,.493-1.21l2.721-.454a1.732,1.732,0,0,0,1.454-1.715V17.65H47.21V26.5a2.608,2.608,0,1,0,1.739,0V16.78a.869.869,0,0,0-.869-.869H43.732v-.133a1.728,1.728,0,0,0-1.083-1.606h8.969a.852.852,0,0,1,.809.869V38.516H3.739V15.041a.852.852,0,0,1,.809-.869Zm4.408,14.78a.869.869,0,1,1-.869-.869A.869.869,0,0,1,8.955,28.952Zm6.955,5.217a.869.869,0,1,1-.869-.869A.869.869,0,0,1,15.911,34.169Zm26.083,0a.869.869,0,1,1-.869-.869A.869.869,0,0,1,41.994,34.169Zm6.955-5.217a.869.869,0,1,1-.869-.869A.869.869,0,0,1,48.949,28.952ZM36.777,52.427H19.389l1.3-1.739h14.78Zm-3.634-3.478H23.023l.58-3.478h8.96Zm18.475-5.217H4.547a.852.852,0,0,1-.809-.869V40.255H52.427v2.608A.852.852,0,0,1,51.618,43.733Z" transform="translate(0 0)"/>
      <path id="Trazado_1083524" data-name="Trazado 1083524" d="M30.825,26.65A7.825,7.825,0,1,0,23,18.825a7.825,7.825,0,0,0,7.825,7.825Zm0-13.911a6.086,6.086,0,1,1-6.086,6.086,6.086,6.086,0,0,1,6.086-6.086Z" transform="translate(-2.742 -1.175)"/>
      <path id="Trazado_1083525" data-name="Trazado 1083525" d="M31,47h1.739v1.739H31Z" transform="translate(-3.787 -5.876)"/>
      <path id="Trazado_1083526" data-name="Trazado 1083526" d="M31,6h1.739V7.739H31Z" transform="translate(-3.787 -0.522)"/>
      <path id="Trazado_1083527" data-name="Trazado 1083527" d="M0,0H1.739V1.739H0Z" transform="translate(18.859 9.659) rotate(-45)"/>
      <path id="Trazado_1083528" data-name="Trazado 1083528" d="M18,19h1.739v1.739H18Z" transform="translate(-2.089 -2.22)"/>
      <path id="Trazado_1083529" data-name="Trazado 1083529" d="M0,0H1.739V1.739H0Z" transform="translate(18.856 25.641) rotate(-45)"/>
      <path id="Trazado_1083530" data-name="Trazado 1083530" d="M31,32h1.739v1.739H31Z" transform="translate(-3.787 -3.917)"/>
      <path id="Trazado_1083531" data-name="Trazado 1083531" d="M0,0H1.739V1.739H0Z" transform="translate(34.839 25.643) rotate(-45)"/>
      <path id="Trazado_1083532" data-name="Trazado 1083532" d="M44,19h1.739v1.739H44Z" transform="translate(-5.484 -2.22)"/>
      <path id="Trazado_1083533" data-name="Trazado 1083533" d="M0,0H1.739V1.739H0Z" transform="translate(34.841 9.661) rotate(-45)"/>
    </g>
  </g>
</svg>
