<svg xmlns="http://www.w3.org/2000/svg" xmlns:xlink="http://www.w3.org/1999/xlink" width="113" height="113" viewBox="0 0 113 113">
  <defs>
    <filter id="Trazado_982547" x="0" y="0" width="113" height="113" filterUnits="userSpaceOnUse">
      <feOffset dy="3" input="SourceAlpha"/>
      <feGaussianBlur stdDeviation="3" result="blur"/>
      <feFlood flood-opacity="0.161"/>
      <feComposite operator="in" in2="blur"/>
      <feComposite in="SourceGraphic"/>
    </filter>
  </defs>
  <g id="Grupo_1214345" data-name="Grupo 1214345" transform="translate(-429 -4166.946)">
    <g id="Grupo_1210956" data-name="Grupo 1210956" transform="translate(438 4172.946)">
      <g id="Grupo_1209935" data-name="Grupo 1209935">
        <g id="Grupo_1208705" data-name="Grupo 1208705">
          <g id="Grupo_1148633" data-name="Grupo 1148633">
            <g id="Grupo_1148525" data-name="Grupo 1148525">
              <g transform="matrix(1, 0, 0, 1, -9, -6)" filter="url(#Trazado_982547)">
                <g id="Trazado_982547-2" data-name="Trazado 982547" transform="translate(9 6)" fill="#ffefc0">
                  <path d="M 47.5 93.5 C 41.28937149047852 93.5 35.26533508300781 92.28397369384766 29.59518623352051 89.88570404052734 C 24.11771965026855 87.56893157958984 19.19813346862793 84.25196075439453 14.97309303283691 80.02691650390625 C 10.74804019927979 75.80186462402344 7.431066513061523 70.88229370117188 5.114293098449707 65.40481567382812 C 2.716026782989502 59.73468017578125 1.5 53.71062850952148 1.5 47.5 C 1.5 41.28937149047852 2.716026782989502 35.26533508300781 5.114293098449707 29.59518623352051 C 7.431066513061523 24.11771965026855 10.74804019927979 19.19813346862793 14.97309303283691 14.97309303283691 C 19.19813346862793 10.74804019927979 24.11771965026855 7.431066513061523 29.59518623352051 5.114293098449707 C 35.26533508300781 2.716026782989502 41.28937149047852 1.5 47.5 1.5 C 53.71062850952148 1.5 59.73468017578125 2.716026782989502 65.40481567382812 5.114293098449707 C 70.88229370117188 7.431066513061523 75.80186462402344 10.74804019927979 80.02691650390625 14.97309303283691 C 84.25196075439453 19.19813346862793 87.56893157958984 24.11771965026855 89.88570404052734 29.59518623352051 C 92.28397369384766 35.26533508300781 93.5 41.28937149047852 93.5 47.5 C 93.5 53.71062850952148 92.28397369384766 59.73468017578125 89.88570404052734 65.40481567382812 C 87.56893157958984 70.88229370117188 84.25196075439453 75.80186462402344 80.02691650390625 80.02691650390625 C 75.80186462402344 84.25196075439453 70.88229370117188 87.56893157958984 65.40481567382812 89.88570404052734 C 59.73468017578125 92.28397369384766 53.71062850952148 93.5 47.5 93.5 Z" stroke="none"/>
                  <path d="M 47.5 3 C 41.49121475219727 3 35.66376876831055 4.176155090332031 30.17950439453125 6.495796203613281 C 24.88084411621094 8.736953735351562 20.12152099609375 11.94598388671875 16.03375244140625 16.03375244140625 C 11.94598388671875 20.12152099609375 8.736953735351562 24.88084411621094 6.495796203613281 30.17950439453125 C 4.176155090332031 35.66376876831055 3 41.49121475219727 3 47.5 C 3 53.50878524780273 4.176155090332031 59.33623123168945 6.495796203613281 64.82049560546875 C 8.736953735351562 70.11915588378906 11.94598388671875 74.87847900390625 16.03375244140625 78.96624755859375 C 20.12152099609375 83.05401611328125 24.88084411621094 86.26304626464844 30.17950439453125 88.50419616699219 C 35.66376876831055 90.82384490966797 41.49121475219727 92 47.5 92 C 53.50878524780273 92 59.33623123168945 90.82384490966797 64.82049560546875 88.50419616699219 C 70.11915588378906 86.26304626464844 74.87847900390625 83.05401611328125 78.96624755859375 78.96624755859375 C 83.05401611328125 74.87847900390625 86.26304626464844 70.11915588378906 88.50419616699219 64.82049560546875 C 90.82384490966797 59.33623123168945 92 53.50878524780273 92 47.5 C 92 41.49121475219727 90.82384490966797 35.66376876831055 88.50419616699219 30.17950439453125 C 86.26304626464844 24.88084411621094 83.05401611328125 20.12152099609375 78.96624755859375 16.03375244140625 C 74.87847900390625 11.94598388671875 70.11915588378906 8.736953735351562 64.82049560546875 6.495796203613281 C 59.33623123168945 4.176155090332031 53.50878524780273 3 47.5 3 M 47.5 0 C 73.7335205078125 0 95 21.2664794921875 95 47.5 C 95 73.7335205078125 73.7335205078125 95 47.5 95 C 21.2664794921875 95 0 73.7335205078125 0 47.5 C 0 21.2664794921875 21.2664794921875 0 47.5 0 Z" stroke="none" fill="#fc3"/>
                </g>
              </g>
            </g>
          </g>
        </g>
      </g>
    </g>
    <g id="proceso-robotico" transform="translate(438.615 4185.959)">
      <g id="Grupo_1214343" data-name="Grupo 1214343" transform="translate(5.277 4.277)">
        <path id="Trazado_1083806" data-name="Trazado 1083806" d="M0,0H13.693V8.216H0Z" transform="translate(60.251 23.279) rotate(-90)" fill="#455a64"/>
        <path id="Trazado_1083807" data-name="Trazado 1083807" d="M0,0H8.216V8.216H0Z" transform="translate(60.251 34.234) rotate(-90)" fill="#cfd8dc"/>
        <path id="Trazado_1083808" data-name="Trazado 1083808" d="M1.369,0H4.108A1.37,1.37,0,0,1,5.477,1.369V32.864H0V1.369A1.37,1.37,0,0,1,1.369,0Z" transform="translate(71.206 4.108) rotate(90)" fill="#546e7a"/>
        <rect id="Rectángulo_420194" data-name="Rectángulo 420194" width="5.477" height="13.693" rx="1" transform="translate(71.206 23.279) rotate(90)" fill="#eee"/>
        <path id="Trazado_1083809" data-name="Trazado 1083809" d="M0,0H36.845V8.215H0Z" transform="translate(5.465 28.438) rotate(-42)" fill="#546e7a"/>
        <path id="Trazado_1083810" data-name="Trazado 1083810" d="M33.561,59.208,8.324,32.17l7.328-8.144L45.189,46.285Z" transform="translate(-3.772 3.397)" fill="#546e7a"/>
        <path id="Trazado_1083811" data-name="Trazado 1083811" d="M34.324,36A12.33,12.33,0,0,1,46.648,48.324V62.018H22V48.324A12.33,12.33,0,0,1,34.324,36Z" transform="translate(1.279 7.819)" fill="#eee"/>
        <path id="Trazado_1083812" data-name="Trazado 1083812" d="M19.739,54H52.6a2.74,2.74,0,0,1,2.739,2.739v5.477H17V56.739A2.74,2.74,0,0,1,19.739,54Z" transform="translate(-0.568 14.467)" fill="#455a64"/>
        <circle id="Elipse_14381" data-name="Elipse 14381" cx="4.108" cy="4.108" r="4.108" transform="translate(31.495 52.035)" fill="#cfd8dc"/>
        <circle id="Elipse_14382" data-name="Elipse 14382" cx="8.216" cy="8.216" r="8.216" transform="translate(0 23.279)" fill="#eee"/>
        <circle id="Elipse_14383" data-name="Elipse 14383" cx="6.847" cy="6.847" r="6.847" transform="translate(28.756)" fill="#eee"/>
        <circle id="Elipse_14384" data-name="Elipse 14384" cx="2.739" cy="2.739" r="2.739" transform="translate(5.477 28.756)" fill="#cfd8dc"/>
      </g>
      <g id="Grupo_1214344" data-name="Grupo 1214344" transform="translate(4.25 3.25)">
        <path id="Trazado_1083813" data-name="Trazado 1083813" d="M76.483,37.484H74.771V34.06h.342a2.4,2.4,0,0,0,2.4-2.4V28.925a2.4,2.4,0,0,0-2.4-2.4h-.342V14.889h.342a2.4,2.4,0,0,0,2.4-2.4V9.754a2.4,2.4,0,0,0-2.4-2.4H62.692a1.027,1.027,0,0,0,0,2.054H75.113a.347.347,0,0,1,.342.342v2.739a.347.347,0,0,1-.342.342H48.561a7.689,7.689,0,0,0,0-3.423h9.027a1.027,1.027,0,1,0,0-2.054H47.793a7.872,7.872,0,0,0-14.786,3.766c0,.059.008.116.009.175L15.751,26.82A9.234,9.234,0,1,0,13.238,45l14.3,15.321c0,.033,0,.064,0,.1v11.3H24.448a3.77,3.77,0,0,0-3.766,3.766V80.96a1.027,1.027,0,0,0,1.027,1.027H60.051a1.027,1.027,0,0,0,1.027-1.027V75.483a3.77,3.77,0,0,0-3.766-3.766H54.231V62.4a1.027,1.027,0,0,0-2.054,0v9.319H29.583V60.42a11.3,11.3,0,0,1,21.056-5.694,1.027,1.027,0,1,0,1.773-1.038,13.281,13.281,0,0,0-13.028-6.53L22.644,34.54c0-.025-.008-.05-.012-.076L39.9,18.93a7.792,7.792,0,0,0,7.894-4.04H64.5V26.529h-.342a2.4,2.4,0,0,0-2.4,2.4v2.739a2.4,2.4,0,0,0,2.4,2.4H64.5v3.423H62.789a3.77,3.77,0,0,0-3.766,3.766V48.1a1.027,1.027,0,1,0,2.054,0V41.249a1.713,1.713,0,0,1,1.712-1.712H76.483a1.713,1.713,0,0,1,1.712,1.712V48.1a1.027,1.027,0,0,0,2.054,0V41.249a3.77,3.77,0,0,0-3.766-3.766Zm-17.459,38v4.45H22.736v-4.45a1.713,1.713,0,0,1,1.712-1.712H57.312A1.713,1.713,0,0,1,59.024,75.483ZM6.3,35.772a7.189,7.189,0,1,1,7.189,7.189A7.2,7.2,0,0,1,6.3,35.772ZM27.828,57.626,15.782,44.716A9.254,9.254,0,0,0,22.629,37.1L36.739,47.735a13.392,13.392,0,0,0-8.911,9.892Zm-5.8-25.385A9.3,9.3,0,0,0,17.9,27.649L33.44,13.678a7.9,7.9,0,0,0,4.132,4.581Zm18.848-15.3a5.82,5.82,0,1,1,5.82-5.82A5.826,5.826,0,0,1,40.88,16.944ZM66.555,14.89h6.162V26.529H66.555ZM63.816,31.664V28.925a.343.343,0,0,1,.342-.342H75.113a.343.343,0,0,1,.342.342v2.739a.343.343,0,0,1-.342.342H64.159A.343.343,0,0,1,63.816,31.664Zm2.739,5.82V34.06h6.162v3.423Z" transform="translate(-4.25 -3.25)" fill="#030611"/>
        <path id="Trazado_1083814" data-name="Trazado 1083814" d="M39.728,42.007a1.027,1.027,0,0,0-.734,1.253,11.154,11.154,0,0,1,.27,1.4,1.028,1.028,0,0,0,1.018.9,1.1,1.1,0,0,0,.132-.008A1.027,1.027,0,0,0,41.3,44.4a13.479,13.479,0,0,0-.321-1.656,1.03,1.03,0,0,0-1.253-.734Z" transform="translate(8.57 11.052)" fill="#030611"/>
        <path id="Trazado_1083815" data-name="Trazado 1083815" d="M27.25,46.385a5.135,5.135,0,1,0,5.135-5.135A5.141,5.141,0,0,0,27.25,46.385Zm8.216,0A3.081,3.081,0,1,1,32.385,43.3,3.085,3.085,0,0,1,35.466,46.385Z" transform="translate(4.245 10.785)" fill="#030611"/>
        <circle id="Elipse_14385" data-name="Elipse 14385" cx="2.054" cy="2.054" r="2.054" transform="translate(34.576 5.82)" fill="#030611"/>
        <path id="Trazado_1083816" data-name="Trazado 1083816" d="M15.781,28.016a3.766,3.766,0,1,0-3.766,3.766A3.77,3.77,0,0,0,15.781,28.016Zm-5.477,0a1.712,1.712,0,1,1,1.712,1.712A1.713,1.713,0,0,1,10.3,28.016Z" transform="translate(-2.772 4.506)" fill="#030611"/>
      </g>
    </g>
  </g>
</svg>
