<svg xmlns="http://www.w3.org/2000/svg" xmlns:xlink="http://www.w3.org/1999/xlink" width="113" height="113" viewBox="0 0 113 113">
  <defs>
    <filter id="Trazado_982547" x="0" y="0" width="113" height="113" filterUnits="userSpaceOnUse">
      <feOffset dy="3" input="SourceAlpha"/>
      <feGaussianBlur stdDeviation="3" result="blur"/>
      <feFlood flood-opacity="0.161"/>
      <feComposite operator="in" in2="blur"/>
      <feComposite in="SourceGraphic"/>
    </filter>
  </defs>
  <g id="Grupo_1214349" data-name="Grupo 1214349" transform="translate(-1059 -4166.946)">
    <g id="Grupo_1212851" data-name="Grupo 1212851" transform="translate(1068 4172.946)">
      <g id="Grupo_1209935" data-name="Grupo 1209935">
        <g id="Grupo_1208705" data-name="Grupo 1208705">
          <g id="Grupo_1148633" data-name="Grupo 1148633">
            <g id="Grupo_1148525" data-name="Grupo 1148525">
              <g transform="matrix(1, 0, 0, 1, -9, -6)" filter="url(#Trazado_982547)">
                <g id="Trazado_982547-2" data-name="Trazado 982547" transform="translate(9 6)" fill="#ffefc0">
                  <path d="M 47.5 93.5 C 41.28937149047852 93.5 35.26533508300781 92.28397369384766 29.59518623352051 89.88570404052734 C 24.11771965026855 87.56893157958984 19.19813346862793 84.25196075439453 14.97309303283691 80.02691650390625 C 10.74804019927979 75.80186462402344 7.431066513061523 70.88229370117188 5.114293098449707 65.40481567382812 C 2.716026782989502 59.73468017578125 1.5 53.71062850952148 1.5 47.5 C 1.5 41.28937149047852 2.716026782989502 35.26533508300781 5.114293098449707 29.59518623352051 C 7.431066513061523 24.11771965026855 10.74804019927979 19.19813346862793 14.97309303283691 14.97309303283691 C 19.19813346862793 10.74804019927979 24.11771965026855 7.431066513061523 29.59518623352051 5.114293098449707 C 35.26533508300781 2.716026782989502 41.28937149047852 1.5 47.5 1.5 C 53.71062850952148 1.5 59.73468017578125 2.716026782989502 65.40481567382812 5.114293098449707 C 70.88229370117188 7.431066513061523 75.80186462402344 10.74804019927979 80.02691650390625 14.97309303283691 C 84.25196075439453 19.19813346862793 87.56893157958984 24.11771965026855 89.88570404052734 29.59518623352051 C 92.28397369384766 35.26533508300781 93.5 41.28937149047852 93.5 47.5 C 93.5 53.71062850952148 92.28397369384766 59.73468017578125 89.88570404052734 65.40481567382812 C 87.56893157958984 70.88229370117188 84.25196075439453 75.80186462402344 80.02691650390625 80.02691650390625 C 75.80186462402344 84.25196075439453 70.88229370117188 87.56893157958984 65.40481567382812 89.88570404052734 C 59.73468017578125 92.28397369384766 53.71062850952148 93.5 47.5 93.5 Z" stroke="none"/>
                  <path d="M 47.5 3 C 41.49121475219727 3 35.66376876831055 4.176155090332031 30.17950439453125 6.495796203613281 C 24.88084411621094 8.736953735351562 20.12152099609375 11.94598388671875 16.03375244140625 16.03375244140625 C 11.94598388671875 20.12152099609375 8.736953735351562 24.88084411621094 6.495796203613281 30.17950439453125 C 4.176155090332031 35.66376876831055 3 41.49121475219727 3 47.5 C 3 53.50878524780273 4.176155090332031 59.33623123168945 6.495796203613281 64.82049560546875 C 8.736953735351562 70.11915588378906 11.94598388671875 74.87847900390625 16.03375244140625 78.96624755859375 C 20.12152099609375 83.05401611328125 24.88084411621094 86.26304626464844 30.17950439453125 88.50419616699219 C 35.66376876831055 90.82384490966797 41.49121475219727 92 47.5 92 C 53.50878524780273 92 59.33623123168945 90.82384490966797 64.82049560546875 88.50419616699219 C 70.11915588378906 86.26304626464844 74.87847900390625 83.05401611328125 78.96624755859375 78.96624755859375 C 83.05401611328125 74.87847900390625 86.26304626464844 70.11915588378906 88.50419616699219 64.82049560546875 C 90.82384490966797 59.33623123168945 92 53.50878524780273 92 47.5 C 92 41.49121475219727 90.82384490966797 35.66376876831055 88.50419616699219 30.17950439453125 C 86.26304626464844 24.88084411621094 83.05401611328125 20.12152099609375 78.96624755859375 16.03375244140625 C 74.87847900390625 11.94598388671875 70.11915588378906 8.736953735351562 64.82049560546875 6.495796203613281 C 59.33623123168945 4.176155090332031 53.50878524780273 3 47.5 3 M 47.5 0 C 73.7335205078125 0 95 21.2664794921875 95 47.5 C 95 73.7335205078125 73.7335205078125 95 47.5 95 C 21.2664794921875 95 0 73.7335205078125 0 47.5 C 0 21.2664794921875 21.2664794921875 0 47.5 0 Z" stroke="none" fill="#fc3"/>
                </g>
              </g>
            </g>
          </g>
        </g>
      </g>
    </g>
    <g id="asistente-de-ai" transform="translate(1051.441 4196.395)">
      <g id="Grupo_1214347" data-name="Grupo 1214347" transform="translate(32.03 1.103)">
        <path id="Trazado_1083817" data-name="Trazado 1083817" d="M43.117,118.669h4.429V105.382H43.117a6.644,6.644,0,0,0,0,13.287Z" transform="translate(-36.474 -90.988)" fill="#4a66a0"/>
        <circle id="Elipse_14386" data-name="Elipse 14386" cx="3.322" cy="3.322" r="3.322" transform="translate(1.107)" fill="#f9475e"/>
        <path id="Trazado_1083818" data-name="Trazado 1083818" d="M402.314,118.669h-4.429V105.382h4.429a6.644,6.644,0,0,1,0,13.287Z" transform="translate(-344.737 -90.988)" fill="#687daa"/>
        <path id="Trazado_1083819" data-name="Trazado 1083819" d="M201.681,11.913v4.446H179.537V11.913A4.411,4.411,0,0,1,183.949,7.5h13.32a4.412,4.412,0,0,1,4.412,4.412Z" transform="translate(-158.499 -7.501)" fill="#f3f5fc"/>
        <path id="Trazado_1083820" data-name="Trazado 1083820" d="M187.852,10.464V11.93s-.468,2.084-1.013,4.428h-7.3V11.913A4.411,4.411,0,0,1,183.948,7.5h5.278c-1.434.684-1.374,2.963-1.374,2.963Z" transform="translate(-158.498 -7.501)" fill="#e8ecf9"/>
        <path id="Trazado_1083821" data-name="Trazado 1083821" d="M217.176,218.321h11.073v19.931H217.176Z" transform="translate(-190.602 -187.318)" fill="#687daa"/>
        <path id="Trazado_1083822" data-name="Trazado 1083822" d="M220.541,234.979v13.287h-3.365v-18.2C218.9,232.486,220.541,234.979,220.541,234.979Z" transform="translate(-190.602 -197.332)" fill="#4a66a0"/>
        <path id="Trazado_1083823" data-name="Trazado 1083823" d="M143.212,312.712v11.15a2.207,2.207,0,0,1-2.206,2.206H126.6l-6.835-1.987-6.453,1.987h-14.4a2.207,2.207,0,0,1-2.206-2.206v-11.15a17.651,17.651,0,0,1,14.484-17.363,2.187,2.187,0,0,1,1.682.391,5.942,5.942,0,0,0,1.55.782l.853,1.075,2.51-.407h0c.649.057,1.371.09,2.172.09,4.209,0,6.2-.888,7.087-1.54a2.187,2.187,0,0,1,1.682-.391A17.651,17.651,0,0,1,143.212,312.712Z" transform="translate(-87.848 -252.989)" fill="#f3f5fc"/>
        <path id="Trazado_1083824" data-name="Trazado 1083824" d="M110.729,312.367v12.24a1.857,1.857,0,0,0,1.181,1.462h-13a2.207,2.207,0,0,1-2.206-2.206v-11.15a17.651,17.651,0,0,1,14.484-17.363,2.187,2.187,0,0,1,1.682.391,9.7,9.7,0,0,0,4.913,1.45C117.656,297.242,110.729,300.017,110.729,312.367Z" transform="translate(-87.848 -252.989)" fill="#e8ecf9"/>
        <path id="Trazado_1083825" data-name="Trazado 1083825" d="M143.212,46.444v15.57a8.824,8.824,0,0,1-8.823,8.823h-16.6l-2.487-.647-.878.647h-8.893a8.824,8.824,0,0,1-8.823-8.823V60.869l3.15-6.66-3.15-6.623V46.444a8.824,8.824,0,0,1,8.823-8.823h3.357l2.59,1.206,5.726-1.206h17.185a8.824,8.824,0,0,1,8.823,8.823Z" transform="translate(-87.848 -33.191)" fill="#93bce8"/>
        <path id="Trazado_1083826" data-name="Trazado 1083826" d="M117.787,70.838H105.529a8.824,8.824,0,0,1-8.823-8.823V46.444a8.824,8.824,0,0,1,8.823-8.823H117.2a11.034,11.034,0,0,0-6.968,10.257V61.315C110.235,65.863,113.565,69.36,117.787,70.838Z" transform="translate(-87.848 -33.191)" fill="#68a2df"/>
        <path id="Trazado_1083827" data-name="Trazado 1083827" d="M205.647,92.757a9.966,9.966,0,0,1-9.965,9.965H182.394a9.983,9.983,0,0,1-2.726-.378l-1.972-1.285V86.416l2.113-3.285a9.923,9.923,0,0,1,2.585-.34h13.288A9.965,9.965,0,0,1,205.647,92.757Z" transform="translate(-156.928 -71.719)" fill="#f3f5fc"/>
        <path id="Trazado_1083828" data-name="Trazado 1083828" d="M148.771,101.813a8.94,8.94,0,0,0,.353,2.5,9.969,9.969,0,0,1,.141-19.213,11.041,11.041,0,0,0-.494,3.275Z" transform="translate(-126.384 -73.689)" fill="#e8ecf9"/>
        <circle id="Elipse_14387" data-name="Elipse 14387" cx="3.322" cy="3.322" r="3.322" transform="translate(56.47)" fill="#ff6e80"/>
        <circle id="Elipse_14388" data-name="Elipse 14388" cx="2.215" cy="2.215" r="2.215" transform="translate(13.287 64.221)" fill="#f9475e"/>
        <g id="Grupo_1214346" data-name="Grupo 1214346" transform="translate(26.021 48.719)">
          <circle id="Elipse_14389" data-name="Elipse 14389" cx="2.215" cy="2.215" r="2.215" fill="#ff6e80"/>
          <circle id="Elipse_14390" data-name="Elipse 14390" cx="2.215" cy="2.215" r="2.215" transform="translate(7.751 3.322)" fill="#ff6e80"/>
          <circle id="Elipse_14391" data-name="Elipse 14391" cx="2.215" cy="2.215" r="2.215" transform="translate(20.484 14.394)" fill="#ff6e80"/>
        </g>
        <path id="Trazado_1083829" data-name="Trazado 1083829" d="M222.937,427.375H209.65V418.5a4.412,4.412,0,0,1,4.412-4.412h4.464a4.412,4.412,0,0,1,4.412,4.412Z" transform="translate(-184.183 -354.296)" fill="#93bce8"/>
      </g>
      <g id="Grupo_1214348" data-name="Grupo 1214348" transform="translate(31.264 0)">
        <path id="Trazado_1083830" data-name="Trazado 1083830" d="M92.925,15.142V8.71a4.425,4.425,0,1,0-2.206,0v5.765a13.942,13.942,0,0,0-2.223-.081,9.936,9.936,0,0,0-9.926-9.965H76.207A5.524,5.524,0,0,0,70.8,0H57.48a5.524,5.524,0,0,0-5.406,4.429H49.712a9.936,9.936,0,0,0-9.926,9.965,14.44,14.44,0,0,0-2.223.08V8.71a4.425,4.425,0,1,0-2.206,0v6.426a7.731,7.731,0,0,0-3.564,3.446A1.1,1.1,0,1,0,33.751,19.6a5.524,5.524,0,0,1,4.922-3h1.112V27.681H38.673a5.533,5.533,0,0,1-5.259-3.792,1.1,1.1,0,0,0-2.093.7,7.736,7.736,0,0,0,7.352,5.3h1.112a9.936,9.936,0,0,0,9.926,9.966H57.5v2.975a3.3,3.3,0,0,0-2.326-.45,18.726,18.726,0,0,0-15.39,18.448v11.15a3.312,3.312,0,0,0,3.309,3.309H76.727a1.1,1.1,0,0,0,0-2.206h-4.84V70.855H74.1a1.1,1.1,0,1,0,0-2.206H71.887V65.32h1.3a1.111,1.111,0,0,1,.78.322l.922.922a3.332,3.332,0,0,0,2.34.969h.386a3.317,3.317,0,1,0,0-2.206h-.387a1.111,1.111,0,0,1-.78-.322l-.922-.922a3.332,3.332,0,0,0-2.34-.969H71.431a5.548,5.548,0,0,0-2.313-2.587v-2.04a3.317,3.317,0,1,0-2.206,0v1.332c-.178-.017-.358-.027-.54-.027h-4.3a5.229,5.229,0,0,0-.7.027V55.165a3.317,3.317,0,1,0-2.206,0v5.362a5.549,5.549,0,0,0-2.313,2.587H54.176a1.1,1.1,0,0,0,0,2.206h2.218v3.329h-1.3a1.111,1.111,0,0,1-.78-.322l-.921-.921a3.328,3.328,0,0,0-2.341-.971h-.387a3.318,3.318,0,1,0,0,2.206h.386a1.108,1.108,0,0,1,.78.324l.922.922a3.332,3.332,0,0,0,2.34.969h1.3v2.224h-13.3a1.1,1.1,0,0,1-1.1-1.1V60.826A16.521,16.521,0,0,1,55.568,44.548a1.089,1.089,0,0,1,.834.2c1.094.8,3.324,1.752,7.738,1.752s6.644-.953,7.738-1.753a1.088,1.088,0,0,1,.834-.2A16.521,16.521,0,0,1,86.29,60.826v11.15a1.1,1.1,0,0,1-1.1,1.1H81.874a1.1,1.1,0,0,0,0,2.206h3.313A3.312,3.312,0,0,0,88.5,71.976V60.826a18.726,18.726,0,0,0-15.39-18.448,3.3,3.3,0,0,0-2.326.449V39.853h7.789A9.936,9.936,0,0,0,88.5,29.887h1.112a7.745,7.745,0,0,0,3.317-14.745ZM89.6,4.425a2.219,2.219,0,1,1,2.219,2.219A2.221,2.221,0,0,1,89.6,4.425Zm-55.363,0a2.219,2.219,0,1,1,2.219,2.219A2.221,2.221,0,0,1,34.24,4.425ZM80.749,65.32a1.112,1.112,0,1,1-1.112,1.112A1.113,1.113,0,0,1,80.749,65.32ZM68.016,54.247A1.112,1.112,0,1,1,66.9,55.359,1.113,1.113,0,0,1,68.016,54.247Zm-7.751-3.322a1.112,1.112,0,1,1-1.112,1.112A1.113,1.113,0,0,1,60.265,50.925ZM47.532,68.65a1.112,1.112,0,1,1,1.112-1.112A1.113,1.113,0,0,1,47.532,68.65ZM58.6,65.307A3.312,3.312,0,0,1,61.909,62h4.464a3.312,3.312,0,0,1,3.309,3.309v7.772H58.6Zm-1.12-63.1H70.8a3.314,3.314,0,0,1,3.124,2.223H54.356A3.314,3.314,0,0,1,57.48,2.206ZM68.574,43.823a21.107,21.107,0,0,1-8.868,0v-3.97h8.868Zm17.716-13.9a7.729,7.729,0,0,1-7.721,7.721H49.712a7.729,7.729,0,0,1-7.721-7.721V14.355a7.729,7.729,0,0,1,7.721-7.721H78.569a7.729,7.729,0,0,1,7.721,7.721Zm3.318-2.246H88.5V16.6h1.112a5.54,5.54,0,0,1,0,11.081Z" transform="translate(-31.264 0)"/>
        <path id="Trazado_1083831" data-name="Trazado 1083831" d="M167.7,81.859a1.1,1.1,0,0,0-.651,1.417,8.864,8.864,0,0,1-8.311,11.945H145.455a8.862,8.862,0,0,1,0-17.725h13.288a8.879,8.879,0,0,1,5.634,2.02,1.1,1.1,0,1,0,1.4-1.7,11.09,11.09,0,0,0-7.037-2.524H145.455a11.068,11.068,0,0,0,0,22.137h13.288a11.075,11.075,0,0,0,10.38-14.917A1.1,1.1,0,0,0,167.7,81.859Z" transform="translate(-119.222 -64.218)"/>
        <path id="Trazado_1083832" data-name="Trazado 1083832" d="M208.953,106.254a1.359,1.359,0,0,0-2.517.028L202.222,117.2a1.1,1.1,0,1,0,2.058.794l.777-2.013h5.253l.769,2.01a1.1,1.1,0,1,0,2.06-.788Zm-3.044,7.52,1.787-4.632,1.771,4.632Z" transform="translate(-177.018 -89.918)"/>
        <path id="Trazado_1083833" data-name="Trazado 1083833" d="M292.5,106.515v11.073a1.1,1.1,0,0,0,2.206,0V106.515a1.1,1.1,0,0,0-2.206,0Z" transform="translate(-254.086 -89.91)"/>
      </g>
    </g>
  </g>
</svg>
