<svg xmlns="http://www.w3.org/2000/svg" xmlns:xlink="http://www.w3.org/1999/xlink" width="103" height="103" viewBox="0 0 103 103">
  <defs>
    <filter id="Trazado_978624" x="0" y="0" width="103" height="103" filterUnits="userSpaceOnUse">
      <feOffset dy="3" input="SourceAlpha"/>
      <feGaussianBlur stdDeviation="3" result="blur"/>
      <feFlood flood-opacity="0.161"/>
      <feComposite operator="in" in2="blur"/>
      <feComposite in="SourceGraphic"/>
    </filter>
  </defs>
  <g id="Grupo_1214383" data-name="Grupo 1214383" transform="translate(-159.789 -3008)">
    <g id="Grupo_1213527" data-name="Grupo 1213527" transform="translate(0 -7522)">
      <g id="Grupo_1210098" data-name="Grupo 1210098" transform="translate(-5.711 9472)">
        <g id="Grupo_1178144" data-name="Grupo 1178144" transform="translate(-19.5 -2004)">
          <g id="Grupo_1177896" data-name="Grupo 1177896" transform="translate(14 196)">
            <g id="Grupo_1176881" data-name="Grupo 1176881">
              <g id="Grupo_1175148" data-name="Grupo 1175148" transform="translate(0 1580)">
                <g id="Grupo_1173798" data-name="Grupo 1173798" transform="translate(-3 -3520)">
                  <g id="Grupo_1171925" data-name="Grupo 1171925" transform="translate(-22 -2246)">
                    <g id="Grupo_1164524" data-name="Grupo 1164524" transform="translate(205 7058)">
                      <g id="Grupo_1144123" data-name="Grupo 1144123">
                        <g transform="matrix(1, 0, 0, 1, -9, -6)" filter="url(#Trazado_978624)">
                          <g id="Trazado_978624-2" data-name="Trazado 978624" transform="translate(9 6)" fill="#f6f6f6">
                            <path d="M 42.5 83.5 C 36.96437835693359 83.5 31.59512901306152 82.41617584228516 26.54141235351562 80.27863311767578 C 21.65934181213379 78.21369171142578 17.27447128295898 75.25723266601562 13.50862312316895 71.49137878417969 C 9.742764472961426 67.72553253173828 6.786305904388428 63.34066009521484 4.721364498138428 58.45858764648438 C 2.583823442459106 53.40486907958984 1.5 48.03562164306641 1.5 42.5 C 1.5 36.96437835693359 2.583823442459106 31.59512901306152 4.721364498138428 26.54141235351562 C 6.786305904388428 21.65934181213379 9.742764472961426 17.27447128295898 13.50862312316895 13.50862312316895 C 17.27447128295898 9.742764472961426 21.65934181213379 6.786305904388428 26.54141235351562 4.721364498138428 C 31.59512901306152 2.583823442459106 36.96437835693359 1.5 42.5 1.5 C 48.03562164306641 1.5 53.40486907958984 2.583823442459106 58.45858764648438 4.721364498138428 C 63.34066009521484 6.786305904388428 67.72553253173828 9.742764472961426 71.49137878417969 13.50862312316895 C 75.25723266601562 17.27447128295898 78.21369171142578 21.65934181213379 80.27863311767578 26.54141235351562 C 82.41617584228516 31.59512901306152 83.5 36.96437835693359 83.5 42.5 C 83.5 48.03562164306641 82.41617584228516 53.40486907958984 80.27863311767578 58.45858764648438 C 78.21369171142578 63.34066009521484 75.25723266601562 67.72553253173828 71.49137878417969 71.49137878417969 C 67.72553253173828 75.25723266601562 63.34066009521484 78.21369171142578 58.45858764648438 80.27863311767578 C 53.40486907958984 82.41617584228516 48.03562164306641 83.5 42.5 83.5 Z" stroke="none"/>
                            <path d="M 42.5 3 C 37.16621398925781 3 31.99356079101562 4.043960571289062 27.125732421875 6.102882385253906 C 22.42246627807617 8.092185974121094 18.19785308837891 10.94070434570312 14.56928253173828 14.56928253173828 C 10.94070434570312 18.19785308837891 8.092185974121094 22.42246627807617 6.102882385253906 27.125732421875 C 4.043960571289062 31.99356079101562 3 37.16621398925781 3 42.5 C 3 47.83378601074219 4.043960571289062 53.00643920898438 6.102882385253906 57.87425231933594 C 8.092185974121094 62.57753372192383 10.94070434570312 66.80213165283203 14.56928253173828 70.43071746826172 C 18.19786834716797 74.05929565429688 22.42246627807617 76.90781402587891 27.125732421875 78.89711761474609 C 31.99356079101562 80.95603942871094 37.16621398925781 82 42.5 82 C 47.83378601074219 82 53.00642395019531 80.95603942871094 57.87425231933594 78.89711761474609 C 62.57753372192383 76.90781402587891 66.80213165283203 74.05929565429688 70.43071746826172 70.43071746826172 C 74.05929565429688 66.80213165283203 76.90781402587891 62.57753372192383 78.89711761474609 57.87425231933594 C 80.95603942871094 53.00642395019531 82 47.83378601074219 82 42.5 C 82 37.16621398925781 80.95603942871094 31.99356079101562 78.89711761474609 27.125732421875 C 76.90781402587891 22.42246627807617 74.05929565429688 18.19786834716797 70.43071746826172 14.56928253173828 C 66.80213165283203 10.94070434570312 62.57753372192383 8.092185974121094 57.87425231933594 6.102882385253906 C 53.00643920898438 4.043960571289062 47.83378601074219 3 42.5 3 M 42.5 0 C 65.97209167480469 0 85 19.02789306640625 85 42.5 C 85 65.97209167480469 65.97209167480469 85 42.5 85 C 19.02789306640625 85 0 65.97209167480469 0 42.5 C 0 19.02789306640625 19.02789306640625 0 42.5 0 Z" stroke="none" fill="#b0aeae"/>
                          </g>
                        </g>
                      </g>
                    </g>
                  </g>
                </g>
              </g>
            </g>
          </g>
        </g>
      </g>
    </g>
    <g id="fabricacion_1_" data-name="fabricacion (1)" transform="translate(169.586 3023.382)">
      <g id="Grupo_1214382" data-name="Grupo 1214382" transform="translate(9.087 9.743)">
        <circle id="Elipse_14395" data-name="Elipse 14395" cx="1.451" cy="1.451" r="1.451" transform="translate(38.524 3.21)"/>
        <g id="Grupo_1214367" data-name="Grupo 1214367" transform="translate(32.954 40.487)">
          <g id="Grupo_1214363" data-name="Grupo 1214363">
            <g id="Grupo_1214361" data-name="Grupo 1214361">
              <path id="Trazado_1083875" data-name="Trazado 1083875" d="M259.947,323.5h8.4a1.464,1.464,0,0,0,1.449-1.473v-9.248a.761.761,0,0,0-.753-.766h-9.79a.761.761,0,0,0-.753.766v9.248A1.464,1.464,0,0,0,259.947,323.5Z" transform="translate(-258.498 -312.011)" fill="#e3a76f" fill-rule="evenodd"/>
              <path id="Trazado_1083876" data-name="Trazado 1083876" d="M320.3,323.5h1.449a1.464,1.464,0,0,0,1.449-1.473v-9.248a.761.761,0,0,0-.753-.766H321a.761.761,0,0,1,.753.766v9.248A1.464,1.464,0,0,1,320.3,323.5Z" transform="translate(-311.903 -312.012)" fill="#c48958" fill-rule="evenodd"/>
            </g>
            <g id="Grupo_1214362" data-name="Grupo 1214362" transform="translate(3.757)">
              <path id="Trazado_1083877" data-name="Trazado 1083877" d="M286.145,312.011h3.782V315.9a.726.726,0,0,1-.724.724h-2.334a.726.726,0,0,1-.724-.724Z" transform="translate(-286.145 -312.011)" fill="#f2d1a5" fill-rule="evenodd"/>
              <path id="Trazado_1083878" data-name="Trazado 1083878" d="M303.083,312.011h.855V315.9a.726.726,0,0,1-.724.724h-.855a.726.726,0,0,0,.724-.724Z" transform="translate(-300.156 -312.011)" fill="#ecba78" fill-rule="evenodd"/>
            </g>
          </g>
          <g id="Grupo_1214366" data-name="Grupo 1214366" transform="translate(15.902)">
            <g id="Grupo_1214364" data-name="Grupo 1214364">
              <path id="Trazado_1083879" data-name="Trazado 1083879" d="M376.963,323.5h8.4a1.464,1.464,0,0,0,1.449-1.473v-9.248a.761.761,0,0,0-.753-.766h-9.79a.761.761,0,0,0-.753.766v9.248a1.464,1.464,0,0,0,1.449,1.473Z" transform="translate(-375.514 -312.011)" fill="#e3a76f" fill-rule="evenodd"/>
              <path id="Trazado_1083880" data-name="Trazado 1083880" d="M437.318,323.5h1.449a1.464,1.464,0,0,0,1.449-1.473v-9.248a.761.761,0,0,0-.753-.766h-1.449a.761.761,0,0,1,.753.766v9.248A1.464,1.464,0,0,1,437.318,323.5Z" transform="translate(-428.919 -312.012)" fill="#c48958" fill-rule="evenodd"/>
            </g>
            <g id="Grupo_1214365" data-name="Grupo 1214365" transform="translate(3.757)">
              <path id="Trazado_1083881" data-name="Trazado 1083881" d="M403.161,312.011h3.782V315.9a.726.726,0,0,1-.724.724h-2.334a.726.726,0,0,1-.724-.724v-3.885Z" transform="translate(-403.161 -312.011)" fill="#f2d1a5" fill-rule="evenodd"/>
              <path id="Trazado_1083882" data-name="Trazado 1083882" d="M420.1,312.011h.855V315.9a.726.726,0,0,1-.724.724h-.854a.726.726,0,0,0,.724-.724Z" transform="translate(-417.172 -312.011)" fill="#ecba78" fill-rule="evenodd"/>
            </g>
          </g>
        </g>
        <g id="Grupo_1214374" data-name="Grupo 1214374" transform="translate(4.847 0)">
          <path id="Trazado_1083883" data-name="Trazado 1083883" d="M114.629,34.368l-1.47-6.531L85.952,44.554l7.229,8.822Z" transform="translate(-81.293 -25.969)" fill="#d1d1d6" fill-rule="evenodd"/>
          <g id="Grupo_1214368" data-name="Grupo 1214368" transform="translate(40.027 21.092)">
            <path id="Trazado_1083884" data-name="Trazado 1083884" d="M361.114,176.747a7.451,7.451,0,0,1-3.875,6.54V176.64l-3.654-2.11-3.654,2.11v6.56a7.454,7.454,0,1,1,11.184-6.453Z" transform="translate(-346.208 -169.294)" fill="#d1d1d6" fill-rule="evenodd"/>
            <path id="Trazado_1083885" data-name="Trazado 1083885" d="M379.458,176.747a7.451,7.451,0,0,1-3.875,6.54v-.051a7.454,7.454,0,0,0-7.711-12.691,7.454,7.454,0,0,1,11.586,6.2Zm-11.184-.107-.837.484v5.512a7.458,7.458,0,0,0,.837.565Z" transform="translate(-364.551 -169.294)" fill="#b1b1b5" fill-rule="evenodd"/>
          </g>
          <path id="Trazado_1083886" data-name="Trazado 1083886" d="M68.319,215.524l14.193-.19-5.821-22.027c-3.208-1.44-6.11-3.967-9.77-3.521Z" transform="translate(-64.848 -165.864)" fill="#d1d1d6" fill-rule="evenodd"/>
          <path id="Trazado_1083887" data-name="Trazado 1083887" d="M300.849,49.3l10.34,9.019c1.047-.872,2.688-1.325,3.1-3l-9.035-10.29A53.307,53.307,0,0,0,300.849,49.3Z" transform="translate(-266.986 -40.819)" fill="#d1d1d6" fill-rule="evenodd"/>
          <g id="Grupo_1214369" data-name="Grupo 1214369" transform="translate(29.746)">
            <ellipse id="Elipse_14396" data-name="Elipse 14396" cx="3.975" cy="3.975" rx="3.975" ry="3.975" transform="translate(0 7.735) rotate(-76.7)" fill="#b1b1b5"/>
            <path id="Trazado_1083888" data-name="Trazado 1083888" d="M301.358,19.937a3.975,3.975,0,1,1-.679,7.892,3.976,3.976,0,0,0,0-7.834,4,4,0,0,1,.679-.058Z" transform="translate(-296.585 -19.142)" fill="#9c9c9e" fill-rule="evenodd"/>
          </g>
          <g id="Grupo_1214370" data-name="Grupo 1214370" transform="translate(43.613 13.937)">
            <circle id="Elipse_14397" data-name="Elipse 14397" cx="3.361" cy="3.361" r="3.361" transform="matrix(0.16, -0.987, 0.987, 0.16, 0, 6.635)" fill="#b1b1b5"/>
            <path id="Trazado_1083889" data-name="Trazado 1083889" d="M396.732,120.272a3.361,3.361,0,1,1-.68,6.653,3.362,3.362,0,0,0,0-6.584A3.37,3.37,0,0,1,396.732,120.272Z" transform="translate(-392.866 -119.779)" fill="#9c9c9e" fill-rule="evenodd"/>
          </g>
          <g id="Grupo_1214371" data-name="Grupo 1214371" transform="translate(1.976 16.246)">
            <circle id="Elipse_14398" data-name="Elipse 14398" cx="5.746" cy="5.746" r="5.746" transform="translate(0 10.998) rotate(-73.142)" fill="#b1b1b5"/>
            <path id="Trazado_1083890" data-name="Trazado 1083890" d="M114.607,144.028a5.746,5.746,0,1,1-.679,11.452,5.746,5.746,0,0,0,0-11.412A5.809,5.809,0,0,1,114.607,144.028Z" transform="translate(-107.443 -142.616)" fill="#9c9c9e" fill-rule="evenodd"/>
          </g>
          <g id="Grupo_1214372" data-name="Grupo 1214372" transform="translate(6.773 21.039)">
            <circle id="Elipse_14399" data-name="Elipse 14399" cx="2.059" cy="2.059" r="2.059" transform="matrix(0.16, -0.987, 0.987, 0.16, 0, 4.065)" fill="#9facba"/>
            <path id="Trazado_1083891" data-name="Trazado 1083891" d="M105.832,171.156a2.052,2.052,0,0,1,.679.115,2.06,2.06,0,0,0,0,3.889,2.06,2.06,0,1,1-.679-4Z" transform="translate(-103.465 -170.85)" fill="#8d9ca8" fill-rule="evenodd"/>
          </g>
          <g id="Grupo_1214373" data-name="Grupo 1214373" transform="translate(0 48.256)">
            <path id="Trazado_1083892" data-name="Trazado 1083892" d="M51.667,373.813h20.66v-3.042a1.718,1.718,0,0,0-1.816-1.586H53.483a1.717,1.717,0,0,0-1.816,1.586v3.042Z" transform="translate(-51.667 -369.186)" fill="#b1b1b5" fill-rule="evenodd"/>
            <path id="Trazado_1083893" data-name="Trazado 1083893" d="M71.336,373.814h1.192v-3.041a1.718,1.718,0,0,0-1.816-1.586H53.684a1.775,1.775,0,0,0-1.784,1.292,2.037,2.037,0,0,1,.592-.087H69.52a1.718,1.718,0,0,1,1.816,1.586Z" transform="translate(-51.868 -369.187)" fill="#9c9c9e" fill-rule="evenodd"/>
          </g>
        </g>
        <g id="Grupo_1214380" data-name="Grupo 1214380" transform="translate(0 51.974)">
          <g id="Grupo_1214375" data-name="Grupo 1214375">
            <path id="Trazado_1083894" data-name="Trazado 1083894" d="M22.491,396.542H74.741a6.49,6.49,0,1,1,0,12.981H22.491a6.49,6.49,0,1,1,0-12.981Z" transform="translate(-16.001 -396.542)" fill="#9facba" fill-rule="evenodd"/>
            <path id="Trazado_1083895" data-name="Trazado 1083895" d="M438.239,396.542H439.6a6.49,6.49,0,0,1,0,12.981h-1.359a6.49,6.49,0,0,0,0-12.981Z" transform="translate(-380.859 -396.542)" fill="#8d9ca8" fill-rule="evenodd"/>
          </g>
          <g id="Grupo_1214376" data-name="Grupo 1214376" transform="translate(3.059 3.059)">
            <circle id="Elipse_14400" data-name="Elipse 14400" cx="3.431" cy="3.431" r="3.431" transform="translate(0 0)" fill="#8192a5"/>
            <path id="Trazado_1083896" data-name="Trazado 1083896" d="M59.44,419.054a3.431,3.431,0,1,1-.679,6.795,3.432,3.432,0,0,0,0-6.727A3.442,3.442,0,0,1,59.44,419.054Z" transform="translate(-56.009 -419.054)" fill="#65788e" fill-rule="evenodd"/>
          </g>
          <g id="Grupo_1214377" data-name="Grupo 1214377" transform="translate(19.961 2.546)">
            <circle id="Elipse_14401" data-name="Elipse 14401" cx="3.431" cy="3.431" r="3.431" transform="matrix(0.16, -0.987, 0.987, 0.16, 0, 6.773)" fill="#8192a5"/>
            <path id="Trazado_1083897" data-name="Trazado 1083897" d="M187.6,419.054a3.431,3.431,0,1,1-.679,6.795,3.432,3.432,0,0,0,0-6.727A3.442,3.442,0,0,1,187.6,419.054Z" transform="translate(-183.654 -418.541)" fill="#65788e" fill-rule="evenodd"/>
          </g>
          <g id="Grupo_1214378" data-name="Grupo 1214378" transform="translate(36.863 1.999)">
            <circle id="Elipse_14402" data-name="Elipse 14402" cx="3.431" cy="3.431" r="3.431" transform="translate(0 2.628) rotate(-22.514)" fill="#8192a5"/>
            <path id="Trazado_1083898" data-name="Trazado 1083898" d="M315.759,419.054a3.431,3.431,0,1,1-.679,6.795,3.432,3.432,0,0,0,0-6.727A3.442,3.442,0,0,1,315.759,419.054Z" transform="translate(-311.299 -417.994)" fill="#65788e" fill-rule="evenodd"/>
          </g>
          <g id="Grupo_1214379" data-name="Grupo 1214379" transform="translate(55.308 3.059)">
            <circle id="Elipse_14403" data-name="Elipse 14403" cx="3.431" cy="3.431" r="3.431" transform="translate(0 0)" fill="#8192a5"/>
            <path id="Trazado_1083899" data-name="Trazado 1083899" d="M443.919,419.054a3.431,3.431,0,1,1-.679,6.795,3.432,3.432,0,0,0,0-6.727A3.442,3.442,0,0,1,443.919,419.054Z" transform="translate(-440.488 -419.054)" fill="#65788e" fill-rule="evenodd"/>
          </g>
        </g>
        <g id="Grupo_1214381" data-name="Grupo 1214381" transform="translate(0.601 6.596)">
          <path id="Trazado_1083900" data-name="Trazado 1083900" d="M39.692,65.285a13.715,13.715,0,0,1,4.016,1.665l2.609-1.159,3.075,3.075-1.159,2.609A13.717,13.717,0,0,1,49.9,75.491l2.662,1.025v4.349L49.9,81.89a13.718,13.718,0,0,1-1.665,4.016l1.159,2.609L46.317,91.59l-2.609-1.159A13.717,13.717,0,0,1,39.692,92.1l-1.025,2.662H34.318L33.293,92.1a13.719,13.719,0,0,1-4.016-1.665L26.668,91.59l-3.075-3.075,1.159-2.609a13.718,13.718,0,0,1-1.665-4.017l-2.662-1.025V76.516l2.662-1.025a13.711,13.711,0,0,1,1.665-4.016l-1.159-2.609,3.075-3.075,2.609,1.159a13.718,13.718,0,0,1,4.016-1.665l1.025-2.663h4.349Z" transform="translate(-20.424 -62.622)" fill="#ffe177" fill-rule="evenodd"/>
          <path id="Trazado_1083901" data-name="Trazado 1083901" d="M82.668,66.18l.876-.389,3.075,3.075-1.159,2.609a13.715,13.715,0,0,1,1.665,4.017l2.662,1.025v4.349L87.125,81.89a13.714,13.714,0,0,1-1.665,4.016l1.159,2.609L83.544,91.59l-.876-.389,2.686-2.686L84.2,85.905A13.714,13.714,0,0,0,85.86,81.89l2.663-1.025V76.516L85.86,75.491A13.718,13.718,0,0,0,84.2,71.474l1.159-2.609Zm-19.162,0,.389-.389L66.5,66.949q-.277.153-.546.319Zm13.413-.9a13.714,13.714,0,0,1,4.016,1.665l-.719.319a17.938,17.938,0,0,0-4.562-1.984l-1.025-2.663h1.265ZM66.5,90.431,63.9,91.59l-.389-.389,2.452-1.089Q66.228,90.278,66.5,90.431Zm14.431,0A13.717,13.717,0,0,1,76.919,92.1l-1.025,2.662H74.629L75.653,92.1a17.94,17.94,0,0,0,4.563-1.984Z" transform="translate(-57.651 -62.622)" fill="#ffd064" fill-rule="evenodd"/>
          <circle id="Elipse_14404" data-name="Elipse 14404" cx="8.195" cy="8.195" r="8.195" transform="translate(4.476 16.068) rotate(-45)" fill="#eceff1"/>
          <path id="Trazado_1083902" data-name="Trazado 1083902" d="M86.556,120.559c.187,0,.372.007.555.019a8.194,8.194,0,0,0,0,16.351c-.183.012-.368.019-.555.019a8.195,8.195,0,1,1,0-16.39Z" transform="translate(-70.488 -112.686)" fill="#d1d1d6" fill-rule="evenodd"/>
        </g>
      </g>
      <path id="Trazado_1083903" data-name="Trazado 1083903" d="M25.756,26.3a6.5,6.5,0,1,1-6.5,6.5,6.505,6.505,0,0,1,6.5-6.5Zm0,15.17A8.672,8.672,0,1,0,17.085,32.8,8.682,8.682,0,0,0,25.756,41.47ZM46.971,14.13a1.495,1.495,0,1,1,1.495,1.495A1.495,1.495,0,0,1,46.971,14.13ZM67.827,70.943A2.344,2.344,0,1,1,70.171,68.6,2.348,2.348,0,0,1,67.827,70.943Zm0-6.863A4.519,4.519,0,1,0,72.346,68.6,4.525,4.525,0,0,0,67.827,64.08ZM50.411,70.943A2.344,2.344,0,1,1,52.755,68.6,2.348,2.348,0,0,1,50.411,70.943Zm0-6.863A4.519,4.519,0,1,0,54.929,68.6,4.525,4.525,0,0,0,50.411,64.08ZM32.994,70.943A2.344,2.344,0,1,1,35.338,68.6,2.348,2.348,0,0,1,32.994,70.943Zm0-6.863A4.519,4.519,0,1,0,37.512,68.6,4.525,4.525,0,0,0,32.994,64.08ZM15.577,70.943A2.344,2.344,0,1,1,17.922,68.6,2.347,2.347,0,0,1,15.577,70.943Zm0-6.863A4.519,4.519,0,1,0,20.1,68.6,4.524,4.524,0,0,0,15.577,64.08Zm12.356,7.95a1.087,1.087,0,0,1-1.087,1.087H21.726a1.087,1.087,0,1,1,0-2.174h5.121A1.087,1.087,0,0,1,27.933,72.03Zm17.417,0a1.087,1.087,0,0,1-1.087,1.087H39.142a1.087,1.087,0,0,1,0-2.174h5.121A1.087,1.087,0,0,1,45.35,72.03Zm17.416-6.863a1.087,1.087,0,0,1-1.087,1.087h-5.12a1.087,1.087,0,1,1,0-2.174h5.12A1.087,1.087,0,0,1,62.766,65.167Zm-34.833,0a1.087,1.087,0,0,1-1.087,1.087H21.726a1.087,1.087,0,1,1,0-2.174h5.121A1.087,1.087,0,0,1,27.933,65.167ZM62.766,72.03a1.087,1.087,0,0,1-1.087,1.087h-5.12a1.087,1.087,0,1,1,0-2.174h5.12A1.087,1.087,0,0,1,62.766,72.03ZM45.35,65.167a1.087,1.087,0,0,1-1.087,1.087H39.142a1.087,1.087,0,0,1,0-2.174h5.121A1.087,1.087,0,0,1,45.35,65.167ZM67.827,74a5.4,5.4,0,0,0,0-10.807H15.577a5.4,5.4,0,0,0,0,10.807ZM15.022,60.265a.756.756,0,0,1,.754-.755H33.048a.756.756,0,0,1,.755.755v.755H15.577c-.187,0-.372.01-.556.023Zm2.67-14.16.78-.347a14.746,14.746,0,0,0,3.271,1.357l.825,2.141a1.084,1.084,0,0,0,1.014.7H27.93a.991.991,0,0,0,.153-.012l1.957,7.4H18.363Zm-3.538-3.724,2.019,2.02,1.927-.856a1.091,1.091,0,0,1,1.012.068,12.591,12.591,0,0,0,3.7,1.532,1.085,1.085,0,0,1,.762.667l.757,1.967h2.857l.757-1.966a1.089,1.089,0,0,1,.762-.667,12.6,12.6,0,0,0,3.7-1.533,1.085,1.085,0,0,1,1.011-.068l1.926.856,2.02-2.02L36.5,40.454a1.087,1.087,0,0,1,.068-1.012,12.639,12.639,0,0,0,1.533-3.7,1.085,1.085,0,0,1,.666-.762l1.967-.757V31.369l-1.965-.757a1.088,1.088,0,0,1-.667-.763,12.609,12.609,0,0,0-1.533-3.7,1.086,1.086,0,0,1-.068-1.011l.855-1.926-2.02-2.02-1.927.856a1.086,1.086,0,0,1-1.011-.068,12.61,12.61,0,0,0-3.7-1.533,1.088,1.088,0,0,1-.762-.667l-.757-1.966H24.328l-.757,1.966a1.083,1.083,0,0,1-.762.667,12.632,12.632,0,0,0-3.7,1.533,1.085,1.085,0,0,1-1.011.068l-1.927-.856-2.019,2.02.856,1.927a1.088,1.088,0,0,1-.068,1.011,12.606,12.606,0,0,0-1.533,3.7,1.089,1.089,0,0,1-.667.763l-1.967.757v2.856l1.967.756a1.089,1.089,0,0,1,.666.763,12.591,12.591,0,0,0,1.534,3.7,1.089,1.089,0,0,1,.068,1.012ZM48.466,11.235a2.9,2.9,0,1,0,2.9,2.9A2.9,2.9,0,0,0,48.466,11.235Zm9.112,13.681-7.034-6.163a5.1,5.1,0,0,0,2.386-2.221l6.277,6.736A4.488,4.488,0,0,0,57.578,24.915Zm3.873-.081a2.28,2.28,0,1,0,2.28,2.28,2.283,2.283,0,0,0-2.28-2.28Zm6.38,13.113a6.388,6.388,0,0,1-1.708,4.345V37.841a1.089,1.089,0,0,0-.544-.942l-3.661-2.114a1.091,1.091,0,0,0-1.087,0L57.17,36.9a1.086,1.086,0,0,0-.544.942v4.277a6.379,6.379,0,1,1,11.2-4.171ZM39.424,22.2,36.349,19.13a1.081,1.081,0,0,0-.436-.265L43.4,14.416a5.075,5.075,0,0,0,2.543,4.11l-6.572,5.508.274-.619a1.087,1.087,0,0,0-.226-1.21Zm3.475,29.5h1.646v3.6a1.086,1.086,0,0,0,1.087,1.087h3.846a1.087,1.087,0,0,0,1.087-1.087v-3.6h1.647v9.313H42.9V51.708Zm3.82,0v2.513h1.671V51.708Zm12.35,0h1.646v3.6A1.087,1.087,0,0,0,61.8,56.395H65.65a1.087,1.087,0,0,0,1.087-1.087v-3.6h1.646v9.336c-.184-.013-.368-.023-.556-.023H59.07Zm3.82,0v2.513h1.673V51.708Zm7.118,9.634h.549V50.621a1.087,1.087,0,0,0-1.087-1.087H57.982A1.087,1.087,0,0,0,56.9,50.621v10.4H54.387v-10.4A1.087,1.087,0,0,0,53.3,49.534H41.812a1.087,1.087,0,0,0-1.087,1.087v10.4H35.977v-.755a2.933,2.933,0,0,0-2.929-2.928H32.29L29.66,47.4l.109-.283a14.759,14.759,0,0,0,3.273-1.357l2.1.932a1.087,1.087,0,0,0,1.209-.225l3.075-3.075a1.087,1.087,0,0,0,.226-1.21l-.933-2.1a14.736,14.736,0,0,0,1.357-3.272l2.142-.824a1.089,1.089,0,0,0,.7-1.015V30.623a1.088,1.088,0,0,0-.7-1.014l-2.141-.824a14.979,14.979,0,0,0-.687-1.926l8.747-7.328L57,27.3a4.434,4.434,0,0,0,1.12,2.769,8.555,8.555,0,0,0-.952,15.285,1.088,1.088,0,0,0,1.632-.941V38.469l2.574-1.486,2.574,1.486V44.5a1.087,1.087,0,0,0,1.609.953,8.554,8.554,0,0,0-.776-15.384,4.452,4.452,0,0,0-3.166-7.406l-8.083-8.675a5.067,5.067,0,0,0-9.353-2.561l-12.807,7.6a14.628,14.628,0,0,0-1.6-.551l-.823-2.141a1.088,1.088,0,0,0-1.016-.7H23.582a1.083,1.083,0,0,0-1.014.7l-.825,2.141a14.8,14.8,0,0,0-3.271,1.357l-2.1-.932a1.09,1.09,0,0,0-1.211.225L12.088,22.2a1.085,1.085,0,0,0-.224,1.21l.931,2.1a14.808,14.808,0,0,0-1.357,3.272L9.3,29.609a1.088,1.088,0,0,0-.7,1.014v4.35a1.088,1.088,0,0,0,.7,1.014l2.141.824a14.768,14.768,0,0,0,1.357,3.273l-.931,2.1a1.084,1.084,0,0,0,.224,1.21l3.075,3.075a1.1,1.1,0,0,0,.388.248l.636,10.623h-.411a2.932,2.932,0,0,0-2.929,2.928v1.266a7.577,7.577,0,0,0,2.73,14.645h52.25a7.578,7.578,0,0,0,2.181-14.834Z" fill="#242222" fill-rule="evenodd"/>
    </g>
  </g>
</svg>
