<svg xmlns="http://www.w3.org/2000/svg" xmlns:xlink="http://www.w3.org/1999/xlink" width="113" height="113" viewBox="0 0 113 113">
  <defs>
    <filter id="Trazado_982547" x="0" y="0" width="113" height="113" filterUnits="userSpaceOnUse">
      <feOffset dy="3" input="SourceAlpha"/>
      <feGaussianBlur stdDeviation="3" result="blur"/>
      <feFlood flood-opacity="0.161"/>
      <feComposite operator="in" in2="blur"/>
      <feComposite in="SourceGraphic"/>
    </filter>
  </defs>
  <g id="Grupo_1214386" data-name="Grupo 1214386" transform="translate(-325 -3894.149)">
    <g id="Grupo_1210956" data-name="Grupo 1210956" transform="translate(0 -689.385)">
      <g id="Grupo_1209935" data-name="Grupo 1209935" transform="translate(0 -2945.274)">
        <g id="Grupo_1208705" data-name="Grupo 1208705" transform="translate(-1.454 3213.429)">
          <g id="Grupo_1148633" data-name="Grupo 1148633" transform="translate(71.408 600.047)">
            <g id="Grupo_1148525" data-name="Grupo 1148525" transform="translate(264.046 3721.333)">
              <g transform="matrix(1, 0, 0, 1, -9, -6)" filter="url(#Trazado_982547)">
                <g id="Trazado_982547-2" data-name="Trazado 982547" transform="translate(9 6)" fill="#ffefc0">
                  <path d="M 47.5 93.5 C 41.28937149047852 93.5 35.26533508300781 92.28397369384766 29.59518623352051 89.88570404052734 C 24.11771965026855 87.56893157958984 19.19813346862793 84.25196075439453 14.97309303283691 80.02691650390625 C 10.74804019927979 75.80186462402344 7.431066513061523 70.88229370117188 5.114293098449707 65.40481567382812 C 2.716026782989502 59.73468017578125 1.5 53.71062850952148 1.5 47.5 C 1.5 41.28937149047852 2.716026782989502 35.26533508300781 5.114293098449707 29.59518623352051 C 7.431066513061523 24.11771965026855 10.74804019927979 19.19813346862793 14.97309303283691 14.97309303283691 C 19.19813346862793 10.74804019927979 24.11771965026855 7.431066513061523 29.59518623352051 5.114293098449707 C 35.26533508300781 2.716026782989502 41.28937149047852 1.5 47.5 1.5 C 53.71062850952148 1.5 59.73468017578125 2.716026782989502 65.40481567382812 5.114293098449707 C 70.88229370117188 7.431066513061523 75.80186462402344 10.74804019927979 80.02691650390625 14.97309303283691 C 84.25196075439453 19.19813346862793 87.56893157958984 24.11771965026855 89.88570404052734 29.59518623352051 C 92.28397369384766 35.26533508300781 93.5 41.28937149047852 93.5 47.5 C 93.5 53.71062850952148 92.28397369384766 59.73468017578125 89.88570404052734 65.40481567382812 C 87.56893157958984 70.88229370117188 84.25196075439453 75.80186462402344 80.02691650390625 80.02691650390625 C 75.80186462402344 84.25196075439453 70.88229370117188 87.56893157958984 65.40481567382812 89.88570404052734 C 59.73468017578125 92.28397369384766 53.71062850952148 93.5 47.5 93.5 Z" stroke="none"/>
                  <path d="M 47.5 3 C 41.49121475219727 3 35.66376876831055 4.176155090332031 30.17950439453125 6.495796203613281 C 24.88084411621094 8.736953735351562 20.12152099609375 11.94598388671875 16.03375244140625 16.03375244140625 C 11.94598388671875 20.12152099609375 8.736953735351562 24.88084411621094 6.495796203613281 30.17950439453125 C 4.176155090332031 35.66376876831055 3 41.49121475219727 3 47.5 C 3 53.50878524780273 4.176155090332031 59.33623123168945 6.495796203613281 64.82049560546875 C 8.736953735351562 70.11915588378906 11.94598388671875 74.87847900390625 16.03375244140625 78.96624755859375 C 20.12152099609375 83.05401611328125 24.88084411621094 86.26304626464844 30.17950439453125 88.50419616699219 C 35.66376876831055 90.82384490966797 41.49121475219727 92 47.5 92 C 53.50878524780273 92 59.33623123168945 90.82384490966797 64.82049560546875 88.50419616699219 C 70.11915588378906 86.26304626464844 74.87847900390625 83.05401611328125 78.96624755859375 78.96624755859375 C 83.05401611328125 74.87847900390625 86.26304626464844 70.11915588378906 88.50419616699219 64.82049560546875 C 90.82384490966797 59.33623123168945 92 53.50878524780273 92 47.5 C 92 41.49121475219727 90.82384490966797 35.66376876831055 88.50419616699219 30.17950439453125 C 86.26304626464844 24.88084411621094 83.05401611328125 20.12152099609375 78.96624755859375 16.03375244140625 C 74.87847900390625 11.94598388671875 70.11915588378906 8.736953735351562 64.82049560546875 6.495796203613281 C 59.33623123168945 4.176155090332031 53.50878524780273 3 47.5 3 M 47.5 0 C 73.7335205078125 0 95 21.2664794921875 95 47.5 C 95 73.7335205078125 73.7335205078125 95 47.5 95 C 21.2664794921875 95 0 73.7335205078125 0 47.5 C 0 21.2664794921875 21.2664794921875 0 47.5 0 Z" stroke="none" fill="#fc3"/>
                </g>
              </g>
            </g>
          </g>
        </g>
      </g>
    </g>
    <g id="Page-1" transform="translate(342.034 3919.035)">
      <g id="_067---Analytics" data-name="067---Analytics" transform="translate(0 0)">
        <path id="Shape" d="M11.42,36.316V60.629A2.316,2.316,0,0,1,9.1,62.944H3.316A2.323,2.323,0,0,1,1,60.629V36.316A2.323,2.323,0,0,1,3.316,34H9.1A2.323,2.323,0,0,1,11.42,36.316Z" transform="translate(0.158 5.365)" fill="#02a9f4"/>
        <path id="Shape-2" data-name="Shape" d="M8.473,34H5a2.323,2.323,0,0,1,2.316,2.316V60.629A2.316,2.316,0,0,1,5,62.944H8.473a2.316,2.316,0,0,0,2.316-2.316V36.316A2.323,2.323,0,0,0,8.473,34Z" transform="translate(0.789 5.365)" fill="#0377bc"/>
        <path id="Shape-3" data-name="Shape" d="M65.241,47.08l-21.7,13.21a8.1,8.1,0,0,1-4.214,1.181H10.038l-.278-.058a2.348,2.348,0,0,0,.278-1.1V36H13.28a10.44,10.44,0,0,1,2.547.313,10.642,10.642,0,0,1,4.052,2,10.478,10.478,0,0,0,5.21,2.211,9.353,9.353,0,0,0,1.389.1h6.055a5.972,5.972,0,0,1,1.818.289A5.744,5.744,0,0,1,37.5,43.445l.1.174a4.189,4.189,0,0,1-.637,5.117h2.721a4.554,4.554,0,0,0,1.47-.243l2.454-.822,9.262-3.08L62.138,41.5l.452-.151a3.19,3.19,0,0,1,3.543,1.111v.012a3.161,3.161,0,0,1-.891,4.608Z" transform="translate(1.54 5.68)" fill="#ffe0b2"/>
        <g id="Grupo_1214385" data-name="Grupo 1214385" transform="translate(11.578 41.68)">
          <path id="Shape-4" data-name="Shape" d="M16.368,38.316a10.6,10.6,0,0,0,6.6,2.316H26.44a10.6,10.6,0,0,1-6.6-2.316A10.6,10.6,0,0,0,13.242,36H10v.01A10.6,10.6,0,0,1,16.368,38.316Z" transform="translate(-10 -36)" fill="#dfc49c"/>
          <path id="Shape-5" data-name="Shape" d="M31.4,42.813l.1.174a4.189,4.189,0,0,1-.637,5.117h2.721a4.532,4.532,0,0,0,.82-.08,4.184,4.184,0,0,0,.57-5.037l-.1-.174A5.776,5.776,0,0,0,29.9,40H26.43A5.776,5.776,0,0,1,31.4,42.813Z" transform="translate(-7.408 -35.369)" fill="#dfc49c"/>
          <path id="Shape-6" data-name="Shape" d="M62.576,41.765v-.012a3.19,3.19,0,0,0-3.543-1.111l-.867.289a3.166,3.166,0,0,1,.937.822v.012a3.161,3.161,0,0,1-.891,4.608l-21.7,13.21A8.1,8.1,0,0,1,32.3,60.764h3.473a8.1,8.1,0,0,0,4.214-1.181l21.7-13.21a3.161,3.161,0,0,0,.891-4.608Z" transform="translate(-6.482 -35.293)" fill="#dfc49c"/>
        </g>
        <path id="Shape-7" data-name="Shape" d="M56.262,8.316V46.233L47,49.324V8.316A2.323,2.323,0,0,1,49.316,6h4.631A2.323,2.323,0,0,1,56.262,8.316Z" transform="translate(7.416 0.947)" fill="#ffdc00"/>
        <path id="Shape-8" data-name="Shape" d="M53.947,6H50.473a2.323,2.323,0,0,1,2.316,2.316V46.233L47,48.165v1.158l9.262-3.091V8.316A2.323,2.323,0,0,0,53.947,6Z" transform="translate(7.416 0.947)" fill="#fec108"/>
        <path id="Shape-9" data-name="Shape" d="M48.262,18.316V47.746L39,50.826V18.316A2.323,2.323,0,0,1,41.316,16h4.631a2.323,2.323,0,0,1,2.316,2.316Z" transform="translate(6.153 2.524)" fill="#a4c400"/>
        <path id="Shape-10" data-name="Shape" d="M40.262,28.316V49.248l-2.454.822a4.554,4.554,0,0,1-1.47.243H33.617a4.189,4.189,0,0,0,.637-5.117l-.1-.174A5.744,5.744,0,0,0,31,42.5V28.316A2.322,2.322,0,0,1,33.316,26h4.631A2.323,2.323,0,0,1,40.262,28.316Z" transform="translate(4.891 4.102)" fill="#60a917"/>
        <path id="Shape-11" data-name="Shape" d="M32.262,23.316V43.287A5.972,5.972,0,0,0,30.445,43H24.389a9.353,9.353,0,0,1-1.389-.1V23.316A2.323,2.323,0,0,1,25.316,21h4.631A2.323,2.323,0,0,1,32.262,23.316Z" transform="translate(3.629 3.313)" fill="#009688"/>
        <path id="Shape-12" data-name="Shape" d="M24.262,33.316v8a10.478,10.478,0,0,1-5.21-2.211A10.642,10.642,0,0,0,15,37.1V33.316A2.323,2.323,0,0,1,17.316,31h4.631A2.323,2.323,0,0,1,24.262,33.316Z" transform="translate(2.367 4.891)" fill="#00bcd4"/>
        <path id="Shape-13" data-name="Shape" d="M43.817,2.439,40.078,17.4a1.158,1.158,0,0,1-2.05.413l-4.306-5.741L8.54,29.435a2.9,2.9,0,1,1-3.289-4.77l25-17.239L26.8,2.852A1.158,1.158,0,0,1,27.725,1H42.694a1.158,1.158,0,0,1,1.123,1.439Z" transform="translate(0.631 0.158)" fill="#f44335"/>
        <path id="Shape-14" data-name="Shape" d="M38.212,1H34.739a1.158,1.158,0,0,1,1.123,1.438L32.4,16.283l1.145,1.527A1.158,1.158,0,0,0,35.6,17.4l3.74-14.959A1.158,1.158,0,0,0,38.212,1Z" transform="translate(5.112 0.158)" fill="#c81e1e"/>
        <path id="Shape-15" data-name="Shape" d="M3.473,66.311H9.262a3.456,3.456,0,0,0,2.57-1.158H40.87a9.262,9.262,0,0,0,4.815-1.35l21.7-13.21a4.336,4.336,0,0,0,2-2.879,4.261,4.261,0,0,0-.725-3.325c-.021-.034-.043-.066-.067-.1a4.321,4.321,0,0,0-4.834-1.505L42.327,49.926a3.479,3.479,0,0,1-1.1.178h-.665a5.326,5.326,0,0,0-.431-4.558l-.1-.174A6.985,6.985,0,0,0,34.076,42H28.018a9.441,9.441,0,0,1-5.877-2.062,11.711,11.711,0,0,0-3.617-1.959V35.051a1.158,1.158,0,0,1,1.158-1.158h4.631a1.158,1.158,0,0,1,1.158,1.158v3.473a1.158,1.158,0,0,0,2.316,0V23.473a1.158,1.158,0,0,1,1.158-1.158h4.631a1.158,1.158,0,0,1,1.158,1.158,1.158,1.158,0,0,0,2.316,0A3.473,3.473,0,0,0,33.576,20H28.944a3.473,3.473,0,0,0-3.473,3.473v8.3a3.484,3.484,0,0,0-1.158-.2H19.682a3.473,3.473,0,0,0-3.473,3.473V37.46a11.605,11.605,0,0,0-1.389-.094h-2.3a3.473,3.473,0,0,0-3.26-2.316H3.473A3.473,3.473,0,0,0,0,38.524v4.631a1.158,1.158,0,0,0,2.316,0V38.524a1.158,1.158,0,0,1,1.158-1.158H9.262a1.158,1.158,0,0,1,1.158,1.158V62.838A1.158,1.158,0,0,1,9.262,64H3.473a1.158,1.158,0,0,1-1.158-1.158V48.944a1.158,1.158,0,0,0-2.316,0V62.838a3.473,3.473,0,0,0,3.473,3.473ZM20.7,41.744a11.764,11.764,0,0,0,7.323,2.569h6.056a4.654,4.654,0,0,1,3.97,2.247l.1.174a3.025,3.025,0,0,1-.174,3.368H30.942a11.538,11.538,0,0,0-6.422,1.945l-.849.565a1.158,1.158,0,0,0,1.285,1.927l.847-.565a9.238,9.238,0,0,1,5.138-1.556h10.29a5.764,5.764,0,0,0,1.832-.3L64.5,44.977a2,2,0,0,1,2.186.61c.02.034.043.066.066.1a2.013,2.013,0,0,1-.563,2.929l-21.7,13.21a6.957,6.957,0,0,1-3.612,1.013H12.736V39.682H14.82A9.441,9.441,0,0,1,20.7,41.744Z" transform="translate(0 3.156)"/>
        <path id="Shape-16" data-name="Shape" d="M58.944,42.049A1.158,1.158,0,0,0,60.1,40.891V8.473A3.473,3.473,0,0,0,56.629,5H52a3.473,3.473,0,0,0-3.473,3.473v8.317a3.434,3.434,0,0,0-1.158-.213H42.736a3.473,3.473,0,0,0-3.473,3.473v8.317a3.434,3.434,0,0,0-1.158-.213H33.473A3.473,3.473,0,0,0,30,31.629v5.789a1.158,1.158,0,0,0,2.316,0V31.629a1.158,1.158,0,0,1,1.158-1.158H38.1a1.158,1.158,0,0,1,1.158,1.158V47.838a1.158,1.158,0,0,0,2.316,0V20.051a1.158,1.158,0,0,1,1.158-1.158h4.631a1.158,1.158,0,0,1,1.158,1.158V43.207a1.158,1.158,0,0,0,2.316,0V8.473A1.158,1.158,0,0,1,52,7.316h4.631a1.158,1.158,0,0,1,1.158,1.158V40.891A1.158,1.158,0,0,0,58.944,42.049Z" transform="translate(4.733 0.789)"/>
        <path id="Shape-17" data-name="Shape" d="M3.719,29.515A4.071,4.071,0,0,0,7.051,31.26a3.992,3.992,0,0,0,2.3-.714L33.619,13.811l3.64,4.852a2.316,2.316,0,0,0,4.1-.834L45.1,2.871A2.316,2.316,0,0,0,42.85,0H27.879a2.316,2.316,0,0,0-1.852,3.711l2.722,3.605-24,16.555a4.074,4.074,0,0,0-1.03,5.644Zm2.346-3.738,25-17.241a1.158,1.158,0,0,0,.267-1.651l-3.45-4.57H42.851L39.11,17.274,34.8,11.531a1.158,1.158,0,0,0-1.587-.259L8.028,28.639a1.7,1.7,0,0,1-.977.306,1.737,1.737,0,0,1-.988-3.168Z" transform="translate(0.474 0)"/>
      </g>
    </g>
  </g>
</svg>
