<svg xmlns="http://www.w3.org/2000/svg" xmlns:xlink="http://www.w3.org/1999/xlink" width="113" height="113" viewBox="0 0 113 113">
  <defs>
    <filter id="Trazado_982547" x="0" y="0" width="113" height="113" filterUnits="userSpaceOnUse">
      <feOffset dy="3" input="SourceAlpha"/>
      <feGaussianBlur stdDeviation="3" result="blur"/>
      <feFlood flood-opacity="0.161"/>
      <feComposite operator="in" in2="blur"/>
      <feComposite in="SourceGraphic"/>
    </filter>
  </defs>
  <g id="Grupo_1214400" data-name="Grupo 1214400" transform="translate(-742.045 -3894.149)">
    <g id="Grupo_1210959" data-name="Grupo 1210959" transform="translate(0 -689.385)">
      <g id="Grupo_1209936" data-name="Grupo 1209936" transform="translate(0 -2945.274)">
        <g id="Grupo_1208706" data-name="Grupo 1208706" transform="translate(-1.454 3213.429)">
          <g id="Grupo_1148634" data-name="Grupo 1148634" transform="translate(488.454 600.047)">
            <g id="Grupo_1148525" data-name="Grupo 1148525" transform="translate(264.046 3721.333)">
              <g transform="matrix(1, 0, 0, 1, -9, -6)" filter="url(#Trazado_982547)">
                <g id="Trazado_982547-2" data-name="Trazado 982547" transform="translate(9 6)" fill="#ffefc0">
                  <path d="M 47.5 93.5 C 41.28937149047852 93.5 35.26533508300781 92.28397369384766 29.59518623352051 89.88570404052734 C 24.11771965026855 87.56893157958984 19.19813346862793 84.25196075439453 14.97309303283691 80.02691650390625 C 10.74804019927979 75.80186462402344 7.431066513061523 70.88229370117188 5.114293098449707 65.40481567382812 C 2.716026782989502 59.73468017578125 1.5 53.71062850952148 1.5 47.5 C 1.5 41.28937149047852 2.716026782989502 35.26533508300781 5.114293098449707 29.59518623352051 C 7.431066513061523 24.11771965026855 10.74804019927979 19.19813346862793 14.97309303283691 14.97309303283691 C 19.19813346862793 10.74804019927979 24.11771965026855 7.431066513061523 29.59518623352051 5.114293098449707 C 35.26533508300781 2.716026782989502 41.28937149047852 1.5 47.5 1.5 C 53.71062850952148 1.5 59.73468017578125 2.716026782989502 65.40481567382812 5.114293098449707 C 70.88229370117188 7.431066513061523 75.80186462402344 10.74804019927979 80.02691650390625 14.97309303283691 C 84.25196075439453 19.19813346862793 87.56893157958984 24.11771965026855 89.88570404052734 29.59518623352051 C 92.28397369384766 35.26533508300781 93.5 41.28937149047852 93.5 47.5 C 93.5 53.71062850952148 92.28397369384766 59.73468017578125 89.88570404052734 65.40481567382812 C 87.56893157958984 70.88229370117188 84.25196075439453 75.80186462402344 80.02691650390625 80.02691650390625 C 75.80186462402344 84.25196075439453 70.88229370117188 87.56893157958984 65.40481567382812 89.88570404052734 C 59.73468017578125 92.28397369384766 53.71062850952148 93.5 47.5 93.5 Z" stroke="none"/>
                  <path d="M 47.5 3 C 41.49121475219727 3 35.66376876831055 4.176155090332031 30.17950439453125 6.495796203613281 C 24.88084411621094 8.736953735351562 20.12152099609375 11.94598388671875 16.03375244140625 16.03375244140625 C 11.94598388671875 20.12152099609375 8.736953735351562 24.88084411621094 6.495796203613281 30.17950439453125 C 4.176155090332031 35.66376876831055 3 41.49121475219727 3 47.5 C 3 53.50878524780273 4.176155090332031 59.33623123168945 6.495796203613281 64.82049560546875 C 8.736953735351562 70.11915588378906 11.94598388671875 74.87847900390625 16.03375244140625 78.96624755859375 C 20.12152099609375 83.05401611328125 24.88084411621094 86.26304626464844 30.17950439453125 88.50419616699219 C 35.66376876831055 90.82384490966797 41.49121475219727 92 47.5 92 C 53.50878524780273 92 59.33623123168945 90.82384490966797 64.82049560546875 88.50419616699219 C 70.11915588378906 86.26304626464844 74.87847900390625 83.05401611328125 78.96624755859375 78.96624755859375 C 83.05401611328125 74.87847900390625 86.26304626464844 70.11915588378906 88.50419616699219 64.82049560546875 C 90.82384490966797 59.33623123168945 92 53.50878524780273 92 47.5 C 92 41.49121475219727 90.82384490966797 35.66376876831055 88.50419616699219 30.17950439453125 C 86.26304626464844 24.88084411621094 83.05401611328125 20.12152099609375 78.96624755859375 16.03375244140625 C 74.87847900390625 11.94598388671875 70.11915588378906 8.736953735351562 64.82049560546875 6.495796203613281 C 59.33623123168945 4.176155090332031 53.50878524780273 3 47.5 3 M 47.5 0 C 73.7335205078125 0 95 21.2664794921875 95 47.5 C 95 73.7335205078125 73.7335205078125 95 47.5 95 C 21.2664794921875 95 0 73.7335205078125 0 47.5 C 0 21.2664794921875 21.2664794921875 0 47.5 0 Z" stroke="none" fill="#fc3"/>
                </g>
              </g>
            </g>
          </g>
        </g>
      </g>
    </g>
    <g id="limite-de-tiempo" transform="translate(759.317 3893.777)">
      <g id="Grupo_1214398" data-name="Grupo 1214398" transform="translate(1.151 28.696)">
        <g id="Grupo_1214387" data-name="Grupo 1214387" transform="translate(12.375)">
          <path id="Trazado_1083925" data-name="Trazado 1083925" d="M154.906,68.43a26.283,26.283,0,0,0-18.944,8.031l2.789,4.831a21.056,21.056,0,0,1,35.088,22.716,14.251,14.251,0,0,1,5.964-.534,26.377,26.377,0,0,0-24.9-35.044Z" transform="translate(-128.653 -68.43)" fill="#fe646f"/>
          <path id="Trazado_1083926" data-name="Trazado 1083926" d="M124.037,272.569A21.061,21.061,0,0,1,93.6,256.2H88.268a26.381,26.381,0,0,0,35.33,22.348,14.226,14.226,0,0,1,.44-5.974Z" transform="translate(-88.268 -227.422)" fill="#fe646f"/>
        </g>
        <g id="Grupo_1214390" data-name="Grupo 1214390" transform="translate(47.414 34.785)">
          <g id="Grupo_1214388" data-name="Grupo 1214388">
            <path id="Trazado_1083927" data-name="Trazado 1083927" d="M331.3,295.426a14.361,14.361,0,0,0-4.341.668,21.039,21.039,0,0,1-9.429,9.58,14.373,14.373,0,1,0,13.77-10.248Z" transform="translate(-316.93 -295.426)" fill="#05e39c"/>
          </g>
          <g id="Grupo_1214389" data-name="Grupo 1214389" transform="translate(11.159)">
            <path id="Trazado_1083928" data-name="Trazado 1083928" d="M392.963,295.426a14.41,14.41,0,0,0-3.213.361,14.375,14.375,0,0,1,0,28.021,14.373,14.373,0,1,0,3.213-28.382Z" transform="translate(-389.75 -295.426)" fill="#0ed290"/>
          </g>
        </g>
        <g id="Grupo_1214393" data-name="Grupo 1214393" transform="translate(17.711 5.309)">
          <g id="Grupo_1214391" data-name="Grupo 1214391">
            <path id="Trazado_1083929" data-name="Trazado 1083929" d="M144.009,103.077a21.009,21.009,0,0,0-16.154,7.553L134.3,121.8a3.161,3.161,0,0,1-2.737,4.741h-8.473a21.054,21.054,0,1,0,20.916-23.463Z" transform="translate(-123.093 -103.077)" fill="#fff"/>
          </g>
          <g id="Grupo_1214392" data-name="Grupo 1214392" transform="translate(17.7 0)">
            <path id="Trazado_1083930" data-name="Trazado 1083930" d="M241.812,103.077a21.216,21.216,0,0,0-3.216.244,21.057,21.057,0,0,1,0,41.619,21.055,21.055,0,1,0,3.216-41.863Z" transform="translate(-238.596 -103.077)" fill="#f3f0f3"/>
          </g>
        </g>
        <g id="Grupo_1214394" data-name="Grupo 1214394" transform="translate(36.064 23.8)">
          <circle id="Elipse_14406" data-name="Elipse 14406" cx="2.563" cy="2.563" r="2.563" fill="#fe646f"/>
        </g>
        <g id="Grupo_1214397" data-name="Grupo 1214397" transform="translate(0 2.495)">
          <g id="Grupo_1214395" data-name="Grupo 1214395" transform="translate(0 0)">
            <path id="Trazado_1083931" data-name="Trazado 1083931" d="M19.4,86.366,7.963,106.17a3.314,3.314,0,0,0,2.87,4.971H33.7a3.314,3.314,0,0,0,2.87-4.971l-11.434-19.8a3.314,3.314,0,0,0-5.74,0Z" transform="translate(-7.514 -84.709)" fill="#ffd15b"/>
          </g>
          <g id="Grupo_1214396" data-name="Grupo 1214396" transform="translate(11.573)">
            <path id="Trazado_1083932" data-name="Trazado 1083932" d="M100.519,106.17l-11.434-19.8a3.314,3.314,0,0,0-5.74,0l-.31.536L94.16,106.17a3.314,3.314,0,0,1-2.87,4.971h6.359a3.314,3.314,0,0,0,2.87-4.971Z" transform="translate(-83.036 -84.709)" fill="#ffc344"/>
          </g>
        </g>
      </g>
      <g id="Grupo_1214399" data-name="Grupo 1214399" transform="translate(-0.001 21.505)">
        <path id="Trazado_1083933" data-name="Trazado 1083933" d="M345.654,45.144c.528.259,1.056.536,1.568.824a1.149,1.149,0,1,0,1.127-2c-.55-.309-1.116-.607-1.683-.885a1.149,1.149,0,1,0-1.012,2.064Z" transform="translate(-292.141 -39.675)"/>
        <path id="Trazado_1083934" data-name="Trazado 1083934" d="M381.079,67.109c.468.358.931.735,1.376,1.118a1.149,1.149,0,1,0,1.5-1.742c-.478-.411-.975-.815-1.477-1.2a1.149,1.149,0,1,0-1.4,1.824Z" transform="translate(-322.302 -58.375)"/>
        <path id="Trazado_1083935" data-name="Trazado 1083935" d="M306.588,30.628c.569.149,1.141.316,1.7.5A1.149,1.149,0,0,0,309,28.938c-.6-.195-1.217-.374-1.828-.534a1.149,1.149,0,0,0-.581,2.224Z" transform="translate(-258.88 -27.315)"/>
        <path id="Trazado_1083936" data-name="Trazado 1083936" d="M436.59,131.113a1.149,1.149,0,0,0,2.055-1.029c-.283-.566-.587-1.13-.9-1.679a1.149,1.149,0,1,0-1.993,1.145C436.043,130.06,436.326,130.586,436.59,131.113Z" transform="translate(-368.847 -111.535)"/>
        <path id="Trazado_1083937" data-name="Trazado 1083937" d="M463.144,248.929a1.147,1.147,0,0,0-1.232,1.06c-.044.587-.105,1.181-.182,1.764a1.149,1.149,0,1,0,2.279.3c.083-.626.149-1.263.2-1.893A1.149,1.149,0,0,0,463.144,248.929Z" transform="translate(-390.966 -214.076)"/>
        <path id="Trazado_1083938" data-name="Trazado 1083938" d="M412.637,96.982a1.149,1.149,0,0,0,1.812-1.415c-.389-.5-.8-.992-1.213-1.467a1.149,1.149,0,0,0-1.729,1.514c.388.443.768.9,1.131,1.367Z" transform="translate(-348.207 -82.644)"/>
        <path id="Trazado_1083939" data-name="Trazado 1083939" d="M462.979,207.022a1.149,1.149,0,0,0-1,1.28c.071.583.127,1.177.166,1.765a1.149,1.149,0,0,0,1.146,1.074l.076,0a1.149,1.149,0,0,0,1.072-1.222c-.041-.631-.1-1.269-.178-1.894A1.149,1.149,0,0,0,462.979,207.022Z" transform="translate(-391.178 -178.586)"/>
        <path id="Trazado_1083940" data-name="Trazado 1083940" d="M452.815,167.612c.186.559.359,1.131.512,1.7a1.149,1.149,0,1,0,2.219-.6c-.165-.611-.351-1.225-.55-1.826a1.149,1.149,0,1,0-2.181.726Z" transform="translate(-383.376 -143.942)"/>
        <path id="Trazado_1083941" data-name="Trazado 1083941" d="M71.795,65.115q.152-.485.29-.972a1.149,1.149,0,0,0-2.213-.622c-.036.13-.077.26-.116.391a15.4,15.4,0,0,0-3.538-1.231A27.549,27.549,0,0,0,61.46,38.124,1.149,1.149,0,1,0,59.65,39.54a25.251,25.251,0,0,1,4.266,22.823c-.324-.02-.65-.032-.979-.032a15.508,15.508,0,0,0-2.238.163A22.2,22.2,0,0,0,23.941,39.5l-1.555-2.693a25.2,25.2,0,0,1,33.708-.969,1.149,1.149,0,1,0,1.489-1.752,27.506,27.506,0,0,0-36.377.676l-1.438-2.49a4.556,4.556,0,0,0-.547-.756A31.107,31.107,0,0,1,39.778,23.8a1.149,1.149,0,0,0,0-2.3,33.4,33.4,0,0,0-22.572,8.728,4.518,4.518,0,0,0-1.3-.192,4.418,4.418,0,0,0-3.865,2.232L7.682,39.818a1.149,1.149,0,1,0,1.991,1.149l4.356-7.545a2.165,2.165,0,0,1,3.749,0l11.434,19.8a2.165,2.165,0,0,1-1.875,3.247H4.47A2.165,2.165,0,0,1,2.6,53.226l4.4-7.614A1.149,1.149,0,0,0,5,44.463L.6,52.076A4.463,4.463,0,0,0,4.47,58.771H6.43A33.554,33.554,0,0,0,39.778,88.612a1.149,1.149,0,1,0,0-2.3A31.257,31.257,0,0,1,8.743,58.771h3.774a27.528,27.528,0,0,0,35.3,22.6,15.421,15.421,0,0,0,2.362,5.318,1.149,1.149,0,1,0,1.888-1.311,13.142,13.142,0,0,1-2.353-7.53,13.279,13.279,0,0,1,.374-3.134,22.355,22.355,0,0,0,9.51-9.662,13.223,13.223,0,1,1-4.013,23.789,1.149,1.149,0,1,0-1.279,1.91A15.518,15.518,0,0,0,71.795,65.115ZM47.464,79.077A25.222,25.222,0,0,1,14.838,58.771h3.047a22.2,22.2,0,0,0,29.66,17.087,15.656,15.656,0,0,0-.129,1.993Q47.416,78.468,47.464,79.077Zm-7.687-4.114A19.913,19.913,0,0,1,20.22,58.771h7.116A4.463,4.463,0,0,0,31.2,52.076l-6.062-10.5A19.9,19.9,0,1,1,39.778,74.963Z" transform="translate(0.001 -21.505)"/>
        <path id="Trazado_1083942" data-name="Trazado 1083942" d="M366.23,361.047h.019a1.149,1.149,0,0,0,.851-.4l8.415-9.738a1.149,1.149,0,0,0-1.739-1.5l-7.573,8.765-4.8-5.2a1.149,1.149,0,1,0-1.689,1.559l5.673,6.146A1.15,1.15,0,0,0,366.23,361.047Z" transform="translate(-304.333 -298.823)"/>
        <path id="Trazado_1083943" data-name="Trazado 1083943" d="M253.233,125.672a1.149,1.149,0,0,0,1.149-1.149v-.915a1.149,1.149,0,1,0-2.3,0v.915A1.149,1.149,0,0,0,253.233,125.672Z" transform="translate(-213.455 -106.988)"/>
        <path id="Trazado_1083944" data-name="Trazado 1083944" d="M253.233,337.506a1.149,1.149,0,0,0-1.149,1.149v.915a1.149,1.149,0,1,0,2.3,0v-.915A1.149,1.149,0,0,0,253.233,337.506Z" transform="translate(-213.455 -289.082)"/>
        <path id="Trazado_1083945" data-name="Trazado 1083945" d="M356.622,234.118a1.149,1.149,0,0,0,1.149,1.149h.915a1.149,1.149,0,1,0,0-2.3h-.915A1.149,1.149,0,0,0,356.622,234.118Z" transform="translate(-301.974 -200.565)"/>
        <path id="Trazado_1083946" data-name="Trazado 1083946" d="M198.973,137.837a1.149,1.149,0,0,0-1.991,1.149l.458.793a1.149,1.149,0,1,0,1.991-1.149Z" transform="translate(-166.666 -119.524)"/>
        <path id="Trazado_1083947" data-name="Trazado 1083947" d="M306.5,324.074a1.149,1.149,0,1,0-1.991,1.149l.458.793a1.149,1.149,0,0,0,1.991-1.149Z" transform="translate(-257.713 -277.222)"/>
        <path id="Trazado_1083948" data-name="Trazado 1083948" d="M157.745,285.39l-.793.458a1.149,1.149,0,1,0,1.149,1.991l.793-.458a1.149,1.149,0,1,0-1.149-1.991Z" transform="translate(-132.415 -244.822)"/>
        <path id="Trazado_1083949" data-name="Trazado 1083949" d="M342.769,179.894a1.149,1.149,0,0,0,1.57.421l.793-.458a1.149,1.149,0,0,0-1.149-1.991l-.793.458A1.149,1.149,0,0,0,342.769,179.894Z" transform="translate(-290.113 -153.775)"/>
        <path id="Trazado_1083950" data-name="Trazado 1083950" d="M345.132,285.847l-.793-.458a1.149,1.149,0,1,0-1.149,1.991l.793.458a1.149,1.149,0,0,0,1.149-1.991Z" transform="translate(-290.113 -244.822)"/>
        <path id="Trazado_1083951" data-name="Trazado 1083951" d="M199.009,323.654a1.149,1.149,0,0,0-1.57.421l-.458.793a1.149,1.149,0,1,0,1.991,1.149l.458-.793A1.149,1.149,0,0,0,199.009,323.654Z" transform="translate(-166.665 -277.222)"/>
        <path id="Trazado_1083952" data-name="Trazado 1083952" d="M304.927,140.2a1.149,1.149,0,0,0,1.57-.421l.458-.793a1.149,1.149,0,0,0-1.991-1.149l-.458.793a1.149,1.149,0,0,0,.421,1.57Z" transform="translate(-257.713 -119.524)"/>
        <path id="Trazado_1083953" data-name="Trazado 1083953" d="M97.434,132.36a1.149,1.149,0,0,0,1.149-1.149v-8.681a1.149,1.149,0,1,0-2.3,0v8.681A1.149,1.149,0,0,0,97.434,132.36Z" transform="translate(-81.53 -106.075)"/>
        <path id="Trazado_1083954" data-name="Trazado 1083954" d="M96.285,209.825a1.149,1.149,0,0,0,2.3,0v-1.058a1.149,1.149,0,1,0-2.3,0Z" transform="translate(-81.53 -179.098)"/>
        <path id="Trazado_1083955" data-name="Trazado 1083955" d="M248.773,166.2H242.6a3.728,3.728,0,0,0-2.38-2.38v-8.554a1.149,1.149,0,0,0-2.3,0v8.554A3.712,3.712,0,1,0,242.6,168.5h6.174a1.149,1.149,0,0,0,0-2.3Zm-9.7,2.563a1.414,1.414,0,1,1,1.414-1.414A1.415,1.415,0,0,1,239.07,168.764Z" transform="translate(-199.292 -133.797)"/>
      </g>
    </g>
  </g>
</svg>
