<svg xmlns="http://www.w3.org/2000/svg" xmlns:xlink="http://www.w3.org/1999/xlink" width="190" height="172" viewBox="0 0 190 172">
  <defs>
    <clipPath id="clip-path">
      <rect id="Rect치ngulo_420204" data-name="Rect치ngulo 420204" width="190" height="172" transform="translate(180 4211)" fill="#fff" stroke="#707070" stroke-width="1" opacity="0.81"/>
    </clipPath>
  </defs>
  <g id="Enmascarar_grupo_1211465" data-name="Enmascarar grupo 1211465" transform="translate(-180 -4211)" clip-path="url(#clip-path)">
    <g id="Grupo_1214415" data-name="Grupo 1214415">
      <rect id="Rect치ngulo_420203" data-name="Rect치ngulo 420203" width="105" height="177" rx="17" transform="translate(231 4227)" fill="#fc3"/>
      <g id="document_2332923" transform="translate(205.564 4237.205)">
        <g id="Grupo_1214402" data-name="Grupo 1214402" transform="translate(11.316 7.248)">
          <path id="Trazado_1083965" data-name="Trazado 1083965" d="M125.794,92a3.232,3.232,0,0,0-2.767-.63,20.5,20.5,0,0,1-13.5-1.543l-2.1-1.021V12.16A5.14,5.14,0,0,0,102.3,7.025H16.228a5.141,5.141,0,0,0-5.135,5.135V120.13a5.14,5.14,0,0,0,5.135,5.135H94.25a21.372,21.372,0,0,0,11.961,6.268,1.008,1.008,0,0,0,.331,0c13.3-2.116,20.482-16.031,20.482-28.047v-8.93A3.242,3.242,0,0,0,125.794,92Z" transform="translate(-11.093 -7.025)" fill="#e6e7e8"/>
        </g>
        <g id="Grupo_1214414" data-name="Grupo 1214414" transform="translate(7.093 3.026)">
          <path id="Trazado_1083966" data-name="Trazado 1083966" d="M98.243,4.025H12.172A4.079,4.079,0,0,0,8.093,8.1V116.075a4.079,4.079,0,0,0,4.079,4.079H98.243a4.079,4.079,0,0,0,4.079-4.079V8.1a4.079,4.079,0,0,0-4.079-4.079Z" transform="translate(-7.037 -2.97)" fill="#ffd7e5"/>
          <g id="Grupo_1214403" data-name="Grupo 1214403" transform="translate(1.056 1.055)">
            <path id="Trazado_1083967" data-name="Trazado 1083967" d="M12.172,4.025h3.167A4.079,4.079,0,0,0,11.26,8.1V116.075a4.079,4.079,0,0,0,4.079,4.079H12.172a4.079,4.079,0,0,1-4.079-4.079V8.1a4.079,4.079,0,0,1,4.079-4.079Z" transform="translate(-8.093 -4.025)" fill="#fff"/>
          </g>
          <g id="Grupo_1214410" data-name="Grupo 1214410" transform="translate(9.332 14.473)">
            <g id="Grupo_1214404" data-name="Grupo 1214404" transform="translate(42.869 54.37)">
              <path id="Trazado_1083968" data-name="Trazado 1083968" d="M87.3,73.514H59.177a2.639,2.639,0,0,1,0-5.279H87.3a2.639,2.639,0,0,1,0,5.279Z" transform="translate(-56.538 -68.235)" fill="#0089ef"/>
            </g>
            <g id="Grupo_1214405" data-name="Grupo 1214405" transform="translate(1.584 54.37)">
              <path id="Trazado_1083969" data-name="Trazado 1083969" d="M48.192,73.514H20.071a2.639,2.639,0,0,1,0-5.279H48.193a2.639,2.639,0,1,1,0,5.279Z" transform="translate(-17.432 -68.235)" fill="#0089ef"/>
            </g>
            <g id="Grupo_1214406" data-name="Grupo 1214406" transform="translate(1.584 31.144)">
              <path id="Trazado_1083970" data-name="Trazado 1083970" d="M89.478,51.514H20.071a2.639,2.639,0,1,1,0-5.279H89.478a2.639,2.639,0,0,1,0,5.279Z" transform="translate(-17.432 -46.235)" fill="#6dc9f7"/>
            </g>
            <g id="Grupo_1214407" data-name="Grupo 1214407">
              <path id="Trazado_1083971" data-name="Trazado 1083971" d="M89.561,25.181H20.155a4.223,4.223,0,0,1,0-8.446H89.561a4.223,4.223,0,0,1,0,8.446Z" transform="translate(-15.932 -16.735)" fill="#fa759e"/>
            </g>
            <g id="Grupo_1214408" data-name="Grupo 1214408" transform="translate(0 15.836)">
              <path id="Trazado_1083972" data-name="Trazado 1083972" d="M89.561,40.181H20.155a4.223,4.223,0,1,1,0-8.446H89.561a4.223,4.223,0,0,1,0,8.446Z" transform="translate(-15.932 -31.735)" fill="#fa759e"/>
            </g>
            <g id="Grupo_1214409" data-name="Grupo 1214409" transform="translate(1.584 41.701)">
              <path id="Trazado_1083973" data-name="Trazado 1083973" d="M68.363,61.514H20.071a2.639,2.639,0,0,1,0-5.279H68.363a2.639,2.639,0,0,1,0,5.279Z" transform="translate(-17.432 -56.235)" fill="#6dc9f7"/>
            </g>
          </g>
          <g id="Grupo_1214412" data-name="Grupo 1214412">
            <path id="Trazado_1083974" data-name="Trazado 1083974" d="M115.267,84.047a21.478,21.478,0,0,1-14.193-1.622l-2.692-1.31-2.692,1.31A21.477,21.477,0,0,1,81.5,84.047,2.213,2.213,0,0,0,78.79,86.2v8.93c0,12.293,7.452,25.075,19.592,27.007,12.14-1.932,19.592-14.714,19.592-27.007V86.2a2.213,2.213,0,0,0-2.707-2.157Z" transform="translate(-3.098 1.325)" fill="#0089ef"/>
            <g id="Grupo_1214411" data-name="Grupo 1214411">
              <path id="Trazado_1083975" data-name="Trazado 1083975" d="M33.614,113.025H27.777a1.056,1.056,0,0,0,0,2.111h5.837a1.056,1.056,0,0,0,0-2.111Z" transform="translate(-5.999 3.104)" fill="#3a2c60"/>
              <path id="Trazado_1083976" data-name="Trazado 1083976" d="M19.988,81.1H48.109a1.056,1.056,0,0,0,0-2.111H19.988a1.056,1.056,0,0,0,0,2.111Z" transform="translate(-6.433 1.207)" fill="#3a2c60"/>
              <path id="Trazado_1083977" data-name="Trazado 1083977" d="M19.988,88.345H48.109a1.056,1.056,0,0,0,0-2.111H19.988a1.056,1.056,0,0,0,0,2.111Z" transform="translate(-6.433 1.611)" fill="#3a2c60"/>
              <path id="Trazado_1083978" data-name="Trazado 1083978" d="M19.988,95.6H48.109a1.056,1.056,0,0,0,0-2.111H19.988a1.056,1.056,0,0,0,0,2.111Z" transform="translate(-6.433 2.015)" fill="#3a2c60"/>
              <path id="Trazado_1083979" data-name="Trazado 1083979" d="M19.988,102.844H48.109a1.056,1.056,0,0,0,0-2.111H19.988a1.056,1.056,0,0,0,0,2.111Z" transform="translate(-6.433 2.419)" fill="#3a2c60"/>
              <path id="Trazado_1083980" data-name="Trazado 1083980" d="M59.094,81.1H87.215a1.056,1.056,0,0,0,0-2.111H59.094a1.056,1.056,0,0,0,0,2.111Z" transform="translate(-4.254 1.207)" fill="#3a2c60"/>
              <path id="Trazado_1083981" data-name="Trazado 1083981" d="M121.794,88a3.24,3.24,0,0,0-2.768-.63,20.507,20.507,0,0,1-13.494-1.542l-2.1-1.022V8.161A5.14,5.14,0,0,0,98.3,3.026H12.228A5.141,5.141,0,0,0,7.093,8.161v107.97a5.14,5.14,0,0,0,5.135,5.135H24.735a1.056,1.056,0,0,0,0-2.111H12.228A3.027,3.027,0,0,1,9.2,116.131V8.161a3.027,3.027,0,0,1,3.024-3.024H98.3a3.027,3.027,0,0,1,3.024,3.024V84.807l-2.1,1.022a20.5,20.5,0,0,1-13.5,1.542,3.27,3.27,0,0,0-4,3.186v.316h-19.8a1.056,1.056,0,0,0,0,2.111h19.8v5.543h-19.8a1.056,1.056,0,0,0,0,2.111H81.752a32.85,32.85,0,0,0,.693,5.541H61.932a1.056,1.056,0,0,0,0,2.111H82.963a31.04,31.04,0,0,0,5.415,10.866H38.811a1.056,1.056,0,0,0,0,2.111H90.25a21.372,21.372,0,0,0,11.961,6.268,1.008,1.008,0,0,0,.331,0c13.3-2.116,20.481-16.03,20.481-28.047v-8.93A3.243,3.243,0,0,0,121.794,88Zm-.88,11.486c0,11.094-6.495,23.912-18.536,25.935C90.336,123.4,83.84,110.579,83.84,99.487v-8.93A1.157,1.157,0,0,1,84.995,89.4a1.212,1.212,0,0,1,.261.03,22.612,22.612,0,0,0,14.891-1.7l2.23-1.085,2.23,1.085a22.616,22.616,0,0,0,14.89,1.7,1.157,1.157,0,0,1,1.416,1.128v8.93Z" transform="translate(-7.093 -3.026)" fill="#3a2c60"/>
            </g>
          </g>
          <g id="Grupo_1214413" data-name="Grupo 1214413" transform="translate(84.388 92.885)">
            <path id="Trazado_1083982" data-name="Trazado 1083982" d="M97.617,111.3a2.512,2.512,0,0,1-1.608-.58l-8.07-6.686a2.521,2.521,0,0,1,3.217-3.882l5.935,4.918,8.82-12.96a2.521,2.521,0,1,1,4.169,2.837L99.7,110.2a2.526,2.526,0,0,1-1.731,1.078A2.5,2.5,0,0,1,97.617,111.3Z" transform="translate(-87.027 -91.008)" fill="#d4fbff"/>
          </g>
        </g>
      </g>
    </g>
  </g>
</svg>
