<svg xmlns="http://www.w3.org/2000/svg" xmlns:xlink="http://www.w3.org/1999/xlink" width="190" height="141" viewBox="0 0 190 141">
  <defs>
    <clipPath id="clip-path">
      <rect id="Rectángulo_420206" data-name="Rectángulo 420206" width="190" height="141" transform="translate(180 4953)" fill="#fff" stroke="#707070" stroke-width="1"/>
    </clipPath>
  </defs>
  <g id="Enmascarar_grupo_1211466" data-name="Enmascarar grupo 1211466" transform="translate(-180 -4953)" clip-path="url(#clip-path)">
    <g id="Grupo_1214418" data-name="Grupo 1214418" transform="translate(4.183 5.937)">
      <rect id="Rectángulo_420205" data-name="Rectángulo 420205" width="101" height="153" rx="19" transform="translate(205.816 4962.063)" fill="#fc3"/>
      <g id="global-shipping_9368335" transform="translate(224.547 4974.491)">
        <g id="Grupo_1214416" data-name="Grupo 1214416" transform="translate(0 0)">
          <ellipse id="Elipse_14407" data-name="Elipse 14407" cx="56" cy="56.5" rx="56" ry="56.5" transform="translate(0.269 -0.427)" fill="#6bd9e7"/>
          <path id="Trazado_1083983" data-name="Trazado 1083983" d="M300.094,11.4a58.369,58.369,0,0,1,0,110.364,56.073,56.073,0,0,0,0-110.364Z" transform="translate(-234.084 -10.521)" fill="#02c7dd"/>
          <path id="Trazado_1083984" data-name="Trazado 1083984" d="M7.5,371.115a2.256,2.256,0,0,0,2.256,2.256H41.189a2.256,2.256,0,0,0,2.256-2.256V337.426a2.256,2.256,0,0,0-2.256-2.256H30.912L26.6,336.994l-4.312-1.824H9.756A2.256,2.256,0,0,0,7.5,337.426Z" transform="translate(-7.5 -261.247)" fill="#ffe177"/>
          <path id="Trazado_1083985" data-name="Trazado 1083985" d="M73.052,335.17v8.824a.8.8,0,0,0,1.3.621l2.5-2.034a.8.8,0,0,1,1.009,0l2.5,2.034a.8.8,0,0,0,1.3-.621V335.17Z" transform="translate(-58.263 -261.247)" fill="#ff992b"/>
          <path id="Trazado_1083986" data-name="Trazado 1083986" d="M139.086,337.426a2.256,2.256,0,0,0-2.256-2.256H143.6a2.256,2.256,0,0,1,2.256,2.256v33.689a2.256,2.256,0,0,1-2.256,2.256H136.83a2.256,2.256,0,0,0,2.256-2.256Z" transform="translate(-107.653 -261.247)" fill="#ffc344"/>
          <path id="Trazado_1083987" data-name="Trazado 1083987" d="M371.749,30.982,381.515,47.9c.678,1.174,4.38.449,5.058-.726l9.219-16.189c5.844-10.122.8-22.55-10.893-22.55h0a15.691,15.691,0,0,0-3.384.143A15.2,15.2,0,0,0,371.749,30.982Z" transform="translate(-287.981 -8.207)" fill="#ff7bba"/>
          <path id="Trazado_1083988" data-name="Trazado 1083988" d="M425.48,7.5h0a15.5,15.5,0,0,0-3.384.371,15.2,15.2,0,0,1,9.765,22.4L422.1,47.19l1.858,3.219a1.762,1.762,0,0,0,3.051,0l11.624-20.133A15.184,15.184,0,0,0,425.48,7.5Z" transform="translate(-328.563 -7.5)" fill="#fe3d97"/>
          <path id="Trazado_1083989" data-name="Trazado 1083989" d="M414.314,46.67c0,4.66-1.522,8.213-6.182,8.213a8.245,8.245,0,1,1,0-16.425C412.792,38.457,414.314,42.01,414.314,46.67Z" transform="translate(-311.214 -31.464)" fill="#f2fbff"/>
          <path id="Trazado_1083990" data-name="Trazado 1083990" d="M428.19,37.5a8.429,8.429,0,0,0-2.594.408,8.439,8.439,0,0,1,0,16.06A8.438,8.438,0,1,0,428.19,37.5Z" transform="translate(-331.273 -30.732)" fill="#c8effe"/>
        </g>
        <g id="Grupo_1214417" data-name="Grupo 1214417" transform="translate(0 0)">
          <line id="Línea_647" data-name="Línea 647" x2="73.417" transform="translate(10.351 24.242)" fill="none" stroke="#000" stroke-linecap="round" stroke-linejoin="round" stroke-miterlimit="10" stroke-width="2"/>
          <line id="Línea_648" data-name="Línea 648" x2="111.251" transform="translate(0.451 56.062)" fill="none" stroke="#000" stroke-linecap="round" stroke-linejoin="round" stroke-miterlimit="10" stroke-width="2"/>
          <line id="Línea_649" data-name="Línea 649" x2="62.895" transform="translate(38.878 87.881)" fill="none" stroke="#000" stroke-linecap="round" stroke-linejoin="round" stroke-miterlimit="10" stroke-width="2"/>
          <path id="Trazado_1083991" data-name="Trazado 1083991" d="M73.052,337.17v8.373a.8.8,0,0,0,1.3.621l2.5-2.034a.8.8,0,0,1,1.009,0l2.5,2.034a.8.8,0,0,0,1.3-.621V337.17" transform="translate(-58.263 -262.796)" fill="none" stroke="#000" stroke-linecap="round" stroke-linejoin="round" stroke-miterlimit="10" stroke-width="2"/>
          <line id="Línea_650" data-name="Línea 650" x2="7.146" transform="translate(6.768 105.356)" fill="none" stroke="#000" stroke-linecap="round" stroke-linejoin="round" stroke-miterlimit="10" stroke-width="2"/>
          <ellipse id="Elipse_14408" data-name="Elipse 14408" cx="8.438" cy="8.438" rx="8.438" ry="8.438" transform="translate(87.255 22.211) rotate(-80.962)" fill="none" stroke="#000" stroke-linecap="round" stroke-linejoin="round" stroke-miterlimit="10" stroke-width="2"/>
          <path id="Trazado_1083992" data-name="Trazado 1083992" d="M177.6,221.343a56.088,56.088,0,0,0,67.575-78.814" transform="translate(-139.229 -112.066)" fill="none" stroke="#000" stroke-linecap="round" stroke-linejoin="round" stroke-miterlimit="10" stroke-width="2"/>
          <path id="Trazado_1083993" data-name="Trazado 1083993" d="M7.5,358.686v12.429a2.256,2.256,0,0,0,2.256,2.256H43.445a2.256,2.256,0,0,0,2.256-2.256V337.426a2.256,2.256,0,0,0-2.256-2.256H9.756A2.256,2.256,0,0,0,7.5,337.426v13.886" transform="translate(-7.5 -261.247)" fill="none" stroke="#000" stroke-linecap="round" stroke-linejoin="round" stroke-miterlimit="10" stroke-width="2"/>
          <path id="Trazado_1083994" data-name="Trazado 1083994" d="M23.7,81.288a56.146,56.146,0,0,0-13.334,57.144" transform="translate(-7.5 -64.641)" fill="none" stroke="#000" stroke-linecap="round" stroke-linejoin="round" stroke-miterlimit="10" stroke-width="2"/>
          <path id="Trazado_1083995" data-name="Trazado 1083995" d="M165.831,14.814a56.1,56.1,0,0,0-62.047,4.431" transform="translate(-82.062 -7.5)" fill="none" stroke="#000" stroke-linecap="round" stroke-linejoin="round" stroke-miterlimit="10" stroke-width="2"/>
          <path id="Trazado_1083996" data-name="Trazado 1083996" d="M374.646,35.292l-2.9-5.016A15.184,15.184,0,0,1,384.9,7.5h0a15.184,15.184,0,0,1,13.149,22.775L386.425,50.408a1.762,1.762,0,0,1-3.052,0l-5.02-8.694" transform="translate(-287.981 -7.5)" fill="none" stroke="#000" stroke-linecap="round" stroke-linejoin="round" stroke-miterlimit="10" stroke-width="2"/>
          <path id="Trazado_1083997" data-name="Trazado 1083997" d="M141.951,106.822c4.845,8,11.057,12.8,17.83,12.8,15.481,0,28.031-25.1,28.031-56.062S175.262,7.5,159.781,7.5,131.75,32.6,131.75,63.562a108.283,108.283,0,0,0,1.423,17.685" transform="translate(-103.719 -7.5)" fill="none" stroke="#000" stroke-linecap="round" stroke-linejoin="round" stroke-miterlimit="10" stroke-width="2"/>
        </g>
      </g>
    </g>
  </g>
</svg>
